<svg width="186" height="96" viewBox="0 0 186 96" fill="none" xmlns="http://www.w3.org/2000/svg">
<rect x="0.109375" y="0.0249023" width="185.6" height="95.8584" fill="#1A1A1A"/>
<mask id="mask0" mask-type="alpha" maskUnits="userSpaceOnUse" x="0" y="0" width="186" height="96">
<rect x="0.109375" y="0.0249023" width="185.6" height="95.8584" fill="#C4C4C4"/>
</mask>
<g mask="url(#mask0)">
<path d="M90.8041 159.533C79.1097 159.533 69.606 148.949 69.606 135.925C69.606 130.977 70.9637 126.303 73.4939 122.283L-42.9258 -7.40316L-42.7406 -7.84989C-42.6481 -8.09043 -33.2987 -30.4951 -12.2549 -52.5906C0.118337 -65.5798 14.0344 -75.9231 29.123 -83.3455C47.976 -92.6236 68.7421 -97.3313 90.8041 -97.3313C112.866 -97.3313 133.663 -92.6236 152.578 -83.3455C167.728 -75.9231 181.706 -65.5798 194.172 -52.5562C215.37 -30.4264 224.904 -7.98734 224.997 -7.78116L225.182 -7.33444L224.873 -6.99081L108.33 122.661C110.737 126.578 112.002 131.149 112.002 135.925C112.002 148.949 102.499 159.533 90.8041 159.533ZM-41.4447 -7.71244L75.1293 122.18L74.8207 122.661C72.2288 126.51 70.8711 131.114 70.8711 135.96C70.8711 148.227 79.8194 158.192 90.835 158.192C101.851 158.192 110.799 148.227 110.799 135.96C110.799 131.286 109.503 126.785 107.065 123.005L106.757 122.524L107.127 122.111L223.701 -7.64371C222.282 -10.8395 212.747 -31.3542 193.308 -51.6284C173.899 -71.8339 140.359 -95.9568 90.8041 -95.9568C41.2494 -95.9568 7.86319 -71.8339 -11.391 -51.5941C-30.676 -31.3542 -40.0562 -10.9082 -41.4447 -7.71244Z" fill="#E1E1E1" fill-opacity="0.5"/>
<path d="M90.8686 90.7723C84.1728 90.7723 78.7422 84.7244 78.7422 77.2676C78.7422 69.8108 84.1728 63.7629 90.8686 63.7629C97.5644 63.7629 102.995 69.8108 102.995 77.2676C102.995 84.7244 97.5644 90.7723 90.8686 90.7723ZM90.8686 64.4158C84.5123 64.4158 79.3593 70.1545 79.3593 77.2333C79.3593 84.3121 84.5123 90.0507 90.8686 90.0507C97.2249 90.0507 102.378 84.3121 102.378 77.2333C102.378 70.1545 97.2249 64.4158 90.8686 64.4158Z" fill="#E1E1E1" fill-opacity="0.5"/>
<path d="M90.8622 80.0846C92.2596 80.0846 93.3924 78.8231 93.3924 77.2669C93.3924 75.7107 92.2596 74.4491 90.8622 74.4491C89.4648 74.4491 88.332 75.7107 88.332 77.2669C88.332 78.8231 89.4648 80.0846 90.8622 80.0846Z" fill="#E1E1E1" fill-opacity="0.5"/>
<path d="M172.824 49.8106C172.762 49.6732 166.622 36.2372 153.508 22.9387C141.444 10.7054 120.801 -3.89886 91.1484 -3.89886C61.4649 -3.89886 40.6679 10.5336 28.4181 22.5951C15.1809 35.6874 8.8554 48.9515 8.79369 49.089L8.23828 48.7797C8.29999 48.6423 14.6563 35.275 27.9861 22.0796C35.8235 14.3479 44.4941 8.16258 53.7509 3.72975C65.3527 -1.80271 77.9111 -4.62048 91.0866 -4.62048C104.293 -4.62048 116.821 -1.76835 128.33 3.83283C137.556 8.33439 146.134 14.5885 153.879 22.4232C167.054 35.7905 173.256 49.3295 173.318 49.467L172.824 49.8106Z" fill="#E1E1E1" fill-opacity="0.5"/>
<path d="M48.4988 93.5209L48.0977 93.0054C53.3123 87.9197 55.9968 82.559 56.0894 77.1297C56.1511 73.5215 55.102 68.0235 49.6405 62.1817L49.4862 62.0099C48.9925 61.4601 48.7456 60.9103 48.8073 60.3605C48.8691 59.6732 49.301 59.2265 49.4245 59.1234C50.6278 57.7833 74.1401 31.5642 74.9115 30.7739C75.4361 30.2241 75.9298 30.1554 76.2383 30.1897C76.6086 30.2241 76.948 30.4646 77.164 30.8083C83.5512 38.9179 91.0492 38.265 91.1109 38.265L91.1726 38.9523C91.0801 38.9523 83.2735 39.6396 76.7012 31.255L76.6703 31.2206C76.6086 31.1175 76.4235 30.9113 76.1766 30.877C75.9298 30.8426 75.6212 30.9801 75.3435 31.2893C74.5721 32.0797 50.1033 59.364 49.8565 59.6389L49.8256 59.6732C49.8256 59.6732 49.4553 59.9825 49.4553 60.4292C49.4245 60.7728 49.6096 61.1508 49.949 61.5288L50.1033 61.7006C55.7191 67.6798 56.8299 73.4184 56.7373 77.164C56.6139 82.7996 53.8369 88.2977 48.4988 93.5209Z" fill="#E1E1E1" fill-opacity="0.5"/>
<path d="M133.659 93.5211C128.321 88.2979 125.543 82.7998 125.451 77.1299C125.389 73.3844 126.469 67.6801 132.085 61.6665L132.239 61.4947C132.61 61.1167 132.764 60.7387 132.733 60.3607C132.702 59.914 132.363 59.6048 132.363 59.6048L132.332 59.5704C132.085 59.2955 107.616 32.0112 106.845 31.2209C106.567 30.9116 106.258 30.7741 106.012 30.8085C105.734 30.8429 105.58 31.049 105.518 31.1521L105.487 31.1865C98.8839 39.5711 91.0773 38.8838 91.0156 38.8838L91.0773 38.1966C91.139 38.1966 98.6679 38.8495 105.024 30.7398C105.24 30.3962 105.58 30.1556 105.95 30.1212C106.258 30.0869 106.721 30.1556 107.277 30.7054C108.048 31.4958 131.56 57.7492 132.764 59.0549C132.887 59.158 133.319 59.6048 133.381 60.292C133.412 60.8418 133.196 61.426 132.702 61.9414L132.548 62.1133C127.086 67.9206 126.037 73.4531 126.099 77.0612C126.191 82.4906 128.907 87.8512 134.091 92.9369L133.659 93.5211Z" fill="#E1E1E1" fill-opacity="0.5"/>
<path d="M32.2617 75.3772L36.1804 70.8069L37.5072 72.1814L33.5268 76.8204L32.2617 75.3772Z" fill="#E1E1E1" fill-opacity="0.5"/>
<path d="M33.5315 77.0612L32.0195 75.3774L36.1542 70.5322L37.697 72.1473L33.5315 77.0612ZM32.4824 75.3774L33.5315 76.5458L37.2651 72.1816L36.1542 71.0133L32.4824 75.3774Z" fill="#E1E1E1" fill-opacity="0.5"/>
<path d="M149.98 75.3764L146.061 70.8062L144.734 72.1807L148.684 76.8197L149.98 75.3764Z" fill="#E1E1E1" fill-opacity="0.5"/>
<path d="M148.689 77.06L144.523 72.1805L146.066 70.5654L150.201 75.4106L148.689 77.06ZM144.955 72.2149L148.689 76.579L149.738 75.4106L146.035 71.0809L144.955 72.2149Z" fill="#E1E1E1" fill-opacity="0.5"/>
<path d="M94.709 13.5278L91.2617 9.68872L87.8144 13.5278L91.2617 17.3669L94.709 13.5278Z" fill="#E1E1E1" fill-opacity="0.5"/>
<path d="M27.7361 93.5891L27.3041 93.1081L30.4823 89.5L22.3055 80.5312L19.1273 84.105L18.6953 83.6239L22.3055 79.5347L31.3463 89.5L27.7361 93.5891Z" fill="#E1E1E1" fill-opacity="0.5"/>
<path d="M154.52 93.5891L150.879 89.5L159.92 79.5347L163.53 83.6239L163.098 84.105L159.92 80.5312L151.774 89.5L154.952 93.1081L154.52 93.5891Z" fill="#E1E1E1" fill-opacity="0.5"/>
</g>
<path d="M81.5968 59.7119V45.6119H81.4468L76.1068 59.7119H73.1668L67.8568 45.6119H67.7068V59.7119H63.7168V39.0719H69.5968L74.6368 52.3019H74.8168L79.8568 39.0719H85.7068V59.7119H81.5968ZM90.6707 59.7119V39.0719H94.9307V55.8419H103.661V59.7119H90.6707ZM106.901 39.0719H116.981C118.981 39.0719 120.451 39.5119 121.391 40.3919C122.331 41.2519 122.801 42.5419 122.801 44.2619C122.801 45.7019 122.521 46.8019 121.961 47.5619C121.401 48.3219 120.501 48.8419 119.261 49.1219V49.2419C120.621 49.5219 121.581 50.0419 122.141 50.8019C122.721 51.5619 123.011 52.7019 123.011 54.2219C123.011 56.0019 122.551 57.3619 121.631 58.3019C120.731 59.2419 119.181 59.7119 116.981 59.7119H106.901V39.0719ZM115.451 47.4419C116.611 47.4419 117.401 47.2819 117.821 46.9619C118.261 46.6219 118.481 46.0119 118.481 45.1319C118.481 44.4719 118.401 43.9819 118.241 43.6619C118.081 43.3219 117.791 43.0919 117.371 42.9719C116.951 42.8319 116.311 42.7619 115.451 42.7619H111.161V47.4419H115.451ZM115.601 56.0219C116.441 56.0219 117.081 55.9519 117.521 55.8119C117.961 55.6719 118.261 55.4319 118.421 55.0919C118.601 54.7519 118.691 54.2519 118.691 53.5919C118.691 52.9319 118.601 52.4319 118.421 52.0919C118.241 51.7319 117.931 51.4819 117.491 51.3419C117.071 51.2019 116.441 51.1319 115.601 51.1319H111.161V56.0219H115.601Z" fill="white"/>
<path d="M81.5968 59.7119H80.5968V60.7119H81.5968V59.7119ZM81.5968 45.6119H82.5968V44.6119H81.5968V45.6119ZM81.4468 45.6119V44.6119H80.7562L80.5117 45.2577L81.4468 45.6119ZM76.1068 59.7119V60.7119H76.7974L77.042 60.0661L76.1068 59.7119ZM73.1668 59.7119L72.231 60.0643L72.4749 60.7119H73.1668V59.7119ZM67.8568 45.6119L68.7927 45.2595L68.5488 44.6119H67.8568V45.6119ZM67.7068 45.6119V44.6119H66.7068V45.6119H67.7068ZM67.7068 59.7119V60.7119H68.7068V59.7119H67.7068ZM63.7168 59.7119H62.7168V60.7119H63.7168V59.7119ZM63.7168 39.0719V38.0719H62.7168V39.0719H63.7168ZM69.5968 39.0719L70.5313 38.7159L70.286 38.0719H69.5968V39.0719ZM74.6368 52.3019L73.7023 52.6579L73.9477 53.3019H74.6368V52.3019ZM74.8168 52.3019V53.3019H75.506L75.7513 52.6579L74.8168 52.3019ZM79.8568 39.0719V38.0719H79.1677L78.9223 38.7159L79.8568 39.0719ZM85.7068 39.0719H86.7068V38.0719H85.7068V39.0719ZM85.7068 59.7119V60.7119H86.7068V59.7119H85.7068ZM82.5968 59.7119V45.6119H80.5968V59.7119H82.5968ZM81.5968 44.6119H81.4468V46.6119H81.5968V44.6119ZM80.5117 45.2577L75.1717 59.3577L77.042 60.0661L82.382 45.9661L80.5117 45.2577ZM76.1068 58.7119H73.1668V60.7119H76.1068V58.7119ZM74.1027 59.3595L68.7927 45.2595L66.921 45.9643L72.231 60.0643L74.1027 59.3595ZM67.8568 44.6119H67.7068V46.6119H67.8568V44.6119ZM66.7068 45.6119V59.7119H68.7068V45.6119H66.7068ZM67.7068 58.7119H63.7168V60.7119H67.7068V58.7119ZM64.7168 59.7119V39.0719H62.7168V59.7119H64.7168ZM63.7168 40.0719H69.5968V38.0719H63.7168V40.0719ZM68.6623 39.4279L73.7023 52.6579L75.5713 51.9459L70.5313 38.7159L68.6623 39.4279ZM74.6368 53.3019H74.8168V51.3019H74.6368V53.3019ZM75.7513 52.6579L80.7913 39.4279L78.9223 38.7159L73.8823 51.9459L75.7513 52.6579ZM79.8568 40.0719H85.7068V38.0719H79.8568V40.0719ZM84.7068 39.0719V59.7119H86.7068V39.0719H84.7068ZM85.7068 58.7119H81.5968V60.7119H85.7068V58.7119ZM90.6707 59.7119H89.6707V60.7119H90.6707V59.7119ZM90.6707 39.0719V38.0719H89.6707V39.0719H90.6707ZM94.9307 39.0719H95.9307V38.0719H94.9307V39.0719ZM94.9307 55.8419H93.9307V56.8419H94.9307V55.8419ZM103.661 55.8419H104.661V54.8419H103.661V55.8419ZM103.661 59.7119V60.7119H104.661V59.7119H103.661ZM91.6707 59.7119V39.0719H89.6707V59.7119H91.6707ZM90.6707 40.0719H94.9307V38.0719H90.6707V40.0719ZM93.9307 39.0719V55.8419H95.9307V39.0719H93.9307ZM94.9307 56.8419H103.661V54.8419H94.9307V56.8419ZM102.661 55.8419V59.7119H104.661V55.8419H102.661ZM103.661 58.7119H90.6707V60.7119H103.661V58.7119ZM106.901 39.0719V38.0719H105.901V39.0719H106.901ZM121.391 40.3919L120.708 41.122L120.716 41.1297L121.391 40.3919ZM121.961 47.5619L121.156 46.9687L121.156 46.9687L121.961 47.5619ZM119.261 49.1219L119.041 48.1465L118.261 48.3225V49.1219H119.261ZM119.261 49.2419H118.261V50.057L119.059 50.2214L119.261 49.2419ZM122.141 50.8019L121.336 51.3951L121.341 51.4019L121.346 51.4086L122.141 50.8019ZM121.631 58.3019L120.916 57.6024L120.909 57.6103L121.631 58.3019ZM106.901 59.7119H105.901V60.7119H106.901V59.7119ZM117.821 46.9619L118.427 47.7574L118.433 47.7532L117.821 46.9619ZM118.241 43.6619L117.336 44.0877L117.341 44.0985L117.347 44.1091L118.241 43.6619ZM117.371 42.9719L117.055 43.9206L117.076 43.9275L117.096 43.9334L117.371 42.9719ZM111.161 42.7619V41.7619H110.161V42.7619H111.161ZM111.161 47.4419H110.161V48.4419H111.161V47.4419ZM117.521 55.8119L117.218 54.859L117.218 54.859L117.521 55.8119ZM118.421 55.0919L117.537 54.624L117.526 54.6448L117.516 54.6661L118.421 55.0919ZM118.421 52.0919L117.527 52.5391L117.532 52.5495L117.537 52.5598L118.421 52.0919ZM117.491 51.3419L117.175 52.2907L117.188 52.2948L117.491 51.3419ZM111.161 51.1319V50.1319H110.161V51.1319H111.161ZM111.161 56.0219H110.161V57.0219H111.161V56.0219ZM106.901 40.0719H116.981V38.0719H106.901V40.0719ZM116.981 40.0719C118.863 40.0719 120.033 40.4899 120.708 41.1219L122.075 39.6619C120.87 38.5339 119.099 38.0719 116.981 38.0719V40.0719ZM120.716 41.1297C121.384 41.7407 121.801 42.7201 121.801 44.2619H123.801C123.801 42.3637 123.278 40.7631 122.066 39.6541L120.716 41.1297ZM121.801 44.2619C121.801 45.5941 121.539 46.4496 121.156 46.9687L122.766 48.1551C123.504 47.1542 123.801 45.8097 123.801 44.2619H121.801ZM121.156 46.9687C120.782 47.4768 120.128 47.9009 119.041 48.1465L119.481 50.0974C120.874 49.7829 122.021 49.167 122.766 48.1551L121.156 46.9687ZM118.261 49.1219V49.2419H120.261V49.1219H118.261ZM119.059 50.2214C120.289 50.4746 120.979 50.9098 121.336 51.3951L122.946 50.2087C122.184 49.174 120.953 48.5693 119.463 48.2625L119.059 50.2214ZM121.346 51.4086C121.735 51.9182 122.011 52.8008 122.011 54.2219H124.011C124.011 52.603 123.707 51.2056 122.936 50.1952L121.346 51.4086ZM122.011 54.2219C122.011 55.835 121.597 56.9075 120.916 57.6025L122.346 59.0014C123.506 57.8163 124.011 56.1688 124.011 54.2219H122.011ZM120.909 57.6103C120.293 58.2538 119.087 58.7119 116.981 58.7119V60.7119C119.276 60.7119 121.17 60.23 122.353 58.9935L120.909 57.6103ZM116.981 58.7119H106.901V60.7119H116.981V58.7119ZM107.901 59.7119V39.0719H105.901V59.7119H107.901ZM115.451 48.4419C116.071 48.4419 116.63 48.3996 117.112 48.302C117.584 48.2064 118.05 48.0444 118.427 47.7573L117.215 46.1665C117.172 46.1994 117.033 46.2775 116.715 46.3418C116.407 46.4042 115.991 46.4419 115.451 46.4419V48.4419ZM118.433 47.7532C119.232 47.1351 119.481 46.1397 119.481 45.1319H117.481C117.481 45.8841 117.29 46.1087 117.21 46.1706L118.433 47.7532ZM119.481 45.1319C119.481 44.4267 119.401 43.7465 119.136 43.2147L117.347 44.1091C117.401 44.2173 117.481 44.5171 117.481 45.1319H119.481ZM119.146 43.2361C118.843 42.5915 118.294 42.1954 117.646 42.0104L117.096 43.9334C117.289 43.9884 117.32 44.0523 117.336 44.0877L119.146 43.2361ZM117.687 42.0232C117.11 41.8306 116.337 41.7619 115.451 41.7619V43.7619C116.285 43.7619 116.793 43.8332 117.055 43.9206L117.687 42.0232ZM115.451 41.7619H111.161V43.7619H115.451V41.7619ZM110.161 42.7619V47.4419H112.161V42.7619H110.161ZM111.161 48.4419H115.451V46.4419H111.161V48.4419ZM115.601 57.0219C116.474 57.0219 117.237 56.9518 117.824 56.7648L117.218 54.859C116.926 54.952 116.408 55.0219 115.601 55.0219V57.0219ZM117.824 56.7648C118.464 56.5612 119.021 56.1653 119.326 55.5177L117.516 54.6661C117.501 54.6985 117.458 54.7826 117.218 54.859L117.824 56.7648ZM119.305 55.5598C119.598 55.0068 119.691 54.3135 119.691 53.5919H117.691C117.691 54.1903 117.605 54.497 117.537 54.624L119.305 55.5598ZM119.691 53.5919C119.691 52.8703 119.598 52.177 119.305 51.624L117.537 52.5598C117.605 52.6868 117.691 52.9935 117.691 53.5919H119.691ZM119.316 51.6447C118.997 51.0071 118.45 50.5977 117.794 50.389L117.188 52.2948C117.412 52.3661 117.486 52.4568 117.527 52.5391L119.316 51.6447ZM117.807 50.3932C117.231 50.2011 116.47 50.1319 115.601 50.1319V52.1319C116.412 52.1319 116.911 52.2027 117.175 52.2906L117.807 50.3932ZM115.601 50.1319H111.161V52.1319H115.601V50.1319ZM110.161 51.1319V56.0219H112.161V51.1319H110.161ZM111.161 57.0219H115.601V55.0219H111.161V57.0219Z" fill="black"/>
</svg>
