<svg width="186" height="96" viewBox="0 0 186 96" fill="none" xmlns="http://www.w3.org/2000/svg">
<rect width="185.6" height="95.8584" fill="#1A1A1A"/>
<mask id="mask0" mask-type="alpha" maskUnits="userSpaceOnUse" x="0" y="0" width="186" height="96">
<rect width="185.6" height="95.8584" fill="#C4C4C4"/>
</mask>
<g mask="url(#mask0)">
<path d="M161.147 17.4591L121.48 -26.7167H65.464L25.7967 17.4591V79.897L65.464 124.073H121.48L161.147 79.8971V17.4591Z" stroke="#E1E1E1" stroke-opacity="0.5" stroke-width="0.487" stroke-miterlimit="10"/>
<path d="M143.94 25.3879L114.354 -7.56119H72.5803L42.9939 25.3879V71.9647L72.5803 104.914H114.354L143.94 71.9647V25.3879Z" stroke="#E1E1E1" stroke-opacity="0.5" stroke-width="0.487" stroke-miterlimit="10"/>
</g>
<path d="M82.5339 41.4733V52.8733C82.5339 55.6133 82.3539 57.6233 81.9939 58.9033C81.6539 60.1633 80.9239 61.0533 79.8039 61.5733C78.6839 62.0933 76.8839 62.3533 74.4039 62.3533C71.9239 62.3533 70.1239 62.0933 69.0039 61.5733C67.8839 61.0533 67.1439 60.1633 66.7839 58.9033C66.4239 57.6233 66.2439 55.6133 66.2439 52.8733V41.4733H70.5039V53.9533C70.5039 55.4933 70.5739 56.5633 70.7139 57.1633C70.8539 57.7633 71.1839 58.1733 71.7039 58.3933C72.2239 58.6133 73.1239 58.7233 74.4039 58.7233C75.7039 58.7233 76.6039 58.6133 77.1039 58.3933C77.6239 58.1733 77.9439 57.7633 78.0639 57.1633C78.2039 56.5633 78.2739 55.4933 78.2739 53.9533V41.4733H82.5339ZM87.3425 62.1133V41.4733H100.933V45.1633H91.6025V50.4133H99.8225V54.1033H91.6025V62.1133H87.3425ZM117.8 61.8733C117.12 62.0133 116.28 62.1233 115.28 62.2033C114.3 62.3033 113.39 62.3533 112.55 62.3533C110.01 62.3533 108.13 62.0433 106.91 61.4233C105.71 60.8033 104.91 59.7733 104.51 58.3333C104.11 56.8933 103.91 54.7133 103.91 51.7933C103.91 48.9133 104.11 46.7533 104.51 45.3133C104.91 43.8533 105.71 42.8133 106.91 42.1933C108.13 41.5533 110.01 41.2333 112.55 41.2333C113.41 41.2333 114.32 41.2833 115.28 41.3833C116.24 41.4833 117.04 41.6133 117.68 41.7733V45.2233C115.94 45.0233 114.59 44.9233 113.63 44.9233C111.81 44.9233 110.55 45.0633 109.85 45.3433C109.15 45.6033 108.7 46.1733 108.5 47.0533C108.3 47.9333 108.2 49.5133 108.2 51.7933C108.2 54.0733 108.3 55.6533 108.5 56.5333C108.7 57.4133 109.15 57.9933 109.85 58.2733C110.55 58.5333 111.81 58.6633 113.63 58.6633C115.15 58.6633 116.54 58.5633 117.8 58.3633V61.8733Z" fill="white"/>
<path d="M82.5339 41.4733H83.5339V40.4733H82.5339V41.4733ZM81.9939 58.9033L81.0312 58.6325L81.0284 58.6428L81.9939 58.9033ZM79.8039 61.5733L79.3828 60.6663L79.8039 61.5733ZM69.0039 61.5733L69.425 60.6663L69.0039 61.5733ZM66.7839 58.9033L65.8212 59.174L65.8223 59.178L66.7839 58.9033ZM66.2439 41.4733V40.4733H65.2439V41.4733H66.2439ZM70.5039 41.4733H71.5039V40.4733H70.5039V41.4733ZM71.7039 58.3933L72.0935 57.4723L71.7039 58.3933ZM77.1039 58.3933L76.7142 57.4723L76.7077 57.4751L76.7011 57.478L77.1039 58.3933ZM78.0639 57.1633L77.09 56.9361L77.0864 56.9516L77.0833 56.9672L78.0639 57.1633ZM78.2739 41.4733V40.4733H77.2739V41.4733H78.2739ZM81.5339 41.4733V52.8733H83.5339V41.4733H81.5339ZM81.5339 52.8733C81.5339 55.5972 81.352 57.4918 81.0312 58.6325L82.9565 59.174C83.3557 57.7548 83.5339 55.6294 83.5339 52.8733H81.5339ZM81.0284 58.6428C80.7604 59.636 80.2177 60.2786 79.3828 60.6663L80.225 62.4803C81.63 61.8279 82.5473 60.6906 82.9593 59.1638L81.0284 58.6428ZM79.3828 60.6663C78.4708 61.0897 76.8561 61.3533 74.4039 61.3533V63.3533C76.9117 63.3533 78.8969 63.0969 80.225 62.4803L79.3828 60.6663ZM74.4039 61.3533C71.9517 61.3533 70.3369 61.0897 69.425 60.6663L68.5828 62.4803C69.9108 63.0969 71.8961 63.3533 74.4039 63.3533V61.3533ZM69.425 60.6663C68.5862 60.2768 68.0312 59.6288 67.7454 58.6286L65.8223 59.178C66.2566 60.6978 67.1816 61.8297 68.5828 62.4803L69.425 60.6663ZM67.7465 58.6325C67.4257 57.4918 67.2439 55.5972 67.2439 52.8733H65.2439C65.2439 55.6294 65.422 57.7548 65.8212 59.174L67.7465 58.6325ZM67.2439 52.8733V41.4733H65.2439V52.8733H67.2439ZM66.2439 42.4733H70.5039V40.4733H66.2439V42.4733ZM69.5039 41.4733V53.9533H71.5039V41.4733H69.5039ZM69.5039 53.9533C69.5039 55.4895 69.5708 56.6654 69.74 57.3905L71.6877 56.9361C71.5769 56.4612 71.5039 55.4971 71.5039 53.9533H69.5039ZM69.74 57.3905C69.945 58.2688 70.4699 58.957 71.3142 59.3142L72.0935 57.4723C71.8978 57.3895 71.7628 57.2577 71.6877 56.9361L69.74 57.3905ZM71.3142 59.3142C72.0367 59.6199 73.1174 59.7233 74.4039 59.7233V57.7233C73.1304 57.7233 72.411 57.6066 72.0935 57.4723L71.3142 59.3142ZM74.4039 59.7233C75.7023 59.7233 76.7948 59.6218 77.5066 59.3086L76.7011 57.478C76.413 57.6047 75.7055 57.7233 74.4039 57.7233V59.7233ZM77.4935 59.3142C78.3472 58.9531 78.866 58.2519 79.0444 57.3594L77.0833 56.9672C77.0218 57.2747 76.9005 57.3935 76.7142 57.4723L77.4935 59.3142ZM79.0377 57.3905C79.2069 56.6654 79.2739 55.4895 79.2739 53.9533H77.2739C77.2739 55.4971 77.2008 56.4612 77.09 56.9361L79.0377 57.3905ZM79.2739 53.9533V41.4733H77.2739V53.9533H79.2739ZM78.2739 42.4733H82.5339V40.4733H78.2739V42.4733ZM87.3425 62.1133H86.3425V63.1133H87.3425V62.1133ZM87.3425 41.4733V40.4733H86.3425V41.4733H87.3425ZM100.933 41.4733H101.933V40.4733H100.933V41.4733ZM100.933 45.1633V46.1633H101.933V45.1633H100.933ZM91.6025 45.1633V44.1633H90.6025V45.1633H91.6025ZM91.6025 50.4133H90.6025V51.4133H91.6025V50.4133ZM99.8225 50.4133H100.823V49.4133H99.8225V50.4133ZM99.8225 54.1033V55.1033H100.823V54.1033H99.8225ZM91.6025 54.1033V53.1033H90.6025V54.1033H91.6025ZM91.6025 62.1133V63.1133H92.6025V62.1133H91.6025ZM88.3425 62.1133V41.4733H86.3425V62.1133H88.3425ZM87.3425 42.4733H100.933V40.4733H87.3425V42.4733ZM99.9325 41.4733V45.1633H101.933V41.4733H99.9325ZM100.933 44.1633H91.6025V46.1633H100.933V44.1633ZM90.6025 45.1633V50.4133H92.6025V45.1633H90.6025ZM91.6025 51.4133H99.8225V49.4133H91.6025V51.4133ZM98.8225 50.4133V54.1033H100.823V50.4133H98.8225ZM99.8225 53.1033H91.6025V55.1033H99.8225V53.1033ZM90.6025 54.1033V62.1133H92.6025V54.1033H90.6025ZM91.6025 61.1133H87.3425V63.1133H91.6025V61.1133ZM117.8 61.8733L118.001 62.8527L118.8 62.6884V61.8733H117.8ZM115.28 62.2033L115.2 61.2065L115.189 61.2073L115.178 61.2084L115.28 62.2033ZM106.91 61.4233L106.451 62.3117L106.457 62.3148L106.91 61.4233ZM104.51 58.3333L103.546 58.6009L104.51 58.3333ZM104.51 45.3133L105.473 45.5809L105.474 45.5775L104.51 45.3133ZM106.91 42.1933L107.369 43.0817L107.374 43.0788L106.91 42.1933ZM117.68 41.7733H118.68V40.9925L117.922 40.8031L117.68 41.7733ZM117.68 45.2233L117.566 46.2167L118.68 46.3448V45.2233H117.68ZM109.85 45.3433L110.198 46.2807L110.21 46.2764L110.221 46.2718L109.85 45.3433ZM108.5 47.0533L107.525 46.8317L108.5 47.0533ZM108.5 56.5333L107.525 56.7549L108.5 56.5333ZM109.85 58.2733L109.478 59.2018L109.49 59.2064L109.502 59.2107L109.85 58.2733ZM117.8 58.3633H118.8V57.192L117.643 57.3756L117.8 58.3633ZM117.598 60.8938C116.972 61.0228 116.175 61.1284 115.2 61.2065L115.36 63.2001C116.384 63.1181 117.268 63.0038 118.001 62.8527L117.598 60.8938ZM115.178 61.2084C114.226 61.3056 113.351 61.3533 112.55 61.3533V63.3533C113.429 63.3533 114.373 63.301 115.381 63.1981L115.178 61.2084ZM112.55 61.3533C110.054 61.3533 108.368 61.0426 107.363 60.5318L106.457 62.3148C107.892 63.0439 109.965 63.3533 112.55 63.3533V61.3533ZM107.369 60.5349C106.444 60.0569 105.808 59.2692 105.473 58.0656L103.546 58.6009C104.012 60.2773 104.976 61.5496 106.451 62.3117L107.369 60.5349ZM105.473 58.0656C105.111 56.7606 104.91 54.6915 104.91 51.7933H102.91C102.91 54.735 103.109 57.026 103.546 58.6009L105.473 58.0656ZM104.91 51.7933C104.91 48.9365 105.111 46.8867 105.473 45.5809L103.546 45.0456C103.109 46.6199 102.91 48.8901 102.91 51.7933H104.91ZM105.474 45.5775C105.81 44.351 106.448 43.5572 107.369 43.0817L106.451 41.3049C104.971 42.0694 104.009 43.3555 103.545 45.049L105.474 45.5775ZM107.374 43.0788C108.376 42.5536 110.057 42.2333 112.55 42.2333V40.2333C109.963 40.2333 107.884 40.5529 106.445 41.3077L107.374 43.0788ZM112.55 42.2333C113.371 42.2333 114.247 42.2811 115.176 42.3779L115.383 40.3887C114.393 40.2855 113.448 40.2333 112.55 40.2333V42.2333ZM115.176 42.3779C116.109 42.475 116.859 42.5987 117.437 42.7434L117.922 40.8031C117.221 40.6278 116.371 40.4915 115.383 40.3887L115.176 42.3779ZM116.68 41.7733V45.2233H118.68V41.7733H116.68ZM117.794 44.2298C116.042 44.0284 114.647 43.9233 113.63 43.9233V45.9233C114.533 45.9233 115.838 46.0182 117.566 46.2167L117.794 44.2298ZM113.63 43.9233C111.813 43.9233 110.376 44.0557 109.478 44.4148L110.221 46.2718C110.724 46.0708 111.807 45.9233 113.63 45.9233V43.9233ZM109.502 44.4059C108.416 44.809 107.782 45.7015 107.525 46.8317L109.475 47.2749C109.618 46.6451 109.883 46.3975 110.198 46.2807L109.502 44.4059ZM107.525 46.8317C107.297 47.8341 107.2 49.5179 107.2 51.7933H109.2C109.2 49.5087 109.303 48.0324 109.475 47.2749L107.525 46.8317ZM107.2 51.7933C107.2 54.0687 107.297 55.7524 107.525 56.7549L109.475 56.3117C109.303 55.5541 109.2 54.0779 109.2 51.7933H107.2ZM107.525 56.7549C107.781 57.8833 108.41 58.7746 109.478 59.2018L110.221 57.3448C109.889 57.212 109.618 56.9433 109.475 56.3117L107.525 56.7549ZM109.502 59.2107C110.388 59.5401 111.814 59.6633 113.63 59.6633V57.6633C111.806 57.6633 110.711 57.5265 110.198 57.3359L109.502 59.2107ZM113.63 59.6633C115.193 59.6633 116.636 59.5605 117.957 59.3509L117.643 57.3756C116.444 57.566 115.107 57.6633 113.63 57.6633V59.6633ZM116.8 58.3633V61.8733H118.8V58.3633H116.8Z" fill="black"/>
</svg>
