<svg width="186" height="96" viewBox="0 0 186 96" fill="none" xmlns="http://www.w3.org/2000/svg">
<rect x="0.394531" width="185.6" height="95.8584" fill="#1A1A1A"/>
<mask id="mask0" mask-type="alpha" maskUnits="userSpaceOnUse" x="0" y="0" width="186" height="96">
<rect x="0.394531" width="185.6" height="95.8584" fill="#C4C4C4"/>
</mask>
<g mask="url(#mask0)">
<path fill-rule="evenodd" clip-rule="evenodd" d="M54.6024 34.2952C65.6298 44.8068 88.2575 66.3078 89.5464 67.7412C91.1218 69.4931 94.1292 68.3782 95.275 67.9004C96.2774 67.5819 98.1392 67.9004 99.8578 69.6524C101.576 71.5636 102.006 72.5192 106.016 72.5192C110.026 72.5192 171.464 72.5192 176.906 72.5192C182.349 72.5192 186.931 75.8638 185.786 81.4381C182.349 97.3648 176.047 99.4352 162.155 100.55C156.284 101.028 77.9462 100.55 75.6548 100.55C73.3633 100.55 72.7905 99.2759 72.9337 97.524C72.9337 95.7721 73.0769 94.3387 72.7905 93.5424C72.5041 92.746 71.0719 92.5868 69.3534 94.3387C68.6373 95.2943 67.3484 96.4091 65.9163 97.524C61.4767 101.028 56.1778 101.187 50.8789 101.028C36.9872 100.869 26.103 94.1794 22.3795 76.6601C19.0856 61.2112 18.3695 44.329 18.2263 42.8956C18.0831 41.4622 16.9374 41.1437 15.6485 40.6659C14.5028 40.1881 13.9299 38.1176 13.5003 36.3657C13.0706 34.6137 5.90998 14.5462 4.33464 9.6089C2.47287 4.67164 1.61359 -2.17682 9.77673 -3.92875C17.9399 -5.68068 23.382 -6.15848 25.9598 -6.31775C28.5376 -6.31775 32.118 -5.99922 35.1255 0.530711C36.844 4.35311 40.9972 13.1128 44.2911 19.6427C48.8739 29.358 47.2986 27.2875 54.6024 34.2952Z" stroke="#E1E1E1" stroke-opacity="0.5" stroke-width="0.772055" stroke-miterlimit="22.9256"/>
</g>
<path d="M15.2498 62V41.36H28.8398V45.05H19.5098V50.3H27.7298V53.99H19.5098V62H15.2498ZM40.577 62.24C37.757 62.24 35.747 61.94 34.547 61.34C33.347 60.74 32.587 59.76 32.267 58.4C31.967 57.04 31.817 54.8 31.817 51.68C31.817 48.56 31.967 46.32 32.267 44.96C32.587 43.6 33.347 42.62 34.547 42.02C35.747 41.42 37.757 41.12 40.577 41.12C43.397 41.12 45.407 41.42 46.607 42.02C47.827 42.62 48.587 43.6 48.887 44.96C49.207 46.32 49.367 48.56 49.367 51.68C49.367 54.8 49.207 57.04 48.887 58.4C48.587 59.76 47.827 60.74 46.607 61.34C45.407 61.94 43.397 62.24 40.577 62.24ZM40.577 58.55C42.157 58.55 43.217 58.44 43.757 58.22C44.317 58 44.667 57.47 44.807 56.63C44.967 55.77 45.047 54.12 45.047 51.68C45.047 49.24 44.967 47.6 44.807 46.76C44.667 45.9 44.317 45.36 43.757 45.14C43.217 44.92 42.157 44.81 40.577 44.81C38.997 44.81 37.937 44.92 37.397 45.14C36.857 45.36 36.507 45.9 36.347 46.76C36.187 47.62 36.107 49.26 36.107 51.68C36.107 54.1 36.187 55.74 36.347 56.6C36.507 57.46 36.857 58 37.397 58.22C37.937 58.44 38.997 58.55 40.577 58.55ZM65.6566 62L62.6266 54.53H57.9766V62H53.7166V41.36H63.4366C65.2166 41.36 66.5666 41.63 67.4866 42.17C68.4266 42.69 69.0466 43.42 69.3466 44.36C69.6666 45.28 69.8266 46.47 69.8266 47.93C69.8266 51.19 68.8466 53.2 66.8866 53.96L70.1866 62H65.6566ZM61.7266 50.84C62.8866 50.84 63.7266 50.76 64.2466 50.6C64.7866 50.44 65.1266 50.17 65.2666 49.79C65.4266 49.39 65.5066 48.77 65.5066 47.93C65.5066 47.07 65.4266 46.45 65.2666 46.07C65.1266 45.69 64.7966 45.43 64.2766 45.29C63.7766 45.13 62.9366 45.05 61.7566 45.05H57.9766V50.84H61.7266ZM91.9279 62V47.9H91.7779L86.4379 62H83.4979L78.1879 47.9H78.0379V62H74.0479V41.36H79.9279L84.9679 54.59H85.1479L90.1879 41.36H96.0379V62H91.9279ZM117.082 41.36V52.76C117.082 55.5 116.902 57.51 116.542 58.79C116.202 60.05 115.472 60.94 114.352 61.46C113.232 61.98 111.432 62.24 108.952 62.24C106.472 62.24 104.672 61.98 103.552 61.46C102.432 60.94 101.692 60.05 101.332 58.79C100.972 57.51 100.792 55.5 100.792 52.76V41.36H105.052V53.84C105.052 55.38 105.122 56.45 105.262 57.05C105.402 57.65 105.732 58.06 106.252 58.28C106.772 58.5 107.672 58.61 108.952 58.61C110.252 58.61 111.152 58.5 111.652 58.28C112.172 58.06 112.492 57.65 112.612 57.05C112.752 56.45 112.822 55.38 112.822 53.84V41.36H117.082ZM121.89 62V41.36H126.15V58.13H134.88V62H121.89ZM151.381 62L149.881 57.56H141.841L140.371 62H136.081L143.071 41.36H148.801L155.791 62H151.381ZM145.921 45.38H145.771L142.981 53.84H148.741L145.921 45.38ZM168.349 62V46.1L164.329 47.81V44.12L169.669 41.36H172.609V62H168.349Z" fill="white"/>
<path d="M15.2498 62H14.2498V63H15.2498V62ZM15.2498 41.36V40.36H14.2498V41.36H15.2498ZM28.8398 41.36H29.8398V40.36H28.8398V41.36ZM28.8398 45.05V46.05H29.8398V45.05H28.8398ZM19.5098 45.05V44.05H18.5098V45.05H19.5098ZM19.5098 50.3H18.5098V51.3H19.5098V50.3ZM27.7298 50.3H28.7298V49.3H27.7298V50.3ZM27.7298 53.99V54.99H28.7298V53.99H27.7298ZM19.5098 53.99V52.99H18.5098V53.99H19.5098ZM19.5098 62V63H20.5098V62H19.5098ZM16.2498 62V41.36H14.2498V62H16.2498ZM15.2498 42.36H28.8398V40.36H15.2498V42.36ZM27.8398 41.36V45.05H29.8398V41.36H27.8398ZM28.8398 44.05H19.5098V46.05H28.8398V44.05ZM18.5098 45.05V50.3H20.5098V45.05H18.5098ZM19.5098 51.3H27.7298V49.3H19.5098V51.3ZM26.7298 50.3V53.99H28.7298V50.3H26.7298ZM27.7298 52.99H19.5098V54.99H27.7298V52.99ZM18.5098 53.99V62H20.5098V53.99H18.5098ZM19.5098 61H15.2498V63H19.5098V61ZM34.547 61.34L34.9942 60.4456L34.9942 60.4456L34.547 61.34ZM32.267 58.4L31.2904 58.6154L31.2936 58.629L32.267 58.4ZM32.267 44.96L31.2935 44.7309L31.2905 44.7446L32.267 44.96ZM34.547 42.02L34.9942 42.9144L34.9942 42.9144L34.547 42.02ZM46.607 42.02L46.1598 42.9144L46.1657 42.9174L46.607 42.02ZM48.887 44.96L47.9104 45.1754L47.9136 45.189L48.887 44.96ZM48.887 58.4L47.9135 58.1709L47.9105 58.1846L48.887 58.4ZM46.607 61.34L46.1657 60.4426L46.1598 60.4456L46.607 61.34ZM43.757 58.22L43.3914 57.2892L43.3797 57.2939L43.757 58.22ZM44.807 56.63L43.8239 56.4471L43.8222 56.4563L43.8206 56.4656L44.807 56.63ZM44.807 46.76L43.82 46.9207L43.8222 46.9339L43.8247 46.9471L44.807 46.76ZM43.757 45.14L43.3797 46.0662L43.3914 46.0708L43.757 45.14ZM37.397 45.14L37.0197 44.2139L37.0197 44.2139L37.397 45.14ZM37.397 58.22L37.0197 59.1461L37.0197 59.1461L37.397 58.22ZM40.577 61.24C37.7775 61.24 35.9711 60.934 34.9942 60.4456L34.0998 62.2344C35.5229 62.946 37.7366 63.24 40.577 63.24V61.24ZM34.9942 60.4456C34.0721 59.9845 33.4957 59.2558 33.2404 58.171L31.2936 58.629C31.6784 60.2642 32.622 61.4955 34.0998 62.2344L34.9942 60.4456ZM33.2436 58.1846C32.9689 56.9395 32.817 54.7942 32.817 51.68H30.817C30.817 54.8058 30.9652 57.1405 31.2905 58.6154L33.2436 58.1846ZM32.817 51.68C32.817 48.5658 32.9689 46.4205 33.2436 45.1754L31.2905 44.7446C30.9652 46.2195 30.817 48.5542 30.817 51.68H32.817ZM33.2404 45.189C33.4957 44.1042 34.0721 43.3755 34.9942 42.9144L34.0998 41.1256C32.622 41.8645 31.6784 43.0958 31.2936 44.731L33.2404 45.189ZM34.9942 42.9144C35.9711 42.426 37.7775 42.12 40.577 42.12V40.12C37.7366 40.12 35.5229 40.414 34.0998 41.1256L34.9942 42.9144ZM40.577 42.12C43.3766 42.12 45.1829 42.426 46.1598 42.9144L47.0542 41.1256C45.6311 40.414 43.4175 40.12 40.577 40.12V42.12ZM46.1657 42.9174C47.1053 43.3794 47.6741 44.1038 47.9105 45.1754L49.8636 44.7446C49.4999 43.0962 48.5488 41.8606 47.0484 41.1226L46.1657 42.9174ZM47.9136 45.189C48.2049 46.4272 48.367 48.5664 48.367 51.68H50.367C50.367 48.5536 50.2091 46.2128 49.8604 44.731L47.9136 45.189ZM48.367 51.68C48.367 54.7936 48.2049 56.9328 47.9136 58.171L49.8604 58.629C50.2091 57.1472 50.367 54.8064 50.367 51.68H48.367ZM47.9105 58.1846C47.6741 59.2562 47.1053 59.9806 46.1657 60.4426L47.0484 62.2374C48.5488 61.4994 49.4999 60.2638 49.8636 58.6154L47.9105 58.1846ZM46.1598 60.4456C45.1829 60.934 43.3766 61.24 40.577 61.24V63.24C43.4175 63.24 45.6311 62.946 47.0542 62.2344L46.1598 60.4456ZM40.577 59.55C41.3868 59.55 42.0839 59.522 42.6603 59.4622C43.2203 59.404 43.7322 59.3099 44.1343 59.1461L43.3797 57.2939C43.2418 57.3501 42.9537 57.421 42.4538 57.4728C41.9702 57.523 41.3473 57.55 40.577 57.55V59.55ZM44.1227 59.1508C45.1365 58.7525 45.6222 57.822 45.7934 56.7944L43.8206 56.4656C43.7119 57.118 43.4976 57.2475 43.3914 57.2892L44.1227 59.1508ZM45.7902 56.8129C45.9695 55.8488 46.047 54.1093 46.047 51.68H44.047C44.047 54.1307 43.9645 55.6912 43.8239 56.4471L45.7902 56.8129ZM46.047 51.68C46.047 49.2526 45.9698 47.5199 45.7894 46.5729L43.8247 46.9471C43.9643 47.6801 44.047 49.2274 44.047 51.68H46.047ZM45.794 46.5993C45.6252 45.5623 45.1457 44.6111 44.1227 44.2092L43.3914 46.0708C43.4884 46.1089 43.7088 46.2377 43.82 46.9207L45.794 46.5993ZM44.1343 44.2139C43.7322 44.0501 43.2203 43.956 42.6603 43.8978C42.0839 43.838 41.3868 43.81 40.577 43.81V45.81C41.3473 45.81 41.9702 45.837 42.4538 45.8872C42.9537 45.939 43.2418 46.0099 43.3797 46.0661L44.1343 44.2139ZM40.577 43.81C39.7673 43.81 39.0702 43.838 38.4938 43.8978C37.9337 43.956 37.4218 44.0501 37.0197 44.2139L37.7743 46.0661C37.9122 46.0099 38.2003 45.939 38.7003 45.8872C39.1839 45.837 39.8068 45.81 40.577 45.81V43.81ZM37.0197 44.2139C36.0268 44.6184 35.553 45.5609 35.3639 46.5771L37.3302 46.9429C37.4611 46.2391 37.6872 46.1016 37.7743 46.0661L37.0197 44.2139ZM35.3639 46.5771C35.1846 47.541 35.107 49.2701 35.107 51.68H37.107C37.107 49.2499 37.1895 47.699 37.3302 46.9429L35.3639 46.5771ZM35.107 51.68C35.107 54.0899 35.1846 55.819 35.3639 56.7829L37.3302 56.4171C37.1895 55.661 37.107 54.1101 37.107 51.68H35.107ZM35.3639 56.7829C35.553 57.7991 36.0268 58.7416 37.0197 59.1461L37.7743 57.2939C37.6872 57.2584 37.4611 57.1209 37.3302 56.4171L35.3639 56.7829ZM37.0197 59.1461C37.4218 59.3099 37.9337 59.404 38.4938 59.4622C39.0702 59.522 39.7673 59.55 40.577 59.55V57.55C39.8068 57.55 39.1839 57.523 38.7003 57.4728C38.2003 57.421 37.9122 57.3501 37.7743 57.2939L37.0197 59.1461ZM65.6566 62L64.7299 62.3759L64.9831 63H65.6566V62ZM62.6266 54.53L63.5532 54.1541L63.3001 53.53H62.6266V54.53ZM57.9766 54.53V53.53H56.9766V54.53H57.9766ZM57.9766 62V63H58.9766V62H57.9766ZM53.7166 62H52.7166V63H53.7166V62ZM53.7166 41.36V40.36H52.7166V41.36H53.7166ZM67.4866 42.17L66.9804 43.0324L66.9914 43.0389L67.0025 43.045L67.4866 42.17ZM69.3466 44.36L68.3939 44.664L68.3978 44.6763L68.4021 44.6885L69.3466 44.36ZM66.8866 53.96L66.525 53.0276L65.5742 53.3963L65.9615 54.3397L66.8866 53.96ZM70.1866 62V63H71.678L71.1117 61.6203L70.1866 62ZM64.2466 50.6L63.9625 49.6411L63.9525 49.6442L64.2466 50.6ZM65.2666 49.79L64.3381 49.4186L64.333 49.4314L64.3282 49.4443L65.2666 49.79ZM65.2666 46.07L64.3282 46.4157L64.3361 46.4371L64.3449 46.4581L65.2666 46.07ZM64.2766 45.29L63.9718 46.2424L63.994 46.2495L64.0166 46.2556L64.2766 45.29ZM57.9766 45.05V44.05H56.9766V45.05H57.9766ZM57.9766 50.84H56.9766V51.84H57.9766V50.84ZM66.5832 61.6241L63.5532 54.1541L61.6999 54.9059L64.7299 62.3759L66.5832 61.6241ZM62.6266 53.53H57.9766V55.53H62.6266V53.53ZM56.9766 54.53V62H58.9766V54.53H56.9766ZM57.9766 61H53.7166V63H57.9766V61ZM54.7166 62V41.36H52.7166V62H54.7166ZM53.7166 42.36H63.4366V40.36H53.7166V42.36ZM63.4366 42.36C65.1442 42.36 66.2847 42.6241 66.9804 43.0324L67.9928 41.3076C66.8485 40.6359 65.2889 40.36 63.4366 40.36V42.36ZM67.0025 43.045C67.7408 43.4535 68.1787 43.9898 68.3939 44.664L70.2992 44.056C69.9144 42.8502 69.1123 41.9265 67.9706 41.295L67.0025 43.045ZM68.4021 44.6885C68.6718 45.4641 68.8266 46.5317 68.8266 47.93H70.8266C70.8266 46.4083 70.6613 45.0959 70.2911 44.0315L68.4021 44.6885ZM68.8266 47.93C68.8266 51.039 67.9035 52.4931 66.525 53.0276L67.2481 54.8924C69.7897 53.9069 70.8266 51.341 70.8266 47.93H68.8266ZM65.9615 54.3397L69.2615 62.3797L71.1117 61.6203L67.8117 53.5803L65.9615 54.3397ZM70.1866 61H65.6566V63H70.1866V61ZM61.7266 51.84C62.8999 51.84 63.8681 51.7627 64.5406 51.5558L63.9525 49.6442C63.5851 49.7573 62.8733 49.84 61.7266 49.84V51.84ZM64.5307 51.5588C65.2469 51.3466 65.9171 50.9169 66.2049 50.1357L64.3282 49.4443C64.3262 49.4498 64.3218 49.4649 64.2847 49.4944C64.2399 49.5299 64.1444 49.5873 63.9625 49.6412L64.5307 51.5588ZM66.195 50.1614C66.4285 49.5778 66.5066 48.7997 66.5066 47.93H64.5066C64.5066 48.7403 64.4246 49.2022 64.3381 49.4186L66.195 50.1614ZM66.5066 47.93C66.5066 47.0501 66.4308 46.258 66.1882 45.6819L64.3449 46.4581C64.4224 46.642 64.5066 47.0899 64.5066 47.93H66.5066ZM66.2049 45.7243C65.9175 44.9442 65.2565 44.5182 64.5365 44.3244L64.0166 46.2556C64.1813 46.3 64.2618 46.3492 64.2952 46.3755C64.3208 46.3957 64.3245 46.4057 64.3282 46.4157L66.2049 45.7243ZM64.5813 44.3376C63.9206 44.1262 62.9437 44.05 61.7566 44.05V46.05C62.9294 46.05 63.6325 46.1338 63.9718 46.2424L64.5813 44.3376ZM61.7566 44.05H57.9766V46.05H61.7566V44.05ZM56.9766 45.05V50.84H58.9766V45.05H56.9766ZM57.9766 51.84H61.7266V49.84H57.9766V51.84ZM91.9279 62H90.9279V63H91.9279V62ZM91.9279 47.9H92.9279V46.9H91.9279V47.9ZM91.7779 47.9V46.9H91.0873L90.8427 47.5458L91.7779 47.9ZM86.4379 62V63H87.1285L87.3731 62.3542L86.4379 62ZM83.4979 62L82.5621 62.3524L82.8059 63H83.4979V62ZM78.1879 47.9L79.1237 47.5476L78.8799 46.9H78.1879V47.9ZM78.0379 47.9V46.9H77.0379V47.9H78.0379ZM78.0379 62V63H79.0379V62H78.0379ZM74.0479 62H73.0479V63H74.0479V62ZM74.0479 41.36V40.36H73.0479V41.36H74.0479ZM79.9279 41.36L80.8624 41.004L80.617 40.36H79.9279V41.36ZM84.9679 54.59L84.0334 54.946L84.2787 55.59H84.9679V54.59ZM85.1479 54.59V55.59H85.837L86.0824 54.946L85.1479 54.59ZM90.1879 41.36V40.36H89.4987L89.2534 41.004L90.1879 41.36ZM96.0379 41.36H97.0379V40.36H96.0379V41.36ZM96.0379 62V63H97.0379V62H96.0379ZM92.9279 62V47.9H90.9279V62H92.9279ZM91.9279 46.9H91.7779V48.9H91.9279V46.9ZM90.8427 47.5458L85.5027 61.6458L87.3731 62.3542L92.7131 48.2542L90.8427 47.5458ZM86.4379 61H83.4979V63H86.4379V61ZM84.4337 61.6476L79.1237 47.5476L77.2521 48.2524L82.5621 62.3524L84.4337 61.6476ZM78.1879 46.9H78.0379V48.9H78.1879V46.9ZM77.0379 47.9V62H79.0379V47.9H77.0379ZM78.0379 61H74.0479V63H78.0379V61ZM75.0479 62V41.36H73.0479V62H75.0479ZM74.0479 42.36H79.9279V40.36H74.0479V42.36ZM78.9934 41.716L84.0334 54.946L85.9024 54.234L80.8624 41.004L78.9934 41.716ZM84.9679 55.59H85.1479V53.59H84.9679V55.59ZM86.0824 54.946L91.1224 41.716L89.2534 41.004L84.2134 54.234L86.0824 54.946ZM90.1879 42.36H96.0379V40.36H90.1879V42.36ZM95.0379 41.36V62H97.0379V41.36H95.0379ZM96.0379 61H91.9279V63H96.0379V61ZM117.082 41.36H118.082V40.36H117.082V41.36ZM116.542 58.79L115.579 58.5192L115.576 58.5295L116.542 58.79ZM114.352 61.46L113.931 60.553L113.931 60.553L114.352 61.46ZM103.552 61.46L103.973 60.553L103.973 60.553L103.552 61.46ZM101.332 58.79L100.369 59.0607L100.37 59.0647L101.332 58.79ZM100.792 41.36V40.36H99.7917V41.36H100.792ZM105.052 41.36H106.052V40.36H105.052V41.36ZM106.252 58.28L106.641 57.359L106.641 57.359L106.252 58.28ZM111.652 58.28L111.262 57.359L111.256 57.3618L111.249 57.3647L111.652 58.28ZM112.612 57.05L111.638 56.8228L111.634 56.8383L111.631 56.8539L112.612 57.05ZM112.822 41.36V40.36H111.822V41.36H112.822ZM116.082 41.36V52.76H118.082V41.36H116.082ZM116.082 52.76C116.082 55.4839 115.9 57.3785 115.579 58.5193L117.504 59.0607C117.904 57.6415 118.082 55.5161 118.082 52.76H116.082ZM115.576 58.5295C115.308 59.5227 114.766 60.1653 113.931 60.553L114.773 62.367C116.178 61.7147 117.095 60.5773 117.507 59.0505L115.576 58.5295ZM113.931 60.553C113.019 60.9764 111.404 61.24 108.952 61.24V63.24C111.46 63.24 113.445 62.9836 114.773 62.367L113.931 60.553ZM108.952 61.24C106.5 61.24 104.885 60.9764 103.973 60.553L103.131 62.367C104.459 62.9836 106.444 63.24 108.952 63.24V61.24ZM103.973 60.553C103.134 60.1635 102.579 59.5155 102.293 58.5153L100.37 59.0647C100.804 60.5845 101.729 61.7165 103.131 62.367L103.973 60.553ZM102.294 58.5193C101.974 57.3785 101.792 55.4839 101.792 52.76H99.7917C99.7917 55.5161 99.9699 57.6415 100.369 59.0607L102.294 58.5193ZM101.792 52.76V41.36H99.7917V52.76H101.792ZM100.792 42.36H105.052V40.36H100.792V42.36ZM104.052 41.36V53.84H106.052V41.36H104.052ZM104.052 53.84C104.052 55.3762 104.119 56.5521 104.288 57.2772L106.236 56.8228C106.125 56.3479 106.052 55.3838 106.052 53.84H104.052ZM104.288 57.2772C104.493 58.1555 105.018 58.8438 105.862 59.201L106.641 57.359C106.446 57.2762 106.311 57.1445 106.236 56.8228L104.288 57.2772ZM105.862 59.201C106.585 59.5066 107.665 59.61 108.952 59.61V57.61C107.678 57.61 106.959 57.4934 106.641 57.359L105.862 59.201ZM108.952 59.61C110.25 59.61 111.343 59.5085 112.054 59.1953L111.249 57.3647C110.961 57.4915 110.253 57.61 108.952 57.61V59.61ZM112.041 59.201C112.895 58.8398 113.414 58.1386 113.592 57.2461L111.631 56.8539C111.57 57.1614 111.448 57.2802 111.262 57.359L112.041 59.201ZM113.586 57.2772C113.755 56.5521 113.822 55.3762 113.822 53.84H111.822C111.822 55.3838 111.749 56.3479 111.638 56.8228L113.586 57.2772ZM113.822 53.84V41.36H111.822V53.84H113.822ZM112.822 42.36H117.082V40.36H112.822V42.36ZM121.89 62H120.89V63H121.89V62ZM121.89 41.36V40.36H120.89V41.36H121.89ZM126.15 41.36H127.15V40.36H126.15V41.36ZM126.15 58.13H125.15V59.13H126.15V58.13ZM134.88 58.13H135.88V57.13H134.88V58.13ZM134.88 62V63H135.88V62H134.88ZM122.89 62V41.36H120.89V62H122.89ZM121.89 42.36H126.15V40.36H121.89V42.36ZM125.15 41.36V58.13H127.15V41.36H125.15ZM126.15 59.13H134.88V57.13H126.15V59.13ZM133.88 58.13V62H135.88V58.13H133.88ZM134.88 61H121.89V63H134.88V61ZM151.381 62L150.433 62.3201L150.663 63H151.381V62ZM149.881 57.56L150.828 57.2399L150.599 56.56H149.881V57.56ZM141.841 57.56V56.56H141.119L140.892 57.2457L141.841 57.56ZM140.371 62V63H141.093L141.32 62.3143L140.371 62ZM136.081 62L135.134 61.6792L134.686 63H136.081V62ZM143.071 41.36V40.36H142.354L142.124 41.0392L143.071 41.36ZM148.801 41.36L149.748 41.0392L149.518 40.36H148.801V41.36ZM155.791 62V63H157.185L156.738 61.6792L155.791 62ZM145.921 45.38L146.87 45.0638L146.642 44.38H145.921V45.38ZM145.771 45.38V44.38H145.048L144.821 45.0668L145.771 45.38ZM142.981 53.84L142.031 53.5268L141.598 54.84H142.981V53.84ZM148.741 53.84V54.84H150.128L149.69 53.5238L148.741 53.84ZM152.328 61.6799L150.828 57.2399L148.933 57.8801L150.433 62.3201L152.328 61.6799ZM149.881 56.56H141.841V58.56H149.881V56.56ZM140.892 57.2457L139.422 61.6857L141.32 62.3143L142.79 57.8743L140.892 57.2457ZM140.371 61H136.081V63H140.371V61ZM137.028 62.3208L144.018 41.6808L142.124 41.0392L135.134 61.6792L137.028 62.3208ZM143.071 42.36H148.801V40.36H143.071V42.36ZM147.854 41.6808L154.844 62.3208L156.738 61.6792L149.748 41.0392L147.854 41.6808ZM155.791 61H151.381V63H155.791V61ZM145.921 44.38H145.771V46.38H145.921V44.38ZM144.821 45.0668L142.031 53.5268L143.931 54.1532L146.721 45.6932L144.821 45.0668ZM142.981 54.84H148.741V52.84H142.981V54.84ZM149.69 53.5238L146.87 45.0638L144.972 45.6962L147.792 54.1562L149.69 53.5238ZM168.349 62H167.349V63H168.349V62ZM168.349 46.1H169.349V44.5879L167.958 45.1798L168.349 46.1ZM164.329 47.81H163.329V49.3221L164.721 48.7302L164.329 47.81ZM164.329 44.12L163.87 43.2316L163.329 43.5112V44.12H164.329ZM169.669 41.36V40.36H169.426L169.21 40.4716L169.669 41.36ZM172.609 41.36H173.609V40.36H172.609V41.36ZM172.609 62V63H173.609V62H172.609ZM169.349 62V46.1H167.349V62H169.349ZM167.958 45.1798L163.938 46.8898L164.721 48.7302L168.741 47.0202L167.958 45.1798ZM165.329 47.81V44.12H163.329V47.81H165.329ZM164.789 45.0084L170.129 42.2484L169.21 40.4716L163.87 43.2316L164.789 45.0084ZM169.669 42.36H172.609V40.36H169.669V42.36ZM171.609 41.36V62H173.609V41.36H171.609ZM172.609 61H168.349V63H172.609V61Z" fill="black"/>
</svg>
