<svg width="186" height="96" viewBox="0 0 186 96" fill="none" xmlns="http://www.w3.org/2000/svg">
<rect width="185.6" height="95.8584" fill="#1A1A1A"/>
<mask id="mask0" mask-type="alpha" maskUnits="userSpaceOnUse" x="0" y="0" width="186" height="96">
<rect width="185.6" height="95.8584" fill="#C4C4C4"/>
</mask>
<g mask="url(#mask0)">
<path d="M551.418 239.515V-97.3044H292.345V-103.347H291.152V-97.3044H244.164V-103.347H242.951V-97.3044H-16.1406V239.515H551.418ZM267.042 110.685C265.272 110.642 263.54 110.47 261.847 110.17C261.751 110.149 261.655 110.127 261.558 110.106C260.808 109.956 260.077 109.806 259.346 109.592C258.922 109.485 258.48 109.356 258.076 109.227C257.691 109.12 257.287 108.97 256.902 108.842C251.322 106.87 246.338 103.399 242.336 98.8773C241.739 98.213 241.162 97.5058 240.623 96.7987C240.258 96.3272 239.892 95.8344 239.565 95.3415C239.296 94.9558 239.026 94.5486 238.757 94.1415C234.581 87.6485 232.118 79.6984 232.118 71.1268C232.118 62.6838 234.504 54.8623 238.564 48.4336C238.891 47.9193 239.219 47.405 239.565 46.9122C239.911 46.4193 240.258 45.9264 240.623 45.455C240.893 45.0907 241.181 44.7478 241.47 44.405C241.758 44.0621 242.047 43.7193 242.336 43.3764C244.106 41.3621 246.088 39.562 248.205 38.0192C248.666 37.6763 249.147 37.3335 249.648 37.012C253.073 34.762 256.844 33.1548 260.866 32.2762C261.443 32.1476 262.02 32.0405 262.597 31.9548C264.06 31.7191 265.541 31.5905 267.062 31.5691V110.685H267.042ZM267.042 30.1976C247.05 30.5619 230.887 48.7765 230.887 71.1054C230.887 93.4558 247.05 111.649 267.042 112.013V238.187H111.587V228.801H110.394V238.187H-14.9284V219.393H71.7563L71.8718 219.329C125.326 194 159.884 135.821 159.884 71.1054C159.884 6.3901 125.326 -51.768 71.8718 -77.1184L71.7563 -77.1612H-14.9284V-95.9544H110.394V-86.5685H111.587V-95.9544H267.023V30.1976H267.042ZM-14.9284 150.95V125.449H26.0376V131.492H27.2498V125.449H32.0603V131.492H33.2726V125.449H50.1477V131.492H51.3407V125.449H68.2158V131.492H69.4281V125.449H99.5609V112.013C119.553 111.649 135.716 93.4558 135.716 71.1054C135.716 48.7551 119.553 30.5619 99.5609 30.1976V16.7617H69.4281V10.7187H68.2158V16.7617H51.3407V10.7187H50.1477V16.7617H33.2726V10.7187H32.0603V16.7617H27.2498V10.7187H26.0376V16.7617H-14.9284V-8.7387H-9.50217V-10.0673H-14.9284V-75.8326H71.5254C124.479 -50.6751 158.672 6.9901 158.672 71.1054C158.672 135.221 124.46 192.886 71.5254 218.043H-14.9284V152.3H-9.50217V150.95H-14.9284ZM-14.9284 124.121V112.035H98.3294V124.099H-14.9284V124.121ZM-14.9284 30.1762V18.0903H98.3294V30.1762H-14.9284ZM99.5416 110.685V31.5477C118.861 31.9119 134.485 49.5051 134.485 71.1054C134.485 92.7057 118.861 110.32 99.5416 110.685ZM550.206 238.187H424.884V228.801H423.691V238.187H268.255V112.013C288.247 111.649 304.41 93.4558 304.41 71.1054C304.41 48.7551 288.247 30.5619 268.255 30.1976V-95.9544H423.691V-86.5685H424.884V-95.9544H550.206V-77.1612H463.521L463.406 -77.1184C409.933 -51.768 375.393 6.41153 375.393 71.1054C375.393 135.799 409.933 193.979 463.387 219.329L463.502 219.393H550.187V238.187H550.206ZM268.235 110.685V31.5477C269.736 31.5691 271.237 31.7191 272.699 31.9334C273.277 32.0191 273.854 32.1262 274.431 32.2548C278.568 33.1548 282.436 34.8477 285.919 37.1834C286.323 37.4406 286.708 37.7192 287.092 37.9977C296.79 45.0693 303.198 57.2838 303.198 71.1054C303.198 83.2556 298.253 94.1415 290.498 101.406C290.075 101.813 289.632 102.199 289.171 102.584C286.938 104.492 284.475 106.099 281.859 107.385C281.339 107.642 280.8 107.877 280.281 108.113C279.742 108.327 279.203 108.563 278.645 108.756C278.106 108.949 277.548 109.142 276.99 109.313C276.702 109.399 276.432 109.485 276.144 109.549C275.297 109.785 274.45 109.977 273.585 110.149C273.373 110.192 273.142 110.235 272.93 110.256C271.391 110.513 269.813 110.663 268.235 110.685ZM436.929 30.1762V18.0903H550.187V30.1762H436.929ZM550.206 150.95H544.78V152.3H550.206V218.043H463.752C410.798 192.864 376.586 135.221 376.586 71.1054C376.586 6.9901 410.798 -50.6751 463.752 -75.8326H550.206V-10.0673H544.78V-8.7387H550.206V16.7617H509.24V10.7187H508.047V16.7617H503.217V10.7187H502.005V16.7617H485.13V10.7187H483.937V16.7617H467.062V10.7187H465.85V16.7617H435.717V30.1976C415.724 30.5619 399.561 48.7765 399.561 71.1054C399.561 93.4558 415.724 111.649 435.717 112.013V125.449H465.85V131.492H467.062V125.449H483.937V131.492H485.13V125.449H502.005V131.492H503.217V125.449H508.047V131.492H509.24V125.449H550.206V150.95ZM435.736 31.5477V110.685C416.417 110.32 400.793 92.7057 400.793 71.1054C400.793 49.5051 416.417 31.9119 435.736 31.5477ZM550.206 124.121H436.948V112.035H550.206V124.121ZM487.535 110.685C473.354 110.685 459.692 110.685 450.148 110.685C442.24 110.685 437.141 110.685 436.929 110.685V31.5477C437.449 31.5691 469.563 31.5477 499.446 31.5477C510.645 31.5477 521.516 31.5477 530.31 31.5477C542.124 31.5477 550.187 31.5477 550.187 31.5477V110.727C550.206 110.706 517.726 110.685 487.535 110.685ZM-14.9284 31.5262C-14.9284 31.5262 -11.9651 31.5262 -7.00073 31.5262C2.58174 31.5262 19.6301 31.5262 37.2556 31.5262C66.715 31.5262 97.8099 31.5476 98.3294 31.5262V110.663C97.8099 110.663 67.5039 110.663 38.3717 110.663C11.2021 110.663 -14.9476 110.685 -14.9476 110.685V31.5262H-14.9284Z" fill="white" fill-opacity="0.2"/>
<path d="M71.4116 46.0555L70.4688 45.1983C71.9889 43.1411 73.7014 41.234 75.5486 39.5197L76.3183 40.5697C74.548 42.2197 72.8932 44.0626 71.4116 46.0555Z" fill="white" fill-opacity="0.2"/>
<path d="M82.1046 36.2408L81.5273 35.0622C83.644 33.7979 85.876 32.7479 88.1658 31.9764L88.5121 33.2622C86.2993 34.0122 84.1442 35.0193 82.1046 36.2408Z" fill="white" fill-opacity="0.2"/>
<path d="M66.5172 90.3917C65.3819 88.0345 64.4583 85.5488 63.7656 82.9988L64.9201 82.613C65.5936 85.0774 66.4787 87.4774 67.5755 89.7703L66.5172 90.3917Z" fill="white" fill-opacity="0.2"/>
<path d="M62.3646 75.1568C62.2491 73.8282 62.1914 72.4567 62.1914 71.1281C62.1914 69.7995 62.2491 68.4495 62.3646 67.1423L63.5576 67.2709C63.4421 68.5352 63.4036 69.8424 63.4036 71.1281C63.4036 72.4353 63.4614 73.7424 63.5768 75.0282L62.3646 75.1568Z" fill="white" fill-opacity="0.2"/>
<path d="M64.9045 59.6634L63.75 59.2777C64.4427 56.7276 65.3663 54.2419 66.5016 51.8633L67.5599 52.4847C66.4631 54.7776 65.5587 57.1991 64.9045 59.6634Z" fill="white" fill-opacity="0.2"/>
<path d="M9.17737 91.2071V73.7854L10.3896 72.7997C11.0438 75.114 12.9873 76.8069 15.2771 76.8069C18.1056 76.8069 20.3954 74.2354 20.3954 71.1068C20.3954 67.9567 18.0864 65.4067 15.2771 65.4067C12.9873 65.4067 11.0438 67.0996 10.3896 69.4139L9.17737 68.4282V50.9636H7.98438V91.2285H9.17737V91.2071ZM15.2771 66.7567C17.4514 66.7567 19.2024 68.7068 19.2024 71.1068C19.2024 73.5068 17.4514 75.4783 15.2771 75.4783C13.122 75.4783 11.3709 73.5068 11.3709 71.1068C11.3517 68.7068 13.122 66.7567 15.2771 66.7567Z" fill="white" fill-opacity="0.2"/>
<path d="M15.2812 98.6211V97.2711C28.2503 97.2711 38.7756 85.5281 38.7756 71.1064C38.7756 56.6633 28.231 44.9417 15.2812 44.9417V43.5917C28.9045 43.5917 39.9878 55.9347 39.9878 71.1064C39.9878 86.2781 28.9045 98.6211 15.2812 98.6211Z" fill="white" fill-opacity="0.2"/>
</g>
<path d="M78.8456 62.8037L70.4156 49.6937H70.2956V62.8037H66.1856V42.1637H70.5956L78.6656 54.5237H78.8156V42.1637H82.9256V62.8037H78.8456ZM87.8367 42.1637H97.9167C99.9167 42.1637 101.387 42.6037 102.327 43.4837C103.267 44.3437 103.737 45.6337 103.737 47.3537C103.737 48.7937 103.457 49.8937 102.897 50.6537C102.337 51.4137 101.437 51.9337 100.197 52.2137V52.3337C101.557 52.6137 102.517 53.1337 103.077 53.8937C103.657 54.6537 103.947 55.7937 103.947 57.3137C103.947 59.0937 103.487 60.4537 102.567 61.3937C101.667 62.3337 100.117 62.8037 97.9167 62.8037H87.8367V42.1637ZM96.3867 50.5337C97.5467 50.5337 98.3367 50.3737 98.7567 50.0537C99.1967 49.7137 99.4167 49.1037 99.4167 48.2237C99.4167 47.5637 99.3367 47.0737 99.1767 46.7537C99.0167 46.4137 98.7267 46.1837 98.3067 46.0637C97.8867 45.9237 97.2467 45.8537 96.3867 45.8537H92.0967V50.5337H96.3867ZM96.5367 59.1137C97.3767 59.1137 98.0167 59.0437 98.4567 58.9037C98.8967 58.7637 99.1967 58.5237 99.3567 58.1837C99.5367 57.8437 99.6267 57.3437 99.6267 56.6837C99.6267 56.0237 99.5367 55.5237 99.3567 55.1837C99.1767 54.8237 98.8667 54.5737 98.4267 54.4337C98.0067 54.2937 97.3767 54.2237 96.5367 54.2237H92.0967V59.1137H96.5367ZM121.429 62.8037L119.929 58.3637H111.889L110.419 62.8037H106.129L113.119 42.1637H118.849L125.839 62.8037H121.429ZM115.969 46.1837H115.819L113.029 54.6437H118.789L115.969 46.1837Z" fill="white"/>
<path d="M78.8456 62.8037L78.0045 63.3446L78.2997 63.8037H78.8456V62.8037ZM70.4156 49.6937L71.2567 49.1529L70.9615 48.6937H70.4156V49.6937ZM70.2956 49.6937V48.6937H69.2956V49.6937H70.2956ZM70.2956 62.8037V63.8037H71.2956V62.8037H70.2956ZM66.1856 62.8037H65.1856V63.8037H66.1856V62.8037ZM66.1856 42.1637V41.1637H65.1856V42.1637H66.1856ZM70.5956 42.1637L71.4329 41.617L71.1369 41.1637H70.5956V42.1637ZM78.6656 54.5237L77.8283 55.0704L78.1242 55.5237H78.6656V54.5237ZM78.8156 54.5237V55.5237H79.8156V54.5237H78.8156ZM78.8156 42.1637V41.1637H77.8156V42.1637H78.8156ZM82.9256 42.1637H83.9256V41.1637H82.9256V42.1637ZM82.9256 62.8037V63.8037H83.9256V62.8037H82.9256ZM79.6867 62.2629L71.2567 49.1529L69.5745 50.2346L78.0045 63.3446L79.6867 62.2629ZM70.4156 48.6937H70.2956V50.6937H70.4156V48.6937ZM69.2956 49.6937V62.8037H71.2956V49.6937H69.2956ZM70.2956 61.8037H66.1856V63.8037H70.2956V61.8037ZM67.1856 62.8037V42.1637H65.1856V62.8037H67.1856ZM66.1856 43.1637H70.5956V41.1637H66.1856V43.1637ZM69.7583 42.7104L77.8283 55.0704L79.5029 53.977L71.4329 41.617L69.7583 42.7104ZM78.6656 55.5237H78.8156V53.5237H78.6656V55.5237ZM79.8156 54.5237V42.1637H77.8156V54.5237H79.8156ZM78.8156 43.1637H82.9256V41.1637H78.8156V43.1637ZM81.9256 42.1637V62.8037H83.9256V42.1637H81.9256ZM82.9256 61.8037H78.8456V63.8037H82.9256V61.8037ZM87.8367 42.1637V41.1637H86.8367V42.1637H87.8367ZM102.327 43.4837L101.643 44.2138L101.652 44.2215L102.327 43.4837ZM102.897 50.6537L102.092 50.0605L102.897 50.6537ZM100.197 52.2137L99.9764 51.2383L99.1967 51.4143V52.2137H100.197ZM100.197 52.3337H99.1967V53.1488L99.995 53.3132L100.197 52.3337ZM103.077 53.8937L102.272 54.4869L102.277 54.4937L102.282 54.5004L103.077 53.8937ZM102.567 61.3937L101.852 60.6942L101.844 60.7021L102.567 61.3937ZM87.8367 62.8037H86.8367V63.8037H87.8367V62.8037ZM98.7567 50.0537L99.3627 50.8492L99.3681 50.845L98.7567 50.0537ZM99.1767 46.7537L98.2719 47.1795L98.2769 47.1903L98.2823 47.2009L99.1767 46.7537ZM98.3067 46.0637L97.9905 47.0124L98.0111 47.0193L98.032 47.0252L98.3067 46.0637ZM92.0967 45.8537V44.8537H91.0967V45.8537H92.0967ZM92.0967 50.5337H91.0967V51.5337H92.0967V50.5337ZM98.4567 58.9037L98.1535 57.9508L98.4567 58.9037ZM99.3567 58.1837L98.4729 57.7158L98.4619 57.7366L98.4519 57.7579L99.3567 58.1837ZM99.3567 55.1837L98.4623 55.6309L98.4675 55.6413L98.4729 55.6516L99.3567 55.1837ZM98.4267 54.4337L98.1104 55.3825L98.1235 55.3866L98.4267 54.4337ZM92.0967 54.2237V53.2237H91.0967V54.2237H92.0967ZM92.0967 59.1137H91.0967V60.1137H92.0967V59.1137ZM87.8367 43.1637H97.9167V41.1637H87.8367V43.1637ZM97.9167 43.1637C99.7984 43.1637 100.968 43.5817 101.643 44.2137L103.01 42.7537C101.805 41.6257 100.035 41.1637 97.9167 41.1637V43.1637ZM101.652 44.2215C102.319 44.8325 102.737 45.8119 102.737 47.3537H104.737C104.737 45.4555 104.214 43.8549 103.002 42.7459L101.652 44.2215ZM102.737 47.3537C102.737 48.6859 102.474 49.5414 102.092 50.0605L103.702 51.2469C104.439 50.246 104.737 48.9015 104.737 47.3537H102.737ZM102.092 50.0605C101.717 50.5686 101.064 50.9927 99.9764 51.2383L100.417 53.1892C101.81 52.8747 102.956 52.2588 103.702 51.2469L102.092 50.0605ZM99.1967 52.2137V52.3337H101.197V52.2137H99.1967ZM99.995 53.3132C101.225 53.5664 101.914 54.0016 102.272 54.4869L103.882 53.3005C103.119 52.2658 101.889 51.6611 100.398 51.3543L99.995 53.3132ZM102.282 54.5004C102.671 55.01 102.947 55.8926 102.947 57.3137H104.947C104.947 55.6948 104.643 54.2974 103.872 53.287L102.282 54.5004ZM102.947 57.3137C102.947 58.9268 102.532 59.9993 101.852 60.6942L103.281 62.0932C104.441 60.9081 104.947 59.2606 104.947 57.3137H102.947ZM101.844 60.7021C101.228 61.3456 100.022 61.8037 97.9167 61.8037V63.8037C100.211 63.8037 102.105 63.3218 103.289 62.0853L101.844 60.7021ZM97.9167 61.8037H87.8367V63.8037H97.9167V61.8037ZM88.8367 62.8037V42.1637H86.8367V62.8037H88.8367ZM96.3867 51.5337C97.007 51.5337 97.5658 51.4914 98.0477 51.3938C98.52 51.2982 98.986 51.1362 99.3627 50.8491L98.1506 49.2583C98.1074 49.2912 97.9684 49.3693 97.6507 49.4336C97.3426 49.496 96.9264 49.5337 96.3867 49.5337V51.5337ZM99.3681 50.845C100.168 50.2269 100.417 49.2315 100.417 48.2237H98.4167C98.4167 48.9759 98.2253 49.2005 98.1452 49.2624L99.3681 50.845ZM100.417 48.2237C100.417 47.5185 100.337 46.8383 100.071 46.3065L98.2823 47.2009C98.3363 47.3091 98.4167 47.6089 98.4167 48.2237H100.417ZM100.081 46.3279C99.7781 45.6833 99.2291 45.2872 98.5814 45.1022L98.032 47.0252C98.2243 47.0802 98.2552 47.1441 98.2719 47.1795L100.081 46.3279ZM98.6229 45.115C98.0451 44.9224 97.2728 44.8537 96.3867 44.8537V46.8537C97.2205 46.8537 97.7283 46.925 97.9905 47.0124L98.6229 45.115ZM96.3867 44.8537H92.0967V46.8537H96.3867V44.8537ZM91.0967 45.8537V50.5337H93.0967V45.8537H91.0967ZM92.0967 51.5337H96.3867V49.5337H92.0967V51.5337ZM96.5367 60.1137C97.4099 60.1137 98.1723 60.0436 98.7599 59.8566L98.1535 57.9508C97.8611 58.0438 97.3434 58.1137 96.5367 58.1137V60.1137ZM98.7599 59.8566C99.3998 59.653 99.9567 59.2571 100.261 58.6095L98.4519 57.7579C98.4366 57.7903 98.3936 57.8744 98.1535 57.9508L98.7599 59.8566ZM100.24 58.6516C100.533 58.0986 100.627 57.4053 100.627 56.6837H98.6267C98.6267 57.2821 98.5401 57.5888 98.4729 57.7158L100.24 58.6516ZM100.627 56.6837C100.627 55.9621 100.533 55.2688 100.24 54.7158L98.4729 55.6516C98.5401 55.7786 98.6267 56.0853 98.6267 56.6837H100.627ZM100.251 54.7365C99.9323 54.0989 99.3859 53.6895 98.7299 53.4808L98.1235 55.3866C98.3475 55.4579 98.4211 55.5486 98.4623 55.6309L100.251 54.7365ZM98.7429 53.485C98.1666 53.2929 97.4059 53.2237 96.5367 53.2237V55.2237C97.3475 55.2237 97.8468 55.2945 98.1105 55.3824L98.7429 53.485ZM96.5367 53.2237H92.0967V55.2237H96.5367V53.2237ZM91.0967 54.2237V59.1137H93.0967V54.2237H91.0967ZM92.0967 60.1137H96.5367V58.1137H92.0967V60.1137ZM121.429 62.8037L120.481 63.1238L120.711 63.8037H121.429V62.8037ZM119.929 58.3637L120.876 58.0436L120.646 57.3637H119.929V58.3637ZM111.889 58.3637V57.3637H111.166L110.939 58.0494L111.889 58.3637ZM110.419 62.8037V63.8037H111.141L111.368 63.118L110.419 62.8037ZM106.129 62.8037L105.182 62.4829L104.734 63.8037H106.129V62.8037ZM113.119 42.1637V41.1637H112.402L112.172 41.8429L113.119 42.1637ZM118.849 42.1637L119.796 41.8429L119.566 41.1637H118.849V42.1637ZM125.839 62.8037V63.8037H127.233L126.786 62.4829L125.839 62.8037ZM115.969 46.1837L116.917 45.8675L116.689 45.1837H115.969V46.1837ZM115.819 46.1837V45.1837H115.096L114.869 45.8705L115.819 46.1837ZM113.029 54.6437L112.079 54.3305L111.646 55.6437H113.029V54.6437ZM118.789 54.6437V55.6437H120.176L119.737 54.3275L118.789 54.6437ZM122.376 62.4836L120.876 58.0436L118.981 58.6838L120.481 63.1238L122.376 62.4836ZM119.929 57.3637H111.889V59.3637H119.929V57.3637ZM110.939 58.0494L109.469 62.4894L111.368 63.118L112.838 58.678L110.939 58.0494ZM110.419 61.8037H106.129V63.8037H110.419V61.8037ZM107.076 63.1245L114.066 42.4845L112.172 41.8429L105.182 62.4829L107.076 63.1245ZM113.119 43.1637H118.849V41.1637H113.119V43.1637ZM117.902 42.4845L124.892 63.1245L126.786 62.4829L119.796 41.8429L117.902 42.4845ZM125.839 61.8037H121.429V63.8037H125.839V61.8037ZM115.969 45.1837H115.819V47.1837H115.969V45.1837ZM114.869 45.8705L112.079 54.3305L113.978 54.9569L116.768 46.4969L114.869 45.8705ZM113.029 55.6437H118.789V53.6437H113.029V55.6437ZM119.737 54.3275L116.917 45.8675L115.02 46.4999L117.84 54.9599L119.737 54.3275Z" fill="black"/>
</svg>
