<svg width="186" height="96" viewBox="0 0 186 96" fill="none" xmlns="http://www.w3.org/2000/svg">
<rect width="185.6" height="95.8584" fill="#1A1A1A"/>
<mask id="mask0" mask-type="alpha" maskUnits="userSpaceOnUse" x="0" y="0" width="186" height="96">
<rect width="185.6" height="95.8584" fill="#C4C4C4"/>
</mask>
<g mask="url(#mask0)">
<path d="M551.418 239.515V-97.3045H292.345V-103.347H291.152V-97.3045H244.164V-103.347H242.951V-97.3045H-16.1406V239.515H551.418ZM267.042 110.685C265.272 110.642 263.54 110.47 261.847 110.17C261.751 110.149 261.655 110.127 261.558 110.106C260.808 109.956 260.077 109.806 259.346 109.592C258.922 109.485 258.48 109.356 258.076 109.227C257.691 109.12 257.287 108.97 256.902 108.842C251.322 106.87 246.338 103.399 242.336 98.8772C241.739 98.2129 241.162 97.5058 240.623 96.7986C240.258 96.3272 239.892 95.8343 239.565 95.3414C239.296 94.9557 239.026 94.5486 238.757 94.1414C234.581 87.6485 232.118 79.6983 232.118 71.1268C232.118 62.6838 234.504 54.8622 238.564 48.4336C238.891 47.9193 239.219 47.405 239.565 46.9121C239.911 46.4192 240.258 45.9264 240.623 45.4549C240.893 45.0907 241.181 44.7478 241.47 44.4049C241.758 44.0621 242.047 43.7192 242.336 43.3763C244.106 41.362 246.088 39.562 248.205 38.0191C248.666 37.6762 249.147 37.3334 249.648 37.012C253.073 34.7619 256.844 33.1547 260.866 32.2762C261.443 32.1476 262.02 32.0404 262.597 31.9547C264.06 31.719 265.541 31.5904 267.062 31.569V110.685H267.042ZM267.042 30.1976C247.05 30.5618 230.887 48.7764 230.887 71.1053C230.887 93.4557 247.05 111.649 267.042 112.013V238.187H111.587V228.801H110.394V238.187H-14.9284V219.393H71.7563L71.8718 219.329C125.326 194 159.884 135.821 159.884 71.1053C159.884 6.39004 125.326 -51.768 71.8718 -77.1184L71.7563 -77.1613H-14.9284V-95.9544H110.394V-86.5686H111.587V-95.9544H267.023V30.1976H267.042ZM-14.9284 150.949V125.449H26.0376V131.492H27.2498V125.449H32.0603V131.492H33.2726V125.449H50.1477V131.492H51.3407V125.449H68.2158V131.492H69.4281V125.449H99.5609V112.013C119.553 111.649 135.716 93.4557 135.716 71.1053C135.716 48.755 119.553 30.5618 99.5609 30.1976V16.7616H69.4281V10.7187H68.2158V16.7616H51.3407V10.7187H50.1477V16.7616H33.2726V10.7187H32.0603V16.7616H27.2498V10.7187H26.0376V16.7616H-14.9284V-8.73876H-9.50217V-10.0674H-14.9284V-75.8327H71.5254C124.479 -50.6751 158.672 6.99004 158.672 71.1053C158.672 135.221 124.46 192.886 71.5254 218.043H-14.9284V152.299H-9.50217V150.949H-14.9284ZM-14.9284 124.12V112.035H98.3294V124.099H-14.9284V124.12ZM-14.9284 30.1761V18.0902H98.3294V30.1761H-14.9284ZM99.5416 110.685V31.5476C118.861 31.9119 134.485 49.505 134.485 71.1053C134.485 92.7057 118.861 110.32 99.5416 110.685ZM550.206 238.187H424.884V228.801H423.691V238.187H268.255V112.013C288.247 111.649 304.41 93.4557 304.41 71.1053C304.41 48.755 288.247 30.5618 268.255 30.1976V-95.9544H423.691V-86.5686H424.884V-95.9544H550.206V-77.1613H463.521L463.406 -77.1184C409.933 -51.768 375.393 6.41147 375.393 71.1053C375.393 135.799 409.933 193.979 463.387 219.329L463.502 219.393H550.187V238.187H550.206ZM268.235 110.685V31.5476C269.736 31.569 271.237 31.719 272.699 31.9333C273.277 32.019 273.854 32.1262 274.431 32.2547C278.568 33.1548 282.436 34.8476 285.919 37.1834C286.323 37.4405 286.708 37.7191 287.092 37.9977C296.79 45.0692 303.198 57.2837 303.198 71.1053C303.198 83.2555 298.253 94.1414 290.498 101.406C290.075 101.813 289.632 102.199 289.171 102.584C286.938 104.492 284.475 106.099 281.859 107.385C281.339 107.642 280.8 107.877 280.281 108.113C279.742 108.327 279.203 108.563 278.645 108.756C278.106 108.949 277.548 109.142 276.99 109.313C276.702 109.399 276.432 109.485 276.144 109.549C275.297 109.785 274.45 109.977 273.585 110.149C273.373 110.192 273.142 110.235 272.93 110.256C271.391 110.513 269.813 110.663 268.235 110.685ZM436.929 30.1761V18.0902H550.187V30.1761H436.929ZM550.206 150.949H544.78V152.299H550.206V218.043H463.752C410.798 192.864 376.586 135.221 376.586 71.1053C376.586 6.99004 410.798 -50.6751 463.752 -75.8327H550.206V-10.0674H544.78V-8.73876H550.206V16.7616H509.24V10.7187H508.047V16.7616H503.217V10.7187H502.005V16.7616H485.13V10.7187H483.937V16.7616H467.062V10.7187H465.85V16.7616H435.717V30.1976C415.724 30.5618 399.561 48.7764 399.561 71.1053C399.561 93.4557 415.724 111.649 435.717 112.013V125.449H465.85V131.492H467.062V125.449H483.937V131.492H485.13V125.449H502.005V131.492H503.217V125.449H508.047V131.492H509.24V125.449H550.206V150.949ZM435.736 31.5476V110.685C416.417 110.32 400.793 92.7057 400.793 71.1053C400.793 49.505 416.417 31.9119 435.736 31.5476ZM550.206 124.12H436.948V112.035H550.206V124.12ZM487.535 110.685C473.354 110.685 459.692 110.685 450.148 110.685C442.24 110.685 437.141 110.685 436.929 110.685V31.5476C437.449 31.569 469.563 31.5476 499.446 31.5476C510.645 31.5476 521.516 31.5476 530.31 31.5476C542.124 31.5476 550.187 31.5476 550.187 31.5476V110.727C550.206 110.706 517.726 110.685 487.535 110.685ZM-14.9284 31.5262C-14.9284 31.5262 -11.9651 31.5262 -7.00073 31.5262C2.58174 31.5262 19.6301 31.5262 37.2556 31.5262C66.715 31.5262 97.8099 31.5476 98.3294 31.5262V110.663C97.8099 110.663 67.5039 110.663 38.3717 110.663C11.2021 110.663 -14.9476 110.685 -14.9476 110.685V31.5262H-14.9284Z" fill="white" fill-opacity="0.2"/>
<path d="M71.4116 46.0555L70.4688 45.1983C71.9889 43.1411 73.7014 41.234 75.5486 39.5197L76.3183 40.5697C74.548 42.2197 72.8932 44.0626 71.4116 46.0555Z" fill="white" fill-opacity="0.2"/>
<path d="M82.1046 36.2409L81.5273 35.0623C83.644 33.798 85.876 32.748 88.1658 31.9766L88.5121 33.2623C86.2993 34.0123 84.1442 35.0195 82.1046 36.2409Z" fill="white" fill-opacity="0.2"/>
<path d="M66.5172 90.3917C65.3819 88.0345 64.4583 85.5488 63.7656 82.9988L64.9201 82.613C65.5936 85.0774 66.4787 87.4774 67.5755 89.7703L66.5172 90.3917Z" fill="white" fill-opacity="0.2"/>
<path d="M62.3685 75.1568C62.253 73.8282 62.1953 72.4567 62.1953 71.1281C62.1953 69.7995 62.253 68.4495 62.3685 67.1423L63.5615 67.2709C63.446 68.5352 63.4075 69.8424 63.4075 71.1281C63.4075 72.4353 63.4653 73.7424 63.5807 75.0282L62.3685 75.1568Z" fill="white" fill-opacity="0.2"/>
<path d="M64.9045 59.6634L63.75 59.2777C64.4427 56.7276 65.3663 54.2419 66.5016 51.8633L67.5599 52.4847C66.4631 54.7776 65.5587 57.1991 64.9045 59.6634Z" fill="white" fill-opacity="0.2"/>
<path d="M9.17737 91.2071V73.7854L10.3896 72.7997C11.0438 75.114 12.9873 76.8069 15.2771 76.8069C18.1056 76.8069 20.3954 74.2354 20.3954 71.1068C20.3954 67.9567 18.0864 65.4067 15.2771 65.4067C12.9873 65.4067 11.0438 67.0996 10.3896 69.4139L9.17737 68.4282V50.9636H7.98438V91.2285H9.17737V91.2071ZM15.2771 66.7567C17.4514 66.7567 19.2024 68.7068 19.2024 71.1068C19.2024 73.5068 17.4514 75.4783 15.2771 75.4783C13.122 75.4783 11.3709 73.5068 11.3709 71.1068C11.3517 68.7068 13.122 66.7567 15.2771 66.7567Z" fill="white" fill-opacity="0.2"/>
<path d="M15.2812 98.6211V97.2711C28.2503 97.2711 38.7756 85.5281 38.7756 71.1064C38.7756 56.6633 28.231 44.9417 15.2812 44.9417V43.5917C28.9045 43.5917 39.9878 55.9347 39.9878 71.1064C39.9878 86.2781 28.9045 98.6211 15.2812 98.6211Z" fill="white" fill-opacity="0.2"/>
</g>
<path d="M57.6405 63.0879L49.2105 49.9779H49.0905V63.0879H44.9805V42.4479H49.3905L57.4605 54.8079H57.6105V42.4479H61.7205V63.0879H57.6405ZM79.8916 62.8479C79.2116 62.9879 78.3716 63.0979 77.3716 63.1779C76.3916 63.2779 75.4816 63.3279 74.6416 63.3279C72.1016 63.3279 70.2216 63.0179 69.0016 62.3979C67.8016 61.7779 67.0016 60.7479 66.6016 59.3079C66.2016 57.8679 66.0016 55.6879 66.0016 52.7679C66.0016 49.8879 66.2016 47.7279 66.6016 46.2879C67.0016 44.8279 67.8016 43.7879 69.0016 43.1679C70.2216 42.5279 72.1016 42.2079 74.6416 42.2079C75.5016 42.2079 76.4116 42.2579 77.3716 42.3579C78.3316 42.4579 79.1316 42.5879 79.7716 42.7479V46.1979C78.0316 45.9979 76.6816 45.8979 75.7216 45.8979C73.9016 45.8979 72.6416 46.0379 71.9416 46.3179C71.2416 46.5779 70.7916 47.1479 70.5916 48.0279C70.3916 48.9079 70.2916 50.4879 70.2916 52.7679C70.2916 55.0479 70.3916 56.6279 70.5916 57.5079C70.7916 58.3879 71.2416 58.9679 71.9416 59.2479C72.6416 59.5079 73.9016 59.6379 75.7216 59.6379C77.2416 59.6379 78.6316 59.5379 79.8916 59.3379V62.8479ZM97.0889 63.0879L95.5889 58.6479H87.5489L86.0789 63.0879H81.7889L88.7789 42.4479H94.5089L101.499 63.0879H97.0889ZM91.6289 46.4679H91.4789L88.6889 54.9279H94.4489L91.6289 46.4679ZM117.685 63.0879L116.185 58.6479H108.145L106.675 63.0879H102.385L109.375 42.4479H115.105L122.095 63.0879H117.685ZM112.225 46.4679H112.075L109.285 54.9279H115.045L112.225 46.4679ZM125.02 42.4479H135.1C137.1 42.4479 138.57 42.8879 139.51 43.7679C140.45 44.6279 140.92 45.9179 140.92 47.6379C140.92 49.0779 140.64 50.1779 140.08 50.9379C139.52 51.6979 138.62 52.2179 137.38 52.4979V52.6179C138.74 52.8979 139.7 53.4179 140.26 54.1779C140.84 54.9379 141.13 56.0779 141.13 57.5979C141.13 59.3779 140.67 60.7379 139.75 61.6779C138.85 62.6179 137.3 63.0879 135.1 63.0879H125.02V42.4479ZM133.57 50.8179C134.73 50.8179 135.52 50.6579 135.94 50.3379C136.38 49.9979 136.6 49.3879 136.6 48.5079C136.6 47.8479 136.52 47.3579 136.36 47.0379C136.2 46.6979 135.91 46.4679 135.49 46.3479C135.07 46.2079 134.43 46.1379 133.57 46.1379H129.28V50.8179H133.57ZM133.72 59.3979C134.56 59.3979 135.2 59.3279 135.64 59.1879C136.08 59.0479 136.38 58.8079 136.54 58.4679C136.72 58.1279 136.81 57.6279 136.81 56.9679C136.81 56.3079 136.72 55.8079 136.54 55.4679C136.36 55.1079 136.05 54.8579 135.61 54.7179C135.19 54.5779 134.56 54.5079 133.72 54.5079H129.28V59.3979H133.72Z" fill="white"/>
<path d="M57.6405 63.0879L56.7994 63.6287L57.0946 64.0879H57.6405V63.0879ZM49.2105 49.9779L50.0516 49.437L49.7564 48.9779H49.2105V49.9779ZM49.0905 49.9779V48.9779H48.0905V49.9779H49.0905ZM49.0905 63.0879V64.0879H50.0905V63.0879H49.0905ZM44.9805 63.0879H43.9805V64.0879H44.9805V63.0879ZM44.9805 42.4479V41.4479H43.9805V42.4479H44.9805ZM49.3905 42.4479L50.2278 41.9012L49.9319 41.4479H49.3905V42.4479ZM57.4605 54.8079L56.6232 55.3546L56.9191 55.8079H57.4605V54.8079ZM57.6105 54.8079V55.8079H58.6105V54.8079H57.6105ZM57.6105 42.4479V41.4479H56.6105V42.4479H57.6105ZM61.7205 42.4479H62.7205V41.4479H61.7205V42.4479ZM61.7205 63.0879V64.0879H62.7205V63.0879H61.7205ZM58.4816 62.547L50.0516 49.437L48.3694 50.5187L56.7994 63.6287L58.4816 62.547ZM49.2105 48.9779H49.0905V50.9779H49.2105V48.9779ZM48.0905 49.9779V63.0879H50.0905V49.9779H48.0905ZM49.0905 62.0879H44.9805V64.0879H49.0905V62.0879ZM45.9805 63.0879V42.4479H43.9805V63.0879H45.9805ZM44.9805 43.4479H49.3905V41.4479H44.9805V43.4479ZM48.5532 42.9946L56.6232 55.3546L58.2978 54.2612L50.2278 41.9012L48.5532 42.9946ZM57.4605 55.8079H57.6105V53.8079H57.4605V55.8079ZM58.6105 54.8079V42.4479H56.6105V54.8079H58.6105ZM57.6105 43.4479H61.7205V41.4479H57.6105V43.4479ZM60.7205 42.4479V63.0879H62.7205V42.4479H60.7205ZM61.7205 62.0879H57.6405V64.0879H61.7205V62.0879ZM79.8916 62.8479L80.0933 63.8273L80.8916 63.663V62.8479H79.8916ZM77.3716 63.1779L77.2919 62.1811L77.281 62.1819L77.2701 62.1831L77.3716 63.1779ZM69.0016 62.3979L68.5426 63.2863L68.5486 63.2894L69.0016 62.3979ZM66.6016 59.3079L65.6381 59.5755L66.6016 59.3079ZM66.6016 46.2879L67.5651 46.5555L67.5661 46.5521L66.6016 46.2879ZM69.0016 43.1679L69.4606 44.0563L69.4662 44.0534L69.0016 43.1679ZM79.7716 42.7479H80.7716V41.9671L80.0141 41.7777L79.7716 42.7479ZM79.7716 46.1979L79.6574 47.1913L80.7716 47.3194V46.1979H79.7716ZM71.9416 46.3179L72.2898 47.2553L72.3014 47.251L72.313 47.2464L71.9416 46.3179ZM70.5916 48.0279L69.6165 47.8063L70.5916 48.0279ZM70.5916 57.5079L69.6165 57.7295L70.5916 57.5079ZM71.9416 59.2479L71.5702 60.1764L71.5818 60.181L71.5934 60.1853L71.9416 59.2479ZM79.8916 59.3379H80.8916V58.1666L79.7348 58.3503L79.8916 59.3379ZM79.6899 61.8684C79.0635 61.9974 78.2672 62.103 77.2919 62.1811L77.4513 64.1747C78.476 64.0927 79.3597 63.9784 80.0933 63.8273L79.6899 61.8684ZM77.2701 62.1831C76.3182 62.2802 75.4425 62.3279 74.6416 62.3279V64.3279C75.5207 64.3279 76.465 64.2756 77.4731 64.1727L77.2701 62.1831ZM74.6416 62.3279C72.1462 62.3279 70.4599 62.0173 69.4547 61.5064L68.5486 63.2894C69.9833 64.0185 72.057 64.3279 74.6416 64.3279V62.3279ZM69.4606 61.5095C68.5356 61.0315 67.8995 60.2438 67.5651 59.0402L65.6381 59.5755C66.1038 61.2519 67.0676 62.5242 68.5426 63.2863L69.4606 61.5095ZM67.5651 59.0402C67.2026 57.7352 67.0016 55.6662 67.0016 52.7679H65.0016C65.0016 55.7096 65.2006 58.0006 65.6381 59.5755L67.5651 59.0402ZM67.0016 52.7679C67.0016 49.9111 67.2024 47.8613 67.5651 46.5555L65.6381 46.0202C65.2008 47.5945 65.0016 49.8647 65.0016 52.7679H67.0016ZM67.5661 46.5521C67.9021 45.3256 68.5403 44.5318 69.4606 44.0563L68.5426 42.2795C67.0629 43.044 66.1011 44.3301 65.6371 46.0237L67.5661 46.5521ZM69.4662 44.0534C70.4673 43.5282 72.1485 43.2079 74.6416 43.2079V41.2079C72.0547 41.2079 69.9759 41.5275 68.5371 42.2823L69.4662 44.0534ZM74.6416 43.2079C75.4631 43.2079 76.3383 43.2557 77.268 43.3525L77.4752 41.3633C76.4849 41.2601 75.5401 41.2079 74.6416 41.2079V43.2079ZM77.268 43.3525C78.2005 43.4496 78.9504 43.5734 79.5291 43.718L80.0141 41.7777C79.3128 41.6024 78.4627 41.4661 77.4752 41.3633L77.268 43.3525ZM78.7716 42.7479V46.1979H80.7716V42.7479H78.7716ZM79.8858 45.2044C78.1333 45.003 76.7388 44.8979 75.7216 44.8979V46.8979C76.6244 46.8979 77.9299 46.9928 79.6574 47.1913L79.8858 45.2044ZM75.7216 44.8979C73.9047 44.8979 72.4678 45.0304 71.5702 45.3894L72.313 47.2464C72.8154 47.0454 73.8985 46.8979 75.7216 46.8979V44.8979ZM71.5934 45.3805C70.508 45.7836 69.8733 46.6761 69.6165 47.8063L71.5667 48.2495C71.7099 47.6197 71.9752 47.3721 72.2898 47.2553L71.5934 45.3805ZM69.6165 47.8063C69.3886 48.8087 69.2916 50.4925 69.2916 52.7679H71.2916C71.2916 50.4833 71.3946 49.0071 71.5667 48.2495L69.6165 47.8063ZM69.2916 52.7679C69.2916 55.0433 69.3886 56.7271 69.6165 57.7295L71.5667 57.2863C71.3946 56.5287 71.2916 55.0525 71.2916 52.7679H69.2916ZM69.6165 57.7295C69.8729 58.8579 70.5022 59.7492 71.5702 60.1764L72.313 58.3194C71.981 58.1866 71.7103 57.9179 71.5667 57.2863L69.6165 57.7295ZM71.5934 60.1853C72.4801 60.5147 73.9055 60.6379 75.7216 60.6379V58.6379C73.8978 58.6379 72.8031 58.5011 72.2898 58.3105L71.5934 60.1853ZM75.7216 60.6379C77.2845 60.6379 78.7278 60.5351 80.0484 60.3255L79.7348 58.3503C78.5354 58.5406 77.1987 58.6379 75.7216 58.6379V60.6379ZM78.8916 59.3379V62.8479H80.8916V59.3379H78.8916ZM97.0889 63.0879L96.1415 63.408L96.3712 64.0879H97.0889V63.0879ZM95.5889 58.6479L96.5363 58.3278L96.3066 57.6479H95.5889V58.6479ZM87.5489 58.6479V57.6479H86.8266L86.5995 58.3336L87.5489 58.6479ZM86.0789 63.0879V64.0879H86.8012L87.0282 63.4022L86.0789 63.0879ZM81.7889 63.0879L80.8417 62.7671L80.3944 64.0879H81.7889V63.0879ZM88.7789 42.4479V41.4479H88.0617L87.8317 42.1271L88.7789 42.4479ZM94.5089 42.4479L95.456 42.1271L95.226 41.4479H94.5089V42.4479ZM101.499 63.0879V64.0879H102.893L102.446 62.7671L101.499 63.0879ZM91.6289 46.4679L92.5776 46.1517L92.3496 45.4679H91.6289V46.4679ZM91.4789 46.4679V45.4679H90.7557L90.5292 46.1547L91.4789 46.4679ZM88.6889 54.9279L87.7392 54.6147L87.3061 55.9279H88.6889V54.9279ZM94.4489 54.9279V55.9279H95.8363L95.3976 54.6117L94.4489 54.9279ZM98.0363 62.7678L96.5363 58.3278L94.6415 58.968L96.1415 63.408L98.0363 62.7678ZM95.5889 57.6479H87.5489V59.6479H95.5889V57.6479ZM86.5995 58.3336L85.1295 62.7736L87.0282 63.4022L88.4982 58.9622L86.5995 58.3336ZM86.0789 62.0879H81.7889V64.0879H86.0789V62.0879ZM82.736 63.4087L89.726 42.7687L87.8317 42.1271L80.8417 62.7671L82.736 63.4087ZM88.7789 43.4479H94.5089V41.4479H88.7789V43.4479ZM93.5617 42.7687L100.552 63.4087L102.446 62.7671L95.456 42.1271L93.5617 42.7687ZM101.499 62.0879H97.0889V64.0879H101.499V62.0879ZM91.6289 45.4679H91.4789V47.4679H91.6289V45.4679ZM90.5292 46.1547L87.7392 54.6147L89.6386 55.2411L92.4286 46.7811L90.5292 46.1547ZM88.6889 55.9279H94.4489V53.9279H88.6889V55.9279ZM95.3976 54.6117L92.5776 46.1517L90.6802 46.7841L93.5002 55.2441L95.3976 54.6117ZM117.685 63.0879L116.737 63.408L116.967 64.0879H117.685V63.0879ZM116.185 58.6479L117.132 58.3278L116.902 57.6479H116.185V58.6479ZM108.145 58.6479V57.6479H107.422L107.195 58.3336L108.145 58.6479ZM106.675 63.0879V64.0879H107.397L107.624 63.4022L106.675 63.0879ZM102.385 63.0879L101.437 62.7671L100.99 64.0879H102.385V63.0879ZM109.375 42.4479V41.4479H108.657L108.427 42.1271L109.375 42.4479ZM115.105 42.4479L116.052 42.1271L115.822 41.4479H115.105V42.4479ZM122.095 63.0879V64.0879H123.489L123.042 62.7671L122.095 63.0879ZM112.225 46.4679L113.173 46.1517L112.945 45.4679H112.225V46.4679ZM112.075 46.4679V45.4679H111.351L111.125 46.1547L112.075 46.4679ZM109.285 54.9279L108.335 54.6147L107.902 55.9279H109.285V54.9279ZM115.045 54.9279V55.9279H116.432L115.993 54.6117L115.045 54.9279ZM118.632 62.7678L117.132 58.3278L115.237 58.968L116.737 63.408L118.632 62.7678ZM116.185 57.6479H108.145V59.6479H116.185V57.6479ZM107.195 58.3336L105.725 62.7736L107.624 63.4022L109.094 58.9622L107.195 58.3336ZM106.675 62.0879H102.385V64.0879H106.675V62.0879ZM103.332 63.4087L110.322 42.7687L108.427 42.1271L101.437 62.7671L103.332 63.4087ZM109.375 43.4479H115.105V41.4479H109.375V43.4479ZM114.157 42.7687L121.147 63.4087L123.042 62.7671L116.052 42.1271L114.157 42.7687ZM122.095 62.0879H117.685V64.0879H122.095V62.0879ZM112.225 45.4679H112.075V47.4679H112.225V45.4679ZM111.125 46.1547L108.335 54.6147L110.234 55.2411L113.024 46.7811L111.125 46.1547ZM109.285 55.9279H115.045V53.9279H109.285V55.9279ZM115.993 54.6117L113.173 46.1517L111.276 46.7841L114.096 55.2441L115.993 54.6117ZM125.02 42.4479V41.4479H124.02V42.4479H125.02ZM139.51 43.7679L138.827 44.498L138.835 44.5057L139.51 43.7679ZM140.08 50.9379L139.275 50.3447L140.08 50.9379ZM137.38 52.4979L137.16 51.5224L136.38 51.6985V52.4979H137.38ZM137.38 52.6179H136.38V53.433L137.179 53.5973L137.38 52.6179ZM140.26 54.1779L139.455 54.7711L139.46 54.7779L139.465 54.7846L140.26 54.1779ZM139.75 61.6779L139.036 60.9784L139.028 60.9863L139.75 61.6779ZM125.02 63.0879H124.02V64.0879H125.02V63.0879ZM135.94 50.3379L136.546 51.1333L136.552 51.1292L135.94 50.3379ZM136.36 47.0379L135.455 47.4637L135.461 47.4745L135.466 47.4851L136.36 47.0379ZM135.49 46.3479L135.174 47.2966L135.195 47.3034L135.216 47.3094L135.49 46.3479ZM129.28 46.1379V45.1379H128.28V46.1379H129.28ZM129.28 50.8179H128.28V51.8179H129.28V50.8179ZM135.64 59.1879L135.337 58.235L135.64 59.1879ZM136.54 58.4679L135.656 58L135.645 58.0208L135.635 58.0421L136.54 58.4679ZM136.54 55.4679L135.646 55.9151L135.651 55.9255L135.656 55.9358L136.54 55.4679ZM135.61 54.7179L135.294 55.6667L135.307 55.6708L135.61 54.7179ZM129.28 54.5079V53.5079H128.28V54.5079H129.28ZM129.28 59.3979H128.28V60.3979H129.28V59.3979ZM125.02 43.4479H135.1V41.4479H125.02V43.4479ZM135.1 43.4479C136.982 43.4479 138.152 43.8659 138.827 44.4979L140.194 43.0379C138.989 41.9099 137.219 41.4479 135.1 41.4479V43.4479ZM138.835 44.5057C139.503 45.1167 139.92 46.0961 139.92 47.6379H141.92C141.92 45.7397 141.397 44.1391 140.185 43.0301L138.835 44.5057ZM139.92 47.6379C139.92 48.9701 139.658 49.8256 139.275 50.3447L140.885 51.5311C141.623 50.5302 141.92 49.1857 141.92 47.6379H139.92ZM139.275 50.3447C138.901 50.8528 138.247 51.2769 137.16 51.5224L137.601 53.4733C138.993 53.1589 140.14 52.543 140.885 51.5311L139.275 50.3447ZM136.38 52.4979V52.6179H138.38V52.4979H136.38ZM137.179 53.5973C138.408 53.8505 139.098 54.2858 139.455 54.7711L141.065 53.5847C140.303 52.55 139.072 51.9452 137.582 51.6384L137.179 53.5973ZM139.465 54.7846C139.854 55.2942 140.13 56.1768 140.13 57.5979H142.13C142.13 55.979 141.826 54.5816 141.055 53.5712L139.465 54.7846ZM140.13 57.5979C140.13 59.211 139.716 60.2835 139.036 60.9784L140.465 62.3774C141.625 61.1923 142.13 59.5448 142.13 57.5979H140.13ZM139.028 60.9863C138.412 61.6298 137.206 62.0879 135.1 62.0879V64.0879C137.395 64.0879 139.289 63.606 140.473 62.3695L139.028 60.9863ZM135.1 62.0879H125.02V64.0879H135.1V62.0879ZM126.02 63.0879V42.4479H124.02V63.0879H126.02ZM133.57 51.8179C134.191 51.8179 134.749 51.7756 135.231 51.678C135.704 51.5823 136.17 51.4204 136.546 51.1333L135.334 49.5425C135.291 49.5754 135.152 49.6534 134.834 49.7178C134.526 49.7802 134.11 49.8179 133.57 49.8179V51.8179ZM136.552 51.1292C137.352 50.5111 137.6 49.5157 137.6 48.5079H135.6C135.6 49.2601 135.409 49.4847 135.329 49.5466L136.552 51.1292ZM137.6 48.5079C137.6 47.8027 137.521 47.1225 137.255 46.5907L135.466 47.4851C135.52 47.5933 135.6 47.8931 135.6 48.5079H137.6ZM137.265 46.6121C136.962 45.9675 136.413 45.5714 135.765 45.3864L135.216 47.3094C135.408 47.3644 135.439 47.4283 135.455 47.4637L137.265 46.6121ZM135.807 45.3992C135.229 45.2066 134.456 45.1379 133.57 45.1379V47.1379C134.404 47.1379 134.912 47.2092 135.174 47.2966L135.807 45.3992ZM133.57 45.1379H129.28V47.1379H133.57V45.1379ZM128.28 46.1379V50.8179H130.28V46.1379H128.28ZM129.28 51.8179H133.57V49.8179H129.28V51.8179ZM133.72 60.3979C134.594 60.3979 135.356 60.3278 135.943 60.1408L135.337 58.235C135.045 58.328 134.527 58.3979 133.72 58.3979V60.3979ZM135.943 60.1408C136.583 59.9372 137.14 59.5413 137.445 58.8937L135.635 58.0421C135.62 58.0745 135.577 58.1586 135.337 58.235L135.943 60.1408ZM137.424 58.9358C137.717 58.3828 137.81 57.6895 137.81 56.9679H135.81C135.81 57.5663 135.724 57.873 135.656 58L137.424 58.9358ZM137.81 56.9679C137.81 56.2463 137.717 55.553 137.424 55L135.656 55.9358C135.724 56.0628 135.81 56.3695 135.81 56.9679H137.81ZM137.435 55.0207C137.116 54.383 136.569 53.9737 135.913 53.765L135.307 55.6708C135.531 55.7421 135.605 55.8327 135.646 55.9151L137.435 55.0207ZM135.926 53.7692C135.35 53.5771 134.589 53.5079 133.72 53.5079V55.5079C134.531 55.5079 135.03 55.5787 135.294 55.6666L135.926 53.7692ZM133.72 53.5079H129.28V55.5079H133.72V53.5079ZM128.28 54.5079V59.3979H130.28V54.5079H128.28ZM129.28 60.3979H133.72V58.3979H129.28V60.3979Z" fill="black"/>
</svg>
