<svg width="187" height="96" viewBox="0 0 187 96" fill="none" xmlns="http://www.w3.org/2000/svg">
<rect x="0.855469" width="185.6" height="95.8584" fill="#1A1A1A"/>
<mask id="mask0" mask-type="alpha" maskUnits="userSpaceOnUse" x="0" y="0" width="187" height="96">
<rect x="0.855469" width="185.6" height="95.8584" fill="#C4C4C4"/>
</mask>
<g mask="url(#mask0)">
<path d="M149.34 6.63928L149.34 5.68555L140.861 5.68555L140.861 6.63928L149.34 6.63928Z" fill="#E1E1E1" fill-opacity="0.5"/>
<path d="M149.34 11.4092L149.34 10.4554L140.861 10.4554L140.861 11.4092L149.34 11.4092Z" fill="#E1E1E1" fill-opacity="0.5"/>
<path d="M149.34 16.1802L149.34 15.2264L140.861 15.2264L140.861 16.1802L149.34 16.1802Z" fill="#E1E1E1" fill-opacity="0.5"/>
<path d="M149.34 20.9493L149.34 19.9956L140.861 19.9956L140.861 20.9493L149.34 20.9493Z" fill="#E1E1E1" fill-opacity="0.5"/>
<path d="M149.34 30.4839L149.34 29.5302L140.861 29.5302L140.861 30.4839L149.34 30.4839Z" fill="#E1E1E1" fill-opacity="0.5"/>
<path d="M149.34 35.2555L149.34 34.3018L140.861 34.3018L140.861 35.2555L149.34 35.2555Z" fill="#E1E1E1" fill-opacity="0.5"/>
<path d="M149.34 40.021L149.34 39.0673L140.861 39.0673L140.861 40.021L149.34 40.021Z" fill="#E1E1E1" fill-opacity="0.5"/>
<path d="M149.34 44.7891L149.34 43.8353L140.861 43.8353L140.861 44.7891L149.34 44.7891Z" fill="#E1E1E1" fill-opacity="0.5"/>
<path d="M149.34 54.3258L149.34 53.3721L140.861 53.3721L140.861 54.3258L149.34 54.3258Z" fill="#E1E1E1" fill-opacity="0.5"/>
<path d="M149.34 59.0967L149.34 58.1429L140.861 58.1429L140.861 59.0967L149.34 59.0967Z" fill="#E1E1E1" fill-opacity="0.5"/>
<path d="M149.34 63.8667L149.34 62.913L140.861 62.913L140.861 63.8667L149.34 63.8667Z" fill="#E1E1E1" fill-opacity="0.5"/>
<path d="M149.34 68.6356L149.34 67.6819L140.861 67.6819L140.861 68.6356L149.34 68.6356Z" fill="#E1E1E1" fill-opacity="0.5"/>
<path d="M149.34 78.1704L149.34 77.2167L140.861 77.2167L140.861 78.1704L149.34 78.1704Z" fill="#E1E1E1" fill-opacity="0.5"/>
<path d="M149.34 82.9418L149.34 81.988L140.861 81.988L140.861 82.9418L149.34 82.9418Z" fill="#E1E1E1" fill-opacity="0.5"/>
<path d="M149.34 87.7113L149.34 86.7576L140.861 86.7576L140.861 87.7113L149.34 87.7113Z" fill="#E1E1E1" fill-opacity="0.5"/>
<path d="M149.34 92.4771L149.34 91.5233L140.861 91.5233L140.861 92.4771L149.34 92.4771Z" fill="#E1E1E1" fill-opacity="0.5"/>
<path d="M115.082 6.64075L115.082 5.68701L106.604 5.68701L106.604 6.64075L115.082 6.64075Z" fill="#E1E1E1" fill-opacity="0.5"/>
<path d="M115.082 11.4106L115.082 10.4569L106.604 10.4569L106.604 11.4106L115.082 11.4106Z" fill="#E1E1E1" fill-opacity="0.5"/>
<path d="M115.082 16.1791L115.082 15.2253L106.604 15.2253L106.604 16.1791L115.082 16.1791Z" fill="#E1E1E1" fill-opacity="0.5"/>
<path d="M115.082 20.9474L115.082 19.9937L106.604 19.9937L106.604 20.9474L115.082 20.9474Z" fill="#E1E1E1" fill-opacity="0.5"/>
<path d="M115.082 30.4856L115.082 29.5319L106.604 29.5319L106.604 30.4856L115.082 30.4856Z" fill="#E1E1E1" fill-opacity="0.5"/>
<path d="M115.082 35.2538L115.082 34.3L106.604 34.3L106.604 35.2538L115.082 35.2538Z" fill="#E1E1E1" fill-opacity="0.5"/>
<path d="M115.082 40.0223L115.082 39.0686L106.604 39.0686L106.604 40.0223L115.082 40.0223Z" fill="#E1E1E1" fill-opacity="0.5"/>
<path d="M115.082 44.7903L115.082 43.8365L106.604 43.8365L106.604 44.7903L115.082 44.7903Z" fill="#E1E1E1" fill-opacity="0.5"/>
<path d="M115.082 54.327L115.082 53.3733L106.604 53.3733L106.604 54.327L115.082 54.327Z" fill="#E1E1E1" fill-opacity="0.5"/>
<path d="M115.082 59.0957L115.082 58.142L106.604 58.142L106.604 59.0957L115.082 59.0957Z" fill="#E1E1E1" fill-opacity="0.5"/>
<path d="M115.082 63.8655L115.082 62.9117L106.604 62.9117L106.604 63.8655L115.082 63.8655Z" fill="#E1E1E1" fill-opacity="0.5"/>
<path d="M115.082 68.6339L115.082 67.6802L106.604 67.6802L106.604 68.6339L115.082 68.6339Z" fill="#E1E1E1" fill-opacity="0.5"/>
<path d="M115.082 78.1721L115.082 77.2184L106.604 77.2184L106.604 78.1721L115.082 78.1721Z" fill="#E1E1E1" fill-opacity="0.5"/>
<path d="M115.082 82.9403L115.082 81.9866L106.604 81.9866L106.604 82.9403L115.082 82.9403Z" fill="#E1E1E1" fill-opacity="0.5"/>
<path d="M115.082 87.7101L115.082 86.7563L106.604 86.7563L106.604 87.7101L115.082 87.7101Z" fill="#E1E1E1" fill-opacity="0.5"/>
<path d="M115.082 92.4785L115.082 91.5248L106.604 91.5248L106.604 92.4785L115.082 92.4785Z" fill="#E1E1E1" fill-opacity="0.5"/>
<path d="M256.645 -82.1041L-0.489166 -82.1041L-0.489188 466.39L256.645 466.39L256.645 -82.1041ZM0.367247 -46.7682L0.367248 -81.1503L255.788 -81.1503L255.788 -46.7681L0.367247 -46.7682ZM0.367246 -22.9248L0.367246 -26.7397L8.41737 -26.7397L8.41737 -27.6934L0.367246 -27.6934L0.367247 -31.5084L8.41737 -31.5084L8.41737 -32.4621L0.367247 -32.4621L0.367247 -36.2771L8.41737 -36.2771L8.41737 -37.2308L0.367247 -37.2308L0.367247 -41.0457L8.41737 -41.0457L8.41737 -41.9995L0.367247 -41.9995L0.367247 -45.8144L255.788 -45.8144L255.788 -41.9995L247.738 -41.9995L247.738 -41.0457L255.788 -41.0457L255.788 -37.2308L247.738 -37.2308L247.738 -36.277L255.788 -36.277L255.788 -32.4621L247.738 -32.4621L247.738 -31.5084L255.788 -31.5084L255.788 -27.6934L247.738 -27.6934L247.738 -26.7397L255.788 -26.7397L255.788 -22.9247L0.367246 -22.9248ZM0.367245 0.918651L0.367245 -2.89629L8.41737 -2.89629L8.41737 -3.85003L0.367245 -3.85003L0.367246 -7.66498L8.41737 -7.66497L8.41737 -8.61871L0.367246 -8.61871L0.367246 -12.4337L8.41737 -12.4337L8.41737 -13.3874L0.367246 -13.3874L0.367246 -17.2023L8.41737 -17.2023L8.41737 -18.1561L0.367246 -18.1561L0.367246 -21.971L255.788 -21.971L255.788 -18.1561L247.738 -18.1561L247.738 -17.2023L255.788 -17.2023L255.788 -13.3874L247.738 -13.3874L247.738 -12.4336L255.788 -12.4336L255.788 -8.6187L247.738 -8.6187L247.738 -7.66496L255.788 -7.66496L255.788 -3.85002L247.738 -3.85002L247.738 -2.89628L255.788 -2.89628L255.788 0.918663L0.367245 0.918651ZM0.367244 24.762L0.367244 20.9471L8.41737 20.9471L8.41737 19.9934L0.367245 19.9934L0.367245 16.1784L8.41737 16.1784L8.41737 15.2247L0.367245 15.2247L0.367245 11.4097L8.41737 11.4097L8.41737 10.456L0.367245 10.456L0.367245 6.64107L8.41737 6.64107L8.41737 5.68733L0.367245 5.68733L0.367245 1.87239L255.788 1.8724L255.788 5.68734L247.738 5.68734L247.738 6.64108L255.788 6.64108L255.788 10.456L247.738 10.456L247.738 11.4098L255.788 11.4098L255.788 15.2247L247.738 15.2247L247.738 16.1784L255.788 16.1784L255.788 19.9934L247.738 19.9934L247.738 20.9471L255.788 20.9471L255.788 24.7621L0.367244 24.762ZM0.367243 48.6055L0.367244 44.7905L8.41737 44.7905L8.41737 43.8368L0.367244 43.8368L0.367244 40.0218L8.41737 40.0218L8.41737 39.0681L0.367244 39.0681L0.367244 35.2531L8.41737 35.2531L8.41737 34.2994L0.367244 34.2994L0.367244 30.4845L8.41737 30.4845L8.41737 29.5307L0.367244 29.5307L0.367244 25.7158L255.788 25.7158L255.788 29.5307L247.738 29.5307L247.738 30.4845L255.788 30.4845L255.788 34.2994L247.738 34.2994L247.738 35.2532L255.788 35.2532L255.788 39.0681L247.738 39.0681L247.738 40.0218L255.788 40.0218L255.788 43.8368L247.738 43.8368L247.738 44.7905L255.788 44.7905L255.788 48.6055L0.367243 48.6055ZM0.367242 72.4489L0.367243 68.6339L8.41737 68.6339L8.41737 67.6802L0.367243 67.6802L0.367243 63.8652L8.41737 63.8652L8.41737 62.9115L0.367243 62.9115L0.367243 59.0965L8.41737 59.0965L8.41737 58.1428L0.367243 58.1428L0.367243 54.3279L8.41737 54.3279L8.41737 53.3741L0.367243 53.3741L0.367243 49.5592L255.788 49.5592L255.788 53.3741L247.738 53.3741L247.738 54.3279L255.788 54.3279L255.788 58.1428L247.738 58.1428L247.738 59.0966L255.788 59.0966L255.788 62.9115L247.738 62.9115L247.738 63.8652L255.788 63.8652L255.788 67.6802L247.738 67.6802L247.738 68.6339L255.788 68.6339L255.788 72.4489L0.367242 72.4489ZM0.367242 96.2923L0.367242 92.4773L8.41737 92.4773L8.41737 91.5236L0.367242 91.5236L0.367242 87.7086L8.41737 87.7086L8.41737 86.7549L0.367242 86.7549L0.367242 82.94L8.41737 82.94L8.41737 81.9862L0.367242 81.9862L0.367242 78.1713L8.41737 78.1713L8.41737 77.2175L0.367242 77.2175L0.367242 73.4026L255.788 73.4026L255.788 77.2175L247.738 77.2175L247.738 78.1713L255.788 78.1713L255.788 81.9862L247.738 81.9862L247.738 82.94L255.788 82.94L255.788 86.7549L247.738 86.7549L247.738 87.7086L255.788 87.7086L255.788 91.5236L247.738 91.5236L247.738 92.4773L255.788 92.4773L255.788 96.2923L0.367242 96.2923ZM0.367241 120.136L0.367241 116.321L8.41737 116.321L8.41737 115.367L0.367241 115.367L0.367241 111.552L8.41737 111.552L8.41737 110.598L0.367241 110.598L0.367241 106.783L8.41737 106.783L8.41737 105.83L0.367241 105.83L0.367241 102.015L8.41737 102.015L8.41737 101.061L0.367241 101.061L0.367241 97.246L255.788 97.246L255.788 101.061L247.738 101.061L247.738 102.015L255.788 102.015L255.788 105.83L247.738 105.83L247.738 106.783L255.788 106.783L255.788 110.598L247.738 110.598L247.738 111.552L255.788 111.552L255.788 115.367L247.738 115.367L247.738 116.321L255.788 116.321L255.788 120.136L0.367241 120.136ZM0.36724 143.979L0.36724 140.164L8.41736 140.164L8.41736 139.21L0.36724 139.21L0.36724 135.395L8.41737 135.395L8.41737 134.442L0.36724 134.442L0.36724 130.627L8.41737 130.627L8.41737 129.673L0.36724 129.673L0.36724 125.858L8.41737 125.858L8.41737 124.904L0.36724 124.904L0.367241 121.089L255.788 121.089L255.788 124.904L247.738 124.904L247.738 125.858L255.788 125.858L255.788 129.673L247.738 129.673L247.738 130.627L255.788 130.627L255.788 134.442L247.738 134.442L247.738 135.395L255.788 135.395L255.788 139.21L247.738 139.21L247.738 140.164L255.788 140.164L255.788 143.979L0.36724 143.979ZM0.367239 167.822L0.367239 164.008L8.41736 164.008L8.41736 163.054L0.367239 163.054L0.367239 159.239L8.41736 159.239L8.41736 158.285L0.367239 158.285L0.367239 154.47L8.41736 154.47L8.41736 153.516L0.367239 153.516L0.367239 149.701L8.41736 149.701L8.41736 148.748L0.367239 148.748L0.36724 144.933L255.788 144.933L255.788 148.748L247.738 148.748L247.738 149.701L255.788 149.701L255.788 153.516L247.738 153.516L247.738 154.47L255.788 154.47L255.788 158.285L247.738 158.285L247.738 159.239L255.788 159.239L255.788 163.054L247.738 163.054L247.738 164.008L255.788 164.008L255.788 167.822L0.367239 167.822ZM0.367238 191.666L0.367238 187.851L8.41736 187.851L8.41736 186.897L0.367238 186.897L0.367238 183.082L8.41736 183.082L8.41736 182.128L0.367238 182.128L0.367238 178.314L8.41736 178.314L8.41736 177.36L0.367238 177.36L0.367239 173.545L8.41736 173.545L8.41736 172.591L0.367239 172.591L0.367239 168.776L255.788 168.776L255.788 172.591L247.738 172.591L247.738 173.545L255.788 173.545L255.788 177.36L247.738 177.36L247.738 178.314L255.788 178.314L255.788 182.129L247.738 182.129L247.738 183.082L255.788 183.082L255.788 186.897L247.738 186.897L247.738 187.851L255.788 187.851L255.788 191.666L0.367238 191.666ZM0.367237 215.509L0.367237 211.694L8.41736 211.694L8.41736 210.741L0.367237 210.741L0.367237 206.926L8.41736 206.926L8.41736 205.972L0.367237 205.972L0.367237 202.157L8.41736 202.157L8.41736 201.203L0.367237 201.203L0.367238 197.388L8.41736 197.388L8.41736 196.435L0.367238 196.435L0.367238 192.62L255.788 192.62L255.788 196.435L247.738 196.435L247.738 197.388L255.788 197.388L255.788 201.203L247.738 201.203L247.738 202.157L255.788 202.157L255.788 205.972L247.738 205.972L247.738 206.926L255.788 206.926L255.788 210.741L247.738 210.741L247.738 211.694L255.788 211.694L255.788 215.509L0.367237 215.509ZM0.367236 239.353L0.367236 235.538L8.41736 235.538L8.41736 234.584L0.367236 234.584L0.367236 230.769L8.41736 230.769L8.41736 229.815L0.367236 229.815L0.367236 226L8.41736 226L8.41736 225.047L0.367236 225.047L0.367237 221.232L8.41736 221.232L8.41736 220.278L0.367237 220.278L0.367237 216.463L255.788 216.463L255.788 220.278L247.738 220.278L247.738 221.232L255.788 221.232L255.788 225.047L247.738 225.047L247.738 226L255.788 226L255.788 229.815L247.738 229.815L247.738 230.769L255.788 230.769L255.788 234.584L247.738 234.584L247.738 235.538L255.788 235.538L255.788 239.353L0.367236 239.353ZM0.367235 263.196L0.367235 259.381L8.41736 259.381L8.41736 258.427L0.367235 258.427L0.367235 254.612L8.41736 254.612L8.41736 253.659L0.367235 253.659L0.367236 249.844L8.41736 249.844L8.41736 248.89L0.367236 248.89L0.367236 245.075L8.41736 245.075L8.41736 244.121L0.367236 244.121L0.367236 240.306L255.788 240.306L255.788 244.121L247.738 244.121L247.738 245.075L255.788 245.075L255.788 248.89L247.738 248.89L247.738 249.844L255.788 249.844L255.788 253.659L247.738 253.659L247.738 254.612L255.788 254.612L255.788 258.427L247.738 258.427L247.738 259.381L255.788 259.381L255.788 263.196L0.367235 263.196ZM0.367234 287.039L0.367234 283.225L8.41736 283.225L8.41736 282.271L0.367234 282.271L0.367234 278.456L8.41736 278.456L8.41736 277.502L0.367234 277.502L0.367235 273.687L8.41736 273.687L8.41736 272.733L0.367235 272.733L0.367235 268.918L8.41736 268.918L8.41736 267.965L0.367235 267.965L0.367235 264.15L255.788 264.15L255.788 267.965L247.738 267.965L247.738 268.918L255.788 268.918L255.788 272.733L247.738 272.733L247.738 273.687L255.788 273.687L255.788 277.502L247.738 277.502L247.738 278.456L255.788 278.456L255.788 282.271L247.738 282.271L247.738 283.225L255.788 283.225L255.788 287.039L0.367234 287.039ZM0.367233 310.883L0.367233 307.068L8.41736 307.068L8.41736 306.114L0.367233 306.114L0.367233 302.299L8.41736 302.299L8.41736 301.346L0.367233 301.346L0.367234 297.531L8.41736 297.531L8.41736 296.577L0.367234 296.577L0.367234 292.762L8.41736 292.762L8.41736 291.808L0.367234 291.808L0.367234 287.993L255.788 287.993L255.788 291.808L247.738 291.808L247.738 292.762L255.788 292.762L255.788 296.577L247.738 296.577L247.738 297.531L255.788 297.531L255.788 301.346L247.738 301.346L247.738 302.299L255.788 302.299L255.788 306.114L247.738 306.114L247.738 307.068L255.788 307.068L255.788 310.883L0.367233 310.883ZM0.367232 334.726L0.367232 330.911L8.41736 330.911L8.41736 329.958L0.367232 329.958L0.367233 326.143L8.41736 326.143L8.41736 325.189L0.367233 325.189L0.367233 321.374L8.41736 321.374L8.41736 320.42L0.367233 320.42L0.367233 316.605L8.41736 316.605L8.41736 315.652L0.367233 315.652L0.367233 311.837L255.788 311.837L255.788 315.652L247.738 315.652L247.738 316.605L255.788 316.605L255.788 320.42L247.738 320.42L247.738 321.374L255.788 321.374L255.788 325.189L247.738 325.189L247.738 326.143L255.788 326.143L255.788 329.958L247.738 329.958L247.738 330.911L255.788 330.911L255.788 334.726L0.367232 334.726ZM0.367231 358.57L0.367231 354.755L8.41736 354.755L8.41736 353.801L0.367231 353.801L0.367232 349.986L8.41736 349.986L8.41736 349.032L0.367232 349.032L0.367232 345.217L8.41736 345.217L8.41736 344.264L0.367232 344.264L0.367232 340.449L8.41736 340.449L8.41736 339.495L0.367232 339.495L0.367232 335.68L255.788 335.68L255.788 339.495L247.738 339.495L247.738 340.449L255.788 340.449L255.788 344.264L247.738 344.264L247.738 345.217L255.788 345.217L255.788 349.032L247.738 349.032L247.738 349.986L255.788 349.986L255.788 353.801L247.738 353.801L247.738 354.755L255.788 354.755L255.788 358.57L0.367231 358.57ZM0.36723 382.413L0.36723 378.598L8.41736 378.598L8.41736 377.644L0.36723 377.644L0.367231 373.829L8.41736 373.829L8.41736 372.876L0.367231 372.876L0.367231 369.061L8.41736 369.061L8.41736 368.107L0.367231 368.107L0.367231 364.292L8.41736 364.292L8.41736 363.338L0.367231 363.338L0.367231 359.523L255.788 359.523L255.788 363.338L247.738 363.338L247.738 364.292L255.788 364.292L255.788 368.107L247.738 368.107L247.738 369.061L255.788 369.061L255.788 372.876L247.738 372.876L247.738 373.829L255.788 373.829L255.788 377.644L247.738 377.644L247.738 378.598L255.788 378.598L255.788 382.413L0.36723 382.413ZM0.367229 406.256L0.36723 402.442L8.41735 402.442L8.41735 401.488L0.36723 401.488L0.36723 397.673L8.41735 397.673L8.41735 396.719L0.36723 396.719L0.36723 392.904L8.41736 392.904L8.41736 391.95L0.36723 391.95L0.36723 388.135L8.41736 388.135L8.41736 387.182L0.36723 387.182L0.36723 383.367L255.788 383.367L255.788 387.182L247.738 387.182L247.738 388.135L255.788 388.135L255.788 391.95L247.738 391.95L247.738 392.904L255.788 392.904L255.788 396.719L247.738 396.719L247.738 397.673L255.788 397.673L255.788 401.488L247.738 401.488L247.738 402.442L255.788 402.442L255.788 406.256L0.367229 406.256ZM0.367228 430.1L0.367229 426.285L8.41735 426.285L8.41735 425.331L0.367229 425.331L0.367229 421.516L8.41735 421.516L8.41735 420.563L0.367229 420.563L0.367229 416.748L8.41735 416.748L8.41735 415.794L0.367229 415.794L0.367229 411.979L8.41735 411.979L8.41735 411.025L0.367229 411.025L0.367229 407.21L255.788 407.21L255.788 411.025L247.738 411.025L247.738 411.979L255.788 411.979L255.788 415.794L247.738 415.794L247.738 416.748L255.788 416.748L255.788 420.563L247.738 420.563L247.738 421.516L255.788 421.516L255.788 425.331L247.738 425.331L247.738 426.285L255.788 426.285L255.788 430.1L0.367228 430.1ZM0.367227 465.436L0.367228 431.054L255.788 431.054L255.788 465.436L0.367227 465.436Z" fill="#E1E1E1" fill-opacity="0.5"/>
<path d="M34.0714 -7.42695L35.3132 -7.42695L35.3132 -4.47036L44.2198 -4.47036L43.5346 -7.57001L44.6908 -7.57001L45.6328 -3.89812L45.6328 -2.65826L35.3132 -2.65826L35.3132 0.250635L34.0714 0.250635L34.0714 -7.42695Z" fill="#E1E1E1" fill-opacity="0.5"/>
<path d="M39.8021 2.54016C40.7013 2.54016 41.5577 2.63554 42.2857 2.82629C43.0136 3.01703 43.6559 3.30315 44.1697 3.68464C44.6836 4.06614 45.1118 4.54301 45.3687 5.11525C45.6684 5.68749 45.7969 6.35511 45.7969 7.07041C45.7969 7.8334 45.6684 8.50102 45.3687 9.07326C45.0689 9.6455 44.6836 10.1224 44.1697 10.5516C43.6559 10.9331 43.0136 11.2669 42.2857 11.4576C41.5577 11.6484 40.7013 11.7437 39.8021 11.7437C38.9029 11.7437 38.0465 11.6484 37.3185 11.4576C36.5906 11.2669 35.9911 10.9331 35.4773 10.5516C34.9634 10.1701 34.578 9.6455 34.3211 9.07326C34.0642 8.50102 33.9358 7.8334 33.9358 7.07041C33.9358 6.30742 34.0642 5.68749 34.3211 5.11525C34.578 4.54301 34.9634 4.06614 35.4773 3.68464C35.9911 3.30315 36.5906 3.01703 37.3185 2.82628C38.0465 2.63554 38.9029 2.54016 39.8021 2.54016ZM39.8021 4.39995C39.0741 4.39995 38.4318 4.44764 37.8324 4.5907C37.2757 4.68607 36.7619 4.87681 36.3765 5.11525C35.9911 5.35368 35.6485 5.63981 35.4773 5.97361C35.2632 6.30742 35.1775 6.68892 35.1775 7.16579C35.1775 7.64265 35.2632 8.02415 35.4773 8.35796C35.6914 8.69177 35.9911 8.97789 36.3765 9.21632C36.7619 9.45476 37.2757 9.64551 37.8324 9.74088C38.389 9.88394 39.0741 9.93163 39.8021 9.93163C40.53 9.93163 41.2152 9.88394 41.7718 9.74088C42.3713 9.59782 42.8851 9.45476 43.2705 9.21632C43.6987 8.97789 43.9985 8.69177 44.2126 8.35796C44.4267 8.02415 44.5551 7.59497 44.5551 7.16579C44.5551 6.7366 44.4267 6.30742 44.2126 5.97361C43.9985 5.63981 43.6559 5.35368 43.2705 5.11525C42.8423 4.87681 42.3713 4.73376 41.7718 4.5907C41.2152 4.44764 40.53 4.39995 39.8021 4.39995Z" fill="#E1E1E1" fill-opacity="0.5"/>
<path d="M35.3022 47.7951L34.0604 47.7951L34.0604 39.2591L34.6171 39.2591C35.345 39.2591 35.9445 39.3545 36.5012 39.4976C37.015 39.6883 37.5289 39.9268 37.9142 40.2606C38.3424 40.5944 38.7278 41.0712 39.0704 41.5958C39.4129 42.1204 39.7555 42.7403 40.098 43.5033C40.3121 43.8848 40.4834 44.2186 40.6975 44.5047C40.9116 44.7908 41.0829 45.0293 41.297 45.1723C41.5111 45.3631 41.7252 45.5061 41.9393 45.5538C42.1534 45.6492 42.4103 45.6969 42.6244 45.6969C42.8814 45.6969 43.1383 45.6492 43.3952 45.5061C43.6093 45.3631 43.8234 45.22 43.9947 44.9816C44.166 44.7431 44.2944 44.5047 44.38 44.1709C44.4657 43.8848 44.5085 43.5033 44.5085 43.1218C44.5085 42.788 44.4657 42.4542 44.4229 42.1204C44.3801 41.8342 44.2944 41.5004 44.2088 41.2143C44.1231 40.9282 43.9947 40.6421 43.909 40.4036C43.7806 40.1175 43.6521 39.8791 43.5665 39.6406L44.637 39.1161C44.7654 39.3068 44.8939 39.5453 45.0223 39.8791C45.1508 40.1652 45.2793 40.499 45.4077 40.8805C45.5362 41.262 45.6218 41.6435 45.7075 42.025C45.7931 42.4542 45.8359 42.8357 45.8359 43.3125C45.8359 43.9325 45.7503 44.5524 45.6218 45.0769C45.4934 45.6015 45.2793 46.0307 44.9795 46.4122C44.7226 46.7937 44.3801 47.0798 43.9947 47.2705C43.6093 47.4613 43.1811 47.5567 42.6672 47.5567C42.239 47.5567 41.8109 47.4613 41.4683 47.3182C41.1257 47.1275 40.7832 46.889 40.5262 46.6029C40.2265 46.3168 39.9696 45.9353 39.7555 45.5538C39.5414 45.1723 39.2845 44.7431 39.0704 44.314C38.8135 43.8848 38.5994 43.4556 38.3424 43.0741C38.0855 42.6926 37.8286 42.3588 37.5289 42.0727C37.2291 41.7865 36.9294 41.5481 36.544 41.4051C36.2014 41.2143 35.7732 41.1189 35.3022 41.1189L35.3022 47.7951Z" fill="#E1E1E1" fill-opacity="0.5"/>
<path d="M39.7943 50.0372C40.6935 50.0372 41.5499 50.1326 42.2778 50.3234C43.0058 50.5141 43.6481 50.8002 44.1619 51.1817C44.6757 51.5632 45.1039 52.0401 45.3609 52.6123C45.6606 53.1846 45.7891 53.8522 45.7891 54.5675C45.7891 55.3305 45.6606 55.9981 45.3609 56.5703C45.0611 57.1426 44.6757 57.6194 44.1619 58.0486C43.6481 58.4301 43.0058 58.7639 42.2778 58.9547C41.5499 59.1454 40.6935 59.2408 39.7943 59.2408C38.895 59.2408 38.0387 59.1454 37.3107 58.9547C36.5828 58.7639 35.9833 58.4301 35.4695 58.0486C34.9556 57.6671 34.5702 57.1426 34.3133 56.5703C34.0564 55.9981 33.9279 55.3305 33.9279 54.5675C33.9279 53.8045 34.0564 53.1846 34.3133 52.6123C34.5702 52.0401 34.9556 51.5632 35.4695 51.1817C35.9833 50.8002 36.5828 50.5141 37.3107 50.3234C38.0387 50.1326 38.895 50.0372 39.7943 50.0372ZM39.7943 51.897C39.0663 51.897 38.424 51.9447 37.8246 52.0878C37.2679 52.1831 36.754 52.3739 36.3687 52.6123C35.9833 52.8508 35.6407 53.1369 35.4695 53.4707C35.2554 53.8045 35.1697 54.186 35.1697 54.6628C35.1697 55.1397 35.2554 55.5212 35.4695 55.855C35.6836 56.1888 35.9833 56.475 36.3687 56.7134C36.754 56.9518 37.2679 57.1426 37.8246 57.238C38.3812 57.381 39.0663 57.4287 39.7943 57.4287C40.5222 57.4287 41.2073 57.381 41.764 57.238C42.3635 57.0949 42.8773 56.9518 43.2627 56.7134C43.6909 56.475 43.9906 56.1888 44.2047 55.855C44.4188 55.5212 44.5473 55.092 44.5473 54.6628C44.5473 54.2337 44.4188 53.8045 44.2047 53.4707C43.9906 53.1369 43.6481 52.8508 43.2627 52.6123C42.8345 52.3739 42.3635 52.2308 41.764 52.0878C41.2073 51.9447 40.5222 51.897 39.7943 51.897Z" fill="#E1E1E1" fill-opacity="0.5"/>
<path d="M42.6244 95.1007C42.025 95.1007 41.4683 94.9099 41.0401 94.5284C40.6119 94.1469 40.2693 93.6224 40.0124 92.9548C39.7983 93.7654 39.4129 94.4331 38.9419 94.8622C38.4709 95.2914 37.8714 95.5298 37.1863 95.5298C36.7153 95.5298 36.2443 95.4345 35.8589 95.196C35.4735 94.9576 35.0881 94.6715 34.8312 94.2423C34.5315 93.8131 34.3174 93.2886 34.1461 92.7163C33.9748 92.0964 33.8892 91.4288 33.8892 90.6658C33.8892 90.332 33.8892 89.9505 33.932 89.6167C33.9748 89.2352 34.0176 88.9014 34.1033 88.5676C34.1889 88.2338 34.2745 87.8999 34.3602 87.6138C34.4458 87.3277 34.5743 87.0416 34.7027 86.8508L35.7304 87.4231C35.5591 87.8523 35.4307 88.3291 35.3022 88.806C35.1737 89.2829 35.1309 89.8551 35.1309 90.475C35.1309 90.9519 35.1738 91.3811 35.2594 91.8103C35.345 92.2395 35.4735 92.5733 35.6448 92.8594C35.8161 93.1455 36.0302 93.3839 36.2871 93.527C36.544 93.6701 36.8437 93.7654 37.1863 93.7654C37.5717 93.7654 37.8714 93.6701 38.1711 93.527C38.4281 93.3839 38.6422 93.1455 38.8563 92.8594C39.0276 92.5733 39.156 92.2394 39.2416 91.858C39.3273 91.4765 39.3701 91.0473 39.3701 90.6181L39.3701 88.9014L40.6119 88.9014L40.6119 90.6181C40.6119 90.9996 40.6547 91.3811 40.7403 91.7149C40.826 92.0487 40.9545 92.3348 41.1257 92.5733C41.297 92.8117 41.5111 93.0024 41.768 93.1455C42.025 93.2886 42.3247 93.3362 42.6672 93.3362C43.0098 93.3362 43.3096 93.2409 43.5665 93.0978C43.8234 92.9548 44.0375 92.764 44.1659 92.4779C44.3372 92.1918 44.4229 91.9056 44.5085 91.5718C44.5941 91.238 44.637 90.8088 44.637 90.4273C44.637 90.1412 44.637 89.8551 44.5941 89.6167C44.5513 89.3782 44.5085 89.1398 44.4657 88.9014C44.4229 88.6629 44.3372 88.4722 44.2944 88.2338C44.2088 88.043 44.1231 87.8046 44.0375 87.6138L45.0223 86.9939C45.1508 87.1846 45.2793 87.4231 45.3649 87.7092C45.4505 87.9953 45.5362 88.2814 45.6218 88.6152C45.7075 88.9491 45.7503 89.2829 45.7931 89.6167C45.8359 89.9505 45.8359 90.2843 45.8359 90.6181C45.8359 91.2857 45.7503 91.9056 45.6218 92.4779C45.4506 93.0501 45.2365 93.4793 44.9795 93.9085C44.7226 94.29 44.38 94.5761 43.9518 94.8145C43.5665 95.0053 43.0955 95.1007 42.6244 95.1007Z" fill="#E1E1E1" fill-opacity="0.5"/>
<path d="M38.1329 38.0674L39.8457 32.5834L41.5156 38.0674L38.1329 38.0674Z" fill="#E1E1E1" fill-opacity="0.5"/>
<path d="M38.1329 85.7539L39.8457 80.2699L41.5156 85.7539L38.1329 85.7539Z" fill="#E1E1E1" fill-opacity="0.5"/>
</g>
<path d="M83.5956 62.8037L75.1656 49.6937H75.0456V62.8037H70.9356V42.1637H75.3456L83.4156 54.5237H83.5656V42.1637H87.6756V62.8037H83.5956ZM92.5867 62.8037V42.1637H106.177V45.8537H96.8467V51.1037H105.067V54.7937H96.8467V62.8037H92.5867ZM109.784 62.8037V42.1637H114.044V58.9337H122.774V62.8037H109.784Z" fill="white"/>
<path d="M83.5956 62.8037L82.7545 63.3446L83.0497 63.8037H83.5956V62.8037ZM75.1656 49.6937L76.0067 49.1529L75.7115 48.6937H75.1656V49.6937ZM75.0456 49.6937V48.6937H74.0456V49.6937H75.0456ZM75.0456 62.8037V63.8037H76.0456V62.8037H75.0456ZM70.9356 62.8037H69.9356V63.8037H70.9356V62.8037ZM70.9356 42.1637V41.1637H69.9356V42.1637H70.9356ZM75.3456 42.1637L76.1829 41.617L75.8869 41.1637H75.3456V42.1637ZM83.4156 54.5237L82.5783 55.0704L82.8742 55.5237H83.4156V54.5237ZM83.5656 54.5237V55.5237H84.5656V54.5237H83.5656ZM83.5656 42.1637V41.1637H82.5656V42.1637H83.5656ZM87.6756 42.1637H88.6756V41.1637H87.6756V42.1637ZM87.6756 62.8037V63.8037H88.6756V62.8037H87.6756ZM84.4367 62.2629L76.0067 49.1529L74.3245 50.2346L82.7545 63.3446L84.4367 62.2629ZM75.1656 48.6937H75.0456V50.6937H75.1656V48.6937ZM74.0456 49.6937V62.8037H76.0456V49.6937H74.0456ZM75.0456 61.8037H70.9356V63.8037H75.0456V61.8037ZM71.9356 62.8037V42.1637H69.9356V62.8037H71.9356ZM70.9356 43.1637H75.3456V41.1637H70.9356V43.1637ZM74.5083 42.7104L82.5783 55.0704L84.2529 53.977L76.1829 41.617L74.5083 42.7104ZM83.4156 55.5237H83.5656V53.5237H83.4156V55.5237ZM84.5656 54.5237V42.1637H82.5656V54.5237H84.5656ZM83.5656 43.1637H87.6756V41.1637H83.5656V43.1637ZM86.6756 42.1637V62.8037H88.6756V42.1637H86.6756ZM87.6756 61.8037H83.5956V63.8037H87.6756V61.8037ZM92.5867 62.8037H91.5867V63.8037H92.5867V62.8037ZM92.5867 42.1637V41.1637H91.5867V42.1637H92.5867ZM106.177 42.1637H107.177V41.1637H106.177V42.1637ZM106.177 45.8537V46.8537H107.177V45.8537H106.177ZM96.8467 45.8537V44.8537H95.8467V45.8537H96.8467ZM96.8467 51.1037H95.8467V52.1037H96.8467V51.1037ZM105.067 51.1037H106.067V50.1037H105.067V51.1037ZM105.067 54.7937V55.7937H106.067V54.7937H105.067ZM96.8467 54.7937V53.7937H95.8467V54.7937H96.8467ZM96.8467 62.8037V63.8037H97.8467V62.8037H96.8467ZM93.5867 62.8037V42.1637H91.5867V62.8037H93.5867ZM92.5867 43.1637H106.177V41.1637H92.5867V43.1637ZM105.177 42.1637V45.8537H107.177V42.1637H105.177ZM106.177 44.8537H96.8467V46.8537H106.177V44.8537ZM95.8467 45.8537V51.1037H97.8467V45.8537H95.8467ZM96.8467 52.1037H105.067V50.1037H96.8467V52.1037ZM104.067 51.1037V54.7937H106.067V51.1037H104.067ZM105.067 53.7937H96.8467V55.7937H105.067V53.7937ZM95.8467 54.7937V62.8037H97.8467V54.7937H95.8467ZM96.8467 61.8037H92.5867V63.8037H96.8467V61.8037ZM109.784 62.8037H108.784V63.8037H109.784V62.8037ZM109.784 42.1637V41.1637H108.784V42.1637H109.784ZM114.044 42.1637H115.044V41.1637H114.044V42.1637ZM114.044 58.9337H113.044V59.9337H114.044V58.9337ZM122.774 58.9337H123.774V57.9337H122.774V58.9337ZM122.774 62.8037V63.8037H123.774V62.8037H122.774ZM110.784 62.8037V42.1637H108.784V62.8037H110.784ZM109.784 43.1637H114.044V41.1637H109.784V43.1637ZM113.044 42.1637V58.9337H115.044V42.1637H113.044ZM114.044 59.9337H122.774V57.9337H114.044V59.9337ZM121.774 58.9337V62.8037H123.774V58.9337H121.774ZM122.774 61.8037H109.784V63.8037H122.774V61.8037Z" fill="black"/>
</svg>
