<svg width="187" height="96" viewBox="0 0 187 96" fill="none" xmlns="http://www.w3.org/2000/svg">
<rect x="1.30859" width="185.6" height="95.8584" fill="#1A1A1A"/>
<mask id="mask0" mask-type="alpha" maskUnits="userSpaceOnUse" x="1" y="0" width="186" height="96">
<rect x="1.30859" width="185.6" height="95.8584" fill="#C4C4C4"/>
</mask>
<g mask="url(#mask0)">
<path d="M149.785 6.63953L149.785 5.68579L141.307 5.68579L141.307 6.63953L149.785 6.63953Z" fill="#E1E1E1" fill-opacity="0.5"/>
<path d="M149.785 11.4091L149.785 10.4553L141.307 10.4553L141.307 11.4091L149.785 11.4091Z" fill="#E1E1E1" fill-opacity="0.5"/>
<path d="M149.785 16.1802L149.785 15.2264L141.307 15.2264L141.307 16.1802L149.785 16.1802Z" fill="#E1E1E1" fill-opacity="0.5"/>
<path d="M149.785 20.9492L149.785 19.9955L141.307 19.9955L141.307 20.9492L149.785 20.9492Z" fill="#E1E1E1" fill-opacity="0.5"/>
<path d="M149.785 30.4841L149.785 29.5304L141.307 29.5304L141.307 30.4841L149.785 30.4841Z" fill="#E1E1E1" fill-opacity="0.5"/>
<path d="M149.785 35.2554L149.785 34.3016L141.307 34.3016L141.307 35.2554L149.785 35.2554Z" fill="#E1E1E1" fill-opacity="0.5"/>
<path d="M149.785 40.0206L149.785 39.0669L141.307 39.0669L141.307 40.0206L149.785 40.0206Z" fill="#E1E1E1" fill-opacity="0.5"/>
<path d="M149.785 44.7889L149.785 43.8352L141.307 43.8352L141.307 44.7889L149.785 44.7889Z" fill="#E1E1E1" fill-opacity="0.5"/>
<path d="M149.785 54.3258L149.785 53.3721L141.307 53.3721L141.307 54.3258L149.785 54.3258Z" fill="#E1E1E1" fill-opacity="0.5"/>
<path d="M149.785 59.0966L149.785 58.1428L141.307 58.1428L141.307 59.0966L149.785 59.0966Z" fill="#E1E1E1" fill-opacity="0.5"/>
<path d="M149.785 63.8665L149.785 62.9127L141.307 62.9127L141.307 63.8665L149.785 63.8665Z" fill="#E1E1E1" fill-opacity="0.5"/>
<path d="M149.785 68.6355L149.785 67.6818L141.307 67.6818L141.307 68.6355L149.785 68.6355Z" fill="#E1E1E1" fill-opacity="0.5"/>
<path d="M149.785 78.1708L149.785 77.217L141.307 77.217L141.307 78.1708L149.785 78.1708Z" fill="#E1E1E1" fill-opacity="0.5"/>
<path d="M149.785 82.9419L149.785 81.9882L141.307 81.9882L141.307 82.9419L149.785 82.9419Z" fill="#E1E1E1" fill-opacity="0.5"/>
<path d="M149.785 87.7112L149.785 86.7574L141.307 86.7574L141.307 87.7112L149.785 87.7112Z" fill="#E1E1E1" fill-opacity="0.5"/>
<path d="M149.785 92.4769L149.785 91.5232L141.307 91.5232L141.307 92.4769L149.785 92.4769Z" fill="#E1E1E1" fill-opacity="0.5"/>
<path d="M115.531 6.64075L115.531 5.68701L107.053 5.68701L107.053 6.64075L115.531 6.64075Z" fill="#E1E1E1" fill-opacity="0.5"/>
<path d="M115.531 11.4108L115.531 10.457L107.053 10.457L107.053 11.4108L115.531 11.4108Z" fill="#E1E1E1" fill-opacity="0.5"/>
<path d="M115.531 16.179L115.531 15.2252L107.053 15.2252L107.053 16.179L115.531 16.179Z" fill="#E1E1E1" fill-opacity="0.5"/>
<path d="M115.531 20.9475L115.531 19.9938L107.053 19.9938L107.053 20.9475L115.531 20.9475Z" fill="#E1E1E1" fill-opacity="0.5"/>
<path d="M115.531 30.4856L115.531 29.5319L107.053 29.5319L107.053 30.4856L115.531 30.4856Z" fill="#E1E1E1" fill-opacity="0.5"/>
<path d="M115.531 35.2537L115.531 34.2999L107.053 34.2999L107.053 35.2537L115.531 35.2537Z" fill="#E1E1E1" fill-opacity="0.5"/>
<path d="M115.531 40.0223L115.531 39.0686L107.053 39.0686L107.053 40.0223L115.531 40.0223Z" fill="#E1E1E1" fill-opacity="0.5"/>
<path d="M115.531 44.7907L115.531 43.8369L107.053 43.8369L107.053 44.7907L115.531 44.7907Z" fill="#E1E1E1" fill-opacity="0.5"/>
<path d="M115.531 54.3273L115.531 53.3735L107.053 53.3735L107.053 54.3273L115.531 54.3273Z" fill="#E1E1E1" fill-opacity="0.5"/>
<path d="M115.531 59.0953L115.531 58.1416L107.053 58.1416L107.053 59.0953L115.531 59.0953Z" fill="#E1E1E1" fill-opacity="0.5"/>
<path d="M115.531 63.8655L115.531 62.9117L107.053 62.9117L107.053 63.8655L115.531 63.8655Z" fill="#E1E1E1" fill-opacity="0.5"/>
<path d="M115.531 68.6338L115.531 67.6801L107.053 67.6801L107.053 68.6338L115.531 68.6338Z" fill="#E1E1E1" fill-opacity="0.5"/>
<path d="M115.531 78.172L115.531 77.2183L107.053 77.2183L107.053 78.172L115.531 78.172Z" fill="#E1E1E1" fill-opacity="0.5"/>
<path d="M115.531 82.9402L115.531 81.9865L107.053 81.9864L107.053 82.9402L115.531 82.9402Z" fill="#E1E1E1" fill-opacity="0.5"/>
<path d="M115.531 87.71L115.531 86.7562L107.053 86.7562L107.053 87.71L115.531 87.71Z" fill="#E1E1E1" fill-opacity="0.5"/>
<path d="M115.531 92.4784L115.531 91.5247L107.053 91.5247L107.053 92.4784L115.531 92.4784Z" fill="#E1E1E1" fill-opacity="0.5"/>
<path d="M257.094 -82.1041L-0.0399475 -82.1041L-0.039969 466.389L257.094 466.389L257.094 -82.1041ZM0.816466 -46.7682L0.816467 -81.1504L256.237 -81.1504L256.237 -46.7682L0.816466 -46.7682ZM0.816465 -22.9248L0.816465 -26.7398L8.86659 -26.7398L8.86659 -27.6935L0.816465 -27.6935L0.816465 -31.5084L8.86659 -31.5084L8.86659 -32.4622L0.816465 -32.4622L0.816465 -36.2771L8.86659 -36.2771L8.86659 -37.2309L0.816466 -37.2309L0.816466 -41.0458L8.86659 -41.0458L8.86659 -41.9995L0.816466 -41.9995L0.816466 -45.8145L256.237 -45.8145L256.237 -41.9995L248.187 -41.9995L248.187 -41.0458L256.237 -41.0458L256.237 -37.2308L248.187 -37.2308L248.187 -36.2771L256.237 -36.2771L256.237 -32.4622L248.187 -32.4622L248.187 -31.5084L256.237 -31.5084L256.237 -27.6935L248.187 -27.6935L248.187 -26.7397L256.237 -26.7397L256.237 -22.9248L0.816465 -22.9248ZM0.816464 0.91859L0.816464 -2.89635L8.86659 -2.89635L8.86659 -3.85009L0.816464 -3.85009L0.816464 -7.66504L8.86659 -7.66504L8.86659 -8.61877L0.816464 -8.61877L0.816465 -12.4337L8.86659 -12.4337L8.86659 -13.3874L0.816465 -13.3874L0.816465 -17.2024L8.86659 -17.2024L8.86659 -18.1561L0.816465 -18.1561L0.816465 -21.9711L256.237 -21.9711L256.237 -18.1561L248.187 -18.1561L248.187 -17.2024L256.237 -17.2024L256.237 -13.3874L248.187 -13.3874L248.187 -12.4337L256.237 -12.4337L256.237 -8.61876L248.187 -8.61876L248.187 -7.66502L256.237 -7.66502L256.237 -3.85008L248.187 -3.85008L248.187 -2.89634L256.237 -2.89634L256.237 0.918602L0.816464 0.91859ZM0.816463 24.762L0.816463 20.947L8.86659 20.947L8.86659 19.9933L0.816463 19.9933L0.816463 16.1784L8.86659 16.1784L8.86659 15.2246L0.816463 15.2246L0.816464 11.4097L8.86659 11.4097L8.86659 10.456L0.816464 10.456L0.816464 6.64101L8.86659 6.64101L8.86659 5.68727L0.816464 5.68727L0.816464 1.87232L256.237 1.87234L256.237 5.68728L248.187 5.68728L248.187 6.64102L256.237 6.64102L256.237 10.456L248.187 10.456L248.187 11.4097L256.237 11.4097L256.237 15.2246L248.187 15.2246L248.187 16.1784L256.237 16.1784L256.237 19.9933L248.187 19.9933L248.187 20.9471L256.237 20.9471L256.237 24.762L0.816463 24.762ZM0.816462 48.6054L0.816462 44.7904L8.86659 44.7904L8.86659 43.8367L0.816462 43.8367L0.816462 40.0218L8.86659 40.0218L8.86659 39.068L0.816463 39.068L0.816463 35.2531L8.86659 35.2531L8.86659 34.2994L0.816463 34.2993L0.816463 30.4844L8.86659 30.4844L8.86659 29.5307L0.816463 29.5307L0.816463 25.7157L256.237 25.7157L256.237 29.5307L248.187 29.5307L248.187 30.4844L256.237 30.4844L256.237 34.2994L248.187 34.2994L248.187 35.2531L256.237 35.2531L256.237 39.068L248.187 39.068L248.187 40.0218L256.237 40.0218L256.237 43.8367L248.187 43.8367L248.187 44.7905L256.237 44.7905L256.237 48.6054L0.816462 48.6054ZM0.816461 72.4488L0.816461 68.6339L8.86659 68.6339L8.86659 67.6801L0.816461 67.6801L0.816462 63.8652L8.86659 63.8652L8.86659 62.9114L0.816462 62.9114L0.816462 59.0965L8.86659 59.0965L8.86659 58.1427L0.816462 58.1427L0.816462 54.3278L8.86659 54.3278L8.86659 53.3741L0.816462 53.3741L0.816462 49.5591L256.237 49.5591L256.237 53.3741L248.187 53.3741L248.187 54.3278L256.237 54.3278L256.237 58.1428L248.187 58.1428L248.187 59.0965L256.237 59.0965L256.237 62.9115L248.187 62.9115L248.187 63.8652L256.237 63.8652L256.237 67.6801L248.187 67.6801L248.187 68.6339L256.237 68.6339L256.237 72.4488L0.816461 72.4488ZM0.81646 96.2922L0.81646 92.4773L8.86659 92.4773L8.86659 91.5235L0.81646 91.5235L0.816461 87.7086L8.86659 87.7086L8.86659 86.7548L0.816461 86.7548L0.816461 82.9399L8.86659 82.9399L8.86659 81.9861L0.816461 81.9861L0.816461 78.1712L8.86659 78.1712L8.86659 77.2175L0.816461 77.2175L0.816461 73.4025L256.237 73.4025L256.237 77.2175L248.187 77.2175L248.187 78.1712L256.237 78.1712L256.237 81.9862L248.187 81.9862L248.187 82.9399L256.237 82.9399L256.237 86.7549L248.187 86.7549L248.187 87.7086L256.237 87.7086L256.237 91.5235L248.187 91.5235L248.187 92.4773L256.237 92.4773L256.237 96.2922L0.81646 96.2922ZM0.816459 120.136L0.816459 116.321L8.86658 116.321L8.86658 115.367L0.81646 115.367L0.81646 111.552L8.86658 111.552L8.86658 110.598L0.81646 110.598L0.81646 106.783L8.86658 106.783L8.86659 105.83L0.81646 105.83L0.81646 102.015L8.86659 102.015L8.86659 101.061L0.81646 101.061L0.81646 97.2459L256.237 97.2459L256.237 101.061L248.187 101.061L248.187 102.015L256.237 102.015L256.237 105.83L248.187 105.83L248.187 106.783L256.237 106.783L256.237 110.598L248.187 110.598L248.187 111.552L256.237 111.552L256.237 115.367L248.187 115.367L248.187 116.321L256.237 116.321L256.237 120.136L0.816459 120.136ZM0.816458 143.979L0.816459 140.164L8.86658 140.164L8.86658 139.21L0.816459 139.21L0.816459 135.395L8.86658 135.395L8.86658 134.442L0.816459 134.442L0.816459 130.627L8.86658 130.627L8.86658 129.673L0.816459 129.673L0.816459 125.858L8.86658 125.858L8.86658 124.904L0.816459 124.904L0.816459 121.089L256.237 121.089L256.237 124.904L248.187 124.904L248.187 125.858L256.237 125.858L256.237 129.673L248.187 129.673L248.187 130.627L256.237 130.627L256.237 134.442L248.187 134.442L248.187 135.395L256.237 135.395L256.237 139.21L248.187 139.21L248.187 140.164L256.237 140.164L256.237 143.979L0.816458 143.979ZM0.816457 167.822L0.816458 164.007L8.86658 164.007L8.86658 163.054L0.816458 163.054L0.816458 159.239L8.86658 159.239L8.86658 158.285L0.816458 158.285L0.816458 154.47L8.86658 154.47L8.86658 153.516L0.816458 153.516L0.816458 149.701L8.86658 149.701L8.86658 148.748L0.816458 148.748L0.816458 144.933L256.237 144.933L256.237 148.748L248.187 148.748L248.187 149.701L256.237 149.701L256.237 153.516L248.187 153.516L248.187 154.47L256.237 154.47L256.237 158.285L248.187 158.285L248.187 159.239L256.237 159.239L256.237 163.054L248.187 163.054L248.187 164.007L256.237 164.007L256.237 167.822L0.816457 167.822ZM0.816457 191.666L0.816457 187.851L8.86658 187.851L8.86658 186.897L0.816457 186.897L0.816457 183.082L8.86658 183.082L8.86658 182.128L0.816457 182.128L0.816457 178.313L8.86658 178.313L8.86658 177.36L0.816457 177.36L0.816457 173.545L8.86658 173.545L8.86658 172.591L0.816457 172.591L0.816457 168.776L256.237 168.776L256.237 172.591L248.187 172.591L248.187 173.545L256.237 173.545L256.237 177.36L248.187 177.36L248.187 178.314L256.237 178.314L256.237 182.128L248.187 182.128L248.187 183.082L256.237 183.082L256.237 186.897L248.187 186.897L248.187 187.851L256.237 187.851L256.237 191.666L0.816457 191.666ZM0.816456 215.509L0.816456 211.694L8.86658 211.694L8.86658 210.74L0.816456 210.74L0.816456 206.926L8.86658 206.926L8.86658 205.972L0.816456 205.972L0.816456 202.157L8.86658 202.157L8.86658 201.203L0.816456 201.203L0.816456 197.388L8.86658 197.388L8.86658 196.434L0.816456 196.434L0.816457 192.62L256.237 192.62L256.237 196.434L248.187 196.434L248.187 197.388L256.237 197.388L256.237 201.203L248.187 201.203L248.187 202.157L256.237 202.157L256.237 205.972L248.187 205.972L248.187 206.926L256.237 206.926L256.237 210.741L248.187 210.741L248.187 211.694L256.237 211.694L256.237 215.509L0.816456 215.509ZM0.816455 239.353L0.816455 235.538L8.86658 235.538L8.86658 234.584L0.816455 234.584L0.816455 230.769L8.86658 230.769L8.86658 229.815L0.816455 229.815L0.816455 226L8.86658 226L8.86658 225.047L0.816455 225.047L0.816455 221.232L8.86658 221.232L8.86658 220.278L0.816455 220.278L0.816456 216.463L256.237 216.463L256.237 220.278L248.187 220.278L248.187 221.232L256.237 221.232L256.237 225.047L248.187 225.047L248.187 226L256.237 226L256.237 229.815L248.187 229.815L248.187 230.769L256.237 230.769L256.237 234.584L248.187 234.584L248.187 235.538L256.237 235.538L256.237 239.353L0.816455 239.353ZM0.816454 263.196L0.816454 259.381L8.86658 259.381L8.86658 258.427L0.816454 258.427L0.816454 254.612L8.86658 254.612L8.86658 253.659L0.816454 253.659L0.816454 249.844L8.86658 249.844L8.86658 248.89L0.816454 248.89L0.816454 245.075L8.86658 245.075L8.86658 244.121L0.816454 244.121L0.816455 240.306L256.237 240.306L256.237 244.121L248.187 244.121L248.187 245.075L256.237 245.075L256.237 248.89L248.187 248.89L248.187 249.844L256.237 249.844L256.237 253.659L248.187 253.659L248.187 254.612L256.237 254.612L256.237 258.427L248.187 258.427L248.187 259.381L256.237 259.381L256.237 263.196L0.816454 263.196ZM0.816453 287.039L0.816453 283.224L8.86658 283.224L8.86658 282.271L0.816453 282.271L0.816453 278.456L8.86658 278.456L8.86658 277.502L0.816453 277.502L0.816453 273.687L8.86658 273.687L8.86658 272.733L0.816453 272.733L0.816454 268.918L8.86658 268.918L8.86658 267.965L0.816454 267.965L0.816454 264.15L256.237 264.15L256.237 267.965L248.187 267.965L248.187 268.918L256.237 268.918L256.237 272.733L248.187 272.733L248.187 273.687L256.237 273.687L256.237 277.502L248.187 277.502L248.187 278.456L256.237 278.456L256.237 282.271L248.187 282.271L248.187 283.224L256.237 283.224L256.237 287.039L0.816453 287.039ZM0.816452 310.883L0.816452 307.068L8.86658 307.068L8.86658 306.114L0.816452 306.114L0.816452 302.299L8.86658 302.299L8.86658 301.345L0.816452 301.345L0.816452 297.531L8.86658 297.531L8.86658 296.577L0.816452 296.577L0.816453 292.762L8.86658 292.762L8.86658 291.808L0.816453 291.808L0.816453 287.993L256.237 287.993L256.237 291.808L248.187 291.808L248.187 292.762L256.237 292.762L256.237 296.577L248.187 296.577L248.187 297.531L256.237 297.531L256.237 301.345L248.187 301.345L248.187 302.299L256.237 302.299L256.237 306.114L248.187 306.114L248.187 307.068L256.237 307.068L256.237 310.883L0.816452 310.883ZM0.816451 334.726L0.816451 330.911L8.86658 330.911L8.86658 329.958L0.816451 329.958L0.816451 326.143L8.86658 326.143L8.86658 325.189L0.816451 325.189L0.816451 321.374L8.86658 321.374L8.86658 320.42L0.816451 320.42L0.816452 316.605L8.86658 316.605L8.86658 315.651L0.816452 315.651L0.816452 311.837L256.237 311.837L256.237 315.651L248.187 315.651L248.187 316.605L256.237 316.605L256.237 320.42L248.187 320.42L248.187 321.374L256.237 321.374L256.237 325.189L248.187 325.189L248.187 326.143L256.237 326.143L256.237 329.958L248.187 329.958L248.187 330.911L256.237 330.911L256.237 334.726L0.816451 334.726ZM0.81645 358.57L0.81645 354.755L8.86658 354.755L8.86658 353.801L0.81645 353.801L0.81645 349.986L8.86658 349.986L8.86658 349.032L0.81645 349.032L0.816451 345.217L8.86658 345.217L8.86658 344.264L0.816451 344.264L0.816451 340.449L8.86658 340.449L8.86658 339.495L0.816451 339.495L0.816451 335.68L256.237 335.68L256.237 339.495L248.187 339.495L248.187 340.449L256.237 340.449L256.237 344.264L248.187 344.264L248.187 345.217L256.237 345.217L256.237 349.032L248.187 349.032L248.187 349.986L256.237 349.986L256.237 353.801L248.187 353.801L248.187 354.755L256.237 354.755L256.237 358.57L0.81645 358.57ZM0.816449 382.413L0.816449 378.598L8.86657 378.598L8.86657 377.644L0.816449 377.644L0.816449 373.829L8.86657 373.829L8.86657 372.876L0.816449 372.876L0.81645 369.061L8.86657 369.061L8.86657 368.107L0.81645 368.107L0.81645 364.292L8.86657 364.292L8.86657 363.338L0.81645 363.338L0.81645 359.523L256.237 359.523L256.237 363.338L248.187 363.338L248.187 364.292L256.237 364.292L256.237 368.107L248.187 368.107L248.187 369.061L256.237 369.061L256.237 372.876L248.187 372.876L248.187 373.829L256.237 373.829L256.237 377.644L248.187 377.644L248.187 378.598L256.237 378.598L256.237 382.413L0.816449 382.413ZM0.816448 406.256L0.816448 402.441L8.86657 402.441L8.86657 401.488L0.816448 401.488L0.816448 397.673L8.86657 397.673L8.86657 396.719L0.816448 396.719L0.816449 392.904L8.86657 392.904L8.86657 391.95L0.816449 391.95L0.816449 388.135L8.86657 388.135L8.86657 387.182L0.816449 387.182L0.816449 383.367L256.237 383.367L256.237 387.182L248.187 387.182L248.187 388.135L256.237 388.135L256.237 391.95L248.187 391.95L248.187 392.904L256.237 392.904L256.237 396.719L248.187 396.719L248.187 397.673L256.237 397.673L256.237 401.488L248.187 401.488L248.187 402.441L256.237 402.441L256.237 406.256L0.816448 406.256ZM0.816447 430.1L0.816447 426.285L8.86657 426.285L8.86657 425.331L0.816447 425.331L0.816448 421.516L8.86657 421.516L8.86657 420.562L0.816448 420.562L0.816448 416.747L8.86657 416.747L8.86657 415.794L0.816448 415.794L0.816448 411.979L8.86657 411.979L8.86657 411.025L0.816448 411.025L0.816448 407.21L256.237 407.21L256.237 411.025L248.187 411.025L248.187 411.979L256.237 411.979L256.237 415.794L248.187 415.794L248.187 416.747L256.237 416.747L256.237 420.562L248.187 420.562L248.187 421.516L256.237 421.516L256.237 425.331L248.187 425.331L248.187 426.285L256.237 426.285L256.237 430.1L0.816447 430.1ZM0.816446 465.436L0.816447 431.054L256.237 431.054L256.237 465.436L0.816446 465.436Z" fill="#E1E1E1" fill-opacity="0.5"/>
<path d="M34.5128 -7.42701L35.7546 -7.42701L35.7546 -4.47042L44.6612 -4.47042L43.976 -7.57007L45.1322 -7.57007L46.0742 -3.89818L46.0742 -2.65832L35.7546 -2.65832L35.7546 0.250574L34.5128 0.250574L34.5128 -7.42701Z" fill="#E1E1E1" fill-opacity="0.5"/>
<path d="M40.2513 2.54004C41.1505 2.54004 42.0069 2.63542 42.7349 2.82616C43.4628 3.01691 44.1051 3.30303 44.6189 3.68452C45.1328 4.06602 45.561 4.54288 45.8179 5.11513C46.1176 5.68737 46.2461 6.35499 46.2461 7.07029C46.2461 7.83328 46.1176 8.5009 45.8179 9.07314C45.5182 9.64538 45.1328 10.1223 44.6189 10.5514C44.1051 10.9329 43.4628 11.2667 42.7349 11.4575C42.0069 11.6482 41.1505 11.7436 40.2513 11.7436C39.3521 11.7436 38.4957 11.6482 37.7677 11.4575C37.0398 11.2667 36.4403 10.9329 35.9265 10.5514C35.4126 10.1699 35.0273 9.64538 34.7703 9.07314C34.5134 8.5009 34.385 7.83328 34.385 7.07029C34.385 6.3073 34.5134 5.68737 34.7703 5.11513C35.0273 4.54288 35.4126 4.06602 35.9265 3.68452C36.4403 3.30303 37.0398 3.01691 37.7677 2.82616C38.4957 2.63542 39.3521 2.54004 40.2513 2.54004ZM40.2513 4.39982C39.5234 4.39982 38.8811 4.44752 38.2816 4.59058C37.7249 4.68595 37.2111 4.87669 36.8257 5.11513C36.4403 5.35356 36.0978 5.63968 35.9265 5.97349C35.7124 6.3073 35.6267 6.6888 35.6267 7.16566C35.6267 7.64253 35.7124 8.02403 35.9265 8.35784C36.1406 8.69164 36.4403 8.97777 36.8257 9.2162C37.2111 9.45464 37.7249 9.64539 38.2816 9.74076C38.8382 9.88382 39.5234 9.9315 40.2513 9.9315C40.9792 9.9315 41.6644 9.88382 42.221 9.74076C42.8205 9.5977 43.3344 9.45464 43.7197 9.2162C44.1479 8.97777 44.4477 8.69164 44.6618 8.35784C44.8759 8.02403 45.0043 7.59485 45.0043 7.16566C45.0043 6.73648 44.8759 6.3073 44.6618 5.97349C44.4477 5.63968 44.1051 5.35356 43.7197 5.11513C43.2915 4.87669 42.8205 4.73364 42.221 4.59058C41.6644 4.44752 40.9792 4.39982 40.2513 4.39982Z" fill="#E1E1E1" fill-opacity="0.5"/>
<path d="M35.7514 47.795L34.5097 47.795L34.5097 39.259L35.0663 39.259C35.7943 39.259 36.3937 39.3544 36.9504 39.4975C37.4642 39.6882 37.9781 39.9266 38.3635 40.2604C38.7917 40.5943 39.177 41.0711 39.5196 41.5957C39.8622 42.1202 40.2047 42.7402 40.5473 43.5031C40.7614 43.8846 40.9327 44.2185 41.1468 44.5046C41.3609 44.7907 41.5321 45.0291 41.7462 45.1722C41.9603 45.3629 42.1744 45.506 42.3885 45.5537C42.6026 45.6491 42.8596 45.6967 43.0737 45.6967C43.3306 45.6967 43.5875 45.6491 43.8444 45.506C44.0585 45.3629 44.2726 45.2199 44.4439 44.9814C44.6152 44.743 44.7436 44.5046 44.8293 44.1708C44.9149 43.8846 44.9577 43.5032 44.9577 43.1217C44.9577 42.7879 44.9149 42.454 44.8721 42.1202C44.8293 41.8341 44.7436 41.5003 44.658 41.2142C44.5724 40.9281 44.4439 40.6419 44.3583 40.4035C44.2298 40.1174 44.1013 39.8789 44.0157 39.6405L45.0862 39.116C45.2147 39.3067 45.3431 39.5451 45.4716 39.8789C45.6 40.1651 45.7285 40.4989 45.857 40.8804C45.9854 41.2619 46.0711 41.6434 46.1567 42.0249C46.2423 42.454 46.2852 42.8355 46.2852 43.3124C46.2852 43.9323 46.1995 44.5523 46.0711 45.0768C45.9426 45.6014 45.7285 46.0306 45.4288 46.4121C45.1718 46.7935 44.8293 47.0797 44.4439 47.2704C44.0585 47.4612 43.6303 47.5565 43.1165 47.5565C42.6883 47.5565 42.2601 47.4612 41.9175 47.3181C41.575 47.1274 41.2324 46.8889 40.9755 46.6028C40.6757 46.3167 40.4188 45.9352 40.2047 45.5537C39.9906 45.1722 39.7337 44.743 39.5196 44.3138C39.2627 43.8847 39.0486 43.4555 38.7917 43.074C38.5347 42.6925 38.2778 42.3587 37.9781 42.0725C37.6783 41.7864 37.3786 41.548 36.9932 41.4049C36.6507 41.2142 36.2224 41.1188 35.7514 41.1188L35.7514 47.795Z" fill="#E1E1E1" fill-opacity="0.5"/>
<path d="M40.2435 50.0372C41.1427 50.0372 41.9991 50.1326 42.7271 50.3234C43.455 50.5141 44.0973 50.8002 44.6111 51.1817C45.125 51.5632 45.5532 52.0401 45.8101 52.6123C46.1098 53.1846 46.2383 53.8522 46.2383 54.5675C46.2383 55.3305 46.1098 55.9981 45.8101 56.5703C45.5103 57.1426 45.125 57.6194 44.6111 58.0486C44.0973 58.4301 43.455 58.7639 42.7271 58.9547C41.9991 59.1454 41.1427 59.2408 40.2435 59.2408C39.3443 59.2408 38.4879 59.1454 37.7599 58.9547C37.032 58.7639 36.4325 58.4301 35.9187 58.0486C35.4048 57.6671 35.0195 57.1426 34.7625 56.5703C34.5056 55.9981 34.3772 55.3305 34.3772 54.5675C34.3772 53.8045 34.5056 53.1846 34.7625 52.6123C35.0195 52.0401 35.4048 51.5632 35.9187 51.1817C36.4325 50.8002 37.032 50.5141 37.7599 50.3234C38.4879 50.1326 39.3443 50.0372 40.2435 50.0372ZM40.2435 51.897C39.5155 51.897 38.8733 51.9447 38.2738 52.0878C37.7171 52.1831 37.2033 52.3739 36.8179 52.6123C36.4325 52.8508 36.09 53.1369 35.9187 53.4707C35.7046 53.8045 35.6189 54.186 35.6189 54.6628C35.6189 55.1397 35.7046 55.5212 35.9187 55.855C36.1328 56.1888 36.4325 56.475 36.8179 56.7134C37.2033 56.9518 37.7171 57.1426 38.2738 57.238C38.8304 57.381 39.5155 57.4287 40.2435 57.4287C40.9714 57.4287 41.6566 57.381 42.2132 57.238C42.8127 57.0949 43.3265 56.9518 43.7119 56.7134C44.1401 56.475 44.4399 56.1888 44.654 55.855C44.8681 55.5212 44.9965 55.092 44.9965 54.6628C44.9965 54.2337 44.8681 53.8045 44.654 53.4707C44.4399 53.1369 44.0973 52.8508 43.7119 52.6123C43.2837 52.3739 42.8127 52.2308 42.2132 52.0878C41.6566 51.9447 40.9714 51.897 40.2435 51.897Z" fill="#E1E1E1" fill-opacity="0.5"/>
<path d="M43.0737 95.1005C42.4742 95.1005 41.9175 94.9098 41.4893 94.5283C41.0611 94.1468 40.7185 93.6223 40.4616 92.9546C40.2475 93.7653 39.8621 94.4329 39.3911 94.8621C38.9201 95.2913 38.3206 95.5297 37.6355 95.5297C37.1645 95.5297 36.6935 95.4343 36.3081 95.1959C35.9227 94.9575 35.5373 94.6714 35.2804 94.2422C34.9807 93.813 34.7666 93.2884 34.5953 92.7162C34.424 92.0963 34.3384 91.4286 34.3384 90.6657C34.3384 90.3318 34.3384 89.9504 34.3812 89.6166C34.424 89.2351 34.4668 88.9012 34.5525 88.5674C34.6381 88.2336 34.7238 87.8998 34.8094 87.6137C34.895 87.3276 35.0235 87.0415 35.152 86.8507L36.1796 87.423C36.0083 87.8521 35.8799 88.329 35.7514 88.8059C35.623 89.2827 35.5802 89.855 35.5802 90.4749C35.5802 90.9518 35.623 91.381 35.7086 91.8102C35.7943 92.2393 35.9227 92.5731 36.094 92.8593C36.2653 93.1454 36.4794 93.3838 36.7363 93.5269C36.9932 93.6699 37.293 93.7653 37.6355 93.7653C38.0209 93.7653 38.3206 93.6699 38.6204 93.5269C38.8773 93.3838 39.0914 93.1454 39.3055 92.8593C39.4768 92.5731 39.6052 92.2393 39.6909 91.8578C39.7765 91.4763 39.8193 91.0472 39.8193 90.618L39.8193 88.9013L41.0611 88.9013L41.0611 90.618C41.0611 90.9995 41.1039 91.381 41.1896 91.7148C41.2752 92.0486 41.4037 92.3347 41.575 92.5731C41.7462 92.8116 41.9603 93.0023 42.2173 93.1454C42.4742 93.2884 42.7739 93.3361 43.1165 93.3361C43.459 93.3361 43.7588 93.2408 44.0157 93.0977C44.2726 92.9546 44.4867 92.7639 44.6152 92.4778C44.7864 92.1916 44.8721 91.9055 44.9577 91.5717C45.0434 91.2379 45.0862 90.8087 45.0862 90.4272C45.0862 90.1411 45.0862 89.855 45.0434 89.6166C45.0005 89.3781 44.9577 89.1397 44.9149 88.9013C44.8721 88.6628 44.7864 88.4721 44.7436 88.2336C44.658 88.0429 44.5724 87.8044 44.4867 87.6137L45.4716 86.9938C45.6 87.1845 45.7285 87.423 45.8141 87.7091C45.8998 87.9952 45.9854 88.2813 46.0711 88.6151C46.1567 88.9489 46.1995 89.2827 46.2423 89.6166C46.2851 89.9504 46.2852 90.2842 46.2852 90.618C46.2852 91.2856 46.1995 91.9055 46.0711 92.4778C45.8998 93.05 45.6857 93.4792 45.4288 93.9084C45.1718 94.2899 44.8293 94.576 44.4011 94.8144C44.0157 95.0052 43.5447 95.1005 43.0737 95.1005Z" fill="#E1E1E1" fill-opacity="0.5"/>
<path d="M38.5821 38.0675L40.2949 32.5835L41.9648 38.0675L38.5821 38.0675Z" fill="#E1E1E1" fill-opacity="0.5"/>
<path d="M38.5821 85.7535L40.2949 80.2695L41.9648 85.7535L38.5821 85.7535Z" fill="#E1E1E1" fill-opacity="0.5"/>
</g>
<path d="M59.0165 64L50.5865 50.89H50.4665V64H46.3565V43.36H50.7665L58.8365 55.72H58.9865V43.36H63.0965V64H59.0165ZM81.2676 63.76C80.5876 63.9 79.7476 64.01 78.7476 64.09C77.7676 64.19 76.8576 64.24 76.0176 64.24C73.4776 64.24 71.5976 63.93 70.3776 63.31C69.1776 62.69 68.3776 61.66 67.9776 60.22C67.5776 58.78 67.3776 56.6 67.3776 53.68C67.3776 50.8 67.5776 48.64 67.9776 47.2C68.3776 45.74 69.1776 44.7 70.3776 44.08C71.5976 43.44 73.4776 43.12 76.0176 43.12C76.8776 43.12 77.7876 43.17 78.7476 43.27C79.7076 43.37 80.5076 43.5 81.1476 43.66V47.11C79.4076 46.91 78.0576 46.81 77.0976 46.81C75.2776 46.81 74.0176 46.95 73.3176 47.23C72.6176 47.49 72.1676 48.06 71.9676 48.94C71.7676 49.82 71.6676 51.4 71.6676 53.68C71.6676 55.96 71.7676 57.54 71.9676 58.42C72.1676 59.3 72.6176 59.88 73.3176 60.16C74.0176 60.42 75.2776 60.55 77.0976 60.55C78.6176 60.55 80.0076 60.45 81.2676 60.25V63.76ZM98.4648 64L96.9648 59.56H88.9248L87.4548 64H83.1648L90.1548 43.36H95.8848L102.875 64H98.4648ZM93.0048 47.38H92.8548L90.0648 55.84H95.8248L93.0048 47.38ZM119.061 64L117.561 59.56H109.521L108.051 64H103.761L110.751 43.36H116.481L123.471 64H119.061ZM113.601 47.38H113.451L110.661 55.84H116.421L113.601 47.38ZM126.396 64V43.36H139.986V47.05H130.656V52.3H138.876V55.99H130.656V64H126.396Z" fill="white"/>
<path d="M59.0165 64L58.1754 64.5409L58.4706 65H59.0165V64ZM50.5865 50.89L51.4276 50.3491L51.1324 49.89H50.5865V50.89ZM50.4665 50.89V49.89H49.4665V50.89H50.4665ZM50.4665 64V65H51.4665V64H50.4665ZM46.3565 64H45.3565V65H46.3565V64ZM46.3565 43.36V42.36H45.3565V43.36H46.3565ZM50.7665 43.36L51.6038 42.8133L51.3078 42.36H50.7665V43.36ZM58.8365 55.72L57.9992 56.2667L58.2951 56.72H58.8365V55.72ZM58.9865 55.72V56.72H59.9865V55.72H58.9865ZM58.9865 43.36V42.36H57.9865V43.36H58.9865ZM63.0965 43.36H64.0965V42.36H63.0965V43.36ZM63.0965 64V65H64.0965V64H63.0965ZM59.8576 63.4591L51.4276 50.3491L49.7454 51.4309L58.1754 64.5409L59.8576 63.4591ZM50.5865 49.89H50.4665V51.89H50.5865V49.89ZM49.4665 50.89V64H51.4665V50.89H49.4665ZM50.4665 63H46.3565V65H50.4665V63ZM47.3565 64V43.36H45.3565V64H47.3565ZM46.3565 44.36H50.7665V42.36H46.3565V44.36ZM49.9292 43.9067L57.9992 56.2667L59.6738 55.1733L51.6038 42.8133L49.9292 43.9067ZM58.8365 56.72H58.9865V54.72H58.8365V56.72ZM59.9865 55.72V43.36H57.9865V55.72H59.9865ZM58.9865 44.36H63.0965V42.36H58.9865V44.36ZM62.0965 43.36V64H64.0965V43.36H62.0965ZM63.0965 63H59.0165V65H63.0965V63ZM81.2676 63.76L81.4692 64.7395L82.2676 64.5751V63.76H81.2676ZM78.7476 64.09L78.6678 63.0932L78.6569 63.0941L78.6461 63.0952L78.7476 64.09ZM70.3776 63.31L69.9185 64.1984L69.9245 64.2015L70.3776 63.31ZM67.9776 60.22L67.0141 60.4876L67.0141 60.4876L67.9776 60.22ZM67.9776 47.2L68.9411 47.4676L68.942 47.4642L67.9776 47.2ZM70.3776 44.08L70.8366 44.9684L70.8421 44.9655L70.3776 44.08ZM81.1476 43.66H82.1476V42.8792L81.3901 42.6899L81.1476 43.66ZM81.1476 47.11L81.0334 48.1035L82.1476 48.2315V47.11H81.1476ZM73.3176 47.23L73.6658 48.1674L73.6774 48.1631L73.689 48.1585L73.3176 47.23ZM71.9676 48.94L70.9924 48.7184L70.9924 48.7184L71.9676 48.94ZM71.9676 58.42L70.9924 58.6416L70.9924 58.6416L71.9676 58.42ZM73.3176 60.16L72.9462 61.0885L72.9577 61.0931L72.9694 61.0974L73.3176 60.16ZM81.2676 60.25H82.2676V59.0788L81.1108 59.2624L81.2676 60.25ZM81.0659 62.7805C80.4395 62.9095 79.6432 63.0152 78.6678 63.0932L78.8273 65.0868C79.852 65.0048 80.7356 64.8905 81.4692 64.7395L81.0659 62.7805ZM78.6461 63.0952C77.6942 63.1923 76.8185 63.24 76.0176 63.24V65.24C76.8967 65.24 77.841 65.1877 78.8491 65.0848L78.6461 63.0952ZM76.0176 63.24C73.5222 63.24 71.8358 62.9294 70.8306 62.4185L69.9245 64.2015C71.3593 64.9306 73.433 65.24 76.0176 65.24V63.24ZM70.8366 62.4216C69.9116 61.9437 69.2754 61.1559 68.9411 59.9524L67.0141 60.4876C67.4797 62.1641 68.4436 63.4363 69.9186 64.1984L70.8366 62.4216ZM68.9411 59.9524C68.5786 58.6473 68.3776 56.5783 68.3776 53.68H66.3776C66.3776 56.6217 66.5766 58.9127 67.0141 60.4876L68.9411 59.9524ZM68.3776 53.68C68.3776 50.8232 68.5784 48.7734 68.9411 47.4676L67.0141 46.9324C66.5768 48.5066 66.3776 50.7768 66.3776 53.68H68.3776ZM68.942 47.4642C69.2781 46.2377 69.9163 45.4439 70.8366 44.9684L69.9186 43.1916C68.4389 43.9561 67.4771 45.2423 67.0131 46.9358L68.942 47.4642ZM70.8421 44.9655C71.8433 44.4403 73.5245 44.12 76.0176 44.12V42.12C73.4307 42.12 71.3519 42.4397 69.913 43.1945L70.8421 44.9655ZM76.0176 44.12C76.8391 44.12 77.7143 44.1678 78.644 44.2646L78.8512 42.2754C77.8609 42.1722 76.9161 42.12 76.0176 42.12V44.12ZM78.644 44.2646C79.5765 44.3618 80.3263 44.4855 80.905 44.6301L81.3901 42.6899C80.6888 42.5145 79.8387 42.3782 78.8512 42.2754L78.644 44.2646ZM80.1476 43.66V47.11H82.1476V43.66H80.1476ZM81.2618 46.1165C79.5093 45.9151 78.1148 45.81 77.0976 45.81V47.81C78.0004 47.81 79.3059 47.9049 81.0334 48.1035L81.2618 46.1165ZM77.0976 45.81C75.2806 45.81 73.8438 45.9425 72.9462 46.3015L73.689 48.1585C74.1913 47.9575 75.2745 47.81 77.0976 47.81V45.81ZM72.9694 46.2926C71.8839 46.6957 71.2493 47.5882 70.9924 48.7184L72.9427 49.1616C73.0859 48.5318 73.3512 48.2843 73.6658 48.1674L72.9694 46.2926ZM70.9924 48.7184C70.7646 49.7208 70.6676 51.4046 70.6676 53.68H72.6676C72.6676 51.3954 72.7705 49.9192 72.9427 49.1616L70.9924 48.7184ZM70.6676 53.68C70.6676 55.9554 70.7646 57.6392 70.9924 58.6416L72.9427 58.1984C72.7705 57.4408 72.6676 55.9646 72.6676 53.68H70.6676ZM70.9924 58.6416C71.2489 59.77 71.8782 60.6613 72.9462 61.0885L73.689 59.2315C73.3569 59.0987 73.0863 58.83 72.9427 58.1984L70.9924 58.6416ZM72.9694 61.0974C73.8561 61.4268 75.2814 61.55 77.0976 61.55V59.55C75.2737 59.55 74.179 59.4132 73.6658 59.2226L72.9694 61.0974ZM77.0976 61.55C78.6605 61.55 80.1038 61.4472 81.4243 61.2376L81.1108 59.2624C79.9114 59.4528 78.5747 59.55 77.0976 59.55V61.55ZM80.2676 60.25V63.76H82.2676V60.25H80.2676ZM98.4648 64L97.5174 64.3201L97.7472 65H98.4648V64ZM96.9648 59.56L97.9122 59.2399L97.6825 58.56H96.9648V59.56ZM88.9248 59.56V58.56H88.2025L87.9755 59.2457L88.9248 59.56ZM87.4548 64V65H88.1771L88.4042 64.3143L87.4548 64ZM83.1648 64L82.2177 63.6792L81.7704 65H83.1648V64ZM90.1548 43.36V42.36H89.4377L89.2077 43.0392L90.1548 43.36ZM95.8848 43.36L96.832 43.0392L96.602 42.36H95.8848V43.36ZM102.875 64V65H104.269L103.822 63.6792L102.875 64ZM93.0048 47.38L93.9535 47.0638L93.7256 46.38H93.0048V47.38ZM92.8548 47.38V46.38H92.1317L91.9052 47.0668L92.8548 47.38ZM90.0648 55.84L89.1152 55.5268L88.6821 56.84H90.0648V55.84ZM95.8248 55.84V56.84H97.2123L96.7735 55.5238L95.8248 55.84ZM99.4122 63.6799L97.9122 59.2399L96.0174 59.8801L97.5174 64.3201L99.4122 63.6799ZM96.9648 58.56H88.9248V60.56H96.9648V58.56ZM87.9755 59.2457L86.5055 63.6857L88.4042 64.3143L89.8742 59.8743L87.9755 59.2457ZM87.4548 63H83.1648V65H87.4548V63ZM84.112 64.3208L91.102 43.6808L89.2077 43.0392L82.2177 63.6792L84.112 64.3208ZM90.1548 44.36H95.8848V42.36H90.1548V44.36ZM94.9377 43.6808L101.928 64.3208L103.822 63.6792L96.832 43.0392L94.9377 43.6808ZM102.875 63H98.4648V65H102.875V63ZM93.0048 46.38H92.8548V48.38H93.0048V46.38ZM91.9052 47.0668L89.1152 55.5268L91.0145 56.1532L93.8045 47.6932L91.9052 47.0668ZM90.0648 56.84H95.8248V54.84H90.0648V56.84ZM96.7735 55.5238L93.9535 47.0638L92.0562 47.6962L94.8762 56.1562L96.7735 55.5238ZM119.061 64L118.113 64.3201L118.343 65H119.061V64ZM117.561 59.56L118.508 59.2399L118.278 58.56H117.561V59.56ZM109.521 59.56V58.56H108.798L108.571 59.2457L109.521 59.56ZM108.051 64V65H108.773L109 64.3143L108.051 64ZM103.761 64L102.813 63.6792L102.366 65H103.761V64ZM110.751 43.36V42.36H110.033L109.803 43.0392L110.751 43.36ZM116.481 43.36L117.428 43.0392L117.198 42.36H116.481V43.36ZM123.471 64V65H124.865L124.418 63.6792L123.471 64ZM113.601 47.38L114.549 47.0638L114.321 46.38H113.601V47.38ZM113.451 47.38V46.38H112.727L112.501 47.0668L113.451 47.38ZM110.661 55.84L109.711 55.5268L109.278 56.84H110.661V55.84ZM116.421 55.84V56.84H117.808L117.369 55.5238L116.421 55.84ZM120.008 63.6799L118.508 59.2399L116.613 59.8801L118.113 64.3201L120.008 63.6799ZM117.561 58.56H109.521V60.56H117.561V58.56ZM108.571 59.2457L107.101 63.6857L109 64.3143L110.47 59.8743L108.571 59.2457ZM108.051 63H103.761V65H108.051V63ZM104.708 64.3208L111.698 43.6808L109.803 43.0392L102.813 63.6792L104.708 64.3208ZM110.751 44.36H116.481V42.36H110.751V44.36ZM115.533 43.6808L122.523 64.3208L124.418 63.6792L117.428 43.0392L115.533 43.6808ZM123.471 63H119.061V65H123.471V63ZM113.601 46.38H113.451V48.38H113.601V46.38ZM112.501 47.0668L109.711 55.5268L111.61 56.1532L114.4 47.6932L112.501 47.0668ZM110.661 56.84H116.421V54.84H110.661V56.84ZM117.369 55.5238L114.549 47.0638L112.652 47.6962L115.472 56.1562L117.369 55.5238ZM126.396 64H125.396V65H126.396V64ZM126.396 43.36V42.36H125.396V43.36H126.396ZM139.986 43.36H140.986V42.36H139.986V43.36ZM139.986 47.05V48.05H140.986V47.05H139.986ZM130.656 47.05V46.05H129.656V47.05H130.656ZM130.656 52.3H129.656V53.3H130.656V52.3ZM138.876 52.3H139.876V51.3H138.876V52.3ZM138.876 55.99V56.99H139.876V55.99H138.876ZM130.656 55.99V54.99H129.656V55.99H130.656ZM130.656 64V65H131.656V64H130.656ZM127.396 64V43.36H125.396V64H127.396ZM126.396 44.36H139.986V42.36H126.396V44.36ZM138.986 43.36V47.05H140.986V43.36H138.986ZM139.986 46.05H130.656V48.05H139.986V46.05ZM129.656 47.05V52.3H131.656V47.05H129.656ZM130.656 53.3H138.876V51.3H130.656V53.3ZM137.876 52.3V55.99H139.876V52.3H137.876ZM138.876 54.99H130.656V56.99H138.876V54.99ZM129.656 55.99V64H131.656V55.99H129.656ZM130.656 63H126.396V65H130.656V63Z" fill="black"/>
</svg>
