<svg width="484" height="451" viewBox="0 0 484 451" fill="none" xmlns="http://www.w3.org/2000/svg">
<path d="M480.552 225.344C480.552 347.946 373.851 447.688 241.776 447.688C109.701 447.688 3 347.946 3 225.344C3 102.742 109.701 3 241.776 3C373.851 3 480.552 102.742 480.552 225.344Z" fill="black" stroke="#FFC700" stroke-width="6"/>
<path d="M106.055 266.194L110.754 256.936L114.087 250.382H119.753H121.02L150.884 152.683L145.184 142.401H120.353H106.388" fill="#FFC700"/>
<path d="M106.69 266.194L101.991 256.936L98.6909 250.382H93.0248H91.7249L61.8945 152.683L67.5606 142.401H92.3915H106.39" fill="#FFC700"/>
<path d="M137.822 293.407H74.3281L84.3938 266.194H127.756L137.822 293.407Z" fill="#FFC700"/>
<path d="M153.25 193.037H133.385V199.747H136.018H142.817L145.45 202.201L140.651 217.671L138.284 219.846H117.453V226.587H145.384L155.183 194.932L153.25 193.037Z" fill="#FFC700"/>
<path d="M59.4917 193.037H79.3564V199.747H76.7234H69.924L67.3243 202.201L72.0905 217.671L74.4569 219.846H95.2882V226.587H67.3576L57.5586 194.932L59.4917 193.037Z" fill="#FFC700"/>
<path d="M178.582 185.581V150.571H168.25V139.605H203.746V150.571H193.314V185.581H178.582Z" fill="white"/>
<path d="M234.177 185.581V168.278H226.644V185.581H211.879V139.605H226.644V156.721H234.11V139.605H248.975V185.581H234.177Z" fill="white"/>
<path d="M259.703 185.581V139.605H290.433V150.105H274.435V157.187H287.767V167.532H274.435V175.081H290.433V185.581H259.703Z" fill="white"/>
<path d="M170.816 193.192H187.115C191.812 192.902 196.521 193.57 200.913 195.149C202.205 195.759 203.33 196.636 204.202 197.712C205.074 198.789 205.671 200.038 205.946 201.362C206.734 206.224 207.057 211.141 206.913 216.056C207.058 220.981 206.735 225.909 205.946 230.781C205.68 232.108 205.087 233.361 204.214 234.439C203.341 235.517 202.211 236.391 200.913 236.993C196.529 238.602 191.816 239.281 187.115 238.982H170.816V193.192ZM187.248 228.699C188.395 228.765 189.541 228.562 190.581 228.109C190.958 227.724 191.249 227.273 191.438 226.783C191.627 226.292 191.709 225.771 191.681 225.251C191.681 223.76 191.881 220.778 191.881 216.273C191.881 211.769 191.881 208.631 191.681 207.14C191.733 206.095 191.351 205.072 190.614 204.282C189.517 203.788 188.295 203.584 187.081 203.692H185.382V228.699H187.248Z" fill="white"/>
<path d="M242.575 239.199L241.076 231.836H229.443L228.01 239.199H213.512L224.911 193.192H245.942L257.274 239.199H242.575ZM235.476 204.748H234.91L231.577 221.678H238.876L235.476 204.748Z" fill="white"/>
<path d="M264.609 239.199V193.192H279.375V239.199H264.609Z" fill="white"/>
<path d="M290.137 239.199V193.192H304.902V228.233H318.634V239.199H290.137Z" fill="white"/>
<path d="M331.902 239.199V224.164L318.57 193.099H333.635L339.368 210.961H339.968L345.568 193.099H360.266L346.934 224.164V239.199H331.902Z" fill="white"/>
<path d="M178.548 293.003C175.448 292.785 172.849 292.475 170.682 292.133V282.223C176.182 282.627 180.114 282.845 182.514 282.845C183.802 282.916 185.093 282.916 186.38 282.845C186.979 282.821 187.557 282.637 188.047 282.316C188.338 282.045 188.535 281.699 188.614 281.322C188.68 280.723 188.68 280.12 188.614 279.521C188.666 278.701 188.553 277.879 188.28 277.098C188.144 276.837 187.948 276.607 187.706 276.425C187.464 276.243 187.182 276.112 186.88 276.041C185.718 275.671 184.526 275.39 183.314 275.203L176.048 274.209C174.889 274.066 173.798 273.62 172.901 272.921C172.004 272.223 171.338 271.301 170.982 270.263C169.885 267.107 169.4 263.793 169.549 260.478C169.357 257.395 170.108 254.325 171.715 251.624C173.09 249.616 175.197 248.137 177.648 247.462C180.651 246.677 183.762 246.311 186.88 246.375C189.576 246.38 192.268 246.525 194.946 246.809C197.613 247.12 199.746 247.4 201.312 247.71V257.496C197.485 257.079 193.634 256.871 189.78 256.874C188.469 256.874 187.469 256.874 186.78 256.874C186.26 256.904 185.756 257.053 185.314 257.309C184.946 257.578 184.678 257.947 184.547 258.366C184.365 258.918 184.287 259.496 184.314 260.074C184.272 260.755 184.351 261.437 184.547 262.093C184.608 262.299 184.717 262.49 184.867 262.651C185.017 262.812 185.204 262.94 185.414 263.025C186.162 263.313 186.946 263.512 187.747 263.615L194.146 264.485C195.819 264.731 197.44 265.224 198.946 265.945C200.426 266.773 201.592 268.011 202.279 269.487C203.325 272.182 203.79 275.043 203.645 277.905C203.866 281.368 203.156 284.828 201.579 287.97C200.424 290.051 198.436 291.625 196.046 292.35C193.152 293.106 190.152 293.451 187.147 293.376C184.447 293.344 181.614 293.22 178.548 293.003Z" fill="white"/>
<path d="M220.676 292.785V257.838H210.344V246.779H245.874V257.838H235.475V292.785H220.676Z" fill="white"/>
<path d="M276.806 292.785L275.273 285.454H263.674L262.241 292.785H247.742L259.141 246.779H280.172L291.505 292.785H276.806ZM269.707 258.366H269.107L265.774 275.265H273.306L269.707 258.366Z" fill="white"/>
<path d="M322.636 292.785L314.47 274.674H313.603V292.785H298.805V246.778H313.603V264.05H314.47L322.869 246.654H338.501L326.369 268.399L338.634 292.661L322.636 292.785Z" fill="white"/>
<path d="M346.164 292.785V246.779H376.861V257.278H360.863V264.392H374.195V274.737H360.863V282.286H376.861V292.785H346.164Z" fill="white"/>
<path d="M394.925 296.003C391.825 295.786 389.226 295.475 387.059 295.133V285.224C392.559 285.628 396.492 285.845 398.891 285.845C400.179 285.917 401.47 285.917 402.758 285.845C403.356 285.821 403.934 285.638 404.424 285.317C404.715 285.046 404.912 284.699 404.991 284.323C405.057 283.724 405.057 283.12 404.991 282.521C405.043 281.701 404.93 280.879 404.657 280.098C404.521 279.837 404.325 279.608 404.083 279.425C403.841 279.243 403.559 279.112 403.258 279.042C402.025 278.714 400.765 278.485 399.491 278.358L392.225 277.364C391.074 277.208 389.994 276.752 389.11 276.049C388.225 275.345 387.572 274.423 387.226 273.388C386.129 270.231 385.644 266.918 385.793 263.603C385.582 260.489 386.334 257.384 387.959 254.656C389.333 252.647 391.44 251.169 393.892 250.493C396.895 249.709 400.006 249.342 403.124 249.406C405.819 249.412 408.512 249.557 411.19 249.841C413.856 250.152 415.99 250.431 417.556 250.742V260.527C413.728 260.11 409.878 259.903 406.024 259.906C404.735 259.906 403.735 259.906 403.024 259.906C402.504 259.935 402 260.084 401.558 260.341C401.191 260.617 400.914 260.982 400.758 261.397C400.606 261.955 400.539 262.53 400.558 263.106C400.529 263.784 400.596 264.463 400.758 265.125C400.83 265.33 400.947 265.519 401.102 265.679C401.257 265.84 401.446 265.968 401.658 266.057C402.405 266.345 403.189 266.543 403.991 266.647L410.39 267.517C412.063 267.763 413.683 268.255 415.19 268.977C416.67 269.804 417.836 271.042 418.523 272.518C419.569 275.213 420.033 278.074 419.889 280.937C420.11 284.4 419.399 287.859 417.823 291.002C416.668 293.083 414.68 294.656 412.29 295.382C409.395 296.137 406.396 296.483 403.391 296.407C400.824 296.345 397.991 296.221 394.925 296.003Z" fill="white"/>
</svg>
