<svg width="186" height="98" viewBox="0 0 186 98" fill="none" xmlns="http://www.w3.org/2000/svg">
<rect x="0.210938" y="2.0249" width="185.6" height="95.8584" fill="#1A1A1A"/>
<mask id="mask0" mask-type="alpha" maskUnits="userSpaceOnUse" x="0" y="0" width="186" height="96">
<rect x="0.210938" width="185.6" height="95.8584" fill="#C4C4C4"/>
</mask>
<g mask="url(#mask0)">
<path d="M96.18 23.3004V-19.8816L196.152 -19.8816V6.09101H197.129V-20.9679L95.2031 -20.9679V23.2823H95.6916C95.8544 23.2914 96.0172 23.2914 96.18 23.3004Z" fill="#E1E1E1" fill-opacity="0.5"/>
<path d="M196.152 117.153L96.18 117.153V75.7816C96.0172 75.7816 95.8544 75.7907 95.6916 75.7907H95.2031V118.23L197.129 118.23V91.1714H196.152V117.153Z" fill="#E1E1E1" fill-opacity="0.5"/>
<path d="M164.238 28.742C164.303 28.6877 164.369 28.6333 164.434 28.57L165.215 27.9091V7.17814L196.151 7.17814V6.0918L164.238 6.0918V28.742Z" fill="#E1E1E1" fill-opacity="0.5"/>
<path d="M165.215 71.1728L164.434 70.521C164.369 70.4667 164.303 70.4124 164.238 70.349V91.1886H196.151V90.1023H165.215V71.1728Z" fill="#E1E1E1" fill-opacity="0.5"/>
<path d="M185.082 29.8085L196.154 29.8085V28.7222L184.105 28.7222V68.5546H196.154V67.4682H185.082V29.8085Z" fill="#E1E1E1" fill-opacity="0.5"/>
<path d="M156.005 49.543C156.005 41.9477 158.992 34.9318 164.235 30.1247V28.7396C161.467 31.1115 159.171 34.1894 157.584 37.6386C155.882 41.3502 155.02 45.3516 155.02 49.543C155.02 53.7345 155.882 57.7358 157.584 61.4475C159.163 64.9057 161.467 67.9746 164.235 70.3464V68.9613C158.992 64.1543 156.005 57.1384 156.005 49.543Z" fill="#E1E1E1" fill-opacity="0.5"/>
<path d="M164.238 28.7417V30.1267V68.9634V70.3484C164.303 70.4027 164.369 70.4571 164.434 70.5204L165.215 71.1722V27.9178L164.434 28.5787C164.369 28.624 164.303 28.6783 164.238 28.7417Z" fill="#E1E1E1" fill-opacity="0.5"/>
<path d="M175.86 47.3367C175.209 47.3367 174.688 47.9161 174.688 48.6403C174.688 49.3645 175.209 49.9439 175.86 49.9439C176.511 49.9439 177.032 49.3645 177.032 48.6403C177.032 47.9161 176.511 47.3367 175.86 47.3367Z" fill="#E1E1E1" fill-opacity="0.5"/>
<path d="M96.7683 49.5444C96.7683 49.0646 96.5329 48.6392 96.1758 48.4128V50.676C96.5329 50.4497 96.7683 50.0242 96.7683 49.5444Z" fill="#E1E1E1" fill-opacity="0.5"/>
<path d="M94.4219 49.545C94.4219 50.1063 94.7475 50.5952 95.1953 50.7672V48.3138C94.7475 48.4949 94.4219 48.9747 94.4219 49.545Z" fill="#E1E1E1" fill-opacity="0.5"/>
<path d="M119.207 49.5444C119.207 42.5466 116.764 35.9743 112.319 31.0133C107.997 26.1881 102.282 23.4632 96.1758 23.3003V24.3866C108.379 24.7306 118.23 35.9018 118.23 49.5444C118.23 63.187 108.379 74.3582 96.1758 74.7023V75.7886C102.282 75.6256 107.997 72.9007 112.319 68.0756C116.764 63.1146 119.207 56.5332 119.207 49.5444Z" fill="#E1E1E1" fill-opacity="0.5"/>
<path d="M96.18 48.4132V24.387V23.3007C96.0172 23.3007 95.8544 23.2916 95.6916 23.2916H95.2031V48.3227C95.3252 48.2774 95.4555 48.2412 95.602 48.2412C95.8056 48.2412 96.0091 48.3046 96.18 48.4132Z" fill="#E1E1E1" fill-opacity="0.5"/>
<path d="M96.18 75.7782V74.6919V50.6656C96.0091 50.7743 95.8137 50.8377 95.602 50.8377C95.4636 50.8377 95.3334 50.8105 95.2031 50.7562V75.7873H95.6916C95.8544 75.7873 96.0172 75.7872 96.18 75.7782Z" fill="#E1E1E1" fill-opacity="0.5"/>
<path d="M96.18 50.6685V48.4053C96.0091 48.2966 95.8137 48.2333 95.602 48.2333C95.4636 48.2333 95.3334 48.2604 95.2031 48.3147V50.7681C95.3252 50.8134 95.4555 50.8496 95.602 50.8496C95.8056 50.8496 96.0091 50.7862 96.18 50.6685Z" fill="#E1E1E1" fill-opacity="0.5"/>
<path d="M95.2066 23.2997V-19.8823L-4.76526 -19.8823L-4.76526 6.09028H-5.74219L-5.74219 -20.9686L96.1835 -20.9686V23.2816H95.695C95.5322 23.2907 95.3694 23.2907 95.2066 23.2997Z" fill="#E1E1E1" fill-opacity="0.5"/>
<path d="M-4.76526 117.152L95.2066 117.152V75.7809C95.3694 75.7809 95.5322 75.7899 95.695 75.7899H96.1835V118.23L-5.74219 118.23L-5.74219 91.1707H-4.76526L-4.76526 117.152Z" fill="#E1E1E1" fill-opacity="0.5"/>
<path d="M27.1472 28.7413C27.0821 28.687 27.0169 28.6327 26.9518 28.5693L26.1703 27.9175L26.1703 7.17753L-4.76562 7.17753V6.09119L27.1472 6.09119L27.1472 28.7413Z" fill="#E1E1E1" fill-opacity="0.5"/>
<path d="M26.1703 71.1722L26.9518 70.5204C27.0169 70.4661 27.0821 70.4118 27.1472 70.3484L27.1472 91.188H-4.76562V90.1016H26.1703L26.1703 71.1722Z" fill="#E1E1E1" fill-opacity="0.5"/>
<path d="M6.30617 29.808L-4.76562 29.808V28.7217L7.2831 28.7217L7.2831 68.5541H-4.76562V67.4678H6.30617L6.30617 29.808Z" fill="#E1E1E1" fill-opacity="0.5"/>
<path d="M35.3712 49.5425C35.3712 41.9472 32.3834 34.9313 27.1406 30.1242V28.7391C29.9086 31.111 32.2043 34.1889 33.7918 37.6381C35.4933 41.3497 36.3563 45.3511 36.3563 49.5425C36.3563 53.734 35.4933 57.7353 33.7918 61.447C32.2125 64.9052 29.9086 67.9741 27.1406 70.3459V68.9609C32.3834 64.1538 35.3712 57.1379 35.3712 49.5425Z" fill="#E1E1E1" fill-opacity="0.5"/>
<path d="M27.1488 28.7412V30.1262L27.1488 68.9629V70.3479C27.0837 70.4023 27.0185 70.4566 26.9534 70.5199L26.1719 71.1717L26.1719 27.9174L26.9534 28.5782C27.0185 28.6235 27.0837 28.6778 27.1488 28.7412Z" fill="#E1E1E1" fill-opacity="0.5"/>
<path d="M15.5082 47.3359C16.1595 47.3359 16.6806 47.9153 16.6806 48.6395C16.6806 49.3638 16.1595 49.9431 15.5082 49.9431C14.857 49.9431 14.3359 49.3638 14.3359 48.6395C14.3359 47.9153 14.8651 47.3359 15.5082 47.3359Z" fill="#E1E1E1" fill-opacity="0.5"/>
<path d="M94.6133 49.544C94.6133 49.0642 94.8487 48.6387 95.2058 48.4124V50.6756C94.8487 50.4493 94.6133 50.0238 94.6133 49.544Z" fill="#E1E1E1" fill-opacity="0.5"/>
<path d="M96.9492 49.5443C96.9492 50.1056 96.6236 50.5944 96.1758 50.7664V48.3131C96.6236 48.4942 96.9492 48.974 96.9492 49.5443Z" fill="#E1E1E1" fill-opacity="0.5"/>
<path d="M72.1758 49.544C72.1758 42.5461 74.6181 35.9738 79.0631 31.0128C83.386 26.1877 89.101 23.4628 95.2068 23.2998V24.3861C83.0034 24.7302 73.1527 35.9013 73.1527 49.544C73.1527 63.1866 83.0034 74.3578 95.2068 74.7018V75.7881C89.101 75.6252 83.386 72.9003 79.0631 68.0751C74.6262 63.1141 72.1758 56.5327 72.1758 49.544Z" fill="#E1E1E1" fill-opacity="0.5"/>
<path d="M95.207 48.4125V24.3863V23.2999C95.3699 23.2999 95.5327 23.2909 95.6955 23.2909H96.1839V48.322C96.0618 48.2767 95.9316 48.2405 95.785 48.2405C95.5734 48.2405 95.378 48.3039 95.207 48.4125Z" fill="#E1E1E1" fill-opacity="0.5"/>
<path d="M95.207 75.7775V74.6911V50.6649C95.378 50.7736 95.5734 50.8369 95.785 50.8369C95.9234 50.8369 96.0537 50.8098 96.1839 50.7554V75.7865H95.6955C95.5327 75.7865 95.3699 75.7865 95.207 75.7775Z" fill="#E1E1E1" fill-opacity="0.5"/>
<path d="M95.207 50.668V48.4048C95.378 48.2962 95.5734 48.2328 95.785 48.2328C95.9234 48.2328 96.0537 48.2599 96.1839 48.3143V50.7676C96.0618 50.8128 95.9316 50.8491 95.785 50.8491C95.5734 50.8491 95.378 50.7857 95.207 50.668Z" fill="#E1E1E1" fill-opacity="0.5"/>
</g>
<path d="M46.2217 62.24C43.2817 62.24 40.7617 62.08 38.6617 61.76V58.19C41.1217 58.43 43.2217 58.55 44.9617 58.55C45.9817 58.55 46.7717 58.51 47.3317 58.43C47.9117 58.33 48.3417 58.17 48.6217 57.95C48.8817 57.75 49.0417 57.51 49.1017 57.23C49.1817 56.95 49.2217 56.55 49.2217 56.03C49.2217 55.45 49.1817 55.03 49.1017 54.77C49.0217 54.49 48.8617 54.29 48.6217 54.17C48.3817 54.03 47.9817 53.93 47.4217 53.87L43.0117 53.36C41.6917 53.18 40.6717 52.84 39.9517 52.34C39.2317 51.82 38.7317 51.16 38.4517 50.36C38.1917 49.54 38.0617 48.53 38.0617 47.33C38.0617 45.57 38.3817 44.24 39.0217 43.34C39.6617 42.42 40.5217 41.82 41.6017 41.54C42.6817 41.26 44.0717 41.12 45.7717 41.12C48.3917 41.12 50.6317 41.32 52.4917 41.72V45.2C50.5517 44.94 48.6017 44.81 46.6417 44.81C44.8417 44.81 43.6517 44.96 43.0717 45.26C42.7517 45.42 42.5517 45.63 42.4717 45.89C42.3917 46.15 42.3517 46.54 42.3517 47.06C42.3517 47.66 42.3917 48.09 42.4717 48.35C42.5517 48.61 42.7217 48.8 42.9817 48.92C43.2617 49.02 43.7217 49.11 44.3617 49.19L49.1017 49.76C50.0217 49.86 50.7817 50.05 51.3817 50.33C51.9817 50.59 52.4517 51.03 52.7917 51.65C53.2717 52.51 53.5117 53.84 53.5117 55.64C53.5117 57.54 53.2117 58.97 52.6117 59.93C52.0117 60.89 51.2017 61.52 50.1817 61.82C49.1817 62.1 47.8617 62.24 46.2217 62.24ZM65.7538 62.24C62.9338 62.24 60.9238 61.94 59.7238 61.34C58.5238 60.74 57.7638 59.76 57.4438 58.4C57.1438 57.04 56.9938 54.8 56.9938 51.68C56.9938 48.56 57.1438 46.32 57.4438 44.96C57.7638 43.6 58.5238 42.62 59.7238 42.02C60.9238 41.42 62.9338 41.12 65.7538 41.12C68.5738 41.12 70.5838 41.42 71.7838 42.02C73.0038 42.62 73.7638 43.6 74.0638 44.96C74.3838 46.32 74.5438 48.56 74.5438 51.68C74.5438 54.8 74.3838 57.04 74.0638 58.4C73.7638 59.76 73.0038 60.74 71.7838 61.34C70.5838 61.94 68.5738 62.24 65.7538 62.24ZM65.7538 58.55C67.3338 58.55 68.3938 58.44 68.9338 58.22C69.4938 58 69.8438 57.47 69.9838 56.63C70.1438 55.77 70.2238 54.12 70.2238 51.68C70.2238 49.24 70.1438 47.6 69.9838 46.76C69.8438 45.9 69.4938 45.36 68.9338 45.14C68.3938 44.92 67.3338 44.81 65.7538 44.81C64.1738 44.81 63.1138 44.92 62.5738 45.14C62.0338 45.36 61.6838 45.9 61.5238 46.76C61.3638 47.62 61.2838 49.26 61.2838 51.68C61.2838 54.1 61.3638 55.74 61.5238 56.6C61.6838 57.46 62.0338 58 62.5738 58.22C63.1138 58.44 64.1738 58.55 65.7538 58.55ZM92.1533 61.76C91.4733 61.9 90.6333 62.01 89.6333 62.09C88.6533 62.19 87.7433 62.24 86.9033 62.24C84.3633 62.24 82.4833 61.93 81.2633 61.31C80.0633 60.69 79.2633 59.66 78.8633 58.22C78.4633 56.78 78.2633 54.6 78.2633 51.68C78.2633 48.8 78.4633 46.64 78.8633 45.2C79.2633 43.74 80.0633 42.7 81.2633 42.08C82.4833 41.44 84.3633 41.12 86.9033 41.12C87.7633 41.12 88.6733 41.17 89.6333 41.27C90.5933 41.37 91.3933 41.5 92.0333 41.66V45.11C90.2933 44.91 88.9433 44.81 87.9833 44.81C86.1633 44.81 84.9033 44.95 84.2033 45.23C83.5033 45.49 83.0533 46.06 82.8533 46.94C82.6533 47.82 82.5533 49.4 82.5533 51.68C82.5533 53.96 82.6533 55.54 82.8533 56.42C83.0533 57.3 83.5033 57.88 84.2033 58.16C84.9033 58.42 86.1633 58.55 87.9833 58.55C89.5033 58.55 90.8933 58.45 92.1533 58.25V61.76ZM109.351 61.76C108.671 61.9 107.831 62.01 106.831 62.09C105.851 62.19 104.941 62.24 104.101 62.24C101.561 62.24 99.6806 61.93 98.4606 61.31C97.2606 60.69 96.4606 59.66 96.0606 58.22C95.6606 56.78 95.4606 54.6 95.4606 51.68C95.4606 48.8 95.6606 46.64 96.0606 45.2C96.4606 43.74 97.2606 42.7 98.4606 42.08C99.6806 41.44 101.561 41.12 104.101 41.12C104.961 41.12 105.871 41.17 106.831 41.27C107.791 41.37 108.591 41.5 109.231 41.66V45.11C107.491 44.91 106.141 44.81 105.181 44.81C103.361 44.81 102.101 44.95 101.401 45.23C100.701 45.49 100.251 46.06 100.051 46.94C99.8506 47.82 99.7506 49.4 99.7506 51.68C99.7506 53.96 99.8506 55.54 100.051 56.42C100.251 57.3 100.701 57.88 101.401 58.16C102.101 58.42 103.361 58.55 105.181 58.55C106.701 58.55 108.091 58.45 109.351 58.25V61.76ZM113.288 62V41.36H127.478V45.05H117.548V49.73H126.068V53.42H117.548V58.31H127.478V62H113.288ZM143.597 62L140.567 54.53H135.917V62H131.657V41.36H141.377C143.157 41.36 144.507 41.63 145.427 42.17C146.367 42.69 146.987 43.42 147.287 44.36C147.607 45.28 147.767 46.47 147.767 47.93C147.767 51.19 146.787 53.2 144.827 53.96L148.127 62H143.597ZM139.667 50.84C140.827 50.84 141.667 50.76 142.187 50.6C142.727 50.44 143.067 50.17 143.207 49.79C143.367 49.39 143.447 48.77 143.447 47.93C143.447 47.07 143.367 46.45 143.207 46.07C143.067 45.69 142.737 45.43 142.217 45.29C141.717 45.13 140.877 45.05 139.697 45.05H135.917V50.84H139.667Z" fill="white"/>
<path d="M38.6617 61.76H37.6617V62.6192L38.511 62.7486L38.6617 61.76ZM38.6617 58.19L38.7588 57.1947L37.6617 57.0877V58.19H38.6617ZM47.3317 58.43L47.4731 59.4199L47.4874 59.4179L47.5016 59.4155L47.3317 58.43ZM48.6217 57.95L48.0119 57.1573L48.0039 57.1637L48.6217 57.95ZM49.1017 57.23L48.1402 56.9553L48.1309 56.9876L48.1239 57.0205L49.1017 57.23ZM49.1017 54.77L48.1402 55.0447L48.1429 55.0544L48.1459 55.0641L49.1017 54.77ZM48.6217 54.17L48.1178 55.0338L48.1456 55.05L48.1745 55.0644L48.6217 54.17ZM47.4217 53.87L47.3068 54.8634L47.3151 54.8643L47.4217 53.87ZM43.0117 53.36L42.8766 54.3508L42.8867 54.3522L42.8968 54.3534L43.0117 53.36ZM39.9517 52.34L39.3662 53.1507L39.3737 53.1561L39.3813 53.1614L39.9517 52.34ZM38.4517 50.36L37.4984 50.6622L37.5029 50.6764L37.5078 50.6904L38.4517 50.36ZM39.0217 43.34L39.8367 43.9196L39.8426 43.9111L39.0217 43.34ZM41.6017 41.54L41.3507 40.572L41.3507 40.572L41.6017 41.54ZM52.4917 41.72H53.4917V40.9122L52.7019 40.7423L52.4917 41.72ZM52.4917 45.2L52.3588 46.1911L53.4917 46.343V45.2H52.4917ZM43.0717 45.26L43.5189 46.1545L43.5311 46.1482L43.0717 45.26ZM42.4717 45.89L43.4275 46.1841L43.4275 46.1841L42.4717 45.89ZM42.4717 48.35L41.5159 48.6441L41.5159 48.6441L42.4717 48.35ZM42.9817 48.92L42.5626 49.828L42.6032 49.8467L42.6453 49.8617L42.9817 48.92ZM44.3617 49.19L44.2376 50.1823L44.2423 50.1828L44.3617 49.19ZM49.1017 49.76L48.9823 50.7529L48.9936 50.7541L49.1017 49.76ZM51.3817 50.33L50.9588 51.2362L50.9714 51.242L50.9841 51.2476L51.3817 50.33ZM52.7917 51.65L51.9148 52.1308L51.9185 52.1374L52.7917 51.65ZM52.6117 59.93L53.4597 60.46L53.4597 60.46L52.6117 59.93ZM50.1817 61.82L50.4513 62.783L50.4638 62.7794L50.1817 61.82ZM46.2217 61.24C43.3145 61.24 40.8476 61.0816 38.8123 60.7714L38.511 62.7486C40.6757 63.0784 43.2489 63.24 46.2217 63.24V61.24ZM39.6617 61.76V58.19H37.6617V61.76H39.6617ZM38.5646 59.1853C41.0446 59.4272 43.179 59.55 44.9617 59.55V57.55C43.2644 57.55 41.1987 57.4328 38.7588 57.1947L38.5646 59.1853ZM44.9617 59.55C45.9979 59.55 46.8432 59.5099 47.4731 59.4199L47.1903 57.4401C46.7002 57.5101 45.9655 57.55 44.9617 57.55V59.55ZM47.5016 59.4155C48.1506 59.3036 48.7701 59.1051 49.2395 58.7363L48.0039 57.1637C47.9132 57.2349 47.6728 57.3564 47.1618 57.4445L47.5016 59.4155ZM49.2314 58.7426C49.6504 58.4203 49.9626 57.9848 50.0795 57.4395L48.1239 57.0205C48.1207 57.0352 48.113 57.0797 48.012 57.1574L49.2314 58.7426ZM50.0632 57.5047C50.1813 57.0915 50.2217 56.5823 50.2217 56.03H48.2217C48.2217 56.5177 48.1821 56.8085 48.1402 56.9553L50.0632 57.5047ZM50.2217 56.03C50.2217 55.4367 50.1844 54.8885 50.0575 54.4759L48.1459 55.0641C48.179 55.1715 48.2217 55.4633 48.2217 56.03H50.2217ZM50.0632 54.4953C49.9135 53.9715 49.5826 53.5324 49.0689 53.2756L48.1745 55.0644C48.1746 55.0645 48.1734 55.0639 48.1711 55.0624C48.1687 55.0609 48.1656 55.0588 48.162 55.0559C48.1543 55.0497 48.1469 55.0424 48.1408 55.0347C48.1379 55.0311 48.1358 55.028 48.1343 55.0256C48.1328 55.0233 48.1322 55.0221 48.1323 55.0222C48.1324 55.0225 48.1357 55.0292 48.1402 55.0447L50.0632 54.4953ZM49.1256 53.3062C48.693 53.0539 48.1137 52.9384 47.5282 52.8757L47.3151 54.8643C47.8497 54.9216 48.0704 55.0061 48.1178 55.0338L49.1256 53.3062ZM47.5366 52.8766L43.1266 52.3666L42.8968 54.3534L47.3068 54.8634L47.5366 52.8766ZM43.1468 52.3692C41.9091 52.2004 41.0624 51.8939 40.5221 51.5186L39.3813 53.1614C40.281 53.7861 41.4743 54.1596 42.8766 54.3508L43.1468 52.3692ZM40.5372 51.5293C39.9745 51.123 39.6046 50.6271 39.3955 50.0296L37.5078 50.6904C37.8587 51.6929 38.4889 52.517 39.3662 53.1507L40.5372 51.5293ZM39.4049 50.0578C39.1855 49.3656 39.0617 48.4647 39.0617 47.33H37.0617C37.0617 48.5953 37.1979 49.7144 37.4984 50.6622L39.4049 50.0578ZM39.0617 47.33C39.0617 45.664 39.3694 44.5766 39.8366 43.9195L38.2067 42.7605C37.394 43.9034 37.0617 45.476 37.0617 47.33H39.0617ZM39.8426 43.9111C40.3468 43.1862 41.0051 42.7277 41.8526 42.508L41.3507 40.572C40.0383 40.9123 38.9766 41.6537 38.2008 42.7689L39.8426 43.9111ZM41.8526 42.508C42.8198 42.2572 44.1171 42.12 45.7717 42.12V40.12C44.0263 40.12 42.5435 40.2628 41.3507 40.572L41.8526 42.508ZM45.7717 42.12C48.3454 42.12 50.5109 42.3169 52.2814 42.6976L52.7019 40.7423C50.7525 40.3231 48.438 40.12 45.7717 40.12V42.12ZM51.4917 41.72V45.2H53.4917V41.72H51.4917ZM52.6245 44.2089C50.6404 43.943 48.646 43.81 46.6417 43.81V45.81C48.5573 45.81 50.4629 45.937 52.3588 46.1911L52.6245 44.2089ZM46.6417 43.81C45.7183 43.81 44.9256 43.8482 44.2741 43.9304C43.6432 44.0099 43.0605 44.14 42.6123 44.3718L43.5311 46.1482C43.6629 46.08 43.9652 45.9851 44.5242 45.9146C45.0628 45.8468 45.765 45.81 46.6417 45.81V43.81ZM42.6245 44.3656C42.1406 44.6075 41.6994 44.9996 41.5159 45.5959L43.4275 46.1841C43.4239 46.1957 43.4188 46.2069 43.4133 46.2162C43.4079 46.2253 43.4042 46.2288 43.4058 46.2272C43.4099 46.2229 43.4391 46.1943 43.5189 46.1544L42.6245 44.3656ZM41.5159 45.5959C41.3909 46.0023 41.3517 46.5136 41.3517 47.06H43.3517C43.3517 46.5664 43.3925 46.2977 43.4275 46.1841L41.5159 45.5959ZM41.3517 47.06C41.3517 47.6692 41.3884 48.2297 41.5159 48.6441L43.4275 48.0559C43.395 47.9503 43.3517 47.6507 43.3517 47.06H41.3517ZM41.5159 48.6441C41.6843 49.1915 42.06 49.596 42.5626 49.828L43.4007 48.012C43.3893 48.0068 43.3861 48.0041 43.3884 48.0057C43.3908 48.0075 43.3969 48.0123 43.4044 48.0207C43.412 48.0291 43.4182 48.0381 43.4227 48.0462C43.4271 48.0542 43.4281 48.0582 43.4275 48.0559L41.5159 48.6441ZM42.6453 49.8617C43.0357 50.0012 43.589 50.1012 44.2376 50.1823L44.4857 48.1977C43.8543 48.1188 43.4876 48.0388 43.318 47.9783L42.6453 49.8617ZM44.2423 50.1828L48.9823 50.7528L49.2211 48.7672L44.4811 48.1972L44.2423 50.1828ZM48.9936 50.7541C49.8445 50.8466 50.4891 51.017 50.9588 51.2362L51.8046 49.4238C51.0743 49.083 50.1988 48.8734 49.2097 48.7659L48.9936 50.7541ZM50.9841 51.2476C51.3633 51.4119 51.6724 51.6887 51.9149 52.1308L53.6685 51.1692C53.2309 50.3713 52.6001 49.7681 51.7793 49.4124L50.9841 51.2476ZM51.9185 52.1374C52.2718 52.7704 52.5117 53.8907 52.5117 55.64H54.5117C54.5117 53.7893 54.2716 52.2496 53.6649 51.1626L51.9185 52.1374ZM52.5117 55.64C52.5117 57.4658 52.2178 58.6734 51.7637 59.4L53.4597 60.46C54.2055 59.2666 54.5117 57.6142 54.5117 55.64H52.5117ZM51.7637 59.4C51.2842 60.1671 50.6687 60.6344 49.8995 60.8606L50.4638 62.7794C51.7347 62.4056 52.7391 61.6129 53.4597 60.46L51.7637 59.4ZM49.9121 60.857C49.0353 61.1025 47.8167 61.24 46.2217 61.24V63.24C47.9067 63.24 49.3281 63.0975 50.4513 62.783L49.9121 60.857ZM59.7238 61.34L60.171 60.4456L60.171 60.4456L59.7238 61.34ZM57.4438 58.4L56.4672 58.6154L56.4704 58.629L57.4438 58.4ZM57.4438 44.96L56.4703 44.7309L56.4673 44.7446L57.4438 44.96ZM59.7238 42.02L60.171 42.9144L60.171 42.9144L59.7238 42.02ZM71.7838 42.02L71.3366 42.9144L71.3425 42.9174L71.7838 42.02ZM74.0638 44.96L73.0872 45.1754L73.0904 45.189L74.0638 44.96ZM74.0638 58.4L73.0903 58.1709L73.0873 58.1846L74.0638 58.4ZM71.7838 61.34L71.3425 60.4426L71.3366 60.4456L71.7838 61.34ZM68.9338 58.22L68.5681 57.2892L68.5565 57.2939L68.9338 58.22ZM69.9838 56.63L69.0007 56.4471L68.9989 56.4563L68.9974 56.4656L69.9838 56.63ZM69.9838 46.76L68.9968 46.9207L68.9989 46.9339L69.0015 46.9471L69.9838 46.76ZM68.9338 45.14L68.5565 46.0662L68.5681 46.0708L68.9338 45.14ZM62.5738 45.14L62.1965 44.2139L62.1965 44.2139L62.5738 45.14ZM62.5738 58.22L62.1965 59.1461L62.1965 59.1461L62.5738 58.22ZM65.7538 61.24C62.9543 61.24 61.1479 60.934 60.171 60.4456L59.2766 62.2344C60.6997 62.946 62.9133 63.24 65.7538 63.24V61.24ZM60.171 60.4456C59.2488 59.9845 58.6725 59.2558 58.4172 58.171L56.4704 58.629C56.8551 60.2642 57.7988 61.4955 59.2766 62.2344L60.171 60.4456ZM58.4203 58.1846C58.1457 56.9395 57.9938 54.7942 57.9938 51.68H55.9938C55.9938 54.8058 56.1419 57.1405 56.4673 58.6154L58.4203 58.1846ZM57.9938 51.68C57.9938 48.5658 58.1457 46.4205 58.4203 45.1754L56.4673 44.7446C56.1419 46.2195 55.9938 48.5542 55.9938 51.68H57.9938ZM58.4172 45.189C58.6725 44.1042 59.2488 43.3755 60.171 42.9144L59.2766 41.1256C57.7988 41.8645 56.8551 43.0958 56.4704 44.731L58.4172 45.189ZM60.171 42.9144C61.1479 42.426 62.9543 42.12 65.7538 42.12V40.12C62.9133 40.12 60.6997 40.414 59.2766 41.1256L60.171 42.9144ZM65.7538 42.12C68.5533 42.12 70.3597 42.426 71.3366 42.9144L72.231 41.1256C70.8079 40.414 68.5943 40.12 65.7538 40.12V42.12ZM71.3425 42.9174C72.2821 43.3794 72.8509 44.1038 73.0873 45.1754L75.0403 44.7446C74.6767 43.0962 73.7255 41.8606 72.2251 41.1226L71.3425 42.9174ZM73.0904 45.189C73.3817 46.4272 73.5438 48.5664 73.5438 51.68H75.5438C75.5438 48.5536 75.3859 46.2128 75.0372 44.731L73.0904 45.189ZM73.5438 51.68C73.5438 54.7936 73.3817 56.9328 73.0904 58.171L75.0372 58.629C75.3859 57.1472 75.5438 54.8064 75.5438 51.68H73.5438ZM73.0873 58.1846C72.8509 59.2562 72.2821 59.9806 71.3425 60.4426L72.2251 62.2374C73.7255 61.4994 74.6767 60.2638 75.0403 58.6154L73.0873 58.1846ZM71.3366 60.4456C70.3597 60.934 68.5533 61.24 65.7538 61.24V63.24C68.5943 63.24 70.8079 62.946 72.231 62.2344L71.3366 60.4456ZM65.7538 59.55C66.5635 59.55 67.2607 59.522 67.837 59.4622C68.3971 59.404 68.909 59.3099 69.3111 59.1461L68.5565 57.2939C68.4186 57.3501 68.1305 57.421 67.6306 57.4728C67.1469 57.523 66.524 57.55 65.7538 57.55V59.55ZM69.2994 59.1508C70.3132 58.7525 70.7989 57.822 70.9702 56.7944L68.9974 56.4656C68.8887 57.118 68.6744 57.2475 68.5681 57.2892L69.2994 59.1508ZM70.9669 56.8129C71.1463 55.8488 71.2238 54.1093 71.2238 51.68H69.2238C69.2238 54.1307 69.1413 55.6912 69.0007 56.4471L70.9669 56.8129ZM71.2238 51.68C71.2238 49.2526 71.1465 47.5199 70.9661 46.5729L69.0015 46.9471C69.1411 47.6801 69.2238 49.2274 69.2238 51.68H71.2238ZM70.9708 46.5993C70.802 45.5623 70.3225 44.6111 69.2994 44.2092L68.5681 46.0708C68.6651 46.1089 68.8856 46.2377 68.9968 46.9207L70.9708 46.5993ZM69.3111 44.2139C68.909 44.0501 68.3971 43.956 67.837 43.8978C67.2607 43.838 66.5635 43.81 65.7538 43.81V45.81C66.524 45.81 67.1469 45.837 67.6306 45.8872C68.1305 45.939 68.4186 46.0099 68.5565 46.0661L69.3111 44.2139ZM65.7538 43.81C64.944 43.81 64.2469 43.838 63.6706 43.8978C63.1105 43.956 62.5986 44.0501 62.1965 44.2139L62.9511 46.0661C63.089 46.0099 63.3771 45.939 63.877 45.8872C64.3607 45.837 64.9835 45.81 65.7538 45.81V43.81ZM62.1965 44.2139C61.2036 44.6184 60.7297 45.5609 60.5407 46.5771L62.5069 46.9429C62.6379 46.2391 62.864 46.1016 62.9511 46.0661L62.1965 44.2139ZM60.5407 46.5771C60.3613 47.541 60.2838 49.2701 60.2838 51.68H62.2838C62.2838 49.2499 62.3662 47.699 62.5069 46.9429L60.5407 46.5771ZM60.2838 51.68C60.2838 54.0899 60.3613 55.819 60.5407 56.7829L62.5069 56.4171C62.3662 55.661 62.2838 54.1101 62.2838 51.68H60.2838ZM60.5407 56.7829C60.7297 57.7991 61.2036 58.7416 62.1965 59.1461L62.9511 57.2939C62.864 57.2584 62.6379 57.1209 62.5069 56.4171L60.5407 56.7829ZM62.1965 59.1461C62.5986 59.3099 63.1105 59.404 63.6706 59.4622C64.2469 59.522 64.944 59.55 65.7538 59.55V57.55C64.9835 57.55 64.3607 57.523 63.877 57.4728C63.3771 57.421 63.089 57.3501 62.9511 57.2939L62.1965 59.1461ZM92.1533 61.76L92.355 62.7395L93.1533 62.5751V61.76H92.1533ZM89.6333 62.09L89.5536 61.0932L89.5427 61.0941L89.5318 61.0952L89.6333 62.09ZM81.2633 61.31L80.8043 62.1984L80.8103 62.2015L81.2633 61.31ZM78.8633 58.22L77.8998 58.4876L77.8998 58.4876L78.8633 58.22ZM78.8633 45.2L79.8268 45.4676L79.8278 45.4642L78.8633 45.2ZM81.2633 42.08L81.7223 42.9684L81.7279 42.9655L81.2633 42.08ZM92.0333 41.66H93.0333V40.8792L92.2759 40.6899L92.0333 41.66ZM92.0333 45.11L91.9191 46.1035L93.0333 46.2315V45.11H92.0333ZM84.2033 45.23L84.5515 46.1674L84.5632 46.1631L84.5747 46.1585L84.2033 45.23ZM82.8533 46.94L81.8782 46.7184L81.8782 46.7184L82.8533 46.94ZM82.8533 56.42L81.8782 56.6416L81.8782 56.6416L82.8533 56.42ZM84.2033 58.16L83.8319 59.0885L83.8435 59.0931L83.8551 59.0974L84.2033 58.16ZM92.1533 58.25H93.1533V57.0788L91.9966 57.2624L92.1533 58.25ZM91.9517 60.7805C91.3253 60.9095 90.5289 61.0152 89.5536 61.0932L89.7131 63.0868C90.7377 63.0048 91.6214 62.8905 92.355 62.7395L91.9517 60.7805ZM89.5318 61.0952C88.5799 61.1923 87.7042 61.24 86.9033 61.24V63.24C87.7824 63.24 88.7267 63.1877 89.7348 63.0848L89.5318 61.0952ZM86.9033 61.24C84.4079 61.24 82.7216 60.9294 81.7164 60.4185L80.8103 62.2015C82.2451 62.9306 84.3187 63.24 86.9033 63.24V61.24ZM81.7223 60.4216C80.7973 59.9437 80.1612 59.1559 79.8268 57.9524L77.8998 58.4876C78.3655 60.1641 79.3293 61.4363 80.8043 62.1984L81.7223 60.4216ZM79.8268 57.9524C79.4643 56.6473 79.2633 54.5783 79.2633 51.68H77.2633C77.2633 54.6217 77.4623 56.9127 77.8998 58.4876L79.8268 57.9524ZM79.2633 51.68C79.2633 48.8232 79.4641 46.7734 79.8268 45.4676L77.8998 44.9324C77.4625 46.5066 77.2633 48.7768 77.2633 51.68H79.2633ZM79.8278 45.4642C80.1638 44.2377 80.802 43.4439 81.7223 42.9684L80.8043 41.1916C79.3246 41.9561 78.3628 43.2423 77.8989 44.9358L79.8278 45.4642ZM81.7279 42.9655C82.729 42.4403 84.4102 42.12 86.9033 42.12V40.12C84.3164 40.12 82.2376 40.4397 80.7988 41.1945L81.7279 42.9655ZM86.9033 42.12C87.7248 42.12 88.6 42.1678 89.5297 42.2646L89.7369 40.2754C88.7466 40.1722 87.8018 40.12 86.9033 40.12V42.12ZM89.5297 42.2646C90.4622 42.3618 91.2121 42.4855 91.7908 42.6301L92.2759 40.6899C91.5746 40.5145 90.7244 40.3782 89.7369 40.2754L89.5297 42.2646ZM91.0333 41.66V45.11H93.0333V41.66H91.0333ZM92.1475 44.1165C90.395 43.9151 89.0005 43.81 87.9833 43.81V45.81C88.8861 45.81 90.1916 45.9049 91.9191 46.1035L92.1475 44.1165ZM87.9833 43.81C86.1664 43.81 84.7296 43.9425 83.8319 44.3015L84.5747 46.1585C85.0771 45.9575 86.1603 45.81 87.9833 45.81V43.81ZM83.8551 44.2926C82.7697 44.6957 82.135 45.5882 81.8782 46.7184L83.8285 47.1616C83.9716 46.5318 84.237 46.2843 84.5515 46.1674L83.8551 44.2926ZM81.8782 46.7184C81.6504 47.7208 81.5533 49.4046 81.5533 51.68H83.5533C83.5533 49.3954 83.6563 47.9192 83.8285 47.1616L81.8782 46.7184ZM81.5533 51.68C81.5533 53.9554 81.6504 55.6392 81.8782 56.6416L83.8285 56.1984C83.6563 55.4408 83.5533 53.9646 83.5533 51.68H81.5533ZM81.8782 56.6416C82.1346 57.77 82.7639 58.6613 83.8319 59.0885L84.5747 57.2315C84.2427 57.0987 83.972 56.83 83.8285 56.1984L81.8782 56.6416ZM83.8551 59.0974C84.7419 59.4268 86.1672 59.55 87.9833 59.55V57.55C86.1595 57.55 85.0648 57.4132 84.5515 57.2226L83.8551 59.0974ZM87.9833 59.55C89.5462 59.55 90.9895 59.4472 92.3101 59.2376L91.9966 57.2624C90.7971 57.4528 89.4604 57.55 87.9833 57.55V59.55ZM91.1533 58.25V61.76H93.1533V58.25H91.1533ZM109.351 61.76L109.552 62.7395L110.351 62.5751V61.76H109.351ZM106.831 62.09L106.751 61.0932L106.74 61.0941L106.729 61.0952L106.831 62.09ZM98.4606 61.31L98.0016 62.1984L98.0075 62.2015L98.4606 61.31ZM96.0606 58.22L95.0971 58.4876L95.0971 58.4876L96.0606 58.22ZM96.0606 45.2L97.0241 45.4676L97.025 45.4642L96.0606 45.2ZM98.4606 42.08L98.9196 42.9684L98.9251 42.9655L98.4606 42.08ZM109.231 41.66H110.231V40.8792L109.473 40.6899L109.231 41.66ZM109.231 45.11L109.116 46.1035L110.231 46.2315V45.11H109.231ZM101.401 45.23L101.749 46.1674L101.76 46.1631L101.772 46.1585L101.401 45.23ZM100.051 46.94L99.0755 46.7184L99.0755 46.7184L100.051 46.94ZM100.051 56.42L99.0755 56.6416L99.0755 56.6416L100.051 56.42ZM101.401 58.16L101.029 59.0885L101.041 59.0931L101.052 59.0974L101.401 58.16ZM109.351 58.25H110.351V57.0788L109.194 57.2624L109.351 58.25ZM109.149 60.7805C108.523 60.9095 107.726 61.0152 106.751 61.0932L106.91 63.0868C107.935 63.0048 108.819 62.8905 109.552 62.7395L109.149 60.7805ZM106.729 61.0952C105.777 61.1923 104.901 61.24 104.101 61.24V63.24C104.98 63.24 105.924 63.1877 106.932 63.0848L106.729 61.0952ZM104.101 61.24C101.605 61.24 99.9188 60.9294 98.9136 60.4185L98.0075 62.2015C99.4423 62.9306 101.516 63.24 104.101 63.24V61.24ZM98.9196 60.4216C97.9946 59.9437 97.3584 59.1559 97.0241 57.9524L95.0971 58.4876C95.5627 60.1641 96.5266 61.4363 98.0016 62.1984L98.9196 60.4216ZM97.0241 57.9524C96.6616 56.6473 96.4606 54.5783 96.4606 51.68H94.4606C94.4606 54.6217 94.6596 56.9127 95.0971 58.4876L97.0241 57.9524ZM96.4606 51.68C96.4606 48.8232 96.6614 46.7734 97.0241 45.4676L95.0971 44.9324C94.6598 46.5066 94.4606 48.7768 94.4606 51.68H96.4606ZM97.025 45.4642C97.3611 44.2377 97.9993 43.4439 98.9196 42.9684L98.0016 41.1916C96.5219 41.9561 95.5601 43.2423 95.0961 44.9358L97.025 45.4642ZM98.9251 42.9655C99.9263 42.4403 101.607 42.12 104.101 42.12V40.12C101.514 40.12 99.4349 40.4397 97.996 41.1945L98.9251 42.9655ZM104.101 42.12C104.922 42.12 105.797 42.1678 106.727 42.2646L106.934 40.2754C105.944 40.1722 104.999 40.12 104.101 40.12V42.12ZM106.727 42.2646C107.659 42.3618 108.409 42.4855 108.988 42.6301L109.473 40.6899C108.772 40.5145 107.922 40.3782 106.934 40.2754L106.727 42.2646ZM108.231 41.66V45.11H110.231V41.66H108.231ZM109.345 44.1165C107.592 43.9151 106.198 43.81 105.181 43.81V45.81C106.083 45.81 107.389 45.9049 109.116 46.1035L109.345 44.1165ZM105.181 43.81C103.364 43.81 101.927 43.9425 101.029 44.3015L101.772 46.1585C102.274 45.9575 103.358 45.81 105.181 45.81V43.81ZM101.052 44.2926C99.967 44.6957 99.3323 45.5882 99.0755 46.7184L101.026 47.1616C101.169 46.5318 101.434 46.2843 101.749 46.1674L101.052 44.2926ZM99.0755 46.7184C98.8476 47.7208 98.7506 49.4046 98.7506 51.68H100.751C100.751 49.3954 100.854 47.9192 101.026 47.1616L99.0755 46.7184ZM98.7506 51.68C98.7506 53.9554 98.8476 55.6392 99.0755 56.6416L101.026 56.1984C100.854 55.4408 100.751 53.9646 100.751 51.68H98.7506ZM99.0755 56.6416C99.3319 57.77 99.9612 58.6613 101.029 59.0885L101.772 57.2315C101.44 57.0987 101.169 56.83 101.026 56.1984L99.0755 56.6416ZM101.052 59.0974C101.939 59.4268 103.364 59.55 105.181 59.55V57.55C103.357 57.55 102.262 57.4132 101.749 57.2226L101.052 59.0974ZM105.181 59.55C106.743 59.55 108.187 59.4472 109.507 59.2376L109.194 57.2624C107.994 57.4528 106.658 57.55 105.181 57.55V59.55ZM108.351 58.25V61.76H110.351V58.25H108.351ZM113.288 62H112.288V63H113.288V62ZM113.288 41.36V40.36H112.288V41.36H113.288ZM127.478 41.36H128.478V40.36H127.478V41.36ZM127.478 45.05V46.05H128.478V45.05H127.478ZM117.548 45.05V44.05H116.548V45.05H117.548ZM117.548 49.73H116.548V50.73H117.548V49.73ZM126.068 49.73H127.068V48.73H126.068V49.73ZM126.068 53.42V54.42H127.068V53.42H126.068ZM117.548 53.42V52.42H116.548V53.42H117.548ZM117.548 58.31H116.548V59.31H117.548V58.31ZM127.478 58.31H128.478V57.31H127.478V58.31ZM127.478 62V63H128.478V62H127.478ZM114.288 62V41.36H112.288V62H114.288ZM113.288 42.36H127.478V40.36H113.288V42.36ZM126.478 41.36V45.05H128.478V41.36H126.478ZM127.478 44.05H117.548V46.05H127.478V44.05ZM116.548 45.05V49.73H118.548V45.05H116.548ZM117.548 50.73H126.068V48.73H117.548V50.73ZM125.068 49.73V53.42H127.068V49.73H125.068ZM126.068 52.42H117.548V54.42H126.068V52.42ZM116.548 53.42V58.31H118.548V53.42H116.548ZM117.548 59.31H127.478V57.31H117.548V59.31ZM126.478 58.31V62H128.478V58.31H126.478ZM127.478 61H113.288V63H127.478V61ZM143.597 62L142.67 62.3759L142.923 63H143.597V62ZM140.567 54.53L141.494 54.1541L141.241 53.53H140.567V54.53ZM135.917 54.53V53.53H134.917V54.53H135.917ZM135.917 62V63H136.917V62H135.917ZM131.657 62H130.657V63H131.657V62ZM131.657 41.36V40.36H130.657V41.36H131.657ZM145.427 42.17L144.921 43.0324L144.932 43.0389L144.943 43.045L145.427 42.17ZM147.287 44.36L146.334 44.664L146.338 44.6763L146.342 44.6885L147.287 44.36ZM144.827 53.96L144.465 53.0276L143.515 53.3963L143.902 54.3397L144.827 53.96ZM148.127 62V63H149.618L149.052 61.6203L148.127 62ZM142.187 50.6L141.903 49.6411L141.893 49.6442L142.187 50.6ZM143.207 49.79L142.279 49.4186L142.273 49.4314L142.269 49.4443L143.207 49.79ZM143.207 46.07L142.269 46.4157L142.277 46.4371L142.285 46.4581L143.207 46.07ZM142.217 45.29L141.912 46.2424L141.934 46.2495L141.957 46.2556L142.217 45.29ZM135.917 45.05V44.05H134.917V45.05H135.917ZM135.917 50.84H134.917V51.84H135.917V50.84ZM144.524 61.6241L141.494 54.1541L139.64 54.9059L142.67 62.3759L144.524 61.6241ZM140.567 53.53H135.917V55.53H140.567V53.53ZM134.917 54.53V62H136.917V54.53H134.917ZM135.917 61H131.657V63H135.917V61ZM132.657 62V41.36H130.657V62H132.657ZM131.657 42.36H141.377V40.36H131.657V42.36ZM141.377 42.36C143.085 42.36 144.225 42.6241 144.921 43.0324L145.933 41.3076C144.789 40.6359 143.229 40.36 141.377 40.36V42.36ZM144.943 43.045C145.681 43.4535 146.119 43.9898 146.334 44.664L148.24 44.056C147.855 42.8502 147.053 41.9265 145.911 41.295L144.943 43.045ZM146.342 44.6885C146.612 45.4641 146.767 46.5317 146.767 47.93H148.767C148.767 46.4083 148.602 45.0959 148.231 44.0315L146.342 44.6885ZM146.767 47.93C146.767 51.039 145.844 52.4931 144.465 53.0276L145.189 54.8924C147.73 53.9069 148.767 51.341 148.767 47.93H146.767ZM143.902 54.3397L147.202 62.3797L149.052 61.6203L145.752 53.5803L143.902 54.3397ZM148.127 61H143.597V63H148.127V61ZM139.667 51.84C140.84 51.84 141.808 51.7627 142.481 51.5558L141.893 49.6442C141.525 49.7573 140.814 49.84 139.667 49.84V51.84ZM142.471 51.5588C143.187 51.3466 143.858 50.9169 144.145 50.1357L142.269 49.4443C142.267 49.4498 142.262 49.4649 142.225 49.4944C142.18 49.5299 142.085 49.5873 141.903 49.6412L142.471 51.5588ZM144.135 50.1614C144.369 49.5778 144.447 48.7997 144.447 47.93H142.447C142.447 48.7403 142.365 49.2022 142.279 49.4186L144.135 50.1614ZM144.447 47.93C144.447 47.0501 144.371 46.258 144.129 45.6819L142.285 46.4581C142.363 46.642 142.447 47.0899 142.447 47.93H144.447ZM144.145 45.7243C143.858 44.9442 143.197 44.5182 142.477 44.3244L141.957 46.2556C142.122 46.3 142.202 46.3492 142.236 46.3755C142.261 46.3957 142.265 46.4057 142.269 46.4157L144.145 45.7243ZM142.522 44.3376C141.861 44.1262 140.884 44.05 139.697 44.05V46.05C140.87 46.05 141.573 46.1338 141.912 46.2424L142.522 44.3376ZM139.697 44.05H135.917V46.05H139.697V44.05ZM134.917 45.05V50.84H136.917V45.05H134.917ZM135.917 51.84H139.667V49.84H135.917V51.84Z" fill="black"/>
</svg>
