<svg width="187" height="96" viewBox="0 0 187 96" fill="none" xmlns="http://www.w3.org/2000/svg">
<rect x="1.30859" width="185.6" height="95.8584" fill="#1A1A1A"/>
<mask id="mask0" mask-type="alpha" maskUnits="userSpaceOnUse" x="1" y="0" width="186" height="96">
<rect x="1.30859" width="185.6" height="95.8584" fill="#C4C4C4"/>
</mask>
<g mask="url(#mask0)">
<path d="M149.785 6.63953L149.785 5.68579L141.307 5.68579L141.307 6.63953L149.785 6.63953Z" fill="#E1E1E1" fill-opacity="0.5"/>
<path d="M149.785 11.4091L149.785 10.4553L141.307 10.4553L141.307 11.4091L149.785 11.4091Z" fill="#E1E1E1" fill-opacity="0.5"/>
<path d="M149.785 16.1802L149.785 15.2264L141.307 15.2264L141.307 16.1802L149.785 16.1802Z" fill="#E1E1E1" fill-opacity="0.5"/>
<path d="M149.785 20.9492L149.785 19.9955L141.307 19.9955L141.307 20.9492L149.785 20.9492Z" fill="#E1E1E1" fill-opacity="0.5"/>
<path d="M149.785 30.4841L149.785 29.5304L141.307 29.5304L141.307 30.4841L149.785 30.4841Z" fill="#E1E1E1" fill-opacity="0.5"/>
<path d="M149.785 35.2554L149.785 34.3016L141.307 34.3016L141.307 35.2554L149.785 35.2554Z" fill="#E1E1E1" fill-opacity="0.5"/>
<path d="M149.785 40.0206L149.785 39.0669L141.307 39.0669L141.307 40.0206L149.785 40.0206Z" fill="#E1E1E1" fill-opacity="0.5"/>
<path d="M149.785 44.7889L149.785 43.8352L141.307 43.8352L141.307 44.7889L149.785 44.7889Z" fill="#E1E1E1" fill-opacity="0.5"/>
<path d="M149.785 54.3258L149.785 53.3721L141.307 53.3721L141.307 54.3258L149.785 54.3258Z" fill="#E1E1E1" fill-opacity="0.5"/>
<path d="M149.785 59.0966L149.785 58.1428L141.307 58.1428L141.307 59.0966L149.785 59.0966Z" fill="#E1E1E1" fill-opacity="0.5"/>
<path d="M149.785 63.8665L149.785 62.9127L141.307 62.9127L141.307 63.8665L149.785 63.8665Z" fill="#E1E1E1" fill-opacity="0.5"/>
<path d="M149.785 68.6355L149.785 67.6818L141.307 67.6818L141.307 68.6355L149.785 68.6355Z" fill="#E1E1E1" fill-opacity="0.5"/>
<path d="M149.785 78.1708L149.785 77.217L141.307 77.217L141.307 78.1708L149.785 78.1708Z" fill="#E1E1E1" fill-opacity="0.5"/>
<path d="M149.785 82.9419L149.785 81.9882L141.307 81.9882L141.307 82.9419L149.785 82.9419Z" fill="#E1E1E1" fill-opacity="0.5"/>
<path d="M149.785 87.7112L149.785 86.7574L141.307 86.7574L141.307 87.7112L149.785 87.7112Z" fill="#E1E1E1" fill-opacity="0.5"/>
<path d="M149.785 92.4769L149.785 91.5232L141.307 91.5232L141.307 92.4769L149.785 92.4769Z" fill="#E1E1E1" fill-opacity="0.5"/>
<path d="M115.531 6.64075L115.531 5.68701L107.053 5.68701L107.053 6.64075L115.531 6.64075Z" fill="#E1E1E1" fill-opacity="0.5"/>
<path d="M115.531 11.4108L115.531 10.457L107.053 10.457L107.053 11.4108L115.531 11.4108Z" fill="#E1E1E1" fill-opacity="0.5"/>
<path d="M115.531 16.179L115.531 15.2252L107.053 15.2252L107.053 16.179L115.531 16.179Z" fill="#E1E1E1" fill-opacity="0.5"/>
<path d="M115.531 20.9475L115.531 19.9938L107.053 19.9938L107.053 20.9475L115.531 20.9475Z" fill="#E1E1E1" fill-opacity="0.5"/>
<path d="M115.531 30.4856L115.531 29.5319L107.053 29.5319L107.053 30.4856L115.531 30.4856Z" fill="#E1E1E1" fill-opacity="0.5"/>
<path d="M115.531 35.2537L115.531 34.2999L107.053 34.2999L107.053 35.2537L115.531 35.2537Z" fill="#E1E1E1" fill-opacity="0.5"/>
<path d="M115.531 40.0223L115.531 39.0686L107.053 39.0686L107.053 40.0223L115.531 40.0223Z" fill="#E1E1E1" fill-opacity="0.5"/>
<path d="M115.531 44.7907L115.531 43.8369L107.053 43.8369L107.053 44.7907L115.531 44.7907Z" fill="#E1E1E1" fill-opacity="0.5"/>
<path d="M115.531 54.3273L115.531 53.3735L107.053 53.3735L107.053 54.3273L115.531 54.3273Z" fill="#E1E1E1" fill-opacity="0.5"/>
<path d="M115.531 59.0953L115.531 58.1416L107.053 58.1416L107.053 59.0953L115.531 59.0953Z" fill="#E1E1E1" fill-opacity="0.5"/>
<path d="M115.531 63.8655L115.531 62.9117L107.053 62.9117L107.053 63.8655L115.531 63.8655Z" fill="#E1E1E1" fill-opacity="0.5"/>
<path d="M115.531 68.6338L115.531 67.6801L107.053 67.6801L107.053 68.6338L115.531 68.6338Z" fill="#E1E1E1" fill-opacity="0.5"/>
<path d="M115.531 78.172L115.531 77.2183L107.053 77.2183L107.053 78.172L115.531 78.172Z" fill="#E1E1E1" fill-opacity="0.5"/>
<path d="M115.531 82.9402L115.531 81.9865L107.053 81.9864L107.053 82.9402L115.531 82.9402Z" fill="#E1E1E1" fill-opacity="0.5"/>
<path d="M115.531 87.71L115.531 86.7562L107.053 86.7562L107.053 87.71L115.531 87.71Z" fill="#E1E1E1" fill-opacity="0.5"/>
<path d="M115.531 92.4784L115.531 91.5247L107.053 91.5247L107.053 92.4784L115.531 92.4784Z" fill="#E1E1E1" fill-opacity="0.5"/>
<path d="M257.094 -82.1041L-0.0399475 -82.1041L-0.039969 466.389L257.094 466.389L257.094 -82.1041ZM0.816466 -46.7682L0.816467 -81.1504L256.237 -81.1504L256.237 -46.7682L0.816466 -46.7682ZM0.816465 -22.9248L0.816465 -26.7398L8.86659 -26.7398L8.86659 -27.6935L0.816465 -27.6935L0.816465 -31.5084L8.86659 -31.5084L8.86659 -32.4622L0.816465 -32.4622L0.816465 -36.2771L8.86659 -36.2771L8.86659 -37.2309L0.816466 -37.2309L0.816466 -41.0458L8.86659 -41.0458L8.86659 -41.9995L0.816466 -41.9995L0.816466 -45.8145L256.237 -45.8145L256.237 -41.9995L248.187 -41.9995L248.187 -41.0458L256.237 -41.0458L256.237 -37.2308L248.187 -37.2308L248.187 -36.2771L256.237 -36.2771L256.237 -32.4622L248.187 -32.4622L248.187 -31.5084L256.237 -31.5084L256.237 -27.6935L248.187 -27.6935L248.187 -26.7397L256.237 -26.7397L256.237 -22.9248L0.816465 -22.9248ZM0.816464 0.91859L0.816464 -2.89635L8.86659 -2.89635L8.86659 -3.85009L0.816464 -3.85009L0.816464 -7.66504L8.86659 -7.66504L8.86659 -8.61877L0.816464 -8.61877L0.816465 -12.4337L8.86659 -12.4337L8.86659 -13.3874L0.816465 -13.3874L0.816465 -17.2024L8.86659 -17.2024L8.86659 -18.1561L0.816465 -18.1561L0.816465 -21.9711L256.237 -21.9711L256.237 -18.1561L248.187 -18.1561L248.187 -17.2024L256.237 -17.2024L256.237 -13.3874L248.187 -13.3874L248.187 -12.4337L256.237 -12.4337L256.237 -8.61876L248.187 -8.61876L248.187 -7.66502L256.237 -7.66502L256.237 -3.85008L248.187 -3.85008L248.187 -2.89634L256.237 -2.89634L256.237 0.918602L0.816464 0.91859ZM0.816463 24.762L0.816463 20.947L8.86659 20.947L8.86659 19.9933L0.816463 19.9933L0.816463 16.1784L8.86659 16.1784L8.86659 15.2246L0.816463 15.2246L0.816464 11.4097L8.86659 11.4097L8.86659 10.456L0.816464 10.456L0.816464 6.64101L8.86659 6.64101L8.86659 5.68727L0.816464 5.68727L0.816464 1.87232L256.237 1.87234L256.237 5.68728L248.187 5.68728L248.187 6.64102L256.237 6.64102L256.237 10.456L248.187 10.456L248.187 11.4097L256.237 11.4097L256.237 15.2246L248.187 15.2246L248.187 16.1784L256.237 16.1784L256.237 19.9933L248.187 19.9933L248.187 20.9471L256.237 20.9471L256.237 24.762L0.816463 24.762ZM0.816462 48.6054L0.816462 44.7904L8.86659 44.7904L8.86659 43.8367L0.816462 43.8367L0.816462 40.0218L8.86659 40.0218L8.86659 39.068L0.816463 39.068L0.816463 35.2531L8.86659 35.2531L8.86659 34.2994L0.816463 34.2993L0.816463 30.4844L8.86659 30.4844L8.86659 29.5307L0.816463 29.5307L0.816463 25.7157L256.237 25.7157L256.237 29.5307L248.187 29.5307L248.187 30.4844L256.237 30.4844L256.237 34.2994L248.187 34.2994L248.187 35.2531L256.237 35.2531L256.237 39.068L248.187 39.068L248.187 40.0218L256.237 40.0218L256.237 43.8367L248.187 43.8367L248.187 44.7905L256.237 44.7905L256.237 48.6054L0.816462 48.6054ZM0.816461 72.4488L0.816461 68.6339L8.86659 68.6339L8.86659 67.6801L0.816461 67.6801L0.816462 63.8652L8.86659 63.8652L8.86659 62.9114L0.816462 62.9114L0.816462 59.0965L8.86659 59.0965L8.86659 58.1427L0.816462 58.1427L0.816462 54.3278L8.86659 54.3278L8.86659 53.3741L0.816462 53.3741L0.816462 49.5591L256.237 49.5591L256.237 53.3741L248.187 53.3741L248.187 54.3278L256.237 54.3278L256.237 58.1428L248.187 58.1428L248.187 59.0965L256.237 59.0965L256.237 62.9115L248.187 62.9115L248.187 63.8652L256.237 63.8652L256.237 67.6801L248.187 67.6801L248.187 68.6339L256.237 68.6339L256.237 72.4488L0.816461 72.4488ZM0.81646 96.2922L0.81646 92.4773L8.86659 92.4773L8.86659 91.5235L0.81646 91.5235L0.816461 87.7086L8.86659 87.7086L8.86659 86.7548L0.816461 86.7548L0.816461 82.9399L8.86659 82.9399L8.86659 81.9861L0.816461 81.9861L0.816461 78.1712L8.86659 78.1712L8.86659 77.2175L0.816461 77.2175L0.816461 73.4025L256.237 73.4025L256.237 77.2175L248.187 77.2175L248.187 78.1712L256.237 78.1712L256.237 81.9862L248.187 81.9862L248.187 82.9399L256.237 82.9399L256.237 86.7549L248.187 86.7549L248.187 87.7086L256.237 87.7086L256.237 91.5235L248.187 91.5235L248.187 92.4773L256.237 92.4773L256.237 96.2922L0.81646 96.2922ZM0.816459 120.136L0.816459 116.321L8.86658 116.321L8.86658 115.367L0.81646 115.367L0.81646 111.552L8.86658 111.552L8.86658 110.598L0.81646 110.598L0.81646 106.783L8.86658 106.783L8.86659 105.83L0.81646 105.83L0.81646 102.015L8.86659 102.015L8.86659 101.061L0.81646 101.061L0.81646 97.2459L256.237 97.2459L256.237 101.061L248.187 101.061L248.187 102.015L256.237 102.015L256.237 105.83L248.187 105.83L248.187 106.783L256.237 106.783L256.237 110.598L248.187 110.598L248.187 111.552L256.237 111.552L256.237 115.367L248.187 115.367L248.187 116.321L256.237 116.321L256.237 120.136L0.816459 120.136ZM0.816458 143.979L0.816459 140.164L8.86658 140.164L8.86658 139.21L0.816459 139.21L0.816459 135.395L8.86658 135.395L8.86658 134.442L0.816459 134.442L0.816459 130.627L8.86658 130.627L8.86658 129.673L0.816459 129.673L0.816459 125.858L8.86658 125.858L8.86658 124.904L0.816459 124.904L0.816459 121.089L256.237 121.089L256.237 124.904L248.187 124.904L248.187 125.858L256.237 125.858L256.237 129.673L248.187 129.673L248.187 130.627L256.237 130.627L256.237 134.442L248.187 134.442L248.187 135.395L256.237 135.395L256.237 139.21L248.187 139.21L248.187 140.164L256.237 140.164L256.237 143.979L0.816458 143.979ZM0.816457 167.822L0.816458 164.007L8.86658 164.007L8.86658 163.054L0.816458 163.054L0.816458 159.239L8.86658 159.239L8.86658 158.285L0.816458 158.285L0.816458 154.47L8.86658 154.47L8.86658 153.516L0.816458 153.516L0.816458 149.701L8.86658 149.701L8.86658 148.748L0.816458 148.748L0.816458 144.933L256.237 144.933L256.237 148.748L248.187 148.748L248.187 149.701L256.237 149.701L256.237 153.516L248.187 153.516L248.187 154.47L256.237 154.47L256.237 158.285L248.187 158.285L248.187 159.239L256.237 159.239L256.237 163.054L248.187 163.054L248.187 164.007L256.237 164.007L256.237 167.822L0.816457 167.822ZM0.816457 191.666L0.816457 187.851L8.86658 187.851L8.86658 186.897L0.816457 186.897L0.816457 183.082L8.86658 183.082L8.86658 182.128L0.816457 182.128L0.816457 178.313L8.86658 178.313L8.86658 177.36L0.816457 177.36L0.816457 173.545L8.86658 173.545L8.86658 172.591L0.816457 172.591L0.816457 168.776L256.237 168.776L256.237 172.591L248.187 172.591L248.187 173.545L256.237 173.545L256.237 177.36L248.187 177.36L248.187 178.314L256.237 178.314L256.237 182.128L248.187 182.128L248.187 183.082L256.237 183.082L256.237 186.897L248.187 186.897L248.187 187.851L256.237 187.851L256.237 191.666L0.816457 191.666ZM0.816456 215.509L0.816456 211.694L8.86658 211.694L8.86658 210.74L0.816456 210.74L0.816456 206.926L8.86658 206.926L8.86658 205.972L0.816456 205.972L0.816456 202.157L8.86658 202.157L8.86658 201.203L0.816456 201.203L0.816456 197.388L8.86658 197.388L8.86658 196.434L0.816456 196.434L0.816457 192.62L256.237 192.62L256.237 196.434L248.187 196.434L248.187 197.388L256.237 197.388L256.237 201.203L248.187 201.203L248.187 202.157L256.237 202.157L256.237 205.972L248.187 205.972L248.187 206.926L256.237 206.926L256.237 210.741L248.187 210.741L248.187 211.694L256.237 211.694L256.237 215.509L0.816456 215.509ZM0.816455 239.353L0.816455 235.538L8.86658 235.538L8.86658 234.584L0.816455 234.584L0.816455 230.769L8.86658 230.769L8.86658 229.815L0.816455 229.815L0.816455 226L8.86658 226L8.86658 225.047L0.816455 225.047L0.816455 221.232L8.86658 221.232L8.86658 220.278L0.816455 220.278L0.816456 216.463L256.237 216.463L256.237 220.278L248.187 220.278L248.187 221.232L256.237 221.232L256.237 225.047L248.187 225.047L248.187 226L256.237 226L256.237 229.815L248.187 229.815L248.187 230.769L256.237 230.769L256.237 234.584L248.187 234.584L248.187 235.538L256.237 235.538L256.237 239.353L0.816455 239.353ZM0.816454 263.196L0.816454 259.381L8.86658 259.381L8.86658 258.427L0.816454 258.427L0.816454 254.612L8.86658 254.612L8.86658 253.659L0.816454 253.659L0.816454 249.844L8.86658 249.844L8.86658 248.89L0.816454 248.89L0.816454 245.075L8.86658 245.075L8.86658 244.121L0.816454 244.121L0.816455 240.306L256.237 240.306L256.237 244.121L248.187 244.121L248.187 245.075L256.237 245.075L256.237 248.89L248.187 248.89L248.187 249.844L256.237 249.844L256.237 253.659L248.187 253.659L248.187 254.612L256.237 254.612L256.237 258.427L248.187 258.427L248.187 259.381L256.237 259.381L256.237 263.196L0.816454 263.196ZM0.816453 287.039L0.816453 283.224L8.86658 283.224L8.86658 282.271L0.816453 282.271L0.816453 278.456L8.86658 278.456L8.86658 277.502L0.816453 277.502L0.816453 273.687L8.86658 273.687L8.86658 272.733L0.816453 272.733L0.816454 268.918L8.86658 268.918L8.86658 267.965L0.816454 267.965L0.816454 264.15L256.237 264.15L256.237 267.965L248.187 267.965L248.187 268.918L256.237 268.918L256.237 272.733L248.187 272.733L248.187 273.687L256.237 273.687L256.237 277.502L248.187 277.502L248.187 278.456L256.237 278.456L256.237 282.271L248.187 282.271L248.187 283.224L256.237 283.224L256.237 287.039L0.816453 287.039ZM0.816452 310.883L0.816452 307.068L8.86658 307.068L8.86658 306.114L0.816452 306.114L0.816452 302.299L8.86658 302.299L8.86658 301.345L0.816452 301.345L0.816452 297.531L8.86658 297.531L8.86658 296.577L0.816452 296.577L0.816453 292.762L8.86658 292.762L8.86658 291.808L0.816453 291.808L0.816453 287.993L256.237 287.993L256.237 291.808L248.187 291.808L248.187 292.762L256.237 292.762L256.237 296.577L248.187 296.577L248.187 297.531L256.237 297.531L256.237 301.345L248.187 301.345L248.187 302.299L256.237 302.299L256.237 306.114L248.187 306.114L248.187 307.068L256.237 307.068L256.237 310.883L0.816452 310.883ZM0.816451 334.726L0.816451 330.911L8.86658 330.911L8.86658 329.958L0.816451 329.958L0.816451 326.143L8.86658 326.143L8.86658 325.189L0.816451 325.189L0.816451 321.374L8.86658 321.374L8.86658 320.42L0.816451 320.42L0.816452 316.605L8.86658 316.605L8.86658 315.651L0.816452 315.651L0.816452 311.837L256.237 311.837L256.237 315.651L248.187 315.651L248.187 316.605L256.237 316.605L256.237 320.42L248.187 320.42L248.187 321.374L256.237 321.374L256.237 325.189L248.187 325.189L248.187 326.143L256.237 326.143L256.237 329.958L248.187 329.958L248.187 330.911L256.237 330.911L256.237 334.726L0.816451 334.726ZM0.81645 358.57L0.81645 354.755L8.86658 354.755L8.86658 353.801L0.81645 353.801L0.81645 349.986L8.86658 349.986L8.86658 349.032L0.81645 349.032L0.816451 345.217L8.86658 345.217L8.86658 344.264L0.816451 344.264L0.816451 340.449L8.86658 340.449L8.86658 339.495L0.816451 339.495L0.816451 335.68L256.237 335.68L256.237 339.495L248.187 339.495L248.187 340.449L256.237 340.449L256.237 344.264L248.187 344.264L248.187 345.217L256.237 345.217L256.237 349.032L248.187 349.032L248.187 349.986L256.237 349.986L256.237 353.801L248.187 353.801L248.187 354.755L256.237 354.755L256.237 358.57L0.81645 358.57ZM0.816449 382.413L0.816449 378.598L8.86657 378.598L8.86657 377.644L0.816449 377.644L0.816449 373.829L8.86657 373.829L8.86657 372.876L0.816449 372.876L0.81645 369.061L8.86657 369.061L8.86657 368.107L0.81645 368.107L0.81645 364.292L8.86657 364.292L8.86657 363.338L0.81645 363.338L0.81645 359.523L256.237 359.523L256.237 363.338L248.187 363.338L248.187 364.292L256.237 364.292L256.237 368.107L248.187 368.107L248.187 369.061L256.237 369.061L256.237 372.876L248.187 372.876L248.187 373.829L256.237 373.829L256.237 377.644L248.187 377.644L248.187 378.598L256.237 378.598L256.237 382.413L0.816449 382.413ZM0.816448 406.256L0.816448 402.441L8.86657 402.441L8.86657 401.488L0.816448 401.488L0.816448 397.673L8.86657 397.673L8.86657 396.719L0.816448 396.719L0.816449 392.904L8.86657 392.904L8.86657 391.95L0.816449 391.95L0.816449 388.135L8.86657 388.135L8.86657 387.182L0.816449 387.182L0.816449 383.367L256.237 383.367L256.237 387.182L248.187 387.182L248.187 388.135L256.237 388.135L256.237 391.95L248.187 391.95L248.187 392.904L256.237 392.904L256.237 396.719L248.187 396.719L248.187 397.673L256.237 397.673L256.237 401.488L248.187 401.488L248.187 402.441L256.237 402.441L256.237 406.256L0.816448 406.256ZM0.816447 430.1L0.816447 426.285L8.86657 426.285L8.86657 425.331L0.816447 425.331L0.816448 421.516L8.86657 421.516L8.86657 420.562L0.816448 420.562L0.816448 416.747L8.86657 416.747L8.86657 415.794L0.816448 415.794L0.816448 411.979L8.86657 411.979L8.86657 411.025L0.816448 411.025L0.816448 407.21L256.237 407.21L256.237 411.025L248.187 411.025L248.187 411.979L256.237 411.979L256.237 415.794L248.187 415.794L248.187 416.747L256.237 416.747L256.237 420.562L248.187 420.562L248.187 421.516L256.237 421.516L256.237 425.331L248.187 425.331L248.187 426.285L256.237 426.285L256.237 430.1L0.816447 430.1ZM0.816446 465.436L0.816447 431.054L256.237 431.054L256.237 465.436L0.816446 465.436Z" fill="#E1E1E1" fill-opacity="0.5"/>
<path d="M34.5128 -7.42701L35.7546 -7.42701L35.7546 -4.47042L44.6612 -4.47042L43.976 -7.57007L45.1322 -7.57007L46.0742 -3.89818L46.0742 -2.65832L35.7546 -2.65832L35.7546 0.250574L34.5128 0.250574L34.5128 -7.42701Z" fill="#E1E1E1" fill-opacity="0.5"/>
<path d="M40.2513 2.54004C41.1505 2.54004 42.0069 2.63542 42.7349 2.82616C43.4628 3.01691 44.1051 3.30303 44.6189 3.68452C45.1328 4.06602 45.561 4.54288 45.8179 5.11513C46.1176 5.68737 46.2461 6.35499 46.2461 7.07029C46.2461 7.83328 46.1176 8.5009 45.8179 9.07314C45.5182 9.64538 45.1328 10.1223 44.6189 10.5514C44.1051 10.9329 43.4628 11.2667 42.7349 11.4575C42.0069 11.6482 41.1505 11.7436 40.2513 11.7436C39.3521 11.7436 38.4957 11.6482 37.7677 11.4575C37.0398 11.2667 36.4403 10.9329 35.9265 10.5514C35.4126 10.1699 35.0273 9.64538 34.7703 9.07314C34.5134 8.5009 34.385 7.83328 34.385 7.07029C34.385 6.3073 34.5134 5.68737 34.7703 5.11513C35.0273 4.54288 35.4126 4.06602 35.9265 3.68452C36.4403 3.30303 37.0398 3.01691 37.7677 2.82616C38.4957 2.63542 39.3521 2.54004 40.2513 2.54004ZM40.2513 4.39982C39.5234 4.39982 38.8811 4.44752 38.2816 4.59058C37.7249 4.68595 37.2111 4.87669 36.8257 5.11513C36.4403 5.35356 36.0978 5.63968 35.9265 5.97349C35.7124 6.3073 35.6267 6.6888 35.6267 7.16566C35.6267 7.64253 35.7124 8.02403 35.9265 8.35784C36.1406 8.69164 36.4403 8.97777 36.8257 9.2162C37.2111 9.45464 37.7249 9.64539 38.2816 9.74076C38.8382 9.88382 39.5234 9.9315 40.2513 9.9315C40.9792 9.9315 41.6644 9.88382 42.221 9.74076C42.8205 9.5977 43.3344 9.45464 43.7197 9.2162C44.1479 8.97777 44.4477 8.69164 44.6618 8.35784C44.8759 8.02403 45.0043 7.59485 45.0043 7.16566C45.0043 6.73648 44.8759 6.3073 44.6618 5.97349C44.4477 5.63968 44.1051 5.35356 43.7197 5.11513C43.2915 4.87669 42.8205 4.73364 42.221 4.59058C41.6644 4.44752 40.9792 4.39982 40.2513 4.39982Z" fill="#E1E1E1" fill-opacity="0.5"/>
<path d="M35.7514 47.795L34.5097 47.795L34.5097 39.259L35.0663 39.259C35.7943 39.259 36.3937 39.3544 36.9504 39.4975C37.4642 39.6882 37.9781 39.9266 38.3635 40.2604C38.7917 40.5943 39.177 41.0711 39.5196 41.5957C39.8622 42.1202 40.2047 42.7402 40.5473 43.5031C40.7614 43.8846 40.9327 44.2185 41.1468 44.5046C41.3609 44.7907 41.5321 45.0291 41.7462 45.1722C41.9603 45.3629 42.1744 45.506 42.3885 45.5537C42.6026 45.6491 42.8596 45.6967 43.0737 45.6967C43.3306 45.6967 43.5875 45.6491 43.8444 45.506C44.0585 45.3629 44.2726 45.2199 44.4439 44.9814C44.6152 44.743 44.7436 44.5046 44.8293 44.1708C44.9149 43.8846 44.9577 43.5032 44.9577 43.1217C44.9577 42.7879 44.9149 42.454 44.8721 42.1202C44.8293 41.8341 44.7436 41.5003 44.658 41.2142C44.5724 40.9281 44.4439 40.6419 44.3583 40.4035C44.2298 40.1174 44.1013 39.8789 44.0157 39.6405L45.0862 39.116C45.2147 39.3067 45.3431 39.5451 45.4716 39.8789C45.6 40.1651 45.7285 40.4989 45.857 40.8804C45.9854 41.2619 46.0711 41.6434 46.1567 42.0249C46.2423 42.454 46.2852 42.8355 46.2852 43.3124C46.2852 43.9323 46.1995 44.5523 46.0711 45.0768C45.9426 45.6014 45.7285 46.0306 45.4288 46.4121C45.1718 46.7935 44.8293 47.0797 44.4439 47.2704C44.0585 47.4612 43.6303 47.5565 43.1165 47.5565C42.6883 47.5565 42.2601 47.4612 41.9175 47.3181C41.575 47.1274 41.2324 46.8889 40.9755 46.6028C40.6757 46.3167 40.4188 45.9352 40.2047 45.5537C39.9906 45.1722 39.7337 44.743 39.5196 44.3138C39.2627 43.8847 39.0486 43.4555 38.7917 43.074C38.5347 42.6925 38.2778 42.3587 37.9781 42.0725C37.6783 41.7864 37.3786 41.548 36.9932 41.4049C36.6507 41.2142 36.2224 41.1188 35.7514 41.1188L35.7514 47.795Z" fill="#E1E1E1" fill-opacity="0.5"/>
<path d="M40.2435 50.0372C41.1427 50.0372 41.9991 50.1326 42.7271 50.3234C43.455 50.5141 44.0973 50.8002 44.6111 51.1817C45.125 51.5632 45.5532 52.0401 45.8101 52.6123C46.1098 53.1846 46.2383 53.8522 46.2383 54.5675C46.2383 55.3305 46.1098 55.9981 45.8101 56.5703C45.5103 57.1426 45.125 57.6194 44.6111 58.0486C44.0973 58.4301 43.455 58.7639 42.7271 58.9547C41.9991 59.1454 41.1427 59.2408 40.2435 59.2408C39.3443 59.2408 38.4879 59.1454 37.7599 58.9547C37.032 58.7639 36.4325 58.4301 35.9187 58.0486C35.4048 57.6671 35.0195 57.1426 34.7625 56.5703C34.5056 55.9981 34.3772 55.3305 34.3772 54.5675C34.3772 53.8045 34.5056 53.1846 34.7625 52.6123C35.0195 52.0401 35.4048 51.5632 35.9187 51.1817C36.4325 50.8002 37.032 50.5141 37.7599 50.3234C38.4879 50.1326 39.3443 50.0372 40.2435 50.0372ZM40.2435 51.897C39.5155 51.897 38.8733 51.9447 38.2738 52.0878C37.7171 52.1831 37.2033 52.3739 36.8179 52.6123C36.4325 52.8508 36.09 53.1369 35.9187 53.4707C35.7046 53.8045 35.6189 54.186 35.6189 54.6628C35.6189 55.1397 35.7046 55.5212 35.9187 55.855C36.1328 56.1888 36.4325 56.475 36.8179 56.7134C37.2033 56.9518 37.7171 57.1426 38.2738 57.238C38.8304 57.381 39.5155 57.4287 40.2435 57.4287C40.9714 57.4287 41.6566 57.381 42.2132 57.238C42.8127 57.0949 43.3265 56.9518 43.7119 56.7134C44.1401 56.475 44.4399 56.1888 44.654 55.855C44.8681 55.5212 44.9965 55.092 44.9965 54.6628C44.9965 54.2337 44.8681 53.8045 44.654 53.4707C44.4399 53.1369 44.0973 52.8508 43.7119 52.6123C43.2837 52.3739 42.8127 52.2308 42.2132 52.0878C41.6566 51.9447 40.9714 51.897 40.2435 51.897Z" fill="#E1E1E1" fill-opacity="0.5"/>
<path d="M43.0737 95.1005C42.4742 95.1005 41.9175 94.9098 41.4893 94.5283C41.0611 94.1468 40.7185 93.6223 40.4616 92.9546C40.2475 93.7653 39.8621 94.4329 39.3911 94.8621C38.9201 95.2913 38.3206 95.5297 37.6355 95.5297C37.1645 95.5297 36.6935 95.4343 36.3081 95.1959C35.9227 94.9575 35.5373 94.6714 35.2804 94.2422C34.9807 93.813 34.7666 93.2884 34.5953 92.7162C34.424 92.0963 34.3384 91.4286 34.3384 90.6657C34.3384 90.3318 34.3384 89.9504 34.3812 89.6166C34.424 89.2351 34.4668 88.9012 34.5525 88.5674C34.6381 88.2336 34.7238 87.8998 34.8094 87.6137C34.895 87.3276 35.0235 87.0415 35.152 86.8507L36.1796 87.423C36.0083 87.8521 35.8799 88.329 35.7514 88.8059C35.623 89.2827 35.5802 89.855 35.5802 90.4749C35.5802 90.9518 35.623 91.381 35.7086 91.8102C35.7943 92.2393 35.9227 92.5731 36.094 92.8593C36.2653 93.1454 36.4794 93.3838 36.7363 93.5269C36.9932 93.6699 37.293 93.7653 37.6355 93.7653C38.0209 93.7653 38.3206 93.6699 38.6204 93.5269C38.8773 93.3838 39.0914 93.1454 39.3055 92.8593C39.4768 92.5731 39.6052 92.2393 39.6909 91.8578C39.7765 91.4763 39.8193 91.0472 39.8193 90.618L39.8193 88.9013L41.0611 88.9013L41.0611 90.618C41.0611 90.9995 41.1039 91.381 41.1896 91.7148C41.2752 92.0486 41.4037 92.3347 41.575 92.5731C41.7462 92.8116 41.9603 93.0023 42.2173 93.1454C42.4742 93.2884 42.7739 93.3361 43.1165 93.3361C43.459 93.3361 43.7588 93.2408 44.0157 93.0977C44.2726 92.9546 44.4867 92.7639 44.6152 92.4778C44.7864 92.1916 44.8721 91.9055 44.9577 91.5717C45.0434 91.2379 45.0862 90.8087 45.0862 90.4272C45.0862 90.1411 45.0862 89.855 45.0434 89.6166C45.0005 89.3781 44.9577 89.1397 44.9149 88.9013C44.8721 88.6628 44.7864 88.4721 44.7436 88.2336C44.658 88.0429 44.5724 87.8044 44.4867 87.6137L45.4716 86.9938C45.6 87.1845 45.7285 87.423 45.8141 87.7091C45.8998 87.9952 45.9854 88.2813 46.0711 88.6151C46.1567 88.9489 46.1995 89.2827 46.2423 89.6166C46.2851 89.9504 46.2852 90.2842 46.2852 90.618C46.2852 91.2856 46.1995 91.9055 46.0711 92.4778C45.8998 93.05 45.6857 93.4792 45.4288 93.9084C45.1718 94.2899 44.8293 94.576 44.4011 94.8144C44.0157 95.0052 43.5447 95.1005 43.0737 95.1005Z" fill="#E1E1E1" fill-opacity="0.5"/>
<path d="M38.5821 38.0675L40.2949 32.5835L41.9648 38.0675L38.5821 38.0675Z" fill="#E1E1E1" fill-opacity="0.5"/>
<path d="M38.5821 85.7535L40.2949 80.2695L41.9648 85.7535L38.5821 85.7535Z" fill="#E1E1E1" fill-opacity="0.5"/>
</g>
<path d="M60.7157 64L52.2857 50.89H52.1657V64H48.0557V43.36H52.4657L60.5357 55.72H60.6857V43.36H64.7957V64H60.7157ZM82.9668 63.76C82.2868 63.9 81.4468 64.01 80.4468 64.09C79.4668 64.19 78.5568 64.24 77.7168 64.24C75.1768 64.24 73.2968 63.93 72.0768 63.31C70.8768 62.69 70.0768 61.66 69.6768 60.22C69.2768 58.78 69.0768 56.6 69.0768 53.68C69.0768 50.8 69.2768 48.64 69.6768 47.2C70.0768 45.74 70.8768 44.7 72.0768 44.08C73.2968 43.44 75.1768 43.12 77.7168 43.12C78.5768 43.12 79.4868 43.17 80.4468 43.27C81.4068 43.37 82.2068 43.5 82.8468 43.66V47.11C81.1068 46.91 79.7568 46.81 78.7968 46.81C76.9768 46.81 75.7168 46.95 75.0168 47.23C74.3168 47.49 73.8668 48.06 73.6668 48.94C73.4668 49.82 73.3668 51.4 73.3668 53.68C73.3668 55.96 73.4668 57.54 73.6668 58.42C73.8668 59.3 74.3168 59.88 75.0168 60.16C75.7168 60.42 76.9768 60.55 78.7968 60.55C80.3168 60.55 81.7068 60.45 82.9668 60.25V63.76ZM100.164 64L98.6641 59.56H90.6241L89.1541 64H84.8641L91.8541 43.36H97.5841L104.574 64H100.164ZM94.7041 47.38H94.5541L91.7641 55.84H97.5241L94.7041 47.38ZM107.5 64V43.36H121.09V47.05H111.76V52.3H119.98V55.99H111.76V64H107.5ZM124.697 64V43.36H138.287V47.05H128.957V52.3H137.177V55.99H128.957V64H124.697Z" fill="white"/>
<path d="M60.7157 64L59.8746 64.5409L60.1698 65H60.7157V64ZM52.2857 50.89L53.1268 50.3491L52.8316 49.89H52.2857V50.89ZM52.1657 50.89V49.89H51.1657V50.89H52.1657ZM52.1657 64V65H53.1657V64H52.1657ZM48.0557 64H47.0557V65H48.0557V64ZM48.0557 43.36V42.36H47.0557V43.36H48.0557ZM52.4657 43.36L53.303 42.8133L53.0071 42.36H52.4657V43.36ZM60.5357 55.72L59.6984 56.2667L59.9943 56.72H60.5357V55.72ZM60.6857 55.72V56.72H61.6857V55.72H60.6857ZM60.6857 43.36V42.36H59.6857V43.36H60.6857ZM64.7957 43.36H65.7957V42.36H64.7957V43.36ZM64.7957 64V65H65.7957V64H64.7957ZM61.5568 63.4591L53.1268 50.3491L51.4446 51.4309L59.8746 64.5409L61.5568 63.4591ZM52.2857 49.89H52.1657V51.89H52.2857V49.89ZM51.1657 50.89V64H53.1657V50.89H51.1657ZM52.1657 63H48.0557V65H52.1657V63ZM49.0557 64V43.36H47.0557V64H49.0557ZM48.0557 44.36H52.4657V42.36H48.0557V44.36ZM51.6284 43.9067L59.6984 56.2667L61.373 55.1733L53.303 42.8133L51.6284 43.9067ZM60.5357 56.72H60.6857V54.72H60.5357V56.72ZM61.6857 55.72V43.36H59.6857V55.72H61.6857ZM60.6857 44.36H64.7957V42.36H60.6857V44.36ZM63.7957 43.36V64H65.7957V43.36H63.7957ZM64.7957 63H60.7157V65H64.7957V63ZM82.9668 63.76L83.1685 64.7395L83.9668 64.5751V63.76H82.9668ZM80.4468 64.09L80.3671 63.0932L80.3562 63.0941L80.3453 63.0952L80.4468 64.09ZM72.0768 63.31L71.6178 64.1984L71.6237 64.2015L72.0768 63.31ZM69.6768 60.22L68.7133 60.4876L68.7133 60.4876L69.6768 60.22ZM69.6768 47.2L70.6403 47.4676L70.6413 47.4642L69.6768 47.2ZM72.0768 44.08L72.5358 44.9684L72.5413 44.9655L72.0768 44.08ZM82.8468 43.66H83.8468V42.8792L83.0893 42.6899L82.8468 43.66ZM82.8468 47.11L82.7326 48.1035L83.8468 48.2315V47.11H82.8468ZM75.0168 47.23L75.365 48.1674L75.3766 48.1631L75.3882 48.1585L75.0168 47.23ZM73.6668 48.94L72.6917 48.7184L72.6917 48.7184L73.6668 48.94ZM73.6668 58.42L72.6917 58.6416L72.6917 58.6416L73.6668 58.42ZM75.0168 60.16L74.6454 61.0885L74.657 61.0931L74.6686 61.0974L75.0168 60.16ZM82.9668 60.25H83.9668V59.0788L82.81 59.2624L82.9668 60.25ZM82.7651 62.7805C82.1387 62.9095 81.3424 63.0152 80.3671 63.0932L80.5265 65.0868C81.5512 65.0048 82.4349 64.8905 83.1685 64.7395L82.7651 62.7805ZM80.3453 63.0952C79.3934 63.1923 78.5177 63.24 77.7168 63.24V65.24C78.5959 65.24 79.5402 65.1877 80.5483 65.0848L80.3453 63.0952ZM77.7168 63.24C75.2214 63.24 73.5351 62.9294 72.5298 62.4185L71.6237 64.2015C73.0585 64.9306 75.1322 65.24 77.7168 65.24V63.24ZM72.5358 62.4216C71.6108 61.9437 70.9746 61.1559 70.6403 59.9524L68.7133 60.4876C69.1789 62.1641 70.1428 63.4363 71.6178 64.1984L72.5358 62.4216ZM70.6403 59.9524C70.2778 58.6473 70.0768 56.5783 70.0768 53.68H68.0768C68.0768 56.6217 68.2758 58.9127 68.7133 60.4876L70.6403 59.9524ZM70.0768 53.68C70.0768 50.8232 70.2776 48.7734 70.6403 47.4676L68.7133 46.9324C68.276 48.5066 68.0768 50.7768 68.0768 53.68H70.0768ZM70.6413 47.4642C70.9773 46.2377 71.6155 45.4439 72.5358 44.9684L71.6178 43.1916C70.1381 43.9561 69.1763 45.2423 68.7123 46.9358L70.6413 47.4642ZM72.5413 44.9655C73.5425 44.4403 75.2237 44.12 77.7168 44.12V42.12C75.1299 42.12 73.0511 42.4397 71.6122 43.1945L72.5413 44.9655ZM77.7168 44.12C78.5383 44.12 79.4135 44.1678 80.3432 44.2646L80.5504 42.2754C79.5601 42.1722 78.6153 42.12 77.7168 42.12V44.12ZM80.3432 44.2646C81.2757 44.3618 82.0256 44.4855 82.6043 44.6301L83.0893 42.6899C82.388 42.5145 81.5379 42.3782 80.5504 42.2754L80.3432 44.2646ZM81.8468 43.66V47.11H83.8468V43.66H81.8468ZM82.961 46.1165C81.2085 45.9151 79.814 45.81 78.7968 45.81V47.81C79.6996 47.81 81.0051 47.9049 82.7326 48.1035L82.961 46.1165ZM78.7968 45.81C76.9799 45.81 75.543 45.9425 74.6454 46.3015L75.3882 48.1585C75.8906 47.9575 76.9737 47.81 78.7968 47.81V45.81ZM74.6686 46.2926C73.5832 46.6957 72.9485 47.5882 72.6917 48.7184L74.6419 49.1616C74.7851 48.5318 75.0504 48.2843 75.365 48.1674L74.6686 46.2926ZM72.6917 48.7184C72.4638 49.7208 72.3668 51.4046 72.3668 53.68H74.3668C74.3668 51.3954 74.4698 49.9192 74.6419 49.1616L72.6917 48.7184ZM72.3668 53.68C72.3668 55.9554 72.4638 57.6392 72.6917 58.6416L74.6419 58.1984C74.4698 57.4408 74.3668 55.9646 74.3668 53.68H72.3668ZM72.6917 58.6416C72.9481 59.77 73.5774 60.6613 74.6454 61.0885L75.3882 59.2315C75.0562 59.0987 74.7855 58.83 74.6419 58.1984L72.6917 58.6416ZM74.6686 61.0974C75.5553 61.4268 76.9806 61.55 78.7968 61.55V59.55C76.9729 59.55 75.8783 59.4132 75.365 59.2226L74.6686 61.0974ZM78.7968 61.55C80.3597 61.55 81.803 61.4472 83.1236 61.2376L82.81 59.2624C81.6106 59.4528 80.2739 59.55 78.7968 59.55V61.55ZM81.9668 60.25V63.76H83.9668V60.25H81.9668ZM100.164 64L99.2167 64.3201L99.4464 65H100.164V64ZM98.6641 59.56L99.6115 59.2399L99.3818 58.56H98.6641V59.56ZM90.6241 59.56V58.56H89.9018L89.6747 59.2457L90.6241 59.56ZM89.1541 64V65H89.8764L90.1034 64.3143L89.1541 64ZM84.8641 64L83.9169 63.6792L83.4696 65H84.8641V64ZM91.8541 43.36V42.36H91.1369L90.9069 43.0392L91.8541 43.36ZM97.5841 43.36L98.5312 43.0392L98.3012 42.36H97.5841V43.36ZM104.574 64V65H105.969L105.521 63.6792L104.574 64ZM94.7041 47.38L95.6527 47.0638L95.4248 46.38H94.7041V47.38ZM94.5541 47.38V46.38H93.8309L93.6044 47.0668L94.5541 47.38ZM91.7641 55.84L90.8144 55.5268L90.3813 56.84H91.7641V55.84ZM97.5241 55.84V56.84H98.9115L98.4727 55.5238L97.5241 55.84ZM101.111 63.6799L99.6115 59.2399L97.7167 59.8801L99.2167 64.3201L101.111 63.6799ZM98.6641 58.56H90.6241V60.56H98.6641V58.56ZM89.6747 59.2457L88.2047 63.6857L90.1034 64.3143L91.5734 59.8743L89.6747 59.2457ZM89.1541 63H84.8641V65H89.1541V63ZM85.8112 64.3208L92.8012 43.6808L90.9069 43.0392L83.9169 63.6792L85.8112 64.3208ZM91.8541 44.36H97.5841V42.36H91.8541V44.36ZM96.6369 43.6808L103.627 64.3208L105.521 63.6792L98.5312 43.0392L96.6369 43.6808ZM104.574 63H100.164V65H104.574V63ZM94.7041 46.38H94.5541V48.38H94.7041V46.38ZM93.6044 47.0668L90.8144 55.5268L92.7138 56.1532L95.5038 47.6932L93.6044 47.0668ZM91.7641 56.84H97.5241V54.84H91.7641V56.84ZM98.4727 55.5238L95.6527 47.0638L93.7554 47.6962L96.5754 56.1562L98.4727 55.5238ZM107.5 64H106.5V65H107.5V64ZM107.5 43.36V42.36H106.5V43.36H107.5ZM121.09 43.36H122.09V42.36H121.09V43.36ZM121.09 47.05V48.05H122.09V47.05H121.09ZM111.76 47.05V46.05H110.76V47.05H111.76ZM111.76 52.3H110.76V53.3H111.76V52.3ZM119.98 52.3H120.98V51.3H119.98V52.3ZM119.98 55.99V56.99H120.98V55.99H119.98ZM111.76 55.99V54.99H110.76V55.99H111.76ZM111.76 64V65H112.76V64H111.76ZM108.5 64V43.36H106.5V64H108.5ZM107.5 44.36H121.09V42.36H107.5V44.36ZM120.09 43.36V47.05H122.09V43.36H120.09ZM121.09 46.05H111.76V48.05H121.09V46.05ZM110.76 47.05V52.3H112.76V47.05H110.76ZM111.76 53.3H119.98V51.3H111.76V53.3ZM118.98 52.3V55.99H120.98V52.3H118.98ZM119.98 54.99H111.76V56.99H119.98V54.99ZM110.76 55.99V64H112.76V55.99H110.76ZM111.76 63H107.5V65H111.76V63ZM124.697 64H123.697V65H124.697V64ZM124.697 43.36V42.36H123.697V43.36H124.697ZM138.287 43.36H139.287V42.36H138.287V43.36ZM138.287 47.05V48.05H139.287V47.05H138.287ZM128.957 47.05V46.05H127.957V47.05H128.957ZM128.957 52.3H127.957V53.3H128.957V52.3ZM137.177 52.3H138.177V51.3H137.177V52.3ZM137.177 55.99V56.99H138.177V55.99H137.177ZM128.957 55.99V54.99H127.957V55.99H128.957ZM128.957 64V65H129.957V64H128.957ZM125.697 64V43.36H123.697V64H125.697ZM124.697 44.36H138.287V42.36H124.697V44.36ZM137.287 43.36V47.05H139.287V43.36H137.287ZM138.287 46.05H128.957V48.05H138.287V46.05ZM127.957 47.05V52.3H129.957V47.05H127.957ZM128.957 53.3H137.177V51.3H128.957V53.3ZM136.177 52.3V55.99H138.177V52.3H136.177ZM137.177 54.99H128.957V56.99H137.177V54.99ZM127.957 55.99V64H129.957V55.99H127.957ZM128.957 63H124.697V65H128.957V63Z" fill="black"/>
</svg>
