<svg width="1588" height="1587" viewBox="0 0 1588 1587" fill="none" xmlns="http://www.w3.org/2000/svg">
<g clip-path="url(#clip0)">
<path fill-rule="evenodd" clip-rule="evenodd" d="M2275.25 888.34C2218.12 960.182 2093.28 987.651 1972.67 996.103C1913.42 1000.33 1329.41 998.216 963.344 998.216L1126.27 930.6C1126.27 930.6 1945.16 930.6 2038.26 930.6C2131.36 930.6 2216 909.47 2275.25 888.34Z" stroke="#F1F1F1" stroke-width="4.9146" stroke-miterlimit="22.9256" stroke-linejoin="round"/>
<path fill-rule="evenodd" clip-rule="evenodd" d="M383.564 117.094C546.494 256.552 880.819 541.808 899.863 560.825C923.139 584.068 967.574 569.277 984.502 562.938C999.314 558.712 1026.82 562.938 1052.21 586.181C1077.6 611.537 1083.95 624.216 1143.2 624.216C1202.45 624.216 2110.2 624.216 2190.61 624.216C2271.02 624.216 2338.73 668.589 2321.8 742.544C2271.02 953.844 2177.91 981.314 1972.66 996.105C1885.91 1002.44 728.468 996.105 694.613 996.105C660.757 996.105 652.293 979.201 654.409 955.957C654.409 932.714 656.525 913.697 652.293 903.132C648.061 892.567 626.902 890.454 601.51 913.697C590.93 926.375 571.886 941.166 550.726 955.957C485.131 1002.44 406.84 1004.56 328.548 1002.44C123.299 1000.33 -37.5159 911.584 -92.5313 679.154C-141.199 474.192 -151.779 250.213 -153.895 231.196C-156.011 212.179 -172.939 207.953 -191.982 201.614C-208.91 195.275 -217.374 167.806 -223.722 144.563C-230.07 121.32 -335.869 -144.919 -359.145 -210.422C-386.652 -275.925 -399.348 -366.784 -278.737 -390.028C-158.127 -413.271 -77.7195 -419.61 -39.6319 -421.723C-1.54426 -421.723 51.3552 -417.497 95.7908 -330.863C121.183 -280.151 182.546 -163.936 231.213 -77.3026C298.925 51.5908 275.649 24.1217 383.564 117.094Z" stroke="#F1F1F1" stroke-width="4.9146" stroke-miterlimit="22.9256"/>
</g>
<g clip-path="url(#clip1)">
<path d="M1047.64 913.052L1478.67 482.027H2087.62L2518.65 913.052V1522.01L2087.62 1953.03H1478.67L1047.64 1522.01V913.052Z" stroke="#F1F1F1" stroke-width="4.9146" stroke-miterlimit="10"/>
<path d="M1234.55 990.425L1556.04 668.932H2010.25L2331.74 990.425V1444.63L2010.25 1766.13H1556.04L1234.55 1444.63V990.425Z" stroke="#F1F1F1" stroke-width="4.9146" stroke-miterlimit="10"/>
</g>
<g clip-path="url(#clip2)">
<path d="M-470.514 515.176L-39.4885 84.1507H569.469L1000.49 515.176V1124.13L569.469 1555.16H-39.4885L-470.514 1124.13V515.176Z" stroke="#F1F1F1" stroke-width="4.9146" stroke-miterlimit="10"/>
<path d="M-283.605 592.55L37.8875 271.057H492.096L813.588 592.55V1046.76L492.096 1368.25H37.8875L-283.605 1046.76V592.55Z" stroke="#F1F1F1" stroke-width="4.9146" stroke-miterlimit="10"/>
</g>
<g clip-path="url(#clip3)">
<path d="M2531.14 1095.86L2531.14 -537.446L1132.05 -537.446V-566.75H1125.61V-537.446H871.853V-566.75H865.307V-537.446L-533.885 -537.446L-533.885 1095.86L2531.14 1095.86ZM995.406 471.135C985.846 470.927 976.494 470.096 967.35 468.641C966.83 468.538 966.311 468.434 965.791 468.33C961.738 467.602 957.79 466.875 953.841 465.836C951.555 465.316 949.165 464.693 946.983 464.069C944.904 463.55 942.722 462.822 940.644 462.199C910.509 452.639 883.596 435.805 861.982 413.879C858.76 410.658 855.643 407.229 852.733 403.8C850.759 401.514 848.785 399.123 847.018 396.733C845.563 394.863 844.109 392.889 842.654 390.914C820.105 359.429 806.804 320.877 806.804 279.312C806.804 238.37 819.689 200.441 841.615 169.267C843.381 166.773 845.148 164.28 847.018 161.89C848.889 159.5 850.759 157.11 852.733 154.823C854.188 153.057 855.747 151.394 857.306 149.732C858.864 148.069 860.423 146.406 861.982 144.744C871.542 134.976 882.245 126.247 893.675 118.766C896.169 117.103 898.767 115.44 901.469 113.882C919.965 102.971 940.332 95.1772 962.05 90.9168C965.167 90.2933 968.285 89.7738 971.402 89.3582C979.3 88.2151 987.301 87.5916 995.51 87.4877L995.51 471.135H995.406ZM995.406 80.8372C887.44 82.6038 800.153 170.93 800.153 279.208C800.153 387.589 887.44 475.812 995.406 477.578V1089.42L155.891 1089.42V1043.91H149.449V1089.42H-527.338V998.287H-59.2092L-58.5857 997.975C230.085 875.15 416.713 593.026 416.713 279.208C416.713 -34.6104 230.085 -316.631 -58.5857 -439.56L-59.2092 -439.768L-527.338 -439.768V-530.9L149.449 -530.9V-485.386H155.891V-530.9L995.302 -530.9V80.8372H995.406ZM-527.338 666.388V542.732H-306.107V572.035H-299.56V542.732H-273.582V572.035H-267.036V542.732H-175.904V572.035H-169.461V542.732H-78.3292V572.035H-71.7827V542.732H90.9454L90.9454 477.578C198.911 475.812 286.198 387.589 286.198 279.208C286.198 170.826 198.911 82.6038 90.9454 80.8372V15.6837H-71.7827V-13.6199H-78.3292V15.6837H-169.461V-13.6199H-175.904V15.6837L-267.036 15.6837V-13.6199H-273.582V15.6837H-299.56V-13.6199H-306.107V15.6837H-527.338V-107.973H-498.035V-114.416H-527.338L-527.338 -433.325L-60.4561 -433.325C225.513 -311.331 410.167 -31.7008 410.167 279.208C410.167 590.116 225.409 869.746 -60.4561 991.741H-527.338V672.935H-498.035V666.388H-527.338ZM-527.338 536.289L-527.338 477.682H84.295L84.295 536.185H-527.338V536.289ZM-527.338 80.7333V22.1263L84.295 22.1263V80.7333L-527.338 80.7333ZM90.8416 471.135V87.3838C195.17 89.1503 279.548 174.463 279.548 279.208C279.548 383.952 195.17 469.369 90.8416 471.135ZM2524.59 1089.42H1847.81V1043.91H1841.36V1089.42L1001.95 1089.42V477.578C1109.92 475.812 1197.21 387.589 1197.21 279.208C1197.21 170.826 1109.92 82.6038 1001.95 80.8372V-530.9L1841.36 -530.9V-485.386H1847.81V-530.9L2524.59 -530.9V-439.768L2056.46 -439.768L2055.84 -439.56C1767.07 -316.631 1580.54 -34.5064 1580.54 279.208C1580.54 592.922 1767.07 875.046 2055.74 997.975L2056.36 998.287H2524.49V1089.42H2524.59ZM1001.85 471.135L1001.85 87.3838C1009.95 87.4877 1018.06 88.2151 1025.96 89.2543C1029.07 89.6699 1032.19 90.1895 1035.31 90.8129C1057.65 95.1773 1078.54 103.386 1097.35 114.713C1099.53 115.96 1101.61 117.311 1103.68 118.662C1156.06 152.953 1190.66 212.184 1190.66 279.208C1190.66 338.126 1163.95 390.914 1122.08 426.141C1119.79 428.115 1117.4 429.986 1114.91 431.856C1102.85 441.104 1089.55 448.898 1075.42 455.133C1072.61 456.38 1069.7 457.523 1066.9 458.666C1063.99 459.705 1061.08 460.848 1058.07 461.783C1055.16 462.718 1052.14 463.654 1049.13 464.485C1047.57 464.901 1046.12 465.316 1044.56 465.628C1039.98 466.771 1035.41 467.706 1030.74 468.537C1029.59 468.745 1028.35 468.953 1027.2 469.057C1018.89 470.304 1010.37 471.031 1001.85 471.135ZM1912.86 80.7333V22.1263L2524.49 22.1263V80.7333L1912.86 80.7333ZM2524.59 666.388H2495.29V672.935H2524.59L2524.59 991.741H2057.71C1771.74 869.643 1586.98 590.116 1586.98 279.208C1586.98 -31.7008 1771.74 -311.331 2057.71 -433.325H2524.59V-114.416H2495.29V-107.973H2524.59V15.6837H2303.36V-13.6199H2296.92V15.6837H2270.84V-13.6199H2264.29V15.6837H2173.16V-13.6199H2166.72V15.6837H2075.58V-13.6199H2069.04V15.6837L1906.31 15.6837V80.8372C1798.34 82.6038 1711.06 170.93 1711.06 279.208C1711.06 387.589 1798.34 475.812 1906.31 477.578V542.732H2069.04V572.035H2075.58V542.732H2166.72V572.035H2173.16V542.732H2264.29V572.035H2270.84V542.732H2296.92V572.035H2303.36V542.732H2524.59V666.388ZM1906.41 87.3838V471.135C1802.08 469.369 1717.71 383.952 1717.71 279.208C1717.71 174.463 1802.08 89.1503 1906.41 87.3838ZM2524.59 536.289H1912.96V477.682H2524.59V536.289ZM2186.15 471.135C2109.56 471.135 2035.79 471.135 1984.24 471.135C1941.54 471.135 1914 471.135 1912.86 471.135V87.3838C1915.66 87.4877 2089.09 87.3838 2250.47 87.3838C2310.95 87.3838 2369.66 87.3838 2417.15 87.3838C2480.95 87.3838 2524.49 87.3838 2524.49 87.3838V471.343C2524.59 471.239 2349.19 471.135 2186.15 471.135ZM-527.338 87.2798C-527.338 87.2798 -511.336 87.2798 -484.526 87.2798C-432.777 87.2798 -340.71 87.2798 -245.526 87.2798C-86.4344 87.2798 81.4893 87.3838 84.295 87.2798V471.031C81.4893 471.031 -82.174 471.031 -239.499 471.031C-386.224 471.031 -527.442 471.135 -527.442 471.135V87.2798H-527.338Z" fill="#F1F1F1"/>
<path d="M29.6372 469.159C17.2715 465.418 5.21757 460.327 -6.21289 454.196L-3.09549 448.48C7.91931 454.404 19.6615 459.287 31.6116 462.924L29.6372 469.159Z" fill="#F1F1F1"/>
</g>
<g clip-path="url(#clip4)">
<path d="M547.177 132.848H541.872V185.373H547.177V132.848Z" fill="#F1F1F1"/>
<path d="M573.705 132.848H568.4V185.373H573.705V132.848Z" fill="#F1F1F1"/>
<path d="M626.761 132.848H621.455V185.373H626.761V132.848Z" fill="#F1F1F1"/>
<path d="M653.289 132.848H647.983V185.373H653.289V132.848Z" fill="#F1F1F1"/>
<path d="M679.817 132.848H674.511V185.373H679.817V132.848Z" fill="#F1F1F1"/>
<path d="M706.345 132.848H701.039V185.373H706.345V132.848Z" fill="#F1F1F1"/>
<path d="M759.401 132.848H754.095V185.373H759.401V132.848Z" fill="#F1F1F1"/>
<path d="M785.929 132.848H780.623V185.373H785.929V132.848Z" fill="#F1F1F1"/>
<path d="M812.456 132.848H807.15V185.373H812.456V132.848Z" fill="#F1F1F1"/>
<path d="M838.984 132.848H833.678V185.373H838.984V132.848Z" fill="#F1F1F1"/>
<path d="M892.04 132.848H886.734V185.373H892.04V132.848Z" fill="#F1F1F1"/>
<path d="M918.568 132.848H913.262V185.373H918.568V132.848Z" fill="#F1F1F1"/>
<path d="M945.096 132.848H939.79V185.373H945.096V132.848Z" fill="#F1F1F1"/>
<path d="M971.624 132.848H966.318V185.373H971.624V132.848Z" fill="#F1F1F1"/>
<path d="M1024.68 132.848H1019.37V185.373H1024.68V132.848Z" fill="#F1F1F1"/>
<path d="M1051.21 132.848H1045.9V185.373H1051.21V132.848Z" fill="#F1F1F1"/>
<path d="M547.177 345.068H541.872V397.594H547.177V345.068Z" fill="#F1F1F1"/>
<path d="M573.705 345.068H568.4V397.594H573.705V345.068Z" fill="#F1F1F1"/>
<path d="M626.761 345.068H621.455V397.594H626.761V345.068Z" fill="#F1F1F1"/>
<path d="M653.289 345.068H647.983V397.594H653.289V345.068Z" fill="#F1F1F1"/>
<path d="M679.817 345.068H674.511V397.594H679.817V345.068Z" fill="#F1F1F1"/>
<path d="M706.345 345.068H701.039V397.594H706.345V345.068Z" fill="#F1F1F1"/>
<path d="M759.401 345.068H754.095V397.594H759.401V345.068Z" fill="#F1F1F1"/>
<path d="M785.929 345.068H780.623V397.594H785.929V345.068Z" fill="#F1F1F1"/>
<path d="M812.456 345.068H807.15V397.594H812.456V345.068Z" fill="#F1F1F1"/>
<path d="M838.984 345.068H833.678V397.594H838.984V345.068Z" fill="#F1F1F1"/>
<path d="M892.04 345.068H886.734V397.594H892.04V345.068Z" fill="#F1F1F1"/>
<path d="M918.568 345.068H913.262V397.594H918.568V345.068Z" fill="#F1F1F1"/>
<path d="M945.096 345.068H939.79V397.594H945.096V345.068Z" fill="#F1F1F1"/>
<path d="M971.624 345.068H966.318V397.594H971.624V345.068Z" fill="#F1F1F1"/>
<path d="M1024.68 345.068H1019.37V397.594H1024.68V345.068Z" fill="#F1F1F1"/>
<path d="M1051.21 345.068H1045.9V397.594H1051.21V345.068Z" fill="#F1F1F1"/>
<path d="M265.717 -531.943L265.717 1061.06L3316.96 1061.06L3316.96 -531.943L265.717 -531.943ZM462.289 1055.75H271.023L271.023 -526.638H462.289L462.289 1055.75ZM594.929 1055.75H573.706V1005.88H568.401V1055.75H547.178V1005.88H541.873V1055.75H520.65V1005.88H515.345V1055.75H494.123V1005.88H488.817V1055.75H467.595L467.595 -526.638H488.817V-476.765H494.123V-526.638H515.345V-476.765H520.65V-526.638H541.873V-476.765H547.178V-526.638H568.401V-476.765H573.706V-526.638H594.929L594.929 1055.75ZM727.568 1055.75H706.346V1005.88H701.04V1055.75H679.818V1005.88H674.512V1055.75H653.29V1005.88H647.984V1055.75H626.762V1005.88H621.456V1055.75H600.234L600.234 -526.638H621.456V-476.765H626.762V-526.638H647.984V-476.765H653.29V-526.638H674.512V-476.765H679.818V-526.638H701.04V-476.765H706.346V-526.638H727.568L727.568 1055.75ZM860.208 1055.75H838.985V1005.88H833.68V1055.75H812.457V1005.88H807.152V1055.75H785.929V1005.88H780.624V1055.75H759.402V1005.88H754.096V1055.75H732.874L732.874 -526.638H754.096V-476.765H759.402V-526.638H780.624V-476.765H785.929V-526.638H807.152V-476.765H812.457V-526.638H833.68V-476.765H838.985V-526.638H860.208L860.208 1055.75ZM992.847 1055.75L971.625 1055.75V1005.88H966.319V1055.75H945.097V1005.88H939.791V1055.75H918.569V1005.88H913.263V1055.75H892.041V1005.88H886.735V1055.75H865.513L865.513 -526.638H886.735V-476.765H892.041V-526.638H913.263V-476.765H918.569V-526.638H939.791V-476.765H945.097V-526.638H966.319V-476.765H971.625V-526.638H992.847L992.847 1055.75ZM1125.49 1055.75H1104.26V1005.88H1098.96V1055.75H1077.74V1005.88H1072.43V1055.75H1051.21V1005.88H1045.9V1055.75H1024.68V1005.88H1019.37V1055.75H998.153L998.153 -526.638H1019.37V-476.765H1024.68V-526.638H1045.9V-476.765H1051.21V-526.638H1072.43V-476.765H1077.74V-526.638H1098.96V-476.765H1104.26V-526.638H1125.49L1125.49 1055.75ZM1258.13 1055.75H1236.9V1005.88H1231.6V1055.75H1210.38V1005.88H1205.07V1055.75H1183.85V1005.88H1178.54V1055.75H1157.32V1005.88H1152.01V1055.75H1130.79L1130.79 -526.638H1152.01V-476.765H1157.32V-526.638H1178.54V-476.765H1183.85V-526.638H1205.07V-476.765H1210.38V-526.638H1231.6V-476.765H1236.9V-526.638H1258.13L1258.13 1055.75ZM1390.77 1055.75H1369.54V1005.88H1364.24V1055.75H1343.02V1005.88H1337.71V1055.75H1316.49V1005.88H1311.18V1055.75H1289.96V1005.88H1284.65V1055.75H1263.43L1263.43 -526.638H1284.65V-476.765H1289.96V-526.638H1311.18V-476.765H1316.49V-526.638L1337.71 -526.638V-476.765H1343.02V-526.638H1364.24V-476.765H1369.54V-526.638H1390.77L1390.77 1055.75ZM1523.41 1055.75H1502.18V1005.88H1496.88V1055.75H1475.65V1005.88H1470.35V1055.75H1449.13V1005.88H1443.82V1055.75H1422.6V1005.88H1417.29V1055.75H1396.07L1396.07 -526.638H1417.29V-476.765H1422.6V-526.638H1443.82V-476.765H1449.13V-526.638H1470.35V-476.765H1475.65V-526.638H1496.88V-476.765H1502.18V-526.638H1523.41L1523.41 1055.75ZM1656.04 1055.75H1634.82V1005.88H1629.52V1055.75H1608.29V1005.88H1602.99V1055.75H1581.77V1005.88H1576.46V1055.75H1555.24V1005.88H1549.93V1055.75H1528.71L1528.71 -526.638H1549.93V-476.765H1555.24V-526.638H1576.46V-476.765H1581.77V-526.638H1602.99V-476.765H1608.29V-526.638H1629.52V-476.765H1634.82V-526.638H1656.04L1656.04 1055.75ZM1788.68 1055.75H1767.46V1005.88H1762.16V1055.75H1740.93V1005.88H1735.63V1055.75H1714.41V1005.88H1709.1V1055.75H1687.88V1005.88H1682.57V1055.75H1661.35L1661.35 -526.638H1682.57V-476.765H1687.88V-526.638H1709.1V-476.765H1714.41V-526.638H1735.63V-476.765H1740.93V-526.638H1762.16V-476.765H1767.46V-526.638H1788.68L1788.68 1055.75ZM1921.32 1055.75H1900.1V1005.88H1894.8V1055.75H1873.57V1005.88H1868.27V1055.75H1847.05V1005.88H1841.74V1055.75H1820.52V1005.88H1815.21V1055.75H1793.99L1793.99 -526.638H1815.21V-476.765H1820.52V-526.638H1841.74V-476.765H1847.05V-526.638H1868.27V-476.765H1873.57V-526.638H1894.8V-476.765H1900.1V-526.638H1921.32L1921.32 1055.75ZM2053.96 1055.75H2032.74V1005.88H2027.44V1055.75H2006.21V1005.88H2000.91V1055.75H1979.68V1005.88H1974.38V1055.75H1953.16V1005.88H1947.85V1055.75H1926.63L1926.63 -526.638H1947.85V-476.765H1953.16V-526.638H1974.38V-476.765H1979.68V-526.638H2000.91V-476.765H2006.21V-526.638H2027.44V-476.765H2032.74V-526.638L2053.96 -526.638V1055.75ZM2186.6 1055.75H2165.38V1005.88H2160.07V1055.75H2138.85V1005.88H2133.55V1055.75H2112.32V1005.88H2107.02V1055.75H2085.8V1005.88H2080.49V1055.75H2059.27V-526.638H2080.49V-476.765H2085.8V-526.638H2107.02V-476.765H2112.32V-526.638H2133.55V-476.765H2138.85V-526.638H2160.07V-476.765H2165.38V-526.638H2186.6V1055.75ZM2319.24 1055.75H2298.02V1005.88H2292.71V1055.75H2271.49V1005.88H2266.19V1055.75H2244.96V1005.88H2239.66V1055.75H2218.44V1005.88H2213.13V1055.75H2191.91V-526.638H2213.13V-476.765H2218.44V-526.638H2239.66V-476.765H2244.96V-526.638H2266.19V-476.765H2271.49V-526.638H2292.71V-476.765H2298.02V-526.638H2319.24L2319.24 1055.75ZM2451.88 1055.75H2430.66V1005.88H2425.35V1055.75H2404.13V1005.88H2398.83V1055.75L2377.6 1055.75V1005.88H2372.3V1055.75H2351.08V1005.88H2345.77V1055.75H2324.55L2324.55 -526.638H2345.77V-476.765H2351.08V-526.638H2372.3V-476.765H2377.6V-526.638H2398.83V-476.765H2404.13V-526.638H2425.35V-476.765H2430.66V-526.638H2451.88L2451.88 1055.75ZM2584.52 1055.75H2563.3V1005.88H2557.99V1055.75H2536.77V1005.88H2531.47V1055.75H2510.24V1005.88H2504.94V1055.75H2483.72V1005.88H2478.41V1055.75H2457.19L2457.19 -526.638H2478.41V-476.765H2483.72V-526.638H2504.94V-476.765H2510.24V-526.638H2531.47V-476.765H2536.77V-526.638H2557.99V-476.765H2563.3V-526.638H2584.52L2584.52 1055.75ZM2717.16 1055.75H2695.94V1005.88H2690.63V1055.75H2669.41V1005.88H2664.1V1055.75H2642.88V1005.88H2637.58V1055.75H2616.35V1005.88H2611.05V1055.75H2589.83L2589.83 -526.638H2611.05V-476.765H2616.35V-526.638H2637.58V-476.765H2642.88V-526.638H2664.1V-476.765H2669.41V-526.638H2690.63V-476.765H2695.94V-526.638H2717.16L2717.16 1055.75ZM2849.8 1055.75H2828.58V1005.88H2823.27V1055.75H2802.05V1005.88H2796.74V1055.75H2775.52V1005.88H2770.22V1055.75H2748.99V1005.88H2743.69V1055.75H2722.47L2722.47 -526.638L2743.69 -526.638V-476.765H2748.99V-526.638H2770.22V-476.765H2775.52V-526.638H2796.74V-476.765H2802.05V-526.638H2823.27V-476.765H2828.58V-526.638H2849.8L2849.8 1055.75ZM2982.44 1055.75H2961.22V1005.88H2955.91V1055.75H2934.69V1005.88H2929.38V1055.75H2908.16V1005.88H2902.86V1055.75H2881.63V1005.88H2876.33V1055.75H2855.11L2855.11 -526.638H2876.33V-476.765H2881.63V-526.638H2902.86V-476.765H2908.16V-526.638H2929.38V-476.765H2934.69V-526.638H2955.91V-476.765H2961.22V-526.638H2982.44L2982.44 1055.75ZM3115.08 1055.75H3093.86V1005.88H3088.55V1055.75H3067.33V1005.88H3062.02V1055.75H3040.8V1005.88H3035.5V1055.75H3014.27V1005.88H3008.97V1055.75H2987.75L2987.75 -526.638H3008.97V-476.765H3014.27V-526.638H3035.5V-476.765H3040.8V-526.638H3062.02V-476.765H3067.33V-526.638H3088.55V-476.765H3093.86V-526.638H3115.08L3115.08 1055.75ZM3311.65 1055.75H3120.38L3120.38 -526.638H3311.65L3311.65 1055.75Z" fill="#F1F1F1"/>
</g>
<g clip-path="url(#clip5)">
<path d="M1076.96 1189.49H1071.66V1242.01H1076.96V1189.49Z" fill="#F1F1F1"/>
<path d="M1130.02 1189.49H1124.71V1242.01H1130.02V1189.49Z" fill="#F1F1F1"/>
<path d="M1156.55 1189.49H1151.24V1242.01H1156.55V1189.49Z" fill="#F1F1F1"/>
<path d="M1183.08 1189.49H1177.77V1242.01H1183.08V1189.49Z" fill="#F1F1F1"/>
<path d="M1209.6 1189.49H1204.3V1242.01H1209.6V1189.49Z" fill="#F1F1F1"/>
<path d="M1076.96 1401.71H1071.66V1454.23H1076.96V1401.71Z" fill="#F1F1F1"/>
<path d="M1130.02 1401.71H1124.71V1454.23H1130.02V1401.71Z" fill="#F1F1F1"/>
<path d="M1156.55 1401.71H1151.24V1454.23H1156.55V1401.71Z" fill="#F1F1F1"/>
<path d="M1183.08 1401.71H1177.77V1454.23H1183.08V1401.71Z" fill="#F1F1F1"/>
<path d="M1209.6 1401.71H1204.3V1454.23H1209.6V1401.71Z" fill="#F1F1F1"/>
<path d="M-1618.53 524.696L-1618.53 2117.7L1432.7 2117.7L1432.7 524.696L-1618.53 524.696ZM-1421.96 2112.39H-1613.23L-1613.23 530.002H-1421.96L-1421.96 2112.39ZM-1289.32 2112.39H-1310.55V2062.52H-1315.85V2112.39H-1337.07V2062.52H-1342.38V2112.39H-1363.6V2062.52H-1368.91V2112.39H-1390.13V2062.52H-1395.44V2112.39H-1416.66L-1416.66 530.002H-1395.44V579.874H-1390.13V530.002H-1368.91V579.874H-1363.6V530.002H-1342.38V579.874H-1337.07V530.002H-1315.85V579.874H-1310.55V530.002H-1289.32L-1289.32 2112.39ZM-1156.68 2112.39H-1177.91V2062.52H-1183.21V2112.39H-1204.43V2062.52H-1209.74V2112.39H-1230.96V2062.52H-1236.27V2112.39H-1257.49V2062.52H-1262.8V2112.39H-1284.02L-1284.02 530.002H-1262.8V579.874H-1257.49V530.002H-1236.27V579.874H-1230.96V530.002H-1209.74V579.874H-1204.43V530.002H-1183.21V579.874H-1177.91V530.002H-1156.68L-1156.68 2112.39ZM-1024.04 2112.39H-1045.27V2062.52H-1050.57V2112.39H-1071.79V2062.52H-1077.1V2112.39H-1098.32V2062.52H-1103.63V2112.39H-1124.85V2062.52H-1130.16V2112.39H-1151.38L-1151.38 530.002H-1130.16V579.874H-1124.85V530.002H-1103.63V579.874H-1098.32V530.002H-1077.1V579.874H-1071.79V530.002H-1050.57V579.874H-1045.27V530.002H-1024.04L-1024.04 2112.39ZM-891.405 2112.39H-912.627V2062.52H-917.933V2112.39H-939.155V2062.52H-944.461V2112.39H-965.683V2062.52H-970.989V2112.39H-992.211V2062.52H-997.516V2112.39H-1018.74L-1018.74 530.002H-997.516V579.874H-992.211V530.002H-970.989V579.874H-965.683V530.002H-944.461V579.874H-939.155V530.002H-917.933V579.874H-912.627V530.002H-891.405L-891.405 2112.39ZM-758.765 2112.39H-779.988V2062.52H-785.293V2112.39H-806.516V2062.52H-811.821V2112.39H-833.044V2062.52H-838.349V2112.39H-859.571V2062.52H-864.877V2112.39H-886.099L-886.099 530.002H-864.877V579.874H-859.571V530.002H-838.349V579.874H-833.044V530.002H-811.821V579.874H-806.516V530.002H-785.293V579.874H-779.988V530.002H-758.765L-758.765 2112.39ZM-626.126 2112.39H-647.348V2062.52H-652.654V2112.39H-673.876V2062.52H-679.182V2112.39H-700.404V2062.52H-705.71V2112.39H-726.932V2062.52H-732.237V2112.39H-753.46L-753.46 530.002H-732.237V579.874H-726.932V530.002H-705.71V579.874H-700.404V530.002H-679.182V579.874H-673.876V530.002H-652.654V579.874H-647.348V530.002H-626.126L-626.126 2112.39ZM-493.486 2112.39H-514.709V2062.52H-520.014V2112.39H-541.237V2062.52H-546.542V2112.39H-567.765V2062.52H-573.07V2112.39H-594.292V2062.52H-599.598V2112.39H-620.82L-620.82 530.002H-599.598V579.874H-594.292V530.002H-573.07V579.874H-567.765V530.002L-546.542 530.002V579.874H-541.237V530.002H-520.014V579.874H-514.709V530.002H-493.486L-493.486 2112.39ZM-360.847 2112.39H-382.069V2062.52H-387.375V2112.39H-408.597V2062.52H-413.903V2112.39H-435.125V2062.52H-440.431V2112.39H-461.653V2062.52H-466.958V2112.39H-488.181L-488.181 530.002H-466.958V579.874H-461.653V530.002H-440.431V579.874H-435.125V530.002H-413.903V579.874H-408.597V530.002H-387.375V579.874H-382.069V530.002H-360.847L-360.847 2112.39ZM-228.207 2112.39H-249.43V2062.52H-254.735V2112.39H-275.958V2062.52H-281.263V2112.39H-302.486V2062.52H-307.791V2112.39H-329.013V2062.52H-334.319V2112.39H-355.541L-355.541 530.002H-334.319V579.874H-329.013V530.002H-307.791V579.874H-302.486V530.002H-281.263V579.874H-275.958V530.002H-254.735V579.874H-249.43V530.002H-228.207L-228.207 2112.39ZM-95.568 2112.39H-116.79V2062.52H-122.096V2112.39H-143.318V2062.52H-148.624V2112.39H-169.846V2062.52H-175.152V2112.39H-196.374V2062.52H-201.68V2112.39H-222.902L-222.902 530.002H-201.68V579.874H-196.374V530.002H-175.152V579.874H-169.846V530.002H-148.624V579.874H-143.318V530.002H-122.096V579.874H-116.79V530.002H-95.568L-95.568 2112.39ZM37.0715 2112.39H15.8492V2062.52H10.5437V2112.39H-10.6787V2062.52H-15.9843V2112.39H-37.2065V2062.52H-42.5122V2112.39H-63.7345V2062.52H-69.04V2112.39H-90.2623L-90.2623 530.002H-69.04V579.874H-63.7345V530.002H-42.5122V579.874H-37.2065V530.002H-15.9843V579.874H-10.6787V530.002H10.5437V579.874H15.8492V530.002H37.0715L37.0715 2112.39ZM169.711 2112.39H148.489V2062.52H143.183V2112.39H121.961V2062.52H116.655V2112.39H95.433V2062.52H90.1273V2112.39H68.905V2062.52H63.5995V2112.39H42.3771L42.3771 530.002H63.5995V579.874H68.905V530.002H90.1273V579.874H95.433V530.002H116.655V579.874H121.961V530.002H143.183V579.874H148.489V530.002L169.711 530.002L169.711 2112.39ZM302.351 2112.39H281.128V2062.52H275.823V2112.39H254.6V2062.52H249.295V2112.39H228.072V2062.52H222.767V2112.39H201.545V2062.52H196.239V2112.39H175.017L175.017 530.002H196.239V579.874H201.545V530.002H222.767V579.874H228.072V530.002H249.295V579.874H254.6V530.002H275.823V579.874H281.128V530.002H302.351L302.351 2112.39ZM434.99 2112.39H413.768V2062.52H408.462V2112.39H387.24V2062.52H381.934V2112.39H360.712V2062.52H355.406V2112.39H334.184V2062.52H328.878V2112.39H307.656L307.656 530.002H328.878V579.874H334.184V530.002H355.406V579.874H360.712V530.002H381.934V579.874H387.24V530.002H408.462V579.874H413.768V530.002H434.99L434.99 2112.39ZM567.63 2112.39H546.407V2062.52H541.102V2112.39H519.879V2062.52H514.574V2112.39L493.352 2112.39V2062.52H488.046V2112.39H466.823V2062.52H461.518V2112.39H440.296L440.296 530.002H461.518V579.874H466.823V530.002H488.046V579.874H493.352V530.002H514.574V579.874H519.879V530.002H541.102V579.874H546.407V530.002H567.63L567.63 2112.39ZM700.269 2112.39H679.047V2062.52H673.741V2112.39H652.519V2062.52H647.213V2112.39H625.991V2062.52H620.685V2112.39H599.463V2062.52H594.157V2112.39H572.935L572.935 530.002H594.157V579.874H599.463V530.002H620.685V579.874H625.991V530.002H647.213V579.874H652.519V530.002H673.741V579.874H679.047V530.002H700.269L700.269 2112.39ZM832.909 2112.39H811.686V2062.52H806.381V2112.39H785.158V2062.52H779.853V2112.39H758.63V2062.52H753.325V2112.39H732.103V2062.52H726.797V2112.39H705.575L705.575 530.002H726.797V579.874H732.103V530.002H753.325V579.874H758.63V530.002H779.853V579.874H785.158V530.002H806.381V579.874H811.686V530.002H832.909L832.909 2112.39ZM965.548 2112.39H944.326V2062.52H939.02V2112.39H917.798V2062.52H912.492V2112.39H891.27V2062.52H885.964V2112.39H864.742V2062.52H859.437V2112.39H838.214L838.214 530.002L859.437 530.002V579.874H864.742V530.002H885.964V579.874H891.27V530.002H912.492V579.874H917.798V530.002H939.02V579.874H944.326V530.002H965.548L965.548 2112.39ZM1098.19 2112.39H1076.97V2062.52H1071.66V2112.39H1050.44V2062.52H1045.13V2112.39H1023.91V2062.52H1018.6V2112.39H997.382V2062.52H992.076V2112.39H970.854L970.854 530.002H992.076V579.874H997.382V530.002H1018.6V579.874H1023.91V530.002H1045.13V579.874H1050.44V530.002H1071.66V579.874H1076.97V530.002H1098.19L1098.19 2112.39ZM1230.83 2112.39H1209.6V2062.52H1204.3V2112.39H1183.08V2062.52H1177.77V2112.39H1156.55V2062.52H1151.24V2112.39H1130.02V2062.52H1124.72V2112.39H1103.49L1103.49 530.002H1124.72V579.874H1130.02V530.002H1151.24V579.874H1156.55V530.002H1177.77V579.874H1183.08V530.002H1204.3V579.874H1209.6V530.002H1230.83L1230.83 2112.39ZM1427.4 2112.39H1236.13L1236.13 530.002H1427.4L1427.4 2112.39Z" fill="#F1F1F1"/>
<path d="M1458.44 1189.49H1453.13V1454.23H1458.44V1189.49Z" fill="#F1F1F1"/>
</g>
<g clip-path="url(#clip6)">
<path d="M1154.64 1136.98C1069.66 1136.98 1000.6 1067.92 1000.6 982.938C1000.6 950.651 1010.46 920.157 1028.85 893.923L182.87 47.72L184.215 44.8051C184.888 43.2356 252.826 -102.955 405.743 -247.128C495.655 -331.883 596.778 -399.373 706.421 -447.804C843.419 -508.344 994.319 -539.062 1154.64 -539.062C1314.95 -539.062 1466.08 -508.344 1603.52 -447.804C1713.61 -399.373 1815.19 -331.883 1905.77 -246.904C2059.81 -102.507 2129.09 43.9083 2129.76 45.2536L2131.11 48.1685L2128.87 50.4106L1281.99 896.39C1299.48 921.951 1308.67 951.772 1308.67 982.938C1308.67 1067.92 1239.61 1136.98 1154.64 1136.98ZM193.632 45.702L1040.73 893.25L1038.49 896.39C1019.66 921.502 1009.79 951.547 1009.79 983.162C1009.79 1063.21 1074.81 1128.23 1154.86 1128.23C1234.91 1128.23 1299.93 1063.21 1299.93 983.162C1299.93 952.669 1290.51 923.296 1272.8 898.632L1270.56 895.493L1273.25 892.802L2120.35 46.1505C2110.03 25.2981 2040.75 -108.561 1899.49 -240.85C1758.46 -372.691 1514.73 -530.093 1154.64 -530.093C794.539 -530.093 551.934 -372.691 412.022 -240.626C271.885 -108.561 203.722 24.8496 193.632 45.702Z" fill="#F1F1F1"/>
<path d="M1155.08 688.314C1106.43 688.314 1066.97 648.852 1066.97 600.196C1066.97 551.541 1106.43 512.078 1155.08 512.078C1203.74 512.078 1243.2 551.541 1243.2 600.196C1243.2 648.852 1203.74 688.314 1155.08 688.314ZM1155.08 516.338C1108.89 516.338 1071.45 553.783 1071.45 599.972C1071.45 646.161 1108.89 683.606 1155.08 683.606C1201.27 683.606 1238.72 646.161 1238.72 599.972C1238.72 553.783 1201.27 516.338 1155.08 516.338Z" fill="#F1F1F1"/>
<path d="M1750.61 421.045C1750.16 420.148 1705.54 332.478 1610.25 245.706C1522.58 165.884 1372.58 70.5905 1157.1 70.5905C941.403 70.5905 790.28 164.763 701.265 243.463C605.075 328.891 559.11 415.44 558.661 416.336L554.625 414.318C555.074 413.422 601.263 326.2 698.126 240.1C755.077 189.651 818.083 149.291 885.348 120.367C969.655 84.2678 1060.91 65.8818 1156.65 65.8818C1252.62 65.8818 1343.65 84.492 1427.29 121.04C1494.33 150.412 1556.66 191.22 1612.94 242.342C1708.68 329.564 1753.75 417.906 1754.2 418.803L1750.61 421.045Z" fill="#F1F1F1"/>
<path d="M847.23 706.252L844.316 702.888C882.209 669.704 901.716 634.726 902.388 599.299C902.837 575.756 895.213 539.881 855.527 501.764L854.406 500.643C850.818 497.055 849.024 493.468 849.473 489.88C849.921 485.396 853.06 482.481 853.957 481.808C862.702 473.064 1033.56 301.984 1039.16 296.827C1042.97 293.24 1046.56 292.792 1048.8 293.016C1051.49 293.24 1053.96 294.809 1055.53 297.052C1101.94 349.967 1156.43 345.707 1156.88 345.707L1157.33 350.192C1156.65 350.192 1099.93 354.676 1052.17 299.967L1051.94 299.742C1051.49 299.07 1050.15 297.724 1048.36 297.5C1046.56 297.276 1044.32 298.173 1042.3 300.191C1036.7 305.348 858.89 483.378 857.096 485.172L856.872 485.396C856.872 485.396 854.181 487.414 854.181 490.329C853.957 492.571 855.302 495.037 857.769 497.504L858.89 498.625C899.698 537.639 907.77 575.083 907.097 599.523C906.2 636.295 886.02 672.17 847.23 706.252Z" fill="#F1F1F1"/>
<path d="M1466.08 706.253C1427.29 672.172 1407.11 636.296 1406.43 599.3C1405.99 574.86 1413.83 537.64 1454.64 498.402L1455.76 497.281C1458.45 494.814 1459.57 492.348 1459.35 489.881C1459.13 486.966 1456.66 484.949 1456.66 484.949L1456.44 484.724C1454.64 482.931 1276.84 304.901 1271.23 299.744C1269.21 297.726 1266.97 296.829 1265.18 297.053C1263.16 297.277 1262.04 298.622 1261.59 299.295L1261.36 299.519C1213.38 354.229 1156.65 349.744 1156.21 349.744L1156.65 345.26C1157.1 345.26 1211.81 349.52 1258 296.604C1259.57 294.362 1262.04 292.793 1264.73 292.568C1266.97 292.344 1270.33 292.793 1274.37 296.38C1279.97 301.537 1450.83 472.841 1459.57 481.361C1460.47 482.034 1463.61 484.949 1464.06 489.433C1464.28 493.02 1462.71 496.832 1459.13 500.195L1458 501.317C1418.32 539.21 1410.69 575.309 1411.14 598.852C1411.82 634.278 1431.55 669.257 1469.22 702.441L1466.08 706.253Z" fill="#F1F1F1"/>
<path d="M1182.99 184.3L1157.94 159.25L1132.89 184.3L1157.94 209.35L1182.99 184.3Z" fill="#F1F1F1"/>
</g>
<g clip-path="url(#clip7)">
<path d="M1718.35 -124.928H-1132.84V1620.14H1718.35V-124.928Z" stroke="#F1F1F1" stroke-width="4.9146"/>
<circle cx="289.707" cy="756.714" r="318.024" stroke="#F1F1F1" stroke-width="4.9146"/>
<circle cx="289.707" cy="756.713" r="17.7861" fill="#F1F1F1"/>
<path d="M290.739 -123.759V1616.01" stroke="#F1F1F1" stroke-width="4.9146"/>
</g>
<g clip-path="url(#clip8)">
<path d="M1408.81 703.587L-607.283 -1312.51L-1841.23 -78.5627L174.866 1937.53L1408.81 703.587Z" stroke="#F1F1F1" stroke-width="4.9146"/>
<path d="M1165.91 941.631L850.136 625.856L101.995 1374L417.769 1689.77" stroke="#F1F1F1" stroke-width="4.9146"/>
<path d="M893.86 1213.68L966.731 1286.55L757.834 1495.45L684.963 1422.58" stroke="#F1F1F1" stroke-width="4.9146"/>
<path d="M962.919 1146.71L839.038 1022.83L496.544 1365.33L620.425 1489.21" stroke="#F1F1F1" stroke-width="4.9146"/>
<path d="M648.941 823.335C597.619 811.981 469.902 814.343 380.52 903.725C271.518 1012.73 277.422 1132.18 281.737 1190.54" stroke="#F1F1F1" stroke-width="4.9146"/>
<circle cx="581.806" cy="1108.1" r="16.2201" transform="rotate(45 581.806 1108.1)" fill="#F1F1F1"/>
</g>
<rect x="3.28738" y="2.85281" width="1581.33" height="1581.61" stroke="#F1F1F1" stroke-width="4.9146"/>
<path d="M0.830078 528.715L1583.32 528.715" stroke="#F1F1F1" stroke-width="4.9146"/>
<path d="M0.830078 1057.04L1583.32 1057.04" stroke="#F1F1F1" stroke-width="4.9146"/>
<path d="M529.15 0.395508L529.15 1585.35" stroke="#F1F1F1" stroke-width="4.9146"/>
<path d="M1057.47 0.395508L1057.47 1585.35" stroke="#F1F1F1" stroke-width="4.9146"/>
<defs>
<clipPath id="clip0">
<rect width="528.32" height="528.32" fill="#F1F1F1" transform="translate(529.15 528.715)"/>
</clipPath>
<clipPath id="clip1">
<rect width="523.405" height="528.32" fill="#F1F1F1" transform="translate(1059.93 528.715)"/>
</clipPath>
<clipPath id="clip2">
<rect width="523.405" height="528.32" fill="#F1F1F1" transform="translate(3.28735 1057.04)"/>
</clipPath>
<clipPath id="clip3">
<rect width="528.32" height="528.32" fill="#F1F1F1" transform="translate(0.830078 0.395508)"/>
</clipPath>
<clipPath id="clip4">
<rect width="528.32" height="528.32" fill="#F1F1F1" transform="translate(529.15 0.395508)"/>
</clipPath>
<clipPath id="clip5">
<rect width="528.32" height="528.32" fill="#F1F1F1" transform="translate(1057.47 1057.04)"/>
</clipPath>
<clipPath id="clip6">
<rect width="528.32" height="528.32" fill="#F1F1F1" transform="translate(1057.47 0.395508)"/>
</clipPath>
<clipPath id="clip7">
<rect width="528.32" height="528.32" fill="#F1F1F1" transform="translate(0.830078 528.715)"/>
</clipPath>
<clipPath id="clip8">
<rect width="528.32" height="528.32" fill="#F1F1F1" transform="translate(529.15 1058.6)"/>
</clipPath>
</defs>
</svg>

