<svg width="16" height="20" viewBox="0 0 16 20" fill="none" xmlns="http://www.w3.org/2000/svg">
<path d="M9.33055 11.4268C9.33055 11.6556 9.54036 11.841 9.7991 11.841C10.0578 11.841 10.2677 11.6556 10.2677 11.4268C10.2677 10.4628 9.49445 9.65568 8.46761 9.46424V9.09786C8.46761 8.86906 8.25779 8.68359 7.99906 8.68359C7.74033 8.68359 7.53051 8.86906 7.53051 9.09786V9.46424C6.50367 9.65568 5.73047 10.4628 5.73047 11.4268C5.73047 12.3907 6.50367 13.1978 7.53051 13.3893V15.7115C7.02686 15.5436 6.66757 15.1131 6.66757 14.6098C6.66757 14.381 6.45776 14.1955 6.19902 14.1955C5.94029 14.1955 5.73047 14.381 5.73047 14.6098C5.73047 15.5738 6.50367 16.3809 7.53051 16.5723V16.9387C7.53051 17.1675 7.74033 17.353 7.99906 17.353C8.25779 17.353 8.46761 17.1675 8.46761 16.9387V16.5723C9.49445 16.3809 10.2677 15.5738 10.2677 14.6098C10.2677 13.6458 9.49445 12.8387 8.46761 12.6473V10.325C8.97126 10.493 9.33055 10.9234 9.33055 11.4268ZM6.66757 11.4268C6.66757 10.9234 7.02686 10.493 7.53051 10.325V12.5286C7.02686 12.3605 6.66757 11.9301 6.66757 11.4268ZM9.33055 14.6098C9.33055 15.1131 8.97126 15.5435 8.46761 15.7115V13.508C8.97126 13.676 9.33055 14.1064 9.33055 14.6098Z" fill="#373D40"/>
<path d="M9.16798 5.45584L11.5691 1.77879C11.6947 1.58652 11.6947 1.34964 11.5691 1.15738C11.4435 0.965119 11.2115 0.84668 10.9604 0.84668H5.03957C4.78847 0.84668 4.55644 0.965119 4.43092 1.15738C4.30539 1.34964 4.30534 1.58652 4.43092 1.77879L6.83206 5.45584C2.9725 5.95719 0 8.90397 0 12.4534V17.2244C0 18.5775 1.24513 19.6784 2.77561 19.6784H13.2244C14.7549 19.6784 16 18.5775 16 17.2244V12.4534C16 8.90397 13.0275 5.95719 9.16798 5.45584ZM9.74308 2.08949L8.00002 4.75883L6.25691 2.08949H9.74308ZM14.5943 17.2244C14.5943 17.8922 13.9798 18.4356 13.2244 18.4356H2.77561C2.02021 18.4356 1.40566 17.8922 1.40566 17.2244V12.4534C1.40566 9.23853 4.36391 6.62304 8.00002 6.62304C11.6361 6.62304 14.5943 9.23853 14.5943 12.4534V17.2244Z" fill="#373D40"/>
</svg>
