<svg width="24" height="24" viewBox="0 0 24 24" fill="none" xmlns="http://www.w3.org/2000/svg">
<path fill-rule="evenodd" clip-rule="evenodd" d="M17.3214 13.0952H8.45238L7.14286 15.4762H21.4286V17.8571H7.14286C5.33333 17.8571 4.19048 15.9167 5.05952 14.3214L6.66667 11.4167L2.38095 2.38095H0V0H3.89286L8.96429 10.7143H17.3214L21.9286 2.38095L24 3.52381L19.4048 11.869C19 12.6071 18.2143 13.0952 17.3214 13.0952ZM7.14287 19.0476C5.83334 19.0476 4.77382 20.119 4.77382 21.4286C4.77382 22.7381 5.83334 23.8095 7.14287 23.8095C8.45239 23.8095 9.52382 22.7381 9.52382 21.4286C9.52382 20.119 8.45239 19.0476 7.14287 19.0476ZM19.0476 19.0476C17.7381 19.0476 16.6786 20.119 16.6786 21.4286C16.6786 22.7381 17.7381 23.8095 19.0476 23.8095C20.3572 23.8095 21.4286 22.7381 21.4286 21.4286C21.4286 20.119 20.3572 19.0476 19.0476 19.0476Z" fill="white"/>
</svg>
