<svg width="19" height="17" viewBox="0 0 19 17" fill="none" xmlns="http://www.w3.org/2000/svg">
<path d="M18.3624 3.0468L17.0305 3.04674V1.66806C17.0305 1.35241 16.7996 1.08424 16.4874 1.03754C16.4329 1.02935 15.1354 0.840886 13.573 1.12518C11.8312 1.4421 10.4421 2.22366 9.49997 3.40518C8.55778 2.22366 7.16867 1.4421 5.42694 1.12518C3.86447 0.84095 2.56697 1.02935 2.51253 1.03754C2.20035 1.0843 1.9694 1.35248 1.9694 1.66806V3.04674H0.637553C0.285511 3.04674 0 3.33225 0 3.68435V15.6988C0 15.9052 0.0999256 16.0989 0.268238 16.2185C0.436551 16.3381 0.652331 16.3688 0.847256 16.3009C0.895108 16.2843 5.67279 14.6538 9.23538 16.2788C9.4035 16.3555 9.5965 16.3555 9.76462 16.2788C13.3172 14.6584 18.1051 16.2845 18.1527 16.3009C18.2211 16.3247 18.2918 16.3364 18.3623 16.3364C18.493 16.3364 18.6224 16.2962 18.7318 16.2186C18.9001 16.0989 19 15.9053 19 15.6988V3.68442C18.9999 3.33231 18.7145 3.0468 18.3624 3.0468ZM1.27517 14.8457V4.32191H1.9694V12.8128C1.9694 12.998 2.05046 13.174 2.19062 13.2951C2.33079 13.4162 2.5172 13.4705 2.70042 13.4434C2.73561 13.4383 5.50538 13.058 7.52896 14.4465C5.03626 14.0202 2.54145 14.5132 1.27517 14.8457ZM8.86241 13.8715C7.97114 13.0662 6.81023 12.5216 5.42694 12.27C4.76124 12.1488 4.14365 12.1135 3.64978 12.1135C3.50315 12.1135 3.3674 12.1166 3.24464 12.1215V2.25354H3.24457C4.46997 2.19826 7.45092 2.32928 8.86241 4.72206V13.8715ZM10.1375 4.72212C11.544 2.33958 14.5296 2.20261 15.7554 2.25513V12.1215C15.2191 12.0999 14.4362 12.1128 13.573 12.27C12.1897 12.5216 11.0288 13.0661 10.1375 13.8715V4.72212ZM11.4689 14.4468C13.4927 13.0576 16.2639 13.4382 16.2985 13.4434C16.4822 13.4709 16.6684 13.4169 16.8091 13.2959C16.9497 13.1747 17.0305 12.9984 17.0305 12.8128V4.32197H17.7248V14.8457C16.4581 14.5131 13.9623 14.0199 11.4689 14.4468Z" fill="black"/>
</svg>
