<svg width="194" height="201" viewBox="0 0 194 201" fill="none" xmlns="http://www.w3.org/2000/svg">
<path d="M165.261 142.316C152.481 113.473 123.936 92.5465 94.6913 82.3983C80.5089 77.4385 65.6983 74.6051 50.6862 73.5585C37.2063 72.6848 19.7536 71.4923 7.59454 78.3935C3.4468 80.7694 -0.316533 74.0115 3.23596 71.1808C13.6092 62.9149 31.373 64.7888 43.8313 65.5473C61.4262 66.6266 78.7617 70.0032 95.2696 76.1301C125.676 87.4433 155.296 110.301 167.732 141.044C168.439 142.804 165.996 143.821 165.261 142.316Z" fill="white"/>
<path d="M165.339 146.202C162.753 131.305 141.123 99.5253 157.891 86.164C160.591 84.0127 163.99 88.2735 161.29 90.4249C153.674 96.0289 157.736 110.446 159.966 118.195C162.646 127.674 167.145 135.936 168.348 145.895C168.657 147.74 165.762 148.189 165.339 146.202Z" fill="white"/>
<path d="M166.449 143.226C160.614 136.493 154.01 130.836 147.578 124.812C141.145 118.787 136.836 115.716 128.639 112.724C127.022 112.153 127.113 109.062 129.043 109.15C136.167 109.048 141.921 113.058 146.51 118.229C153.763 126.155 161.299 133.856 167.841 142.349C168.805 142.974 167.384 144.107 166.449 143.226Z" fill="white"/>
</svg>
