<svg width="58" height="57" viewBox="0 0 58 57" fill="none" xmlns="http://www.w3.org/2000/svg">
<path d="M20.6897 28.5992L20.6549 28.5992L20.6538 28.5992C15.0535 28.6111 9.84928 30.7893 5.99236 34.7563C2.07374 38.7609 -0.0606844 44.2268 -0.0487857 50.1397L-0.048766 50.1424C-0.0454885 50.5875 0.128881 51.0143 0.438386 51.3343L0.438336 51.3344L0.44423 51.3403C0.762873 51.6589 1.19661 51.8368 1.64798 51.8328C1.6488 51.8328 1.64962 51.8328 1.65044 51.8328L33.7668 51.7731L34.2659 51.7722V51.2731V48.8849V48.384L33.765 48.3849L3.40972 48.4436C3.75859 44.0723 5.51667 40.1029 8.4156 37.126L8.41592 37.1257C11.628 33.8212 15.9759 31.9988 20.6555 31.9874L20.6908 31.9874L20.6934 31.9873C25.1191 31.9642 29.3798 33.6662 32.5721 36.7316L32.9318 37.077L33.2782 36.7182L34.9377 34.9989L35.2859 34.6382L34.9243 34.291C31.0985 30.6173 25.9938 28.5756 20.6897 28.5992Z" fill="#E9E9E9" stroke="#E9E9E9"/>
<path d="M20.6657 26.7572H20.6662C27.9128 26.7572 33.7875 20.8825 33.7875 13.6359C33.7875 6.38889 27.9127 0.514648 20.6662 0.514648C13.4197 0.514648 7.54492 6.38889 7.54492 13.6359L7.54492 13.6364C7.55171 20.8798 13.4219 26.7504 20.6657 26.7572ZM20.6666 3.9028C26.0421 3.903 30.3993 8.26039 30.3993 13.6359C30.3993 19.0116 26.0419 23.3691 20.6662 23.3691C15.2907 23.3691 10.9333 19.0118 10.9331 13.6363C10.9394 8.26315 15.2934 3.90912 20.6666 3.9028Z" fill="#E9E9E9" stroke="#E9E9E9"/>
<path d="M44.4883 30.2161C37.2343 30.2161 31.3535 36.0969 31.3535 43.3509C31.3535 50.6053 37.2343 56.4857 44.4883 56.4857C51.7424 56.4857 57.6232 50.6053 57.6232 43.3509C57.6409 39.8619 56.263 36.5106 53.7956 34.0436C51.3286 31.5766 47.9773 30.1983 44.4883 30.2161ZM44.4883 54.0975C38.5529 54.0975 33.7417 49.2863 33.7417 43.3509C33.7417 37.4159 38.5529 32.6042 44.4883 32.6042C50.4237 32.6042 55.235 37.4159 55.235 43.3509C55.235 49.2863 50.4237 54.0975 44.4883 54.0975Z" fill="#FFC700"/>
<path d="M47.3908 45.5244L44.6206 43.745V37.7746C44.6206 37.115 44.0856 36.5805 43.4265 36.5805C42.767 36.5805 42.2324 37.115 42.2324 37.7746V44.39C42.2297 44.7968 42.4372 45.176 42.7814 45.3929L46.1011 47.5184C46.2923 47.6444 46.5167 47.7106 46.7457 47.7092C47.2728 47.7101 47.7373 47.3636 47.8866 46.8584C48.0354 46.3528 47.8334 45.8094 47.3908 45.5244Z" fill="#FFC700"/>
</svg>
