<svg width="515" height="497" viewBox="0 0 515 497" fill="none" xmlns="http://www.w3.org/2000/svg">
<path d="M480.552 271.656C480.552 394.258 373.851 494 241.776 494C109.701 494 3 394.258 3 271.656C3 149.055 109.701 49.3125 241.776 49.3125C373.851 49.3125 480.552 149.055 480.552 271.656Z" fill="black" stroke="#FFC700" stroke-width="6"/>
<path d="M106.055 312.506L110.754 303.249L114.087 296.694H119.753H121.02L150.884 198.995L145.184 188.713H120.353H106.388" fill="#FFC700"/>
<path d="M106.69 312.506L101.991 303.249L98.6909 296.694H93.0248H91.7249L61.8945 198.995L67.5606 188.713H92.3915H106.39" fill="#FFC700"/>
<path d="M137.822 339.719H74.3281L84.3938 312.506H127.756L137.822 339.719Z" fill="#FFC700"/>
<path d="M153.25 239.349H133.385V246.059H136.018H142.817L145.45 248.513L140.651 263.983L138.284 266.158H117.453V272.899H145.384L155.183 241.244L153.25 239.349Z" fill="#FFC700"/>
<path d="M59.4917 239.349H79.3564V246.059H76.7234H69.924L67.3243 248.513L72.0905 263.983L74.4569 266.158H95.2882V272.899H67.3576L57.5586 241.244L59.4917 239.349Z" fill="#FFC700"/>
<path d="M178.582 231.893V196.883H168.25V185.917H203.746V196.883H193.314V231.893H178.582Z" fill="white"/>
<path d="M234.177 231.893V214.59H226.644V231.893H211.879V185.917H226.644V203.034H234.11V185.917H248.975V231.893H234.177Z" fill="white"/>
<path d="M259.703 231.893V185.917H290.433V196.417H274.435V203.5H287.767V213.844H274.435V221.393H290.433V231.893H259.703Z" fill="white"/>
<path d="M170.816 239.505H187.115C191.812 239.215 196.521 239.883 200.913 241.462C202.205 242.071 203.33 242.948 204.202 244.025C205.074 245.102 205.671 246.35 205.946 247.675C206.734 252.536 207.057 257.453 206.913 262.368C207.058 267.294 206.735 272.221 205.946 277.093C205.68 278.421 205.087 279.673 204.214 280.751C203.341 281.829 202.211 282.704 200.913 283.306C196.529 284.914 191.816 285.593 187.115 285.294H170.816V239.505ZM187.248 275.012C188.395 275.078 189.541 274.875 190.581 274.421C190.958 274.036 191.249 273.586 191.438 273.095C191.627 272.604 191.709 272.084 191.681 271.563C191.681 270.072 191.881 267.09 191.881 262.586C191.881 258.081 191.881 254.944 191.681 253.453C191.733 252.408 191.351 251.384 190.614 250.595C189.517 250.101 188.295 249.897 187.081 250.005H185.382V275.012H187.248Z" fill="white"/>
<path d="M242.575 285.511L241.076 278.149H229.443L228.01 285.511H213.512L224.911 239.504H245.942L257.274 285.511H242.575ZM235.476 251.06H234.91L231.577 267.991H238.876L235.476 251.06Z" fill="white"/>
<path d="M264.609 285.511V239.504H279.375V285.511H264.609Z" fill="white"/>
<path d="M290.137 285.511V239.504H304.902V274.545H318.634V285.511H290.137Z" fill="white"/>
<path d="M331.902 285.511V270.476L318.57 239.411H333.635L339.368 257.273H339.968L345.568 239.411H360.266L346.934 270.476V285.511H331.902Z" fill="white"/>
<path d="M178.548 339.315C175.448 339.098 172.849 338.787 170.682 338.445V328.536C176.182 328.939 180.114 329.157 182.514 329.157C183.802 329.229 185.093 329.229 186.38 329.157C186.979 329.133 187.557 328.95 188.047 328.629C188.338 328.357 188.535 328.011 188.614 327.635C188.68 327.036 188.68 326.432 188.614 325.833C188.666 325.013 188.553 324.191 188.28 323.41C188.144 323.149 187.948 322.92 187.706 322.737C187.464 322.555 187.182 322.424 186.88 322.354C185.718 321.983 184.526 321.703 183.314 321.515L176.048 320.521C174.889 320.378 173.798 319.932 172.901 319.233C172.004 318.535 171.338 317.613 170.982 316.576C169.885 313.419 169.4 310.105 169.549 306.79C169.357 303.707 170.108 300.637 171.715 297.937C173.09 295.928 175.197 294.449 177.648 293.774C180.651 292.989 183.762 292.623 186.88 292.687C189.576 292.692 192.268 292.838 194.946 293.122C197.613 293.432 199.746 293.712 201.312 294.023V303.808C197.485 303.391 193.634 303.183 189.78 303.187C188.469 303.187 187.469 303.187 186.78 303.187C186.26 303.216 185.756 303.365 185.314 303.622C184.946 303.89 184.678 304.26 184.547 304.678C184.365 305.231 184.287 305.809 184.314 306.386C184.272 307.067 184.351 307.749 184.547 308.406C184.608 308.611 184.717 308.802 184.867 308.963C185.017 309.124 185.204 309.252 185.414 309.338C186.162 309.626 186.946 309.824 187.747 309.928L194.146 310.798C195.819 311.043 197.44 311.536 198.946 312.258C200.426 313.085 201.592 314.323 202.279 315.799C203.325 318.494 203.79 321.355 203.645 324.218C203.866 327.681 203.156 331.14 201.579 334.283C200.424 336.363 198.436 337.937 196.046 338.663C193.152 339.418 190.152 339.764 187.147 339.688C184.447 339.657 181.614 339.532 178.548 339.315Z" fill="white"/>
<path d="M220.676 339.098V304.15H210.344V293.091H245.874V304.15H235.475V339.098H220.676Z" fill="white"/>
<path d="M276.806 339.098L275.273 331.766H263.674L262.241 339.098H247.742L259.141 293.091H280.172L291.505 339.098H276.806ZM269.707 304.678H269.107L265.774 321.577H273.306L269.707 304.678Z" fill="white"/>
<path d="M322.636 339.098L314.47 320.987H313.603V339.098H298.805V293.091H313.603V310.363H314.47L322.869 292.967H338.501L326.369 314.712L338.634 338.973L322.636 339.098Z" fill="white"/>
<path d="M346.164 339.098V293.091H376.861V303.591H360.863V310.705H374.195V321.049H360.863V328.598H376.861V339.098H346.164Z" fill="white"/>
<path d="M394.925 342.315C391.825 342.098 389.226 341.787 387.059 341.446V331.536C392.559 331.94 396.492 332.157 398.891 332.157C400.179 332.229 401.47 332.229 402.758 332.157C403.356 332.133 403.934 331.95 404.424 331.629C404.715 331.358 404.912 331.012 404.991 330.635C405.057 330.036 405.057 329.432 404.991 328.833C405.043 328.013 404.93 327.192 404.657 326.41C404.521 326.15 404.325 325.92 404.083 325.738C403.841 325.555 403.559 325.424 403.258 325.354C402.025 325.026 400.765 324.797 399.491 324.671L392.225 323.677C391.074 323.521 389.994 323.065 389.11 322.361C388.225 321.657 387.572 320.735 387.226 319.7C386.129 316.544 385.644 313.23 385.793 309.915C385.582 306.801 386.334 303.696 387.959 300.968C389.333 298.959 391.44 297.481 393.892 296.806C396.895 296.021 400.006 295.654 403.124 295.718C405.819 295.724 408.512 295.869 411.19 296.153C413.856 296.464 415.99 296.743 417.556 297.054V306.839C413.728 306.422 409.878 306.215 406.024 306.218C404.735 306.218 403.735 306.218 403.024 306.218C402.504 306.247 402 306.397 401.558 306.653C401.191 306.929 400.914 307.295 400.758 307.709C400.606 308.267 400.539 308.842 400.558 309.418C400.529 310.096 400.596 310.775 400.758 311.437C400.83 311.642 400.947 311.831 401.102 311.991C401.257 312.152 401.446 312.28 401.658 312.369C402.405 312.657 403.189 312.856 403.991 312.959L410.39 313.829C412.063 314.075 413.683 314.568 415.19 315.289C416.67 316.116 417.836 317.355 418.523 318.83C419.569 321.525 420.033 324.386 419.889 327.249C420.11 330.712 419.399 334.172 417.823 337.314C416.668 339.395 414.68 340.968 412.29 341.694C409.395 342.449 406.396 342.795 403.391 342.719C400.824 342.657 397.991 342.533 394.925 342.315Z" fill="white"/>
</svg>
