<svg width="63" height="63" viewBox="0 0 63 63" fill="none" xmlns="http://www.w3.org/2000/svg">
<g clip-path="url(#clip0)">
<path d="M55.8895 6.68546C51.7926 2.58908 46.3458 0.332764 40.5522 0.332764C34.7586 0.332764 29.3123 2.58908 25.2154 6.68546C21.1186 10.7823 18.8627 16.2292 18.8627 22.0227C18.8627 27.2066 20.6692 32.1128 23.9837 36.0223L19.5983 40.4077C17.35 39.2488 14.5142 39.6102 12.6321 41.4923L1.99237 52.1325C0.863739 53.2611 0.242188 54.7616 0.242188 56.3575C0.242188 57.9535 0.863739 59.4539 1.99237 60.5826C3.15742 61.7472 4.68718 62.3299 6.21741 62.3299C7.74763 62.3299 9.27739 61.7472 10.4424 60.5826L21.0826 49.9424C22.2112 48.8143 22.8328 47.3138 22.8328 45.7174C22.8328 44.7472 22.6029 43.812 22.1691 42.9748L26.5526 38.5908C30.4626 41.9058 35.3688 43.7122 40.5527 43.7122C46.3463 43.7122 51.7931 41.4559 55.8895 37.3595C59.9859 33.2627 62.2422 27.8163 62.2422 22.0223C62.2422 16.2292 59.9859 10.7823 55.8895 6.68546ZM18.5136 47.3739L7.87346 58.0141C6.96053 58.927 5.47429 58.927 4.56088 58.0141C4.11861 57.5713 3.875 56.9834 3.875 56.3575C3.875 55.7317 4.11861 55.1438 4.56088 54.701L15.201 44.0613C16.114 43.1479 17.6002 43.1479 18.5136 44.0613C19.427 44.9747 19.427 46.4605 18.5136 47.3739ZM53.3205 34.7906C49.91 38.201 45.3756 40.0794 40.5522 40.0794C35.7293 40.0794 31.1949 38.201 27.7844 34.7906C24.3739 31.3801 22.4955 26.8457 22.4955 22.0227C22.4955 17.1993 24.3739 12.6649 27.7844 9.25444C31.1949 5.84395 35.7293 3.96558 40.5522 3.96558C45.3756 3.96558 49.91 5.84395 53.3205 9.25444C56.731 12.6649 58.6094 17.1993 58.6094 22.0223C58.6094 26.8457 56.731 31.3801 53.3205 34.7906Z" fill="#E9E9E9"/>
<path d="M31.3496 22.1434C30.3468 22.1434 29.5332 22.9565 29.5332 23.9598V29.7728C29.5332 30.776 30.3468 31.5892 31.3496 31.5892C32.3529 31.5892 33.166 30.776 33.166 29.7728V23.9598C33.166 22.9565 32.3529 22.1434 31.3496 22.1434Z" fill="#FFC700"/>
<path d="M37.4043 16.0887C36.4015 16.0887 35.5879 16.9018 35.5879 17.9051V29.7728C35.5879 30.776 36.4015 31.5892 37.4043 31.5892C38.4076 31.5892 39.2207 30.776 39.2207 29.7728V17.9051C39.2207 16.9018 38.4076 16.0887 37.4043 16.0887Z" fill="#FFC700"/>
<path d="M43.459 18.5106C42.4562 18.5106 41.6426 19.3237 41.6426 20.327V29.7728C41.6426 30.776 42.4562 31.5892 43.459 31.5892C44.4623 31.5892 45.2754 30.776 45.2754 29.7728V20.327C45.2754 19.3237 44.4623 18.5106 43.459 18.5106Z" fill="#FFC700"/>
<path d="M49.5137 12.4559C48.5109 12.4559 47.6973 13.269 47.6973 14.2723V29.7728C47.6973 30.776 48.5109 31.5892 49.5137 31.5892C50.517 31.5892 51.3301 30.776 51.3301 29.7728V14.2723C51.3301 13.269 50.517 12.4559 49.5137 12.4559Z" fill="#FFC700"/>
</g>
<defs>
<clipPath id="clip0">
<rect width="62" height="62" fill="white" transform="translate(0.242188 0.332764)"/>
</clipPath>
</defs>
</svg>
