<svg width="61" height="60" viewBox="0 0 61 60" fill="none" xmlns="http://www.w3.org/2000/svg">
<g clip-path="url(#clip0)">
<path d="M35.4297 53.0183C34.7828 53.0183 34.2578 53.5346 34.2578 54.1707C34.2578 54.8067 34.7828 55.323 35.4297 55.323C36.0766 55.323 36.6016 54.8067 36.6016 54.1707C36.6016 53.5346 36.0766 53.0183 35.4297 53.0183Z" fill="#FFC700"/>
<path d="M51.8359 6.23315H48.3203V4.3894C48.3203 2.4832 46.7432 0.932373 44.8047 0.932373H16.6797C14.7412 0.932373 13.1641 2.4832 13.1641 4.3894V6.23315H9.64844C7.70992 6.23315 6.13281 7.78398 6.13281 9.69019C6.13281 17.187 9.70023 22.6963 15.4877 24.2302C17.4716 28.5244 20.6085 32.1749 24.5901 34.8128C25.5072 35.4204 26.0547 36.4606 26.0547 37.5953V43.9446C25.2514 44.1472 24.5144 44.5579 23.9124 45.15C23.0268 46.0209 22.5391 47.1782 22.5391 48.4089H21.3672C19.4287 48.4089 17.8516 49.9598 17.8516 51.866V58.78C17.8516 59.4165 18.3763 59.9324 19.0234 59.9324H42.4609C43.108 59.9324 43.6328 59.4165 43.6328 58.78V51.866C43.6328 49.9598 42.0557 48.4089 40.1172 48.4089H38.9453C38.9453 46.2651 37.4492 44.4584 35.4297 43.9454V37.6011C35.4297 36.4627 35.9775 35.4205 36.8955 34.8129C40.8774 32.1748 44.0143 28.5242 45.9981 24.2299C51.7847 22.6954 55.3516 17.1864 55.3516 9.69019C55.3516 7.78398 53.7745 6.23315 51.8359 6.23315ZM8.47656 9.69019C8.47656 9.05478 9.00227 8.53784 9.64844 8.53784H13.1641V13.6888C13.1641 16.3156 13.5687 18.8878 14.3676 21.365C10.6383 19.5486 8.47656 15.3535 8.47656 9.69019ZM40.1172 50.7136C40.7634 50.7136 41.2891 51.2306 41.2891 51.866V57.6277H20.1953V51.866C20.1953 51.2306 20.721 50.7136 21.3672 50.7136H40.1172ZM45.9766 13.6888C45.9766 16.8366 45.3393 19.8995 44.0821 22.7923C42.2938 26.9082 39.3559 30.4038 35.5863 32.9013C34.0206 33.9376 33.0859 35.6945 33.0859 37.6011V44.9519C33.0859 45.5883 33.6107 46.1042 34.2578 46.1042C35.5502 46.1042 36.6016 47.1381 36.6016 48.4089H24.8828C24.8828 47.7938 25.1268 47.2152 25.5696 46.7796C25.9908 46.3655 26.5436 46.1283 27.1347 46.106C27.165 46.1083 27.1956 46.1094 27.2264 46.1094C27.8736 46.1094 28.3983 45.5883 28.3983 44.9519V37.5953C28.3983 35.6928 27.4642 33.9381 25.8996 32.9015C22.1296 30.4039 19.1917 26.9083 17.4032 22.7921C16.1455 19.9003 15.5078 16.8375 15.5078 13.6888V4.3894C15.5078 3.754 16.0335 3.23706 16.6797 3.23706H44.8047C45.4509 3.23706 45.9766 3.754 45.9766 4.3894V13.6888ZM47.1173 21.3648C47.9158 18.887 48.3203 16.3149 48.3203 13.6888V8.53784H51.8359C52.4821 8.53784 53.0078 9.05478 53.0078 9.69019C53.0078 15.3531 50.8463 19.5481 47.1173 21.3648Z" fill="white"/>
<path d="M40.0164 14.5485C39.8787 14.1312 39.5119 13.8271 39.0703 13.7642L34.013 13.0423L31.7509 8.53495C31.5534 8.14154 31.1461 7.89252 30.6999 7.89252C30.2538 7.89252 29.8465 8.14154 29.649 8.53495L27.3869 13.0423L22.3297 13.7642C21.8882 13.8272 21.5215 14.1313 21.3835 14.5485C21.2457 14.9657 21.3607 15.4237 21.6801 15.7298L25.3404 19.2376L24.4765 24.1912C24.4011 24.6235 24.5818 25.0604 24.9428 25.3183C25.3037 25.576 25.7822 25.61 26.1769 25.406L30.7001 23.0675L35.2243 25.406C35.6216 25.6113 36.0998 25.5744 36.4584 25.3181C36.8192 25.0602 36.9999 24.6233 36.9245 24.1909L36.0596 19.2375L39.7198 15.7298C40.0393 15.4237 40.1542 14.9657 40.0164 14.5485ZM33.9825 18.0099C33.7063 18.2747 33.5801 18.6562 33.6455 19.0301L34.2128 22.2794L31.2452 20.7455C30.9036 20.5691 30.4958 20.5691 30.1547 20.7456L27.1881 22.2794L27.7548 19.0299C27.8199 18.656 27.6939 18.2746 27.4176 18.0099L25.0172 15.7093L28.3337 15.2359C28.7155 15.1814 29.0455 14.9457 29.2162 14.6055L30.7001 11.6487L32.1839 14.6055C32.3546 14.9457 32.6846 15.1814 33.0664 15.2359L36.3831 15.7093L33.9825 18.0099Z" fill="#FFC700"/>
<path d="M30.7422 53.0183H26.0547C25.4076 53.0183 24.8828 53.5342 24.8828 54.1707C24.8828 54.8071 25.4076 55.323 26.0547 55.323H30.7422C31.3893 55.323 31.9141 54.8071 31.9141 54.1707C31.9141 53.5342 31.3893 53.0183 30.7422 53.0183Z" fill="#FFC700"/>
<path d="M48.791 56.4753H49.4443C49.1115 56.4105 48.8877 56.404 48.791 56.4753Z" fill="black"/>
</g>
<defs>
<clipPath id="clip0">
<rect width="60" height="59" fill="white" transform="translate(0.742188 0.932373)"/>
</clipPath>
</defs>
</svg>
