<svg width="17" height="25" viewBox="0 0 17 25" fill="none" xmlns="http://www.w3.org/2000/svg">
<g clip-path="url(#clip0)">
<path d="M14.0828 0.960938H2.01183C0.902654 0.960938 0 2.30255 0 3.95113V21.8923C0 23.5409 0.902654 24.8825 2.01183 24.8825H14.0828C15.192 24.8825 16.0947 23.5409 16.0947 21.8923V3.95113C16.0947 2.30255 15.192 0.960938 14.0828 0.960938ZM14.7534 21.8923C14.7534 22.4425 14.4523 22.889 14.0828 22.889H2.01183C1.64232 22.889 1.34123 22.4425 1.34123 21.8923V3.95113C1.34123 3.40192 1.64235 2.95442 2.01183 2.95442H14.0828C14.4524 2.95442 14.7534 3.40197 14.7534 3.95113V21.8923Z" fill="#373D40"/>
<path d="M4.64109 6.56231C4.60755 6.43275 4.56062 6.33304 4.50026 6.23338C4.46672 6.19353 4.43321 6.15363 4.39967 6.11378C4.35944 6.07392 4.3192 6.04402 4.27896 6.02407C4.23873 5.99417 4.19849 5.97422 4.15825 5.96427C4.02412 5.92441 3.89002 5.94432 3.76931 6.02407C3.68883 6.07392 3.61505 6.14368 3.548 6.23338C3.48765 6.33304 3.44072 6.43275 3.40718 6.56231C3.37363 6.68192 3.35352 6.81147 3.35352 6.94108C3.35352 7.07069 3.37363 7.20025 3.40718 7.31986C3.44072 7.44942 3.48765 7.54912 3.548 7.64878C3.67541 7.82819 3.84978 7.93785 4.02415 7.93785C4.06439 7.93785 4.11132 7.92789 4.15828 7.9179C4.19852 7.90794 4.23876 7.88799 4.27899 7.85809C4.31923 7.83814 4.35947 7.80824 4.3997 7.76839C4.43325 7.72853 4.46675 7.68863 4.5003 7.64878C4.62101 7.45941 4.69478 7.20025 4.69478 6.94108C4.69472 6.81152 4.6746 6.68192 4.64109 6.56231Z" fill="#373D40"/>
<path d="M12.0707 5.94434H6.70576C6.33558 5.94434 6.03516 6.39086 6.03516 6.94106C6.03516 7.49125 6.33558 7.93777 6.70576 7.93777H12.0707C12.4408 7.93777 12.7413 7.49125 12.7413 6.94106C12.7413 6.39086 12.4408 5.94434 12.0707 5.94434Z" fill="#373D40"/>
<path d="M4.68133 12.7221C4.67463 12.6623 4.66121 12.6025 4.64109 12.5427C4.62767 12.4829 4.60755 12.4231 4.58074 12.3633C4.55392 12.3134 4.52708 12.2636 4.50026 12.2137C4.43321 12.124 4.35944 12.0543 4.27896 12.0044C4.11801 11.9048 3.93025 11.9048 3.76931 12.0044C3.68883 12.0543 3.61505 12.124 3.548 12.2137C3.52119 12.2636 3.49434 12.3134 3.46753 12.3633C3.44072 12.4231 3.4206 12.4829 3.40718 12.5427C3.38706 12.6025 3.37363 12.6623 3.36694 12.7221C3.36024 12.7918 3.35352 12.8616 3.35352 12.9214C3.35352 13.1806 3.42729 13.4397 3.548 13.6291C3.67541 13.8086 3.84978 13.9182 4.02415 13.9182C4.19852 13.9182 4.37286 13.8086 4.5003 13.6291C4.62101 13.4398 4.69478 13.1806 4.69478 12.9214C4.69472 12.8616 4.68803 12.7919 4.68133 12.7221Z" fill="#373D40"/>
<path d="M12.0707 11.9248H6.70576C6.33558 11.9248 6.03516 12.3713 6.03516 12.9215C6.03516 13.4717 6.33558 13.9182 6.70576 13.9182H12.0707C12.4408 13.9182 12.7413 13.4717 12.7413 12.9215C12.7413 12.3713 12.4408 11.9248 12.0707 11.9248Z" fill="#373D40"/>
<path d="M4.64109 18.5236C4.60755 18.394 4.56062 18.2943 4.50026 18.1946C4.3125 17.9245 4.01742 17.8358 3.76931 17.9853C3.68883 18.0352 3.61505 18.1049 3.548 18.1946C3.48765 18.2943 3.44072 18.404 3.40718 18.5236C3.37363 18.6432 3.35352 18.7727 3.35352 18.9023C3.35352 19.1715 3.42057 19.4206 3.548 19.61C3.67541 19.7984 3.84308 19.8991 4.02415 19.8991C4.20522 19.8991 4.37286 19.7984 4.5003 19.61C4.6277 19.4207 4.69478 19.1715 4.69478 18.9023C4.69472 18.7728 4.68133 18.6432 4.64109 18.5236Z" fill="#373D40"/>
<path d="M12.0707 17.9053H6.70576C6.33558 17.9053 6.03516 18.3508 6.03516 18.902C6.03516 19.4532 6.33558 19.8987 6.70576 19.8987H12.0707C12.4408 19.8987 12.7413 19.4532 12.7413 18.902C12.7413 18.3508 12.4408 17.9053 12.0707 17.9053Z" fill="#373D40"/>
</g>
<defs>
<clipPath id="clip0">
<rect width="16.0947" height="23.9216" fill="white" transform="translate(0 0.960938)"/>
</clipPath>
</defs>
</svg>
