<svg width="62" height="63" viewBox="0 0 62 63" fill="none" xmlns="http://www.w3.org/2000/svg">
<path d="M61.2665 59.358L35.4014 24.8711C34.7157 23.9572 33.8442 23.2874 32.8851 22.9147V14.3218H45.4659C45.4668 14.3218 45.4673 14.3213 45.4682 14.3218C46.4562 14.3218 47.257 13.5205 47.257 12.533C47.257 12.0108 47.0334 11.5408 46.677 11.2143L43.2057 7.743L46.7306 4.21769C47.2425 3.70622 47.3953 2.93669 47.1186 2.26824C46.8419 1.60025 46.1893 1.16425 45.4659 1.16425H31.0963C30.1083 1.16425 29.3076 1.96499 29.3076 2.95299V22.9147C28.3485 23.2874 27.4769 23.9572 26.7917 24.8711L0.926186 59.358C0.519526 59.9002 0.454312 60.625 0.757094 61.2311C1.06034 61.8371 1.67988 62.22 2.35718 62.22H59.8355C60.5132 62.22 61.1323 61.8371 61.4356 61.2311C61.7383 60.6255 61.6731 59.9002 61.2665 59.358ZM32.8851 4.74173H41.1478L39.4112 6.47784C38.7129 7.17657 38.7129 8.30897 39.4112 9.0077L41.1478 10.7443H32.8851V4.74173ZM29.6537 27.0176C30.072 26.4596 30.5844 26.1526 31.0963 26.1526C31.6087 26.1526 32.1211 26.4601 32.5394 27.0176L41.0429 38.3557L37.226 42.5741L32.423 37.2661C32.0839 36.8911 31.6022 36.6773 31.0963 36.6773C30.5909 36.6773 30.1093 36.8911 29.7701 37.2661L24.9671 42.5741L21.1502 38.3557L29.6537 27.0176ZM5.93467 58.6425L18.9636 41.2708L23.6409 46.4399C23.9795 46.8149 24.4617 47.0287 24.9671 47.0287C25.4725 47.0287 25.9542 46.8149 26.2933 46.4399L31.0963 41.1319L35.8994 46.4399C36.2385 46.8149 36.7201 47.0287 37.2256 47.0287C37.731 47.0287 38.2126 46.8149 38.5522 46.4399L43.2295 41.2712L56.258 58.6425H5.93467Z" fill="#E9E9E9"/>
<g clip-path="url(#clip0)">
<path d="M61.2665 59.358L35.4014 24.8711C34.7157 23.9572 33.8442 23.2874 32.8851 22.9147V14.3218H45.4659C45.4668 14.3218 45.4673 14.3213 45.4682 14.3218C46.4562 14.3218 47.257 13.5205 47.257 12.533C47.257 12.0108 47.0334 11.5408 46.677 11.2143L43.2057 7.743L46.7306 4.21769C47.2425 3.70622 47.3953 2.93669 47.1186 2.26824C46.8419 1.60025 46.1893 1.16425 45.4659 1.16425H31.0963C30.1083 1.16425 29.3076 1.96499 29.3076 2.95299V22.9147C28.3485 23.2874 27.4769 23.9572 26.7917 24.8711L0.926186 59.358C0.519526 59.9002 0.454312 60.625 0.757094 61.2311C1.06034 61.8371 1.67988 62.22 2.35718 62.22H59.8355C60.5132 62.22 61.1323 61.8371 61.4356 61.2311C61.7383 60.6255 61.6731 59.9002 61.2665 59.358ZM32.8851 4.74173H41.1478L39.4112 6.47784C38.7129 7.17657 38.7129 8.30897 39.4112 9.0077L41.1478 10.7443H32.8851V4.74173ZM29.6537 27.0176C30.072 26.4596 30.5844 26.1526 31.0963 26.1526C31.6087 26.1526 32.1211 26.4601 32.5394 27.0176L41.0429 38.3557L37.226 42.5741L32.423 37.2661C32.0839 36.8911 31.6022 36.6773 31.0963 36.6773C30.5909 36.6773 30.1093 36.8911 29.7701 37.2661L24.9671 42.5741L21.1502 38.3557L29.6537 27.0176ZM5.93467 58.6425L18.9636 41.2708L23.6409 46.4399C23.9795 46.8149 24.4617 47.0287 24.9671 47.0287C25.4725 47.0287 25.9542 46.8149 26.2933 46.4399L31.0963 41.1319L35.8994 46.4399C36.2385 46.8149 36.7201 47.0287 37.2256 47.0287C37.731 47.0287 38.2126 46.8149 38.5522 46.4399L43.2295 41.2712L56.258 58.6425H5.93467Z" fill="#FFC700"/>
</g>
<defs>
<clipPath id="clip0">
<rect width="61.0265" height="21.0819" fill="white" transform="translate(0.714844 0.932373)"/>
</clipPath>
</defs>
</svg>
