<svg width="462" height="232" viewBox="0 0 462 232" fill="none" xmlns="http://www.w3.org/2000/svg">
<path d="M266.618 14.7861C243.629 11.4323 221.63 4.82312 198.328 2.25705C177.599 0.104398 156.402 -0.105846 135.63 1.67658C96.6031 5.02538 53.1348 15.7304 22.9263 42.0378C-3.51279 64.978 -6.78645 99.2466 13.1686 127.844C24.6983 143.976 41.1986 154.481 57.5945 165.248C77.3538 178.264 98.5229 188.495 120.893 196.468C167.893 213.614 218.287 224.508 268.141 229.107C312.748 233.143 360.127 234.023 403.537 221.167C437.564 211.272 474.387 186.68 457.132 146.691C442.357 111.942 400.64 88.3819 369.119 71.3029C321.992 45.2904 269.223 28.8932 216.211 19.9992C174.902 13.0177 123.577 7.52995 88.4948 36.1578C85.4053 38.5789 88.4092 44.028 92.1823 42.1824C126.456 26.3058 158.401 23.1843 195.612 28.2346C236.812 33.9571 277.448 44.9277 315.944 60.5205C352.602 75.3833 388.85 94.3396 419.657 119.343C432.326 129.543 445.37 142.627 449.555 158.881C456.442 185.937 431.139 201.424 409.489 209.243C371.643 223.397 329.62 224.339 289.532 222.706C245.875 220.872 202.887 213.528 160.467 202.457C119.098 191.803 81.4397 175.631 45.8096 152.056C13.5429 130.729 -13.2655 88.7693 16.3953 53.1242C43.65 20.4757 93.2006 8.23417 133.537 3.8853C155.147 1.52368 176.711 1.57563 198.174 3.41168C220.529 5.29801 245.352 7.86034 266.097 16.0991C267.251 16.2536 267.51 14.8364 266.618 14.7861Z" fill="#FFC700"/>
</svg>
