<svg width="337" height="157" viewBox="0 0 337 157" fill="none" xmlns="http://www.w3.org/2000/svg">
<rect x="0.395752" y="0.75" width="336.428" height="156.025" fill="#505054"/>
<mask id="mask0" mask-type="alpha" maskUnits="userSpaceOnUse" x="0" y="0" width="337" height="157">
<rect x="0.395752" y="0.75" width="336.428" height="156.025" fill="#C4C4C4"/>
</mask>
<g mask="url(#mask0)">
<path opacity="0.3" fill-rule="evenodd" clip-rule="evenodd" d="M98.6533 56.5708C118.642 73.6801 159.658 108.676 161.995 111.009C164.85 113.861 170.302 112.046 172.379 111.269C174.196 110.75 177.57 111.269 180.686 114.12C183.801 117.231 184.58 118.786 191.848 118.786C199.117 118.786 310.484 118.786 320.348 118.786C330.213 118.786 338.52 124.23 336.443 133.303C330.213 159.226 318.791 162.596 293.61 164.411C282.966 165.189 140.967 164.411 136.814 164.411C132.66 164.411 131.622 162.337 131.882 159.486C131.882 156.634 132.141 154.301 131.622 153.005C131.103 151.709 128.507 151.449 125.392 154.301C124.094 155.856 121.757 157.671 119.161 159.486C111.114 165.189 101.509 165.448 91.9038 165.189C66.7229 164.929 46.9937 154.042 40.2442 125.526C34.2734 100.381 32.9755 72.9024 32.7159 70.5693C32.4563 68.2362 30.3795 67.7177 28.0431 66.94C25.9664 66.1624 24.928 62.7924 24.1492 59.9408C23.3704 57.0893 10.3906 24.4261 7.53507 16.3899C4.16032 8.35376 2.60274 -2.79319 17.3997 -5.64473C32.1967 -8.49628 42.0613 -9.27397 46.7341 -9.5332C51.4068 -9.5332 57.8967 -9.01474 63.3482 1.61374C66.4634 7.8353 73.9916 22.093 79.9623 32.7215C88.2694 48.5346 85.4139 45.1646 98.6533 56.5708Z" stroke="#E1E1E1" stroke-width="2.8389" stroke-miterlimit="22.9256"/>
</g>
<path d="M84.8644 95.9453V69.1091H102.534V73.9068H90.4033V80.7329H101.091V85.5307H90.4033V95.9453H84.8644ZM114.571 96.2574C111.711 96.2574 109.643 95.9713 108.369 95.3992C107.121 94.8011 106.315 93.826 105.951 92.4738C105.613 91.1215 105.444 88.9502 105.444 85.9597C105.444 82.9693 105.613 80.8109 105.951 79.4847C106.315 78.1325 107.121 77.1703 108.369 76.5983C109.617 76.0262 111.685 75.7401 114.571 75.7401C117.458 75.7401 119.525 76.0262 120.773 76.5983C122.021 77.1703 122.815 78.1325 123.153 79.4847C123.517 80.8109 123.699 82.9693 123.699 85.9597C123.699 88.9502 123.517 91.1215 123.153 92.4738C122.815 93.826 122.008 94.8011 120.734 95.3992C119.486 95.9713 117.432 96.2574 114.571 96.2574ZM114.571 91.9667C115.923 91.9667 116.847 91.8367 117.341 91.5766C117.861 91.3166 118.173 90.8225 118.277 90.0944C118.407 89.3663 118.472 87.9881 118.472 85.9597C118.472 83.9314 118.407 82.5662 118.277 81.8641C118.173 81.136 117.861 80.6549 117.341 80.4209C116.847 80.1608 115.923 80.0308 114.571 80.0308C113.219 80.0308 112.283 80.1608 111.763 80.4209C111.269 80.6549 110.957 81.136 110.827 81.8641C110.723 82.5662 110.671 83.9314 110.671 85.9597C110.671 87.9881 110.723 89.3663 110.827 90.0944C110.957 90.8225 111.269 91.3166 111.763 91.5766C112.283 91.8367 113.219 91.9667 114.571 91.9667ZM128.468 76.0522H133.344L133.5 79.4847H133.812C134.306 78.0805 135.06 77.1053 136.074 76.5592C137.088 76.0132 138.453 75.7401 140.17 75.7401V80.8499C138.453 80.8499 137.127 81.084 136.191 81.552C135.255 81.9941 134.592 82.7352 134.202 83.7754C133.838 84.8156 133.656 86.2718 133.656 88.1441V95.9453H128.468V76.0522ZM167.067 85.4136C167.067 83.7754 167.002 82.6312 166.872 81.9811C166.741 81.305 166.468 80.8759 166.052 80.6939C165.662 80.4859 164.973 80.3819 163.985 80.3819C162.997 80.3819 162.269 80.5509 161.801 80.8889C161.333 81.201 161.021 81.7211 160.865 82.4492C160.709 83.1513 160.631 84.2175 160.631 85.6477V95.9453H155.443V85.4136C155.443 83.7754 155.378 82.6312 155.248 81.9811C155.118 81.305 154.845 80.8759 154.429 80.6939C154.038 80.4859 153.349 80.3819 152.361 80.3819C151.373 80.3819 150.645 80.5509 150.177 80.8889C149.709 81.201 149.397 81.7211 149.241 82.4492C149.085 83.1773 149.007 84.2435 149.007 85.6477V95.9453H143.819V76.0522H148.695L148.851 78.5096H149.124C149.618 77.5734 150.333 76.8843 151.269 76.4422C152.231 75.9742 153.427 75.7401 154.858 75.7401C156.418 75.7401 157.601 75.9612 158.407 76.4032C159.239 76.8453 159.837 77.5474 160.201 78.5096H160.513C161.502 76.6633 163.452 75.7401 166.364 75.7401C167.977 75.7401 169.212 76.0262 170.07 76.5983C170.928 77.1703 171.5 78.0155 171.786 79.1337C172.098 80.2258 172.254 81.6951 172.254 83.5414V95.9453H167.067V85.4136ZM190.358 93.4879H190.046C189.552 94.4501 188.811 95.1522 187.822 95.5943C186.834 96.0363 185.573 96.2574 184.039 96.2574C182.297 96.2574 180.97 95.9713 180.06 95.3992C179.15 94.8271 178.539 93.995 178.227 92.9028C177.915 91.8107 177.759 90.3414 177.759 88.4951V76.0522H182.947V86.5838C182.947 88.2221 183.012 89.3793 183.142 90.0554C183.298 90.7055 183.597 91.1346 184.039 91.3426C184.507 91.5246 185.3 91.6156 186.418 91.6156C187.51 91.6156 188.316 91.4466 188.837 91.1085C189.383 90.7705 189.734 90.2504 189.89 89.5483C190.072 88.8202 190.163 87.754 190.163 86.3498V76.0522H195.351V95.9453H190.514L190.358 93.4879ZM200.843 95.9453V66.9637H206.069V95.9453H200.843ZM216.499 96.2574C214.497 96.2574 213.002 95.8023 212.014 94.8921C211.051 93.982 210.57 92.4738 210.57 90.3674C210.57 88.8072 210.752 87.585 211.116 86.7008C211.48 85.8167 212.105 85.1796 212.989 84.7895C213.899 84.3735 215.173 84.1654 216.811 84.1654C218.163 84.1654 220.192 84.2175 222.896 84.3215V83.5804C222.896 82.4102 222.766 81.591 222.506 81.123C222.272 80.6549 221.817 80.3558 221.141 80.2258C220.465 80.0958 219.295 80.0308 217.63 80.0308C216.824 80.0308 215.823 80.0698 214.627 80.1478C213.431 80.2258 212.482 80.3038 211.779 80.3819V76.3642C214.198 75.9481 216.72 75.7401 219.347 75.7401C221.895 75.7401 223.793 76.0262 225.042 76.5983C226.29 77.1443 227.109 77.9765 227.499 79.0946C227.889 80.1868 228.084 81.7601 228.084 83.8144V95.9453H223.208L223.052 93.5269H222.779C222.181 94.6191 221.336 95.3472 220.244 95.7113C219.152 96.0753 217.903 96.2574 216.499 96.2574ZM218.957 92.1617C219.815 92.1617 220.504 92.0707 221.024 91.8887C221.57 91.6806 221.999 91.3556 222.311 90.9135C222.701 90.2894 222.896 89.3143 222.896 87.9881V87.364H218.215C217.435 87.364 216.863 87.429 216.499 87.559C216.135 87.663 215.888 87.884 215.758 88.2221C215.628 88.5601 215.563 89.0932 215.563 89.8213C215.563 90.5235 215.641 91.0305 215.797 91.3426C215.979 91.6546 216.291 91.8757 216.733 92.0057C217.201 92.1097 217.942 92.1617 218.957 92.1617ZM246.633 95.9453V75.272L241.406 77.4954V72.6976L248.35 69.1091H252.172V95.9453H246.633Z" fill="white"/>
</svg>
