<svg width="1229" height="607" viewBox="0 0 1229 607" fill="none" xmlns="http://www.w3.org/2000/svg">
<g opacity="0.05" clip-path="url(#clip0)">
<g clip-path="url(#clip1)">
<path fill-rule="evenodd" clip-rule="evenodd" d="M48.0414 1662.45C311.743 1436.73 852.844 975.05 883.667 944.271C921.338 906.652 993.257 930.591 1020.65 940.851C1044.63 947.691 1089.15 940.851 1130.24 903.232C1171.34 862.194 1181.61 841.674 1277.51 841.674C1373.4 841.674 2842.59 841.674 2972.73 841.674C3102.87 841.674 3212.46 769.857 3185.06 650.161C3102.87 308.173 2952.18 263.714 2619.99 239.775C2479.57 229.516 606.266 239.775 551.471 239.775C496.676 239.775 482.977 267.134 486.402 304.753C486.402 342.372 489.827 373.151 482.977 390.25C476.128 407.349 441.881 410.769 400.785 373.151C383.661 352.631 352.839 328.692 318.592 304.753C212.427 229.516 85.7129 226.096 -41.0008 229.515C-373.196 232.935 -633.473 376.57 -722.515 752.758C-801.283 1084.49 -818.406 1446.99 -821.831 1477.77C-825.256 1508.55 -852.653 1515.39 -883.475 1525.65C-910.873 1535.91 -924.572 1580.37 -934.846 1617.99C-945.12 1655.61 -1116.35 2086.51 -1154.03 2192.53C-1198.55 2298.54 -1219.1 2445.6 -1023.89 2483.22C-828.68 2520.84 -698.542 2531.1 -636.898 2534.52C-575.253 2534.52 -489.636 2527.68 -417.717 2387.46C-376.621 2305.38 -277.305 2117.29 -198.537 1977.08C-88.9465 1768.46 -126.618 1812.92 48.0414 1662.45Z" stroke="#F1F1F1" stroke-width="4.9146" stroke-miterlimit="22.9256"/>
</g>
<rect x="613.846" y="527.735" width="852.624" height="852.624" stroke="#F1F1F1" stroke-width="2.4573"/>
<g clip-path="url(#clip2)">
<path d="M2717.92 -2381.39L74.4273 -2381.39L74.4274 -116.98L26.9999 -116.98L26.9999 -106.552L74.4274 -106.552L74.4274 304.149L26.9999 304.149L26.9999 314.745L74.4274 314.745L74.4275 2579.32L2717.92 2579.32L2717.92 -2381.39ZM1706.81 104.18C1706.47 119.653 1705.13 134.789 1702.77 149.589C1702.6 150.43 1702.44 151.271 1702.27 152.112C1701.09 158.671 1699.91 165.062 1698.23 171.453C1697.39 175.153 1696.38 179.021 1695.37 182.553C1694.53 185.917 1693.35 189.449 1692.34 192.812C1676.87 241.585 1649.63 285.145 1614.14 320.127C1608.93 325.34 1603.38 330.386 1597.83 335.095C1594.13 338.29 1590.26 341.486 1586.39 344.345C1583.36 346.7 1580.17 349.054 1576.97 351.409C1526.01 387.904 1463.62 409.432 1396.34 409.432C1330.08 409.432 1268.69 388.577 1218.24 353.091C1214.2 350.231 1210.16 347.372 1206.3 344.345C1202.43 341.318 1198.56 338.29 1194.86 335.095C1192 332.74 1189.31 330.218 1186.62 327.695C1183.93 325.172 1181.24 322.649 1178.55 320.127C1162.74 304.654 1148.61 287.331 1136.5 268.831C1133.81 264.795 1131.12 260.59 1128.6 256.217C1110.94 226.281 1098.32 193.317 1091.43 158.167C1090.42 153.121 1089.58 148.076 1088.91 143.03C1087.06 130.248 1086.05 117.298 1085.88 104.012L1706.81 104.012L1706.81 104.18ZM1075.11 104.18C1077.97 278.922 1220.93 420.195 1396.18 420.195C1571.59 420.195 1714.38 278.922 1717.24 104.18L2707.5 104.18L2707.5 1462.93L2633.83 1462.93L2633.83 1473.36L2707.5 1473.36L2707.5 2568.73L2560 2568.73L2560 1811.07L2559.49 1810.06C2360.7 1342.85 1904.09 1040.79 1396.18 1040.79C888.263 1040.79 431.816 1342.85 232.856 1810.06L232.519 1811.07L232.519 2568.73L85.023 2568.73L85.023 1473.36L158.687 1473.36L158.687 1462.93L85.023 1462.93L85.0229 104.348L1075.11 104.348L1075.11 104.18ZM2022.82 2568.73L1822.69 2568.73L1822.69 2210.67L1870.11 2210.67L1870.11 2200.07L1822.69 2200.07L1822.69 2158.03L1870.11 2158.03L1870.11 2147.43L1822.69 2147.43L1822.69 1999.94L1870.11 1999.94L1870.11 1989.51L1822.69 1989.51L1822.69 1842.01L1870.11 1842.01L1870.11 1831.42L1822.69 1831.42L1822.69 1568.04L1717.24 1568.04C1714.38 1393.3 1571.59 1252.03 1396.18 1252.03C1220.76 1252.03 1077.97 1393.3 1075.11 1568.04L969.664 1568.04L969.664 1831.42L922.236 1831.42L922.236 1842.01L969.664 1842.01L969.664 1989.51L922.236 1989.51L922.236 1999.94L969.664 1999.94L969.664 2147.43L922.236 2147.43L922.236 2158.03L969.664 2158.03L969.664 2200.07L922.236 2200.07L922.236 2210.67L969.664 2210.67L969.664 2568.73L769.527 2568.73L769.527 2521.3L759.099 2521.3L759.099 2568.73L242.947 2568.73L242.947 1813.08C440.393 1350.25 892.973 1051.39 1396.18 1051.39C1899.38 1051.39 2351.96 1350.41 2549.4 1813.08L2549.4 2568.73L2033.42 2568.73L2033.42 2521.3L2022.82 2521.3L2022.82 2568.73ZM1812.26 2568.73L1717.4 2568.73L1717.4 1578.81L1812.09 1578.81L1812.09 2568.73L1812.26 2568.73ZM1074.95 2568.73L980.091 2568.73L980.091 1578.81L1074.95 1578.81L1074.95 2568.73ZM1706.81 1568.21L1085.71 1568.21C1088.57 1399.35 1226.65 1262.79 1396.18 1262.79C1565.7 1262.79 1703.95 1399.35 1706.81 1568.21ZM2707.5 -2370.8L2707.5 -1275.42L2633.83 -1275.42L2633.83 -1264.99L2707.5 -1264.99L2707.5 93.5846L1717.24 93.5846C1714.38 -81.1571 1571.59 -222.43 1396.18 -222.43C1220.76 -222.43 1077.97 -81.157 1075.11 93.5847L85.0229 93.5847L85.0228 -1264.99L158.687 -1264.99L158.687 -1275.42L85.0228 -1275.42L85.0228 -2370.8L232.519 -2370.8L232.519 -1613.13L232.855 -1612.12C431.816 -1144.74 888.432 -842.856 1396.18 -842.857C1903.92 -842.857 2360.53 -1144.74 2559.49 -1611.96L2560 -1612.96L2560 -2370.63L2707.5 -2370.63L2707.5 -2370.8ZM1706.81 93.7529L1085.71 93.7529C1085.88 80.6347 1087.06 67.5163 1088.74 54.7343C1089.41 49.6889 1090.25 44.6435 1091.26 39.5979C1098.32 3.43867 1111.61 -30.366 1129.94 -60.8069C1131.96 -64.3389 1134.15 -67.7024 1136.33 -71.0662C1191.83 -155.83 1287.7 -211.835 1396.18 -211.835C1491.53 -211.835 1576.97 -168.612 1633.99 -100.835C1637.18 -97.1346 1640.21 -93.2664 1643.24 -89.2301C1658.2 -69.7208 1670.82 -48.1934 1680.91 -25.3206C1682.93 -20.7796 1684.78 -16.0704 1686.63 -11.5294C1688.31 -6.82039 1690.16 -2.11116 1691.67 2.76604C1693.19 7.47527 1694.7 12.3525 1696.04 17.2297C1696.72 19.7524 1697.39 22.1071 1697.89 24.6298C1699.74 32.03 1701.26 39.4299 1702.6 46.998C1702.94 48.8481 1703.28 50.8661 1703.44 52.7162C1705.46 66.1708 1706.64 79.9618 1706.81 93.7529ZM1074.95 -1380.7L980.091 -1380.7L980.091 -2370.63L1074.95 -2370.63L1074.95 -1380.7ZM2022.82 -2370.8L2022.82 -2323.37L2033.42 -2323.37L2033.42 -2370.8L2549.4 -2370.8L2549.4 -1615.15C2351.79 -1152.31 1899.38 -853.284 1396.18 -853.284C892.972 -853.284 440.393 -1152.31 242.946 -1615.15L242.946 -2370.8L759.099 -2370.8L759.099 -2323.37L769.526 -2323.37L769.526 -2370.8L969.664 -2370.8L969.664 -2012.74L922.236 -2012.74L922.236 -2002.31L969.664 -2002.31L969.664 -1960.09L922.236 -1960.09L922.236 -1949.5L969.664 -1949.5L969.664 -1802L922.236 -1802L922.236 -1791.57L969.664 -1791.57L969.664 -1644.08L922.236 -1644.08L922.236 -1633.48L969.664 -1633.48L969.664 -1370.11L1075.11 -1370.11C1077.97 -1195.37 1220.93 -1054.09 1396.18 -1054.09C1571.59 -1054.09 1714.38 -1195.37 1717.24 -1370.11L1822.69 -1370.11L1822.69 -1633.48L1870.11 -1633.48L1870.11 -1644.08L1822.69 -1644.08L1822.69 -1791.58L1870.11 -1791.58L1870.11 -1802L1822.69 -1802L1822.69 -1949.5L1870.11 -1949.5L1870.11 -1960.09L1822.69 -1960.09L1822.69 -2002.31L1870.11 -2002.31L1870.11 -2012.74L1822.69 -2012.74L1822.69 -2370.8L2022.82 -2370.8ZM1085.71 -1370.28L1706.81 -1370.28C1703.95 -1201.42 1565.7 -1064.86 1396.18 -1064.86C1226.65 -1064.86 1088.57 -1201.42 1085.71 -1370.28ZM1812.26 -2370.8L1812.26 -1380.87L1717.4 -1380.87L1717.4 -2370.8L1812.26 -2370.8ZM1706.81 -1823.03C1706.81 -1699.07 1706.81 -1579.66 1706.81 -1496.25C1706.81 -1427.12 1706.81 -1382.55 1706.81 -1380.7L1085.71 -1380.7C1085.88 -1385.25 1085.71 -1665.94 1085.71 -1927.13C1085.71 -2025.01 1085.71 -2120.04 1085.71 -2196.9C1085.71 -2300.16 1085.71 -2370.63 1085.71 -2370.63L1707.14 -2370.63C1706.98 -2370.8 1706.81 -2086.9 1706.81 -1823.03ZM1085.54 2568.73C1085.54 2568.73 1085.54 2542.83 1085.54 2499.44C1085.54 2415.68 1085.54 2266.67 1085.54 2112.62C1085.54 1855.13 1085.71 1583.35 1085.54 1578.81L1706.64 1578.81C1706.64 1583.35 1706.64 1848.23 1706.64 2102.86C1706.64 2340.34 1706.81 2568.9 1706.81 2568.9L1085.54 2568.9L1085.54 2568.73Z" fill="#F1F1F1"/>
</g>
<rect x="-237.781" y="-323.892" width="845.713" height="845.713" stroke="#F1F1F1" stroke-width="9.36846"/>
<g clip-path="url(#clip3)">
<path d="M1100.17 229.274H1091.59V314.286H1100.17V229.274Z" fill="#F1F1F1"/>
<path d="M1143.11 229.275H1134.52V314.286H1143.11V229.275Z" fill="#F1F1F1"/>
<path d="M1186.04 229.275H1177.46V314.286H1186.04V229.275Z" fill="#F1F1F1"/>
<path d="M1228.98 229.275H1220.39V314.286H1228.98V229.275Z" fill="#F1F1F1"/>
<path d="M730.504 -1190.16L730.504 1388.1L5668.91 1388.1V-1190.16L730.504 -1190.16ZM1048.65 1379.51H739.091L739.091 -1181.58H1048.65L1048.65 1379.51ZM1263.33 1379.51H1228.98V1298.79H1220.39V1379.51H1186.05V1298.79H1177.46V1379.51H1143.11V1298.79H1134.52V1379.51H1100.18V1298.79H1091.59V1379.51H1057.24L1057.24 -1181.58H1091.59V-1100.86H1100.18V-1181.58H1134.52V-1100.86H1143.11V-1181.58H1177.46V-1100.86H1186.05V-1181.58H1220.39V-1100.86H1228.98V-1181.58H1263.33L1263.33 1379.51ZM1478.01 1379.51H1443.66V1298.79H1435.07V1379.51H1400.72V1298.79H1392.14V1379.51H1357.79V1298.79H1349.2V1379.51H1314.85V1298.79H1306.26V1379.51H1271.92L1271.92 -1181.58H1306.26V-1100.86H1314.85V-1181.58H1349.2V-1100.86H1357.79V-1181.58H1392.14V-1100.86H1400.72V-1181.58H1435.07V-1100.86H1443.66V-1181.58H1478.01L1478.01 1379.51ZM1692.68 1379.51H1658.33V1298.79H1649.75V1379.51H1615.4V1298.79H1606.81V1379.51H1572.46V1298.79H1563.88V1379.51H1529.53V1298.79H1520.94V1379.51H1486.59L1486.59 -1181.58H1520.94V-1100.86H1529.53V-1181.58H1563.88V-1100.86H1572.46V-1181.58H1606.81V-1100.86H1615.4V-1181.58H1649.75V-1100.86H1658.33V-1181.58H1692.68L1692.68 1379.51ZM1907.36 1379.51H1873.01V1298.79H1864.42V1379.51H1830.07V1298.79H1821.49V1379.51H1787.14V1298.79H1778.55V1379.51H1744.2V1298.79H1735.62V1379.51H1701.27L1701.27 -1181.58H1735.62V-1100.86H1744.2V-1181.58H1778.55V-1100.86H1787.14V-1181.58H1821.49V-1100.86H1830.07V-1181.58H1864.42V-1100.86H1873.01V-1181.58H1907.36L1907.36 1379.51ZM2122.03 1379.51H2087.68V1298.79H2079.1V1379.51H2044.75V1298.79H2036.16V1379.51H2001.81V1298.79H1993.23V1379.51H1958.88V1298.79H1950.29V1379.51H1915.94L1915.94 -1181.58H1950.29V-1100.86H1958.88V-1181.58H1993.23V-1100.86H2001.81V-1181.58H2036.16V-1100.86H2044.75V-1181.58H2079.1V-1100.86H2087.68V-1181.58H2122.03L2122.03 1379.51ZM2336.71 1379.51H2302.36V1298.79H2293.77V1379.51H2259.43V1298.79H2250.84V1379.51H2216.49V1298.79H2207.9V1379.51H2173.56V1298.79H2164.97V1379.51L2130.62 1379.51L2130.62 -1181.58H2164.97V-1100.86H2173.56V-1181.58H2207.9V-1100.86H2216.49V-1181.58H2250.84V-1100.86H2259.43V-1181.58H2293.77V-1100.86H2302.36V-1181.58H2336.71L2336.71 1379.51ZM2551.38 1379.51H2517.04V1298.79H2508.45V1379.51H2474.1V1298.79H2465.51V1379.51H2431.17V1298.79H2422.58V1379.51H2388.23V1298.79H2379.64V1379.51H2345.3L2345.3 -1181.58H2379.64V-1100.86H2388.23V-1181.58H2422.58V-1100.86H2431.17V-1181.58H2465.51V-1100.86H2474.1V-1181.58H2508.45V-1100.86H2517.04V-1181.58H2551.38L2551.38 1379.51ZM2766.06 1379.51H2731.71V1298.79H2723.13V1379.51H2688.78V1298.79H2680.19V1379.51H2645.84V1298.79H2637.26V1379.51H2602.91V1298.79H2594.32V1379.51H2559.97L2559.97 -1181.58H2594.32V-1100.86H2602.91V-1181.58H2637.26V-1100.86H2645.84V-1181.58H2680.19V-1100.86H2688.78V-1181.58H2723.13V-1100.86H2731.71V-1181.58H2766.06L2766.06 1379.51ZM2980.74 1379.51H2946.39V1298.79H2937.8V1379.51H2903.45V1298.79H2894.87V1379.51H2860.52V1298.79H2851.93V1379.51H2817.58V1298.79H2809V1379.51H2774.65L2774.65 -1181.58H2809V-1100.86H2817.58V-1181.58L2851.93 -1181.58V-1100.86H2860.52V-1181.58H2894.87V-1100.86H2903.45V-1181.58H2937.8V-1100.86H2946.39V-1181.58H2980.74L2980.74 1379.51ZM3195.41 1379.51H3161.06V1298.79H3152.48V1379.51H3118.13V1298.79H3109.54V1379.51H3075.19V1298.79H3066.61V1379.51H3032.26V1298.79H3023.67V1379.51H2989.32L2989.32 -1181.58H3023.67V-1100.86H3032.26V-1181.58H3066.61V-1100.86H3075.19V-1181.58H3109.54V-1100.86H3118.13V-1181.58H3152.48V-1100.86H3161.06V-1181.58H3195.41L3195.41 1379.51ZM3410.09 1379.51H3375.74V1298.79H3367.15V1379.51H3332.81V1298.79H3324.22V1379.51H3289.87V1298.79H3281.28V1379.51H3246.93V1298.79H3238.35V1379.51H3204L3204 -1181.58H3238.35V-1100.86H3246.93V-1181.58H3281.28V-1100.86H3289.87V-1181.58H3324.22V-1100.86H3332.81V-1181.58H3367.15V-1100.86H3375.74V-1181.58H3410.09L3410.09 1379.51ZM3624.76 1379.51H3590.42V1298.79H3581.83V1379.51H3547.48V1298.79H3538.89V1379.51H3504.55V1298.79H3495.96V1379.51H3461.61V1298.79H3453.02V1379.51H3418.68L3418.68 -1181.58H3453.02V-1100.86H3461.61V-1181.58H3495.96V-1100.86H3504.55V-1181.58H3538.89V-1100.86H3547.48V-1181.58H3581.83V-1100.86H3590.42V-1181.58H3624.76L3624.76 1379.51ZM3839.44 1379.51H3805.09V1298.79H3796.51V1379.51H3762.16V1298.79H3753.57V1379.51H3719.22V1298.79H3710.63V1379.51H3676.29V1298.79H3667.7V1379.51H3633.35L3633.35 -1181.58H3667.7V-1100.86H3676.29V-1181.58H3710.63V-1100.86H3719.22V-1181.58H3753.57V-1100.86H3762.16V-1181.58H3796.51V-1100.86H3805.09V-1181.58H3839.44L3839.44 1379.51ZM4054.12 1379.51H4019.77V1298.79H4011.18V1379.51H3976.83V1298.79H3968.25V1379.51H3933.9V1298.79H3925.31V1379.51H3890.96V1298.79H3882.38V1379.51H3848.03L3848.03 -1181.58H3882.38V-1100.86H3890.96V-1181.58H3925.31V-1100.86H3933.9V-1181.58H3968.25V-1100.86H3976.83V-1181.58H4011.18V-1100.86H4019.77V-1181.58H4054.12L4054.12 1379.51ZM4268.79 1379.51H4234.44V1298.79H4225.86V1379.51H4191.51V1298.79H4182.92V1379.51H4148.57V1298.79H4139.99V1379.51H4105.64V1298.79H4097.05V1379.51H4062.7L4062.7 -1181.58H4097.05V-1100.86H4105.64V-1181.58H4139.99V-1100.86H4148.57V-1181.58H4182.92V-1100.86H4191.51V-1181.58H4225.86V-1100.86H4234.44V-1181.58H4268.79V1379.51ZM4483.47 1379.51H4449.12V1298.79H4440.53V1379.51H4406.18V1298.79H4397.6V1379.51H4363.25V1298.79H4354.66V1379.51H4320.31V1298.79H4311.73V1379.51H4277.38V-1181.58H4311.73V-1100.86H4320.31V-1181.58H4354.66V-1100.86H4363.25V-1181.58H4397.6V-1100.86H4406.18V-1181.58H4440.53V-1100.86H4449.12V-1181.58H4483.47V1379.51ZM4698.14 1379.51H4663.8V1298.79H4655.21V1379.51H4620.86V1298.79H4612.27V1379.51H4577.93V1298.79H4569.34V1379.51H4534.99V1298.79H4526.4V1379.51H4492.05V-1181.58H4526.4V-1100.86H4534.99V-1181.58H4569.34V-1100.86H4577.93V-1181.58H4612.27V-1100.86H4620.86V-1181.58H4655.21V-1100.86H4663.8V-1181.58H4698.14V1379.51ZM4912.82 1379.51H4878.47V1298.79H4869.88V1379.51H4835.54V1298.79H4826.95V1379.51H4792.6V1298.79H4784.01V1379.51H4749.67V1298.79H4741.08V1379.51H4706.73V-1181.58H4741.08V-1100.86H4749.67V-1181.58H4784.01V-1100.86H4792.6V-1181.58H4826.95V-1100.86H4835.54V-1181.58H4869.88V-1100.86H4878.47V-1181.58H4912.82V1379.51ZM5127.5 1379.51H5093.15V1298.79H5084.56V1379.51H5050.21V1298.79H5041.63V1379.51H5007.28V1298.79H4998.69V1379.51L4964.34 1379.51V1298.79H4955.75V1379.51H4921.41V-1181.58H4955.75V-1100.86H4964.34V-1181.58H4998.69V-1100.86H5007.28V-1181.58H5041.63V-1100.86H5050.21V-1181.58H5084.56V-1100.86H5093.15V-1181.58H5127.5V1379.51ZM5342.17 1379.51H5307.82V1298.79H5299.24V1379.51H5264.89V1298.79H5256.3V1379.51H5221.95V1298.79H5213.37V1379.51H5179.02V1298.79H5170.43V1379.51H5136.08V-1181.58H5170.43V-1100.86H5179.02V-1181.58H5213.37V-1100.86H5221.95V-1181.58H5256.3V-1100.86H5264.89V-1181.58H5299.24V-1100.86H5307.82V-1181.58H5342.17V1379.51ZM5660.32 1379.51H5350.76V-1181.58H5660.32V1379.51Z" fill="#F1F1F1"/>
<path d="M696.153 -114.207H687.566L687.566 314.286H696.153L696.153 -114.207Z" fill="#F1F1F1"/>
</g>
<rect x="613.944" y="-327.25" width="852.428" height="852.428" stroke="#F1F1F1" stroke-width="2.65279"/>
<g clip-path="url(#clip4)">
<path d="M185.244 1797.37C47.7061 1797.37 -64.0662 1685.6 -64.0662 1548.06C-64.0662 1495.8 -48.0988 1446.45 -18.3412 1403.99L-1387.55 34.4187L-1385.37 29.7009C-1384.28 27.1606 -1274.33 -209.448 -1026.83 -442.791C-881.31 -579.966 -717.643 -689.198 -540.187 -767.583C-318.457 -865.565 -74.2272 -915.282 185.244 -915.282C444.715 -915.282 689.307 -865.565 911.763 -767.583C1089.95 -689.198 1254.34 -579.966 1400.95 -442.428C1650.26 -208.722 1762.39 28.2495 1763.48 30.4268L1765.66 35.1444L1762.03 38.7734L391.369 1407.98C419.675 1449.35 434.554 1497.62 434.554 1548.06C434.554 1685.6 322.782 1797.37 185.244 1797.37ZM-1370.13 31.1525L0.892334 1402.9L-2.73657 1407.98C-33.2198 1448.63 -49.1875 1497.26 -49.1875 1548.42C-49.1875 1677.98 56.0527 1783.22 185.607 1783.22C315.161 1783.22 420.401 1677.98 420.401 1548.42C420.401 1499.07 405.16 1451.53 376.491 1411.61L372.862 1406.53L377.216 1402.18L1748.24 31.8784C1731.55 -1.87103 1619.41 -218.52 1390.79 -432.63C1162.53 -646.013 768.056 -900.766 185.244 -900.766C-397.568 -900.766 -790.223 -646.013 -1016.67 -432.267C-1243.48 -218.52 -1353.8 -2.59686 -1370.13 31.1525Z" fill="#F1F1F1"/>
<path d="M1149.82 638.642C1149.1 637.19 1076.88 495.298 922.651 354.857C780.758 225.665 537.98 71.4343 189.237 71.4343C-159.87 71.4343 -404.463 223.851 -548.533 351.228C-704.215 489.491 -778.609 629.57 -779.335 631.021L-785.867 627.755C-785.141 626.304 -710.385 485.137 -553.613 345.784C-461.437 264.133 -359.464 198.811 -250.594 151.997C-114.145 93.5711 33.5538 63.8135 188.511 63.8135C343.831 63.8135 491.167 93.9339 626.527 153.086C735.033 200.626 835.919 266.673 927.006 349.413C1081.96 490.58 1154.9 633.562 1155.63 635.013L1149.82 638.642Z" fill="#F1F1F1"/>
<path d="M-312.288 1100.25L-317.006 1094.8C-255.676 1041.09 -224.104 984.483 -223.016 927.145C-222.29 889.041 -234.628 830.977 -298.861 769.285L-300.676 767.47C-306.482 761.664 -309.385 755.857 -308.659 750.051C-307.933 742.793 -302.853 738.075 -301.401 736.987C-287.248 722.834 -10.721 445.944 -1.64859 437.597C4.52066 431.791 10.3271 431.065 13.9561 431.428C18.3108 431.791 22.3027 434.331 24.843 437.96C99.9626 523.603 188.146 516.708 188.872 516.708L189.598 523.966C188.509 523.966 96.6965 531.224 19.3995 442.678L19.0366 442.315C18.3108 441.226 16.1334 439.049 13.2302 438.686C10.327 438.323 6.69803 439.774 3.43195 443.04C-5.64047 451.387 -293.418 739.527 -296.321 742.43L-296.684 742.793C-296.684 742.793 -301.038 746.059 -301.038 750.777C-301.401 754.406 -299.224 758.398 -295.232 762.39L-293.418 764.204C-227.37 827.348 -214.306 887.952 -215.395 927.508C-216.846 987.023 -249.507 1045.09 -312.288 1100.25Z" fill="#F1F1F1"/>
<path d="M689.309 1100.25C626.527 1045.09 593.867 987.025 592.778 927.147C592.052 887.591 604.754 827.35 670.801 763.843L672.615 762.028C676.97 758.037 678.784 754.045 678.422 750.053C678.059 745.335 674.067 742.069 674.067 742.069L673.704 741.706C670.801 738.803 383.024 450.663 373.951 442.316C370.685 439.05 367.056 437.599 364.153 437.962C360.887 438.324 359.072 440.502 358.347 441.591L357.984 441.953C280.324 530.5 188.511 523.242 187.785 523.242L188.511 515.984C189.237 515.984 277.784 522.879 352.54 437.236C355.081 433.607 359.072 431.067 363.427 430.704C367.056 430.341 372.5 431.067 379.032 436.873C388.104 445.22 664.632 722.473 678.785 736.263C680.236 737.351 685.317 742.069 686.043 749.327C686.405 755.133 683.865 761.303 678.059 766.746L676.244 768.561C612.012 829.89 599.673 888.317 600.399 926.421C601.487 983.758 633.422 1040.37 694.389 1094.08L689.309 1100.25Z" fill="#F1F1F1"/>
</g>
<rect x="-237.835" y="524.763" width="853.778" height="853.778" stroke="#F1F1F1" stroke-width="1.30345"/>
<rect x="-240.008" y="-326.118" width="2562.4" height="2562.86" stroke="#F1F1F1" stroke-width="4.9146"/>
<path d="M612.617 -328.576L612.617 2236.67" stroke="#F1F1F1" stroke-width="4.9146"/>
</g>
<defs>
<clipPath id="clip0">
<rect width="1229" height="607" fill="white"/>
</clipPath>
<clipPath id="clip1">
</clipPath>
<clipPath id="clip2">
</clipPath>
<clipPath id="clip3">
</clipPath>
<clipPath id="clip4">
</clipPath>
</defs>
</svg>
