<svg width="794" height="683" viewBox="0 0 794 683" fill="none" xmlns="http://www.w3.org/2000/svg">
<g clip-path="url(#clip0)">
<path d="M395.927 682.768C361.345 682.768 333.241 654.664 333.241 620.082C333.241 606.942 337.256 594.533 344.738 583.857L0.466309 239.494L1.01379 238.308C1.28752 237.669 28.9351 178.177 91.1649 119.506C127.755 85.0145 168.907 57.5494 213.526 37.8403C269.277 13.2038 330.686 0.703125 395.927 0.703125C461.168 0.703125 522.668 13.2038 578.602 37.8403C623.403 57.5494 664.738 85.0145 701.601 119.597C764.287 178.359 792.482 237.943 792.756 238.49L793.304 239.677L792.391 240.589L447.755 584.861C454.872 595.263 458.613 607.398 458.613 620.082C458.613 654.664 430.509 682.768 395.927 682.768ZM4.84612 238.673L349.574 583.583L348.661 584.861C340.997 595.08 336.982 607.307 336.982 620.173C336.982 652.748 363.443 679.209 396.018 679.209C428.593 679.209 455.054 652.748 455.054 620.173C455.054 607.763 451.222 595.81 444.014 585.773L443.101 584.496L444.196 583.401L788.924 238.855C784.726 230.37 756.531 175.896 699.046 122.06C641.653 68.4077 542.468 4.35297 395.927 4.35297C249.386 4.35297 150.657 68.4077 93.7198 122.152C36.691 175.896 8.9522 230.187 4.84612 238.673Z" fill="#ffffff"/>
<path d="M396.109 500.184C376.309 500.184 360.25 484.125 360.25 464.325C360.25 444.524 376.309 428.465 396.109 428.465C415.91 428.465 431.969 444.524 431.969 464.325C431.969 484.125 415.91 500.184 396.109 500.184ZM396.109 430.199C377.313 430.199 362.075 445.437 362.075 464.233C362.075 483.03 377.313 498.268 396.109 498.268C414.906 498.268 430.144 483.03 430.144 464.233C430.144 445.437 414.906 430.199 396.109 430.199Z" fill="#ffffff"/>
<path d="M396.11 471.807C400.242 471.807 403.592 468.457 403.592 464.325C403.592 460.193 400.242 456.843 396.11 456.843C391.977 456.843 388.627 460.193 388.627 464.325C388.627 468.457 391.977 471.807 396.11 471.807Z" fill="#ffffff"/>
<path d="M638.459 391.419C638.277 391.054 620.119 355.376 581.339 320.064C545.662 287.581 484.618 248.801 396.931 248.801C309.152 248.801 247.652 287.124 211.427 319.152C172.283 353.916 153.577 389.137 153.395 389.502L151.752 388.681C151.935 388.316 170.732 352.821 210.15 317.783C233.326 297.253 258.967 280.828 286.34 269.058C320.649 254.367 357.786 246.885 396.748 246.885C435.802 246.885 472.847 254.458 506.882 269.331C534.165 281.285 559.531 297.891 582.434 318.695C621.396 354.19 639.737 390.141 639.919 390.506L638.459 391.419Z" fill="#ffffff"/>
<path d="M270.829 507.484L269.642 506.115C285.063 492.611 293.001 478.376 293.275 463.96C293.458 454.379 290.355 439.779 274.205 424.267L273.748 423.811C272.289 422.351 271.559 420.891 271.741 419.431C271.924 417.607 273.201 416.42 273.566 416.147C277.125 412.588 346.654 342.967 348.935 340.869C350.486 339.409 351.946 339.226 352.859 339.317C353.954 339.409 354.958 340.047 355.596 340.96C374.484 362.494 396.657 360.76 396.839 360.76L397.022 362.585C396.748 362.585 373.663 364.41 354.228 342.146L354.136 342.055C353.954 341.781 353.406 341.234 352.676 341.142C351.946 341.051 351.034 341.416 350.213 342.237C347.932 344.336 275.573 416.785 274.843 417.515L274.752 417.607C274.752 417.607 273.657 418.428 273.657 419.614C273.566 420.526 274.113 421.53 275.117 422.534L275.573 422.99C292.18 438.867 295.465 454.105 295.191 464.051C294.826 479.015 286.614 493.615 270.829 507.484Z" fill="#ffffff"/>
<path d="M522.668 507.484C506.882 493.614 498.67 479.015 498.396 463.959C498.214 454.014 501.407 438.867 518.014 422.899L518.47 422.442C519.565 421.439 520.022 420.435 519.93 419.431C519.839 418.245 518.835 417.424 518.835 417.424L518.744 417.333C518.014 416.603 445.656 344.153 443.375 342.055C442.554 341.233 441.641 340.868 440.911 340.96C440.09 341.051 439.634 341.598 439.451 341.872L439.36 341.963C419.833 364.227 396.748 362.403 396.566 362.403L396.748 360.578C396.931 360.578 419.195 362.311 437.991 340.777C438.63 339.865 439.634 339.226 440.729 339.135C441.641 339.044 443.01 339.226 444.652 340.686C446.933 342.785 516.463 412.497 520.022 415.964C520.387 416.238 521.664 417.424 521.847 419.249C521.938 420.709 521.299 422.26 519.839 423.629L519.383 424.085C503.232 439.505 500.13 454.196 500.312 463.777C500.586 478.194 508.616 492.428 523.945 505.933L522.668 507.484Z" fill="#ffffff"/>
<path d="M222.833 459.306L234.421 447.17L238.345 450.82L226.574 463.138L222.833 459.306Z" fill="#ffffff"/>
<path d="M226.574 463.777L222.103 459.306L234.33 446.44L238.892 450.729L226.574 463.777ZM223.472 459.306L226.574 462.408L237.615 450.82L234.33 447.717L223.472 459.306Z" fill="#ffffff"/>
<path d="M570.937 459.306L559.349 447.17L555.425 450.82L567.105 463.138L570.937 459.306Z" fill="#ffffff"/>
<path d="M567.105 463.777L554.786 450.82L559.349 446.531L571.576 459.397L567.105 463.777ZM556.064 450.911L567.105 462.499L570.207 459.397L559.258 447.9L556.064 450.911Z" fill="#ffffff"/>
<path d="M407.467 295.076L397.273 284.881L387.079 295.076L397.273 305.27L407.467 295.076Z" fill="#ffffff"/>
<path d="M209.42 507.666L208.142 506.389L217.541 496.808L193.361 472.993L183.962 482.482L182.685 481.205L193.361 470.347L220.096 496.808L209.42 507.666Z" fill="#ffffff"/>
<path d="M584.35 507.666L573.583 496.808L600.318 470.347L610.994 481.205L609.717 482.482L600.318 472.993L576.229 496.808L585.628 506.389L584.35 507.666Z" fill="#ffffff"/>
<path d="M378.681 627.381H355.87V591.157H378.681V627.381ZM357.604 625.557H376.765V592.982H357.604V625.557Z" fill="#ffffff"/>
<path d="M435.163 627.381H412.351V591.157H435.163V627.381ZM414.176 625.557H433.338V592.982H414.176V625.557Z" fill="#ffffff"/>
<path d="M403.044 615.885L398.208 624.188C397.204 625.922 394.741 625.922 393.737 624.188L388.901 615.885C387.897 614.151 389.175 611.961 391.182 611.961H400.763C402.77 611.961 404.048 614.151 403.044 615.885Z" fill="#ffffff"/>
<path d="M395.927 625.921C394.832 625.921 393.828 625.374 393.281 624.37L388.445 616.067C387.897 615.154 387.897 613.968 388.445 612.964C388.992 611.961 389.996 611.413 391.091 611.413H400.672C401.767 611.413 402.77 611.961 403.318 612.964C403.865 613.968 403.865 615.063 403.318 616.067L398.482 624.37C398.026 625.374 397.022 625.921 395.927 625.921ZM391.091 612.417C390.27 612.417 389.631 612.782 389.266 613.512C388.901 614.15 388.901 614.972 389.266 615.702L394.102 624.005C394.467 624.644 395.197 625.1 395.927 625.1C396.748 625.1 397.387 624.735 397.752 624.005L402.588 615.702C402.953 615.063 402.953 614.242 402.588 613.512C402.223 612.873 401.493 612.417 400.763 612.417H391.091Z" fill="#ffffff"/>
</g>
<defs>
<clipPath id="clip0">
<rect width="792.837" height="682.065" fill="white" transform="translate(0.466309 0.703125)"/>
</clipPath>
</defs>
</svg>
