<svg width="24" height="24" viewBox="0 0 24 24" fill="none" xmlns="http://www.w3.org/2000/svg">
<path fill-rule="evenodd" clip-rule="evenodd" d="M12 0C8.685 0 6 2.685 6 6C6 9.315 8.685 12 12 12C15.315 12 18 9.315 18 6C18 2.685 15.315 0 12 0ZM15 6C15 4.35 13.65 3 12 3C10.35 3 9 4.35 9 6C9 7.65 10.35 9 12 9C13.65 9 15 7.65 15 6ZM21 19.5C20.7 18.435 16.05 16.5 12 16.5C7.95 16.5 3.3 18.435 3 19.515V21H21V19.5ZM0 19.5C0 15.51 7.995 13.5 12 13.5C16.005 13.5 24 15.51 24 19.5V24H0V19.5Z" fill="white"/>
</svg>
