<svg width="35" height="30" viewBox="0 0 35 30" fill="none" xmlns="http://www.w3.org/2000/svg">
<rect width="35" height="30" fill="#1A1A1A"/>
<mask id="mask0" mask-type="alpha" maskUnits="userSpaceOnUse" x="0" y="0" width="35" height="30">
<rect width="35" height="30" fill="#C4C4C4"/>
</mask>
<g mask="url(#mask0)">
<path d="M17.1023 49.9198C14.897 49.9198 13.1048 46.6074 13.1048 42.5316C13.1048 40.9829 13.3608 39.5203 13.838 38.2621L-8.11621 -2.3247L-8.0813 -2.46451C-8.06384 -2.53979 -6.30076 -9.5516 -2.33236 -16.4666C0.000961304 -20.5318 2.62522 -23.7688 5.4706 -26.0917C9.02586 -28.9954 12.9419 -30.4688 17.1023 -30.4688C21.2627 -30.4688 25.1846 -28.9954 28.7515 -26.0917C31.6085 -23.7688 34.2444 -20.5318 36.5952 -16.4559C40.5926 -9.53009 42.3906 -2.50752 42.4081 -2.443L42.443 -2.30319L42.3848 -2.19565L20.4074 38.3804C20.8612 39.6064 21.0998 41.0367 21.0998 42.5316C21.0998 46.6074 19.3076 49.9198 17.1023 49.9198ZM-7.83691 -2.42149L14.1464 38.2298L14.0882 38.3804C13.5994 39.5849 13.3434 41.026 13.3434 42.5423C13.3434 46.3816 15.0308 49.5004 17.1081 49.5004C19.1854 49.5004 20.8729 46.3816 20.8729 42.5423C20.8729 41.0797 20.6285 39.6709 20.1688 38.4879L20.1106 38.3374L20.1804 38.2083L42.1637 -2.39998C41.896 -3.40013 40.098 -9.82046 36.4322 -16.1655C32.7722 -22.489 26.4472 -30.0386 17.1023 -30.0386C7.75737 -30.0386 1.46147 -22.489 -2.16944 -16.1548C-5.80616 -9.82046 -7.57507 -3.42164 -7.83691 -2.42149Z" fill="#E1E1E1" fill-opacity="0.5"/>
<path d="M17.1159 28.4004C15.8532 28.4004 14.8291 26.5076 14.8291 24.174C14.8291 21.8403 15.8532 19.9475 17.1159 19.9475C18.3785 19.9475 19.4026 21.8403 19.4026 24.174C19.4026 26.5076 18.3785 28.4004 17.1159 28.4004ZM17.1159 20.1518C15.9172 20.1518 14.9455 21.9478 14.9455 24.1632C14.9455 26.3786 15.9172 28.1746 17.1159 28.1746C18.3145 28.1746 19.2863 26.3786 19.2863 24.1632C19.2863 21.9478 18.3145 20.1518 17.1159 20.1518Z" fill="#E1E1E1" fill-opacity="0.5"/>
<path d="M17.1139 25.0556C17.3774 25.0556 17.591 24.6608 17.591 24.1738C17.591 23.6868 17.3774 23.2919 17.1139 23.2919C16.8503 23.2919 16.6367 23.6868 16.6367 24.1738C16.6367 24.6608 16.8503 25.0556 17.1139 25.0556Z" fill="#E1E1E1" fill-opacity="0.5"/>
<path d="M32.5705 15.581C32.5588 15.538 31.4009 11.333 28.9279 7.17111C26.6528 3.34257 22.76 -1.22802 17.1682 -1.22802C11.5706 -1.22802 7.64872 3.2888 5.33867 7.06356C2.84242 11.161 1.64958 15.3121 1.63794 15.3551L1.5332 15.2584C1.54484 15.2153 2.74351 11.0319 5.25721 6.90225C6.73518 4.48253 8.37025 2.54675 10.1159 1.15944C12.3037 -0.572001 14.672 -1.45386 17.1566 -1.45386C19.647 -1.45386 22.0094 -0.561248 24.1798 1.19171C25.9196 2.60052 27.5372 4.55781 28.9978 7.00979C31.4824 11.1932 32.6519 15.4304 32.6636 15.4734L32.5705 15.581Z" fill="#E1E1E1" fill-opacity="0.5"/>
<path d="M9.12447 29.2607L9.04883 29.0994C10.0322 27.5077 10.5384 25.8301 10.5559 24.1309C10.5675 23.0017 10.3697 21.281 9.33977 19.4527L9.31067 19.399C9.21757 19.2269 9.17102 19.0548 9.18266 18.8828C9.1943 18.6677 9.27576 18.5279 9.29903 18.4956C9.52597 18.0762 13.9599 9.87064 14.1053 9.62329C14.2043 9.45122 14.2974 9.42972 14.3555 9.44047C14.4254 9.45123 14.4894 9.52651 14.5301 9.63405C15.7346 12.1721 17.1485 11.9677 17.1602 11.9677L17.1718 12.1828C17.1544 12.1828 15.6822 12.3979 14.4428 9.77386L14.437 9.7631C14.4254 9.73084 14.3905 9.66631 14.3439 9.65556C14.2974 9.6448 14.2392 9.68782 14.1868 9.78461C14.0413 10.032 9.42705 18.5709 9.3805 18.6569L9.37468 18.6677C9.37468 18.6677 9.30485 18.7645 9.30485 18.9043C9.29903 19.0118 9.33395 19.1301 9.39795 19.2484L9.42705 19.3022C10.4861 21.1734 10.6955 22.9694 10.6781 24.1416C10.6548 25.9053 10.1311 27.626 9.12447 29.2607Z" fill="#E1E1E1" fill-opacity="0.5"/>
<path d="M25.1861 29.2608C24.1794 27.6261 23.6557 25.9054 23.6383 24.131C23.6266 22.9587 23.8303 21.1735 24.8893 19.2915L24.9184 19.2377C24.9882 19.1194 25.0173 19.0011 25.0115 18.8828C25.0057 18.743 24.9417 18.6463 24.9417 18.6463L24.9359 18.6355C24.8893 18.5495 20.275 10.0105 20.1296 9.76319C20.0772 9.6664 20.019 9.62338 19.9724 9.63414C19.9201 9.64489 19.891 9.70942 19.8793 9.74168L19.8735 9.75243C18.6283 12.3765 17.1562 12.1614 17.1445 12.1614L17.1562 11.9463C17.1678 11.9463 18.5876 12.1506 19.7862 9.61263C19.827 9.50509 19.891 9.4298 19.9608 9.41905C20.019 9.40829 20.1063 9.4298 20.211 9.60187C20.3565 9.84922 24.7904 18.0655 25.0173 18.4742C25.0406 18.5064 25.1221 18.6463 25.1337 18.8613C25.1395 19.0334 25.0988 19.2162 25.0057 19.3775L24.9766 19.4313C23.9467 21.2488 23.7488 22.9802 23.7605 24.1094C23.7779 25.8086 24.29 27.4863 25.2675 29.0779L25.1861 29.2608Z" fill="#E1E1E1" fill-opacity="0.5"/>
<path d="M6.06543 23.5822L6.80441 22.1519L7.05462 22.5821L6.304 24.0339L6.06543 23.5822Z" fill="#E1E1E1" fill-opacity="0.5"/>
<path d="M6.30465 24.1094L6.01953 23.5824L6.79924 22.066L7.09018 22.5715L6.30465 24.1094ZM6.10681 23.5824L6.30465 23.948L7.00872 22.5822L6.79924 22.2166L6.10681 23.5824Z" fill="#E1E1E1" fill-opacity="0.5"/>
<path d="M28.2626 23.5821L27.5236 22.1518L27.2734 22.582L28.0182 24.0338L28.2626 23.5821Z" fill="#E1E1E1" fill-opacity="0.5"/>
<path d="M28.018 24.109L27.2324 22.5819L27.5234 22.0765L28.3031 23.5928L28.018 24.109ZM27.3139 22.5927L28.018 23.9585L28.2158 23.5928L27.5175 22.2378L27.3139 22.5927Z" fill="#E1E1E1" fill-opacity="0.5"/>
<path d="M17.8395 4.22584L17.1895 3.02435L16.5394 4.22584L17.1895 5.42733L17.8395 4.22584Z" fill="#E1E1E1" fill-opacity="0.5"/>
<path d="M5.20978 29.282L5.12832 29.1314L5.72765 28.0022L4.18568 25.1954L3.58635 26.3138L3.50488 26.1632L4.18568 24.8835L5.89058 28.0022L5.20978 29.282Z" fill="#E1E1E1" fill-opacity="0.5"/>
<path d="M29.1192 29.282L28.4326 28.0022L30.1375 24.8835L30.8183 26.1632L30.7368 26.3138L30.1375 25.1954L28.6014 28.0022L29.2007 29.1314L29.1192 29.282Z" fill="#E1E1E1" fill-opacity="0.5"/>
</g>
<path d="M15.2025 18V14.24H15.1625L13.7385 18H12.9545L11.5385 14.24H11.4985V18H10.4345V12.496H12.0025L13.3465 16.024H13.3945L14.7385 12.496H16.2985V18H15.2025ZM17.6222 18V12.496H18.7582V16.968H21.0862V18H17.6222ZM21.9504 12.496H24.6384C25.1717 12.496 25.5637 12.6133 25.8144 12.848C26.065 13.0773 26.1904 13.4213 26.1904 13.88C26.1904 14.264 26.1157 14.5573 25.9664 14.76C25.817 14.9627 25.577 15.1013 25.2464 15.176V15.208C25.609 15.2827 25.865 15.4213 26.0144 15.624C26.169 15.8267 26.2464 16.1307 26.2464 16.536C26.2464 17.0107 26.1237 17.3733 25.8784 17.624C25.6384 17.8747 25.225 18 24.6384 18H21.9504V12.496ZM24.2304 14.728C24.5397 14.728 24.7504 14.6853 24.8624 14.6C24.9797 14.5093 25.0384 14.3467 25.0384 14.112C25.0384 13.936 25.017 13.8053 24.9744 13.72C24.9317 13.6293 24.8544 13.568 24.7424 13.536C24.6304 13.4987 24.4597 13.48 24.2304 13.48H23.0864V14.728H24.2304ZM24.2704 17.016C24.4944 17.016 24.665 16.9973 24.7824 16.96C24.8997 16.9227 24.9797 16.8587 25.0224 16.768C25.0704 16.6773 25.0944 16.544 25.0944 16.368C25.0944 16.192 25.0704 16.0587 25.0224 15.968C24.9744 15.872 24.8917 15.8053 24.7744 15.768C24.6624 15.7307 24.4944 15.712 24.2704 15.712H23.0864V17.016H24.2704Z" fill="white"/>
</svg>
