<svg width="17" height="21" viewBox="0 0 17 21" fill="none" xmlns="http://www.w3.org/2000/svg">
<path fill-rule="evenodd" clip-rule="evenodd" d="M13.2422 7H14.2422C15.3422 7 16.2422 7.9 16.2422 9V19C16.2422 20.1 15.3422 21 14.2422 21H2.24219C1.14219 21 0.242188 20.1 0.242188 19V9C0.242188 7.9 1.14219 7 2.24219 7H3.24219V5C3.24219 2.24 5.48219 0 8.24219 0C11.0022 0 13.2422 2.24 13.2422 5V7ZM8.24219 2C6.58219 2 5.24219 3.34 5.24219 5V7H11.2422V5C11.2422 3.34 9.90219 2 8.24219 2ZM2.24219 19V9H14.2422V19H2.24219ZM10.2422 14C10.2422 15.1 9.34219 16 8.24219 16C7.14219 16 6.24219 15.1 6.24219 14C6.24219 12.9 7.14219 12 8.24219 12C9.34219 12 10.2422 12.9 10.2422 14Z" fill="white"/>
</svg>
