<svg width="35" height="30" viewBox="0 0 35 30" fill="none" xmlns="http://www.w3.org/2000/svg">
<rect width="35" height="30" fill="#1A1A1A"/>
<mask id="mask0" mask-type="alpha" maskUnits="userSpaceOnUse" x="0" y="0" width="35" height="30">
<rect width="35" height="30" fill="#C4C4C4"/>
</mask>
<g mask="url(#mask0)">
<path fill-rule="evenodd" clip-rule="evenodd" d="M10.2217 10.7331C12.3012 14.0228 16.5683 20.7518 16.8114 21.2004C17.1085 21.7487 17.6756 21.3998 17.8917 21.2503C18.0807 21.1506 18.4318 21.2503 18.7559 21.7986C19.08 22.3967 19.161 22.6958 19.9172 22.6958C20.6734 22.6958 32.2593 22.6958 33.2855 22.6958C34.3118 22.6958 35.176 23.7425 34.96 25.487C34.3118 30.4715 33.1235 31.1194 30.5038 31.4684C29.3966 31.6179 14.6238 31.4684 14.1917 31.4684C13.7596 31.4684 13.6516 31.0696 13.6786 30.5213C13.6786 29.973 13.7056 29.5244 13.6516 29.2752C13.5976 29.026 13.3275 28.9761 13.0034 29.5244C12.8684 29.8235 12.6253 30.1724 12.3553 30.5213C11.518 31.6179 10.5188 31.6677 9.51953 31.6179C6.89987 31.568 4.84735 29.4746 4.14517 23.9917C3.52402 19.1568 3.38898 13.8733 3.36198 13.4247C3.33497 12.9761 3.11891 12.8764 2.87585 12.7269C2.6598 12.5774 2.55177 11.9294 2.47075 11.3811C2.38973 10.8328 1.03939 4.55243 0.742313 3.00726C0.391224 1.46208 0.229183 -0.681221 1.76857 -1.22951C3.30796 -1.7778 4.33422 -1.92733 4.82034 -1.97717C5.30647 -1.97717 5.98164 -1.87748 6.54878 0.166132C6.87286 1.36239 7.65606 4.10383 8.27722 6.14745C9.14144 9.18795 8.84436 8.53997 10.2217 10.7331Z" stroke="#E1E1E1" stroke-opacity="0.5" stroke-width="0.772055" stroke-miterlimit="22.9256"/>
</g>
<path d="M3.87496 17V13.56H6.13996V14.175H4.58496V15.05H5.95496V15.665H4.58496V17H3.87496ZM8.09617 17.04C7.62617 17.04 7.29117 16.99 7.09117 16.89C6.89117 16.79 6.76451 16.6267 6.71117 16.4C6.66117 16.1733 6.63617 15.8 6.63617 15.28C6.63617 14.76 6.66117 14.3867 6.71117 14.16C6.76451 13.9333 6.89117 13.77 7.09117 13.67C7.29117 13.57 7.62617 13.52 8.09617 13.52C8.56617 13.52 8.90117 13.57 9.10117 13.67C9.30451 13.77 9.43117 13.9333 9.48117 14.16C9.53451 14.3867 9.56117 14.76 9.56117 15.28C9.56117 15.8 9.53451 16.1733 9.48117 16.4C9.43117 16.6267 9.30451 16.79 9.10117 16.89C8.90117 16.99 8.56617 17.04 8.09617 17.04ZM8.09617 16.425C8.35951 16.425 8.53617 16.4067 8.62617 16.37C8.71951 16.3333 8.77784 16.245 8.80117 16.105C8.82784 15.9617 8.84117 15.6867 8.84117 15.28C8.84117 14.8733 8.82784 14.6 8.80117 14.46C8.77784 14.3167 8.71951 14.2267 8.62617 14.19C8.53617 14.1533 8.35951 14.135 8.09617 14.135C7.83284 14.135 7.65617 14.1533 7.56617 14.19C7.47617 14.2267 7.41784 14.3167 7.39117 14.46C7.36451 14.6033 7.35117 14.8767 7.35117 15.28C7.35117 15.6833 7.36451 15.9567 7.39117 16.1C7.41784 16.2433 7.47617 16.3333 7.56617 16.37C7.65617 16.4067 7.83284 16.425 8.09617 16.425ZM12.2761 17L11.7711 15.755H10.9961V17H10.2861V13.56H11.9061C12.2028 13.56 12.4278 13.605 12.5811 13.695C12.7378 13.7817 12.8411 13.9033 12.8911 14.06C12.9444 14.2133 12.9711 14.4117 12.9711 14.655C12.9711 15.1983 12.8078 15.5333 12.4811 15.66L13.0311 17H12.2761ZM11.6211 15.14C11.8144 15.14 11.9544 15.1267 12.0411 15.1C12.1311 15.0733 12.1878 15.0283 12.2111 14.965C12.2378 14.8983 12.2511 14.795 12.2511 14.655C12.2511 14.5117 12.2378 14.4083 12.2111 14.345C12.1878 14.2817 12.1328 14.2383 12.0461 14.215C11.9628 14.1883 11.8228 14.175 11.6261 14.175H10.9961V15.14H11.6211ZM16.6546 17V14.65H16.6296L15.7396 17H15.2496L14.3646 14.65H14.3396V17H13.6746V13.56H14.6546L15.4946 15.765H15.5246L16.3646 13.56H17.3396V17H16.6546ZM20.847 13.56V15.46C20.847 15.9167 20.817 16.2517 20.757 16.465C20.7003 16.675 20.5786 16.8233 20.392 16.91C20.2053 16.9967 19.9053 17.04 19.492 17.04C19.0786 17.04 18.7786 16.9967 18.592 16.91C18.4053 16.8233 18.282 16.675 18.222 16.465C18.162 16.2517 18.132 15.9167 18.132 15.46V13.56H18.842V15.64C18.842 15.8967 18.8536 16.075 18.877 16.175C18.9003 16.275 18.9553 16.3433 19.042 16.38C19.1286 16.4167 19.2786 16.435 19.492 16.435C19.7086 16.435 19.8586 16.4167 19.942 16.38C20.0286 16.3433 20.082 16.275 20.102 16.175C20.1253 16.075 20.137 15.8967 20.137 15.64V13.56H20.847ZM21.6484 17V13.56H22.3584V16.355H23.8134V17H21.6484ZM26.5635 17L26.3135 16.26H24.9735L24.7285 17H24.0135L25.1785 13.56H26.1335L27.2985 17H26.5635ZM25.6535 14.23H25.6285L25.1635 15.64H26.1235L25.6535 14.23ZM29.3916 17V14.35L28.7216 14.635V14.02L29.6116 13.56H30.1016V17H29.3916Z" fill="white"/>
</svg>
