<svg width="35" height="30" viewBox="0 0 35 30" fill="none" xmlns="http://www.w3.org/2000/svg">
<rect width="34.9998" height="30" fill="#1A1A1A"/>
<mask id="mask0" mask-type="alpha" maskUnits="userSpaceOnUse" x="0" y="0" width="35" height="30">
<rect width="34.9998" height="30" fill="#C4C4C4"/>
</mask>
<g mask="url(#mask0)">
<path d="M28 2.0779L28 1.77942L26.4012 1.77942L26.4012 2.0779L28 2.0779Z" fill="#E1E1E1" fill-opacity="0.5"/>
<path d="M28 3.5707L28 3.27222L26.4012 3.27222L26.4012 3.5707L28 3.5707Z" fill="#E1E1E1" fill-opacity="0.5"/>
<path d="M28 5.06374L28 4.76526L26.4012 4.76526L26.4012 5.06374L28 5.06374Z" fill="#E1E1E1" fill-opacity="0.5"/>
<path d="M28 6.55642L28 6.25793L26.4012 6.25793L26.4012 6.55642L28 6.55642Z" fill="#E1E1E1" fill-opacity="0.5"/>
<path d="M28 9.5403L28 9.24182L26.4012 9.24182L26.4012 9.5403L28 9.5403Z" fill="#E1E1E1" fill-opacity="0.5"/>
<path d="M28 11.0336L28 10.7351L26.4012 10.7351L26.4012 11.0336L28 11.0336Z" fill="#E1E1E1" fill-opacity="0.5"/>
<path d="M28 12.525L28 12.2265L26.4012 12.2265L26.4012 12.525L28 12.525Z" fill="#E1E1E1" fill-opacity="0.5"/>
<path d="M28 14.0173L28 13.7188L26.4012 13.7188L26.4012 14.0173L28 14.0173Z" fill="#E1E1E1" fill-opacity="0.5"/>
<path d="M28 17.0019L28 16.7034L26.4012 16.7034L26.4012 17.0019L28 17.0019Z" fill="#E1E1E1" fill-opacity="0.5"/>
<path d="M28 18.495L28 18.1965L26.4012 18.1965L26.4012 18.495L28 18.495Z" fill="#E1E1E1" fill-opacity="0.5"/>
<path d="M28 19.9878L28 19.6893L26.4012 19.6893L26.4012 19.9878L28 19.9878Z" fill="#E1E1E1" fill-opacity="0.5"/>
<path d="M28 21.4803L28 21.1818L26.4012 21.1818L26.4012 21.4803L28 21.4803Z" fill="#E1E1E1" fill-opacity="0.5"/>
<path d="M28 24.4644L28 24.1659L26.4012 24.1659L26.4012 24.4644L28 24.4644Z" fill="#E1E1E1" fill-opacity="0.5"/>
<path d="M28 25.9575L28 25.6591L26.4012 25.6591L26.4012 25.9575L28 25.9575Z" fill="#E1E1E1" fill-opacity="0.5"/>
<path d="M28 27.4503L28 27.1518L26.4012 27.1518L26.4012 27.4503L28 27.4503Z" fill="#E1E1E1" fill-opacity="0.5"/>
<path d="M28 28.9418L28 28.6433L26.4012 28.6433L26.4012 28.9418L28 28.9418Z" fill="#E1E1E1" fill-opacity="0.5"/>
<path d="M21.54 2.07839L21.54 1.77991L19.9412 1.77991L19.9412 2.07839L21.54 2.07839Z" fill="#E1E1E1" fill-opacity="0.5"/>
<path d="M21.54 3.57107L21.54 3.27258L19.9412 3.27258L19.9412 3.57107L21.54 3.57107Z" fill="#E1E1E1" fill-opacity="0.5"/>
<path d="M21.54 5.06344L21.54 4.76495L19.9412 4.76495L19.9412 5.06344L21.54 5.06344Z" fill="#E1E1E1" fill-opacity="0.5"/>
<path d="M21.54 6.55575L21.54 6.25726L19.9412 6.25726L19.9412 6.55575L21.54 6.55575Z" fill="#E1E1E1" fill-opacity="0.5"/>
<path d="M21.54 9.54079L21.54 9.24231L19.9412 9.24231L19.9412 9.54079L21.54 9.54079Z" fill="#E1E1E1" fill-opacity="0.5"/>
<path d="M21.54 11.033L21.54 10.7346L19.9412 10.7346L19.9412 11.033L21.54 11.033Z" fill="#E1E1E1" fill-opacity="0.5"/>
<path d="M21.54 12.5254L21.54 12.2269L19.9412 12.2269L19.9412 12.5254L21.54 12.5254Z" fill="#E1E1E1" fill-opacity="0.5"/>
<path d="M21.54 14.0178L21.54 13.7193L19.9412 13.7193L19.9412 14.0178L21.54 14.0178Z" fill="#E1E1E1" fill-opacity="0.5"/>
<path d="M21.54 17.0023L21.54 16.7038L19.9412 16.7038L19.9412 17.0023L21.54 17.0023Z" fill="#E1E1E1" fill-opacity="0.5"/>
<path d="M21.54 18.4947L21.54 18.1962L19.9412 18.1962L19.9412 18.4947L21.54 18.4947Z" fill="#E1E1E1" fill-opacity="0.5"/>
<path d="M21.54 19.9874L21.54 19.689L19.9412 19.689L19.9412 19.9874L21.54 19.9874Z" fill="#E1E1E1" fill-opacity="0.5"/>
<path d="M21.54 21.4798L21.54 21.1813L19.9412 21.1813L19.9412 21.4798L21.54 21.4798Z" fill="#E1E1E1" fill-opacity="0.5"/>
<path d="M21.54 24.4649L21.54 24.1664L19.9412 24.1664L19.9412 24.4649L21.54 24.4649Z" fill="#E1E1E1" fill-opacity="0.5"/>
<path d="M21.54 25.9572L21.54 25.6587L19.9412 25.6587L19.9412 25.9572L21.54 25.9572Z" fill="#E1E1E1" fill-opacity="0.5"/>
<path d="M21.54 27.4499L21.54 27.1514L19.9412 27.1514L19.9412 27.4499L21.54 27.4499Z" fill="#E1E1E1" fill-opacity="0.5"/>
<path d="M21.54 28.9422L21.54 28.6437L19.9412 28.6437L19.9412 28.9422L21.54 28.9422Z" fill="#E1E1E1" fill-opacity="0.5"/>
<path d="M48.2363 -25.6954L-0.253132 -25.6954L-0.253136 145.962L48.2363 145.962L48.2363 -25.6954ZM-0.0916369 -14.6366L-0.0916367 -25.3969L48.0748 -25.3969L48.0748 -14.6366L-0.0916369 -14.6366ZM-0.0916371 -7.17452L-0.0916371 -8.36845L1.42644 -8.36845L1.42644 -8.66694L-0.0916371 -8.66694L-0.091637 -9.86087L1.42644 -9.86087L1.42644 -10.1594L-0.091637 -10.1594L-0.091637 -11.3533L1.42644 -11.3533L1.42644 -11.6518L-0.091637 -11.6518L-0.091637 -12.8457L1.42644 -12.8457L1.42644 -13.1442L-0.091637 -13.1442L-0.0916369 -14.3381L48.0748 -14.3381L48.0748 -13.1442L46.5568 -13.1442L46.5568 -12.8457L48.0748 -12.8457L48.0748 -11.6518L46.5568 -11.6518L46.5568 -11.3533L48.0748 -11.3533L48.0748 -10.1593L46.5568 -10.1593L46.5568 -9.86086L48.0748 -9.86086L48.0748 -8.66693L46.5568 -8.66693L46.5568 -8.36845L48.0748 -8.36845L48.0748 -7.17452L-0.0916371 -7.17452ZM-0.0916373 0.287544L-0.0916372 -0.906387L1.42644 -0.906387L1.42644 -1.20487L-0.0916372 -1.20487L-0.0916372 -2.3988L1.42644 -2.3988L1.42644 -2.69728L-0.0916372 -2.69728L-0.0916372 -3.89121L1.42644 -3.89121L1.42644 -4.1897L-0.0916372 -4.1897L-0.0916371 -5.38363L1.42644 -5.38363L1.42644 -5.68211L-0.0916371 -5.68211L-0.0916371 -6.87604L48.0748 -6.87604L48.0748 -5.68211L46.5568 -5.68211L46.5568 -5.38362L48.0748 -5.38362L48.0748 -4.18969L46.5568 -4.18969L46.5568 -3.89121L48.0748 -3.89121L48.0748 -2.69728L46.5568 -2.69728L46.5568 -2.3988L48.0748 -2.3988L48.0748 -1.20487L46.5568 -1.20487L46.5568 -0.906384L48.0748 -0.906384L48.0748 0.287548L-0.0916373 0.287544ZM-0.0916374 7.74961L-0.0916374 6.55568L1.42644 6.55568L1.42644 6.2572L-0.0916374 6.2572L-0.0916374 5.06327L1.42644 5.06327L1.42644 4.76478L-0.0916374 4.76478L-0.0916373 3.57085L1.42644 3.57085L1.42644 3.27237L-0.0916373 3.27237L-0.0916373 2.07844L1.42644 2.07844L1.42644 1.77996L-0.0916373 1.77996L-0.0916373 0.586027L48.0748 0.586031L48.0748 1.77996L46.5568 1.77996L46.5568 2.07844L48.0748 2.07844L48.0748 3.27238L46.5568 3.27237L46.5568 3.57086L48.0748 3.57086L48.0748 4.76479L46.5568 4.76479L46.5568 5.06327L48.0748 5.06327L48.0748 6.2572L46.5568 6.2572L46.5568 6.55568L48.0748 6.55568L48.0748 7.74961L-0.0916374 7.74961ZM-0.0916376 15.2117L-0.0916376 14.0177L1.42644 14.0177L1.42644 13.7193L-0.0916376 13.7193L-0.0916376 12.5253L1.42644 12.5253L1.42644 12.2269L-0.0916376 12.2269L-0.0916375 11.0329L1.42644 11.0329L1.42644 10.7344L-0.0916375 10.7344L-0.0916375 9.54051L1.42644 9.54051L1.42644 9.24203L-0.0916375 9.24203L-0.0916375 8.0481L48.0748 8.0481L48.0748 9.24203L46.5568 9.24203L46.5568 9.54051L48.0748 9.54051L48.0748 10.7344L46.5568 10.7344L46.5568 11.0329L48.0748 11.0329L48.0748 12.2269L46.5568 12.2269L46.5568 12.5253L48.0748 12.5253L48.0748 13.7193L46.5568 13.7193L46.5568 14.0178L48.0748 14.0178L48.0748 15.2117L-0.0916376 15.2117ZM-0.0916378 22.6737L-0.0916378 21.4798L1.42644 21.4798L1.42644 21.1813L-0.0916378 21.1813L-0.0916377 19.9874L1.42644 19.9874L1.42644 19.6889L-0.0916377 19.6889L-0.0916377 18.495L1.42644 18.495L1.42644 18.1965L-0.0916377 18.1965L-0.0916377 17.0026L1.42644 17.0026L1.42644 16.7041L-0.0916377 16.7041L-0.0916376 15.5102L48.0748 15.5102L48.0748 16.7041L46.5568 16.7041L46.5568 17.0026L48.0748 17.0026L48.0748 18.1965L46.5568 18.1965L46.5568 18.495L48.0748 18.495L48.0748 19.6889L46.5568 19.6889L46.5568 19.9874L48.0748 19.9874L48.0748 21.1813L46.5568 21.1813L46.5568 21.4798L48.0748 21.4798L48.0748 22.6738L-0.0916378 22.6737ZM-0.091638 30.1358L-0.0916379 28.9419L1.42644 28.9419L1.42644 28.6434L-0.0916379 28.6434L-0.0916379 27.4495L1.42644 27.4495L1.42644 27.151L-0.0916379 27.151L-0.0916379 25.9571L1.42644 25.9571L1.42644 25.6586L-0.0916379 25.6586L-0.0916378 24.4646L1.42644 24.4646L1.42644 24.1662L-0.0916378 24.1662L-0.0916378 22.9722L48.0748 22.9722L48.0748 24.1662L46.5568 24.1662L46.5568 24.4646L48.0748 24.4646L48.0748 25.6586L46.5568 25.6586L46.5568 25.9571L48.0748 25.9571L48.0748 27.151L46.5568 27.151L46.5568 27.4495L48.0748 27.4495L48.0748 28.6434L46.5568 28.6434L46.5568 28.9419L48.0748 28.9419L48.0748 30.1358L-0.091638 30.1358ZM-0.0916382 37.5979L-0.0916381 36.404L1.42644 36.404L1.42644 36.1055L-0.0916381 36.1055L-0.0916381 34.9115L1.42644 34.9115L1.42644 34.6131L-0.0916381 34.6131L-0.0916381 33.4191L1.42644 33.4191L1.42644 33.1206L-0.091638 33.1206L-0.091638 31.9267L1.42644 31.9267L1.42644 31.6282L-0.091638 31.6282L-0.091638 30.4343L48.0748 30.4343L48.0748 31.6282L46.5568 31.6282L46.5568 31.9267L48.0748 31.9267L48.0748 33.1206L46.5568 33.1206L46.5568 33.4191L48.0748 33.4191L48.0748 34.6131L46.5568 34.6131L46.5568 34.9115L48.0748 34.9115L48.0748 36.1055L46.5568 36.1055L46.5568 36.404L48.0748 36.404L48.0748 37.5979L-0.0916382 37.5979ZM-0.0916383 45.0599L-0.0916383 43.866L1.42644 43.866L1.42644 43.5675L-0.0916383 43.5675L-0.0916383 42.3736L1.42644 42.3736L1.42644 42.0751L-0.0916383 42.0751L-0.0916382 40.8812L1.42644 40.8812L1.42644 40.5827L-0.0916382 40.5827L-0.0916382 39.3888L1.42644 39.3888L1.42644 39.0903L-0.0916382 39.0903L-0.0916382 37.8964L48.0748 37.8964L48.0748 39.0903L46.5568 39.0903L46.5568 39.3888L48.0748 39.3888L48.0748 40.5827L46.5568 40.5827L46.5568 40.8812L48.0748 40.8812L48.0748 42.0751L46.5568 42.0751L46.5568 42.3736L48.0748 42.3736L48.0748 43.5675L46.5568 43.5675L46.5568 43.866L48.0748 43.866L48.0748 45.06L-0.0916383 45.0599ZM-0.0916385 52.522L-0.0916385 51.3281L1.42644 51.3281L1.42644 51.0296L-0.0916385 51.0296L-0.0916384 49.8357L1.42644 49.8357L1.42644 49.5372L-0.0916384 49.5372L-0.0916384 48.3433L1.42644 48.3433L1.42644 48.0448L-0.0916384 48.0448L-0.0916384 46.8508L1.42644 46.8508L1.42644 46.5524L-0.0916384 46.5524L-0.0916383 45.3584L48.0748 45.3584L48.0748 46.5524L46.5568 46.5524L46.5568 46.8509L48.0748 46.8509L48.0748 48.0448L46.5568 48.0448L46.5568 48.3433L48.0748 48.3433L48.0748 49.5372L46.5568 49.5372L46.5568 49.8357L48.0748 49.8357L48.0748 51.0296L46.5568 51.0296L46.5568 51.3281L48.0748 51.3281L48.0748 52.522L-0.0916385 52.522ZM-0.0916387 59.9841L-0.0916387 58.7901L1.42644 58.7901L1.42644 58.4917L-0.0916386 58.4917L-0.0916386 57.2977L1.42644 57.2977L1.42644 56.9993L-0.0916386 56.9993L-0.0916386 55.8053L1.42644 55.8053L1.42644 55.5068L-0.0916386 55.5068L-0.0916385 54.3129L1.42644 54.3129L1.42644 54.0144L-0.0916385 54.0144L-0.0916385 52.8205L48.0748 52.8205L48.0748 54.0144L46.5568 54.0144L46.5568 54.3129L48.0748 54.3129L48.0748 55.5068L46.5568 55.5068L46.5568 55.8053L48.0748 55.8053L48.0748 56.9993L46.5568 56.9993L46.5568 57.2977L48.0748 57.2977L48.0748 58.4917L46.5568 58.4917L46.5568 58.7902L48.0748 58.7902L48.0748 59.9841L-0.0916387 59.9841ZM-0.0916389 67.4461L-0.0916388 66.2522L1.42644 66.2522L1.42644 65.9537L-0.0916388 65.9537L-0.0916388 64.7598L1.42644 64.7598L1.42644 64.4613L-0.0916388 64.4613L-0.0916388 63.2674L1.42644 63.2674L1.42644 62.9689L-0.0916388 62.9689L-0.0916387 61.775L1.42644 61.775L1.42644 61.4765L-0.0916387 61.4765L-0.0916387 60.2826L48.0748 60.2826L48.0748 61.4765L46.5568 61.4765L46.5568 61.775L48.0748 61.775L48.0748 62.9689L46.5568 62.9689L46.5568 63.2674L48.0748 63.2674L48.0748 64.4613L46.5568 64.4613L46.5568 64.7598L48.0748 64.7598L48.0748 65.9537L46.5568 65.9537L46.5568 66.2522L48.0748 66.2522L48.0748 67.4462L-0.0916389 67.4461ZM-0.091639 74.9082L-0.091639 73.7143L1.42644 73.7143L1.42644 73.4158L-0.091639 73.4158L-0.091639 72.2219L1.42644 72.2219L1.42644 71.9234L-0.091639 71.9234L-0.0916389 70.7295L1.42644 70.7295L1.42644 70.431L-0.0916389 70.431L-0.0916389 69.237L1.42644 69.237L1.42644 68.9386L-0.0916389 68.9386L-0.0916389 67.7446L48.0748 67.7446L48.0748 68.9386L46.5568 68.9386L46.5568 69.2371L48.0748 69.2371L48.0748 70.431L46.5568 70.431L46.5568 70.7295L48.0748 70.7295L48.0748 71.9234L46.5568 71.9234L46.5568 72.2219L48.0748 72.2219L48.0748 73.4158L46.5568 73.4158L46.5568 73.7143L48.0748 73.7143L48.0748 74.9082L-0.091639 74.9082ZM-0.0916392 82.3703L-0.0916392 81.1764L1.42643 81.1764L1.42643 80.8779L-0.0916392 80.8779L-0.0916391 79.6839L1.42643 79.6839L1.42643 79.3855L-0.0916391 79.3855L-0.0916391 78.1915L1.42643 78.1915L1.42643 77.893L-0.0916391 77.893L-0.0916391 76.6991L1.42643 76.6991L1.42643 76.4006L-0.0916391 76.4006L-0.091639 75.2067L48.0748 75.2067L48.0748 76.4006L46.5568 76.4006L46.5568 76.6991L48.0748 76.6991L48.0748 77.8931L46.5568 77.8931L46.5568 78.1915L48.0748 78.1915L48.0748 79.3855L46.5568 79.3855L46.5568 79.6839L48.0748 79.6839L48.0748 80.8779L46.5568 80.8779L46.5568 81.1764L48.0748 81.1764L48.0748 82.3703L-0.0916392 82.3703ZM-0.0916394 89.8324L-0.0916394 88.6384L1.42643 88.6384L1.42643 88.3399L-0.0916394 88.3399L-0.0916393 87.146L1.42643 87.146L1.42643 86.8475L-0.0916393 86.8475L-0.0916393 85.6536L1.42643 85.6536L1.42643 85.3551L-0.0916393 85.3551L-0.0916393 84.1612L1.42643 84.1612L1.42643 83.8627L-0.0916392 83.8627L-0.0916392 82.6688L48.0748 82.6688L48.0748 83.8627L46.5568 83.8627L46.5568 84.1612L48.0748 84.1612L48.0748 85.3551L46.5568 85.3551L46.5568 85.6536L48.0748 85.6536L48.0748 86.8475L46.5568 86.8475L46.5568 87.146L48.0748 87.146L48.0748 88.3399L46.5568 88.3399L46.5568 88.6384L48.0748 88.6384L48.0748 89.8324L-0.0916394 89.8324ZM-0.0916396 97.2944L-0.0916395 96.1005L1.42643 96.1005L1.42643 95.802L-0.0916395 95.802L-0.0916395 94.6081L1.42643 94.6081L1.42643 94.3096L-0.0916395 94.3096L-0.0916395 93.1157L1.42643 93.1157L1.42643 92.8172L-0.0916395 92.8172L-0.0916394 91.6232L1.42643 91.6232L1.42643 91.3248L-0.0916394 91.3248L-0.0916394 90.1308L48.0748 90.1308L48.0748 91.3248L46.5568 91.3248L46.5568 91.6233L48.0748 91.6233L48.0748 92.8172L46.5568 92.8172L46.5568 93.1157L48.0748 93.1157L48.0748 94.3096L46.5568 94.3096L46.5568 94.6081L48.0748 94.6081L48.0748 95.802L46.5568 95.802L46.5568 96.1005L48.0748 96.1005L48.0748 97.2944L-0.0916396 97.2944ZM-0.0916397 104.756L-0.0916397 103.563L1.42643 103.563L1.42643 103.264L-0.0916397 103.264L-0.0916397 102.07L1.42643 102.07L1.42643 101.772L-0.0916397 101.772L-0.0916396 100.578L1.42643 100.578L1.42643 100.279L-0.0916396 100.279L-0.0916396 99.0853L1.42643 99.0853L1.42643 98.7868L-0.0916396 98.7868L-0.0916396 97.5929L48.0748 97.5929L48.0748 98.7868L46.5568 98.7868L46.5568 99.0853L48.0748 99.0853L48.0748 100.279L46.5568 100.279L46.5568 100.578L48.0748 100.578L48.0748 101.772L46.5568 101.772L46.5568 102.07L48.0748 102.07L48.0748 103.264L46.5568 103.264L46.5568 103.563L48.0748 103.563L48.0748 104.757L-0.0916397 104.756ZM-0.0916399 112.219L-0.0916399 111.025L1.42643 111.025L1.42643 110.726L-0.0916399 110.726L-0.0916399 109.532L1.42643 109.532L1.42643 109.234L-0.0916398 109.234L-0.0916398 108.04L1.42643 108.04L1.42643 107.741L-0.0916398 107.741L-0.0916398 106.547L1.42643 106.547L1.42643 106.249L-0.0916398 106.249L-0.0916398 105.055L48.0748 105.055L48.0748 106.249L46.5568 106.249L46.5568 106.547L48.0748 106.547L48.0748 107.741L46.5568 107.741L46.5568 108.04L48.0748 108.04L48.0748 109.234L46.5568 109.234L46.5568 109.532L48.0748 109.532L48.0748 110.726L46.5568 110.726L46.5568 111.025L48.0748 111.025L48.0748 112.219L-0.0916399 112.219ZM-0.0916401 119.681L-0.0916401 118.487L1.42643 118.487L1.42643 118.188L-0.0916401 118.188L-0.09164 116.994L1.42643 116.994L1.42643 116.696L-0.09164 116.696L-0.09164 115.502L1.42643 115.502L1.42643 115.203L-0.09164 115.203L-0.09164 114.009L1.42643 114.009L1.42643 113.711L-0.09164 113.711L-0.0916399 112.517L48.0748 112.517L48.0748 113.711L46.5568 113.711L46.5568 114.009L48.0748 114.009L48.0748 115.203L46.5568 115.203L46.5568 115.502L48.0748 115.502L48.0748 116.696L46.5568 116.696L46.5568 116.994L48.0748 116.994L48.0748 118.188L46.5568 118.188L46.5568 118.487L48.0748 118.487L48.0748 119.681L-0.0916401 119.681ZM-0.0916403 127.143L-0.0916402 125.949L1.42643 125.949L1.42643 125.65L-0.0916402 125.65L-0.0916402 124.456L1.42643 124.456L1.42643 124.158L-0.0916402 124.158L-0.0916402 122.964L1.42643 122.964L1.42643 122.665L-0.0916402 122.665L-0.0916401 121.472L1.42643 121.472L1.42643 121.173L-0.0916401 121.173L-0.0916401 119.979L48.0748 119.979L48.0748 121.173L46.5568 121.173L46.5568 121.472L48.0748 121.472L48.0748 122.665L46.5568 122.665L46.5568 122.964L48.0748 122.964L48.0748 124.158L46.5568 124.158L46.5568 124.456L48.0748 124.456L48.0748 125.65L46.5568 125.65L46.5568 125.949L48.0748 125.949L48.0748 127.143L-0.0916403 127.143ZM-0.0916404 134.605L-0.0916404 133.411L1.42643 133.411L1.42643 133.112L-0.0916404 133.112L-0.0916404 131.918L1.42643 131.918L1.42643 131.62L-0.0916404 131.62L-0.0916404 130.426L1.42643 130.426L1.42643 130.128L-0.0916403 130.128L-0.0916403 128.934L1.42643 128.934L1.42643 128.635L-0.0916403 128.635L-0.0916403 127.441L48.0748 127.441L48.0748 128.635L46.5568 128.635L46.5568 128.934L48.0748 128.934L48.0748 130.128L46.5568 130.128L46.5568 130.426L48.0748 130.426L48.0748 131.62L46.5568 131.62L46.5568 131.918L48.0748 131.918L48.0748 133.112L46.5568 133.112L46.5568 133.411L48.0748 133.411L48.0748 134.605L-0.0916404 134.605ZM-0.0916407 145.664L-0.0916405 134.903L48.0748 134.903L48.0748 145.664L-0.0916407 145.664Z" fill="#E1E1E1" fill-opacity="0.5"/>
<path d="M6.26315 -2.32437L6.49732 -2.32437L6.49732 -1.39907L8.17689 -1.39907L8.04769 -2.36914L8.26571 -2.36914L8.44336 -1.21998L8.44336 -0.831952L6.49732 -0.831952L6.49732 0.0784198L6.26315 0.0784197L6.26315 -2.32437Z" fill="#E1E1E1" fill-opacity="0.5"/>
<path d="M7.34413 0.794922C7.5137 0.794922 7.6752 0.824771 7.81248 0.884468C7.94975 0.944164 8.07087 1.03371 8.16777 1.1531C8.26466 1.27249 8.34541 1.42174 8.39386 1.60083C8.45038 1.77992 8.47461 1.98885 8.47461 2.21272C8.47461 2.4515 8.45038 2.66044 8.39386 2.83953C8.33734 3.01862 8.26466 3.16786 8.16777 3.30218C8.07087 3.42157 7.94975 3.52604 7.81247 3.58574C7.6752 3.64544 7.5137 3.67528 7.34413 3.67528C7.17456 3.67528 7.01306 3.64544 6.87579 3.58574C6.73852 3.52604 6.62547 3.42157 6.52857 3.30218C6.43167 3.18279 6.359 3.01862 6.31055 2.83953C6.2621 2.66044 6.23788 2.4515 6.23788 2.21272C6.23788 1.97393 6.2621 1.77992 6.31055 1.60083C6.359 1.42174 6.43167 1.27249 6.52857 1.1531C6.62547 1.03371 6.73852 0.944164 6.87579 0.884468C7.01306 0.824771 7.17456 0.794922 7.34413 0.794922ZM7.34413 1.37696C7.20686 1.37696 7.08574 1.39189 6.97269 1.43666C6.86771 1.46651 6.77081 1.5262 6.69814 1.60083C6.62547 1.67545 6.56087 1.76499 6.52857 1.86946C6.4882 1.97393 6.47205 2.09332 6.47205 2.24256C6.47205 2.39181 6.4882 2.5112 6.52857 2.61567C6.56895 2.72014 6.62547 2.80968 6.69814 2.8843C6.77081 2.95892 6.86771 3.01862 6.97269 3.04847C7.07766 3.09324 7.20686 3.10817 7.34413 3.10817C7.4814 3.10817 7.6106 3.09324 7.71558 3.04847C7.82862 3.0037 7.92552 2.95892 7.9982 2.8843C8.07894 2.80968 8.13547 2.72014 8.17584 2.61567C8.21622 2.5112 8.24044 2.37688 8.24044 2.24256C8.24044 2.10825 8.21622 1.97393 8.17584 1.86946C8.13547 1.76499 8.07087 1.67545 7.9982 1.60083C7.91745 1.5262 7.82862 1.48143 7.71558 1.43666C7.6106 1.39189 7.4814 1.37696 7.34413 1.37696Z" fill="#E1E1E1" fill-opacity="0.5"/>
<path d="M6.49698 14.958L6.26281 14.958L6.26281 12.2866L6.36778 12.2866C6.50506 12.2866 6.61811 12.3164 6.72308 12.3612C6.81998 12.4209 6.91688 12.4955 6.98955 12.6C7.0703 12.7045 7.14297 12.8537 7.20757 13.0179C7.27217 13.182 7.33677 13.3761 7.40137 13.6148C7.44174 13.7342 7.47404 13.8387 7.51442 13.9282C7.55479 14.0178 7.58709 14.0924 7.62746 14.1372C7.66783 14.1969 7.70821 14.2417 7.74858 14.2566C7.78896 14.2864 7.83741 14.3014 7.87778 14.3014C7.92623 14.3014 7.97468 14.2864 8.02313 14.2417C8.0635 14.1969 8.10388 14.1521 8.13618 14.0775C8.16848 14.0029 8.1927 13.9282 8.20885 13.8238C8.225 13.7342 8.23307 13.6148 8.23307 13.4954C8.23307 13.391 8.225 13.2865 8.21693 13.182C8.20885 13.0925 8.1927 12.988 8.17655 12.8985C8.16041 12.8089 8.13618 12.7194 8.12003 12.6448C8.09581 12.5552 8.07158 12.4806 8.05543 12.406L8.2573 12.2418C8.28153 12.3015 8.30575 12.3761 8.32997 12.4806C8.3542 12.5701 8.37843 12.6746 8.40265 12.794C8.42687 12.9134 8.44303 13.0328 8.45917 13.1522C8.47532 13.2865 8.4834 13.4059 8.4834 13.5551C8.4834 13.7492 8.46725 13.9432 8.44302 14.1073C8.4188 14.2715 8.37843 14.4058 8.3219 14.5252C8.27345 14.6446 8.20885 14.7342 8.13618 14.7938C8.06351 14.8535 7.98276 14.8834 7.88586 14.8834C7.80511 14.8834 7.72436 14.8535 7.65976 14.8088C7.59516 14.7491 7.53056 14.6745 7.48211 14.5849C7.42559 14.4954 7.37714 14.376 7.33677 14.2566C7.29639 14.1372 7.24795 14.0029 7.20757 13.8686C7.15912 13.7342 7.11875 13.5999 7.0703 13.4805C7.02185 13.3611 6.9734 13.2567 6.91687 13.1671C6.86035 13.0776 6.80383 13.003 6.73115 12.9582C6.66655 12.8985 6.5858 12.8686 6.49698 12.8686L6.49698 14.958Z" fill="#E1E1E1" fill-opacity="0.5"/>
<path d="M7.34413 15.6597C7.5137 15.6597 7.6752 15.6896 7.81248 15.7493C7.94975 15.809 8.07087 15.8985 8.16777 16.0179C8.26466 16.1373 8.34541 16.2865 8.39386 16.4656C8.45038 16.6447 8.47461 16.8537 8.47461 17.0775C8.47461 17.3163 8.45038 17.5252 8.39386 17.7043C8.33734 17.8834 8.26466 18.0327 8.16777 18.167C8.07087 18.2864 7.94975 18.3908 7.81247 18.4505C7.6752 18.5102 7.5137 18.5401 7.34413 18.5401C7.17456 18.5401 7.01306 18.5102 6.87579 18.4505C6.73852 18.3908 6.62547 18.2864 6.52857 18.167C6.43167 18.0476 6.359 17.8834 6.31055 17.7043C6.2621 17.5252 6.23788 17.3163 6.23788 17.0775C6.23788 16.8387 6.2621 16.6447 6.31055 16.4656C6.359 16.2865 6.43167 16.1373 6.52857 16.0179C6.62547 15.8985 6.73852 15.809 6.87579 15.7493C7.01306 15.6896 7.17456 15.6597 7.34413 15.6597ZM7.34413 16.2418C7.20686 16.2418 7.08574 16.2567 6.97269 16.3015C6.86771 16.3313 6.77081 16.391 6.69814 16.4656C6.62547 16.5403 6.56087 16.6298 6.52857 16.7343C6.4882 16.8387 6.47205 16.9581 6.47205 17.1074C6.47205 17.2566 6.4882 17.376 6.52857 17.4805C6.56895 17.5849 6.62547 17.6745 6.69814 17.7491C6.77081 17.8237 6.86771 17.8834 6.97269 17.9133C7.07766 17.958 7.20686 17.973 7.34413 17.973C7.4814 17.973 7.6106 17.958 7.71558 17.9133C7.82862 17.8685 7.92552 17.8237 7.9982 17.7491C8.07894 17.6745 8.13547 17.5849 8.17584 17.4805C8.21622 17.376 8.24044 17.2417 8.24044 17.1074C8.24044 16.9731 8.21622 16.8387 8.17584 16.7343C8.13547 16.6298 8.07087 16.5403 7.9982 16.4656C7.91745 16.391 7.82862 16.3462 7.71558 16.3015C7.6106 16.2567 7.4814 16.2418 7.34413 16.2418Z" fill="#E1E1E1" fill-opacity="0.5"/>
<path d="M7.87778 29.7628C7.76474 29.7628 7.65976 29.7031 7.57901 29.5837C7.49826 29.4643 7.43366 29.3001 7.38521 29.0912C7.34484 29.3449 7.27217 29.5539 7.18334 29.6882C7.09452 29.8225 6.98147 29.8971 6.85228 29.8971C6.76345 29.8971 6.67463 29.8673 6.60196 29.7926C6.52928 29.718 6.45661 29.6285 6.40816 29.4942C6.35164 29.3598 6.31126 29.1957 6.27896 29.0166C6.24666 28.8226 6.23051 28.6136 6.23051 28.3748C6.23051 28.2704 6.23051 28.151 6.23859 28.0465C6.24666 27.9271 6.25474 27.8226 6.27089 27.7182C6.28704 27.6137 6.30319 27.5092 6.31934 27.4197C6.33549 27.3302 6.35971 27.2406 6.38394 27.1809L6.57773 27.36C6.54543 27.4943 6.52121 27.6436 6.49698 27.7928C6.47276 27.942 6.46468 28.1211 6.46468 28.3151C6.46468 28.4644 6.47276 28.5987 6.48891 28.733C6.50506 28.8673 6.52928 28.9718 6.56158 29.0614C6.59388 29.1509 6.63426 29.2255 6.68271 29.2703C6.73116 29.3151 6.78768 29.3449 6.85228 29.3449C6.92495 29.3449 6.98147 29.3151 7.038 29.2703C7.08645 29.2255 7.12682 29.1509 7.1672 29.0614C7.1995 28.9718 7.22372 28.8673 7.23987 28.7479C7.25602 28.6286 7.26409 28.4942 7.26409 28.3599L7.26409 27.8226L7.49826 27.8226L7.49826 28.3599C7.49826 28.4793 7.50634 28.5987 7.52249 28.7032C7.53864 28.8076 7.56286 28.8972 7.59516 28.9718C7.62746 29.0464 7.66784 29.1061 7.71629 29.1509C7.76474 29.1957 7.82126 29.2106 7.88586 29.2106C7.95046 29.2106 8.00698 29.1807 8.05543 29.136C8.10388 29.0912 8.14425 29.0315 8.16848 28.942C8.20078 28.8524 8.21693 28.7629 8.23307 28.6584C8.24922 28.5539 8.2573 28.4196 8.2573 28.3002C8.2573 28.2107 8.2573 28.1211 8.24923 28.0465C8.24115 27.9719 8.23308 27.8973 8.225 27.8226C8.21693 27.748 8.20078 27.6883 8.1927 27.6137C8.17655 27.554 8.1604 27.4794 8.14425 27.4197L8.32997 27.2257C8.3542 27.2854 8.37842 27.36 8.39457 27.4495C8.41072 27.5391 8.42687 27.6286 8.44302 27.7331C8.45917 27.8376 8.46725 27.942 8.47532 28.0465C8.4834 28.151 8.4834 28.2555 8.4834 28.3599C8.4834 28.5689 8.46725 28.7629 8.44302 28.942C8.41072 29.1211 8.37035 29.2554 8.3219 29.3897C8.27345 29.5091 8.20885 29.5986 8.1281 29.6732C8.05543 29.7329 7.96661 29.7628 7.87778 29.7628Z" fill="#E1E1E1" fill-opacity="0.5"/>
<path d="M7.03006 11.9136L7.35305 10.1973L7.66797 11.9136L7.03006 11.9136Z" fill="#E1E1E1" fill-opacity="0.5"/>
<path d="M7.03006 26.8377L7.35305 25.1215L7.66797 26.8377L7.03006 26.8377Z" fill="#E1E1E1" fill-opacity="0.5"/>
</g>
<path d="M8.57106 18L6.32306 14.504H6.29106V18H5.19506V12.496H6.37106L8.52306 15.792H8.56306V12.496H9.65906V18H8.57106ZM14.5047 17.936C14.3234 17.9733 14.0994 18.0027 13.8327 18.024C13.5714 18.0507 13.3287 18.064 13.1047 18.064C12.4274 18.064 11.926 17.9813 11.6007 17.816C11.2807 17.6507 11.0674 17.376 10.9607 16.992C10.854 16.608 10.8007 16.0267 10.8007 15.248C10.8007 14.48 10.854 13.904 10.9607 13.52C11.0674 13.1307 11.2807 12.8533 11.6007 12.688C11.926 12.5173 12.4274 12.432 13.1047 12.432C13.334 12.432 13.5767 12.4453 13.8327 12.472C14.0887 12.4987 14.302 12.5333 14.4727 12.576V13.496C14.0087 13.4427 13.6487 13.416 13.3927 13.416C12.9074 13.416 12.5714 13.4533 12.3847 13.528C12.198 13.5973 12.078 13.7493 12.0247 13.984C11.9714 14.2187 11.9447 14.64 11.9447 15.248C11.9447 15.856 11.9714 16.2773 12.0247 16.512C12.078 16.7467 12.198 16.9013 12.3847 16.976C12.5714 17.0453 12.9074 17.08 13.3927 17.08C13.798 17.08 14.1687 17.0533 14.5047 17V17.936ZM19.0906 18L18.6906 16.816H16.5466L16.1546 18H15.0106L16.8746 12.496H18.4026L20.2666 18H19.0906ZM17.6346 13.568H17.5946L16.8506 15.824H18.3866L17.6346 13.568ZM24.5828 18L24.1828 16.816H22.0388L21.6468 18H20.5028L22.3668 12.496H23.8948L25.7588 18H24.5828ZM23.1268 13.568H23.0868L22.3428 15.824H23.8788L23.1268 13.568ZM26.539 18V12.496H30.163V13.48H27.675V14.88H29.867V15.864H27.675V18H26.539Z" fill="white"/>
</svg>
