<svg width="35" height="30" viewBox="0 0 35 30" fill="none" xmlns="http://www.w3.org/2000/svg">
<rect width="35" height="30" fill="#1A1A1A"/>
<mask id="mask0" mask-type="alpha" maskUnits="userSpaceOnUse" x="0" y="0" width="35" height="30">
<rect width="35" height="30" fill="#C4C4C4"/>
</mask>
<g mask="url(#mask0)">
<path d="M103.985 74.9592V-30.4524H55.1297V-32.3436H54.9047V-30.4524H46.0437V-32.3436H45.8151V-30.4524H-3.04395V74.9592H103.985ZM50.3581 34.6401C50.0242 34.6267 49.6977 34.5731 49.3783 34.4792C49.3602 34.4725 49.3421 34.4658 49.3239 34.4591C49.1824 34.4121 49.0445 34.3652 48.9066 34.2981C48.8268 34.2646 48.7433 34.2243 48.6671 34.1841C48.5946 34.1506 48.5184 34.1036 48.4458 34.0634C47.3935 33.4464 46.4537 32.36 45.6989 30.9449C45.5865 30.737 45.4776 30.5157 45.376 30.2944C45.3071 30.1468 45.2381 29.9926 45.1764 29.8383C45.1256 29.7176 45.0748 29.5902 45.024 29.4628C44.2366 27.4307 43.7722 24.9427 43.7722 22.2601C43.7722 19.6178 44.2221 17.1699 44.9877 15.158C45.0494 14.997 45.1111 14.8361 45.1764 14.6818C45.2417 14.5276 45.3071 14.3733 45.376 14.2258C45.4268 14.1118 45.4812 14.0045 45.5357 13.8972C45.5901 13.7899 45.6445 13.6826 45.6989 13.5753C46.0328 12.9449 46.4065 12.3815 46.8057 11.8987C46.8928 11.7914 46.9835 11.6841 47.0778 11.5835C47.7237 10.8793 48.4349 10.3763 49.1933 10.1013C49.3021 10.0611 49.411 10.0276 49.5199 10.0007C49.7956 9.92697 50.075 9.88673 50.3617 9.88002V34.6401H50.3581ZM50.3581 9.45081C46.588 9.56482 43.5399 15.2653 43.5399 22.2534C43.5399 29.2482 46.588 34.9419 50.3581 35.0559V74.5434H21.0427V71.606H20.8177V74.5434H-2.81534V68.6618H13.5315L13.5532 68.6417C23.6335 60.7147 30.1504 42.5068 30.1504 22.2534C30.1504 1.99998 23.6335 -16.2013 13.5532 -24.135L13.5315 -24.1484H-2.81534V-30.0299H20.8177V-27.0925H21.0427V-30.0299H50.3544V9.45081H50.3581ZM-2.81534 47.2415V39.2609H4.90993V41.1521H5.13853V39.2609H6.04568V41.1521H6.27428V39.2609H9.45656V41.1521H9.68153V39.2609H12.8638V41.1521H13.0924V39.2609H18.7748V35.0559C22.5449 34.9419 25.5929 29.2482 25.5929 22.2534C25.5929 15.2586 22.5449 9.56482 18.7748 9.45081V5.24589H13.0924V3.35468H12.8638V5.24589H9.68153V3.35468H9.45656V5.24589H6.27428V3.35468H6.04568V5.24589H5.13853V3.35468H4.90993V5.24589H-2.81534V-2.73476H-1.79208V-3.15056H-2.81534V-23.7326H13.4879C23.4738 -15.8592 29.9218 2.18776 29.9218 22.2534C29.9218 42.319 23.4702 60.366 13.4879 68.2393H-2.81534V47.664H-1.79208V47.2415H-2.81534ZM-2.81534 38.8451V35.0627H18.5426V38.8384H-2.81534V38.8451ZM-2.81534 9.44411V5.66168H18.5426V9.44411H-2.81534ZM18.7712 34.6401V9.87332C22.4143 9.98733 25.3607 15.4933 25.3607 22.2534C25.3607 29.0135 22.4143 34.5261 18.7712 34.6401ZM103.756 74.5434H80.1234V71.606H79.8984V74.5434H50.5867V35.0559C54.3568 34.9419 57.4048 29.2482 57.4048 22.2534C57.4048 15.2586 54.3568 9.56482 50.5867 9.45081V-30.0299H79.8984V-27.0925H80.1234V-30.0299H103.756V-24.1484H87.4096L87.3878 -24.135C77.304 -16.2013 70.7907 2.00668 70.7907 22.2534C70.7907 42.5001 77.304 60.708 87.3842 68.6417L87.406 68.6618H103.753V74.5434H103.756ZM50.583 34.6401V9.87332C50.8661 9.88003 51.1491 9.92697 51.4249 9.99404C51.5337 10.0209 51.6426 10.0544 51.7514 10.0946C52.5316 10.3763 53.2609 10.9061 53.9177 11.6371C53.9939 11.7176 54.0665 11.8048 54.1391 11.892C55.9679 14.1051 57.1762 17.9277 57.1762 22.2534C57.1762 26.0559 56.2436 29.4628 54.7813 31.7363C54.7015 31.8637 54.618 31.9844 54.5309 32.1051C54.11 32.702 53.6456 33.205 53.1521 33.6074C53.0541 33.6878 52.9525 33.7616 52.8545 33.8354C52.7529 33.9024 52.6513 33.9762 52.5461 34.0366C52.4445 34.0969 52.3393 34.1573 52.234 34.2109C52.1796 34.2378 52.1288 34.2646 52.0744 34.2847C51.9147 34.3585 51.7551 34.4188 51.5918 34.4725C51.5519 34.4859 51.5083 34.4993 51.4684 34.506C51.1781 34.5865 50.8806 34.6334 50.583 34.6401ZM82.3949 9.44411V5.66168H103.753V9.44411H82.3949ZM103.756 47.2415H102.733V47.664H103.756V68.2393H87.4532C77.4673 60.3593 71.0156 42.319 71.0156 22.2534C71.0156 2.18776 77.4673 -15.8592 87.4532 -23.7326H103.756V-3.15056H102.733V-2.73476H103.756V5.24589H96.0312V3.35468H95.8062V5.24589H94.8954V3.35468H94.6668V5.24589H91.4845V3.35468H91.2596V5.24589H88.0773V3.35468H87.8487V5.24589H82.1663V9.45081C78.3962 9.56482 75.3482 15.2653 75.3482 22.2534C75.3482 29.2482 78.3962 34.9419 82.1663 35.0559V39.2609H87.8487V41.1521H88.0773V39.2609H91.2596V41.1521H91.4845V39.2609H94.6668V41.1521H94.8954V39.2609H95.8062V41.1521H96.0312V39.2609H103.756V47.2415ZM82.1699 9.87332V34.6401C78.5268 34.5261 75.5804 29.0135 75.5804 22.2534C75.5804 15.4933 78.5268 9.98733 82.1699 9.87332ZM103.756 38.8451H82.3985V35.0627H103.756V38.8451ZM91.9381 34.6401C89.2638 34.6401 86.6875 34.6401 84.8877 34.6401C83.3964 34.6401 82.4348 34.6401 82.3949 34.6401V9.87332C82.4929 9.88003 88.549 9.87332 94.1842 9.87332C96.296 9.87332 98.3462 9.87332 100.004 9.87332C102.232 9.87332 103.753 9.87332 103.753 9.87332V34.6536C103.756 34.6469 97.6314 34.6401 91.9381 34.6401ZM-2.81534 9.86661C-2.81534 9.86661 -2.25654 9.86661 -1.32036 9.86661C0.486676 9.86661 3.70161 9.86661 7.0254 9.86661C12.5808 9.86661 18.4446 9.87332 18.5426 9.86661V34.6334C18.4446 34.6334 12.7295 34.6334 7.23586 34.6334C2.11229 34.6334 -2.81897 34.6401 -2.81897 34.6401V9.86661H-2.81534Z" fill="white" fill-opacity="0.2"/>
<path d="M13.4659 14.4136L13.2881 14.1454C13.5747 13.5015 13.8977 12.9047 14.246 12.3682L14.3912 12.6968C14.0573 13.2132 13.7453 13.7899 13.4659 14.4136Z" fill="white" fill-opacity="0.2"/>
<path d="M15.4839 11.342L15.375 10.9732C15.7741 10.5775 16.1951 10.2489 16.6269 10.0074L16.6922 10.4098C16.2749 10.6446 15.8685 10.9598 15.4839 11.342Z" fill="white" fill-opacity="0.2"/>
<path d="M12.5443 28.2892C12.3302 27.5515 12.156 26.7735 12.0254 25.9755L12.2431 25.8547C12.3701 26.626 12.537 27.3771 12.7439 28.0947L12.5443 28.2892Z" fill="white" fill-opacity="0.2"/>
<path d="M11.7592 23.5212C11.7374 23.1054 11.7266 22.6762 11.7266 22.2604C11.7266 21.8446 11.7374 21.4221 11.7592 21.013L11.9842 21.0532C11.9624 21.4489 11.9552 21.858 11.9552 22.2604C11.9552 22.6695 11.9661 23.0786 11.9878 23.481L11.7592 23.5212Z" fill="white" fill-opacity="0.2"/>
<path d="M12.2372 18.6723L12.0195 18.5516C12.1502 17.7536 12.3243 16.9756 12.5384 16.2312L12.738 16.4257C12.5312 17.1433 12.3606 17.9011 12.2372 18.6723Z" fill="white" fill-opacity="0.2"/>
<path d="M1.73083 28.5444V23.092L1.95943 22.7836C2.08281 23.5078 2.44929 24.0377 2.8811 24.0377C3.4145 24.0377 3.8463 23.2329 3.8463 22.2537C3.8463 21.2679 3.41087 20.4698 2.8811 20.4698C2.44929 20.4698 2.08281 20.9996 1.95943 21.7239L1.73083 21.4154V15.9497H1.50586V28.5511H1.73083V28.5444ZM2.8811 20.8923C3.29113 20.8923 3.62133 21.5026 3.62133 22.2537C3.62133 23.0049 3.29113 23.6219 2.8811 23.6219C2.47469 23.6219 2.14449 23.0049 2.14449 22.2537C2.14086 21.5026 2.47469 20.8923 2.8811 20.8923Z" fill="white" fill-opacity="0.2"/>
<path d="M2.88086 30.8647V30.4422C5.32653 30.4422 7.31137 26.7671 7.31137 22.2536C7.31137 17.7335 5.3229 14.0651 2.88086 14.0651V13.6426C5.4499 13.6426 7.53997 17.5055 7.53997 22.2536C7.53997 27.0018 5.4499 30.8647 2.88086 30.8647Z" fill="white" fill-opacity="0.2"/>
</g>
<path d="M8.15309 18L5.90509 14.504H5.87309V18H4.77709V12.496H5.95309L8.10509 15.792H8.14509V12.496H9.24109V18H8.15309ZM14.0867 17.936C13.9054 17.9733 13.6814 18.0027 13.4147 18.024C13.1534 18.0507 12.9107 18.064 12.6867 18.064C12.0094 18.064 11.5081 17.9813 11.1827 17.816C10.8627 17.6507 10.6494 17.376 10.5427 16.992C10.4361 16.608 10.3827 16.0267 10.3827 15.248C10.3827 14.48 10.4361 13.904 10.5427 13.52C10.6494 13.1307 10.8627 12.8533 11.1827 12.688C11.5081 12.5173 12.0094 12.432 12.6867 12.432C12.9161 12.432 13.1587 12.4453 13.4147 12.472C13.6707 12.4987 13.8841 12.5333 14.0547 12.576V13.496C13.5907 13.4427 13.2307 13.416 12.9747 13.416C12.4894 13.416 12.1534 13.4533 11.9667 13.528C11.7801 13.5973 11.6601 13.7493 11.6067 13.984C11.5534 14.2187 11.5267 14.64 11.5267 15.248C11.5267 15.856 11.5534 16.2773 11.6067 16.512C11.6601 16.7467 11.7801 16.9013 11.9667 16.976C12.1534 17.0453 12.4894 17.08 12.9747 17.08C13.3801 17.08 13.7507 17.0533 14.0867 17V17.936ZM18.6727 18L18.2727 16.816H16.1287L15.7367 18H14.5927L16.4567 12.496H17.9847L19.8487 18H18.6727ZM17.2167 13.568H17.1767L16.4327 15.824H17.9687L17.2167 13.568ZM24.1648 18L23.7648 16.816H21.6208L21.2288 18H20.0848L21.9488 12.496H23.4768L25.3408 18H24.1648ZM22.7088 13.568H22.6688L21.9248 15.824H23.4608L22.7088 13.568ZM26.121 12.496H28.809C29.3424 12.496 29.7344 12.6133 29.985 12.848C30.2357 13.0773 30.361 13.4213 30.361 13.88C30.361 14.264 30.2864 14.5573 30.137 14.76C29.9877 14.9627 29.7477 15.1013 29.417 15.176V15.208C29.7797 15.2827 30.0357 15.4213 30.185 15.624C30.3397 15.8267 30.417 16.1307 30.417 16.536C30.417 17.0107 30.2944 17.3733 30.049 17.624C29.809 17.8747 29.3957 18 28.809 18H26.121V12.496ZM28.401 14.728C28.7104 14.728 28.921 14.6853 29.033 14.6C29.1504 14.5093 29.209 14.3467 29.209 14.112C29.209 13.936 29.1877 13.8053 29.145 13.72C29.1024 13.6293 29.025 13.568 28.913 13.536C28.801 13.4987 28.6304 13.48 28.401 13.48H27.257V14.728H28.401ZM28.441 17.016C28.665 17.016 28.8357 16.9973 28.953 16.96C29.0704 16.9227 29.1504 16.8587 29.193 16.768C29.241 16.6773 29.265 16.544 29.265 16.368C29.265 16.192 29.241 16.0587 29.193 15.968C29.145 15.872 29.0624 15.8053 28.945 15.768C28.833 15.7307 28.665 15.712 28.441 15.712H27.257V17.016H28.441Z" fill="white"/>
</svg>
