<svg width="35" height="30" viewBox="0 0 35 30" fill="none" xmlns="http://www.w3.org/2000/svg">
<rect width="35" height="30" fill="#1A1A1A"/>
<mask id="mask0" mask-type="alpha" maskUnits="userSpaceOnUse" x="0" y="0" width="35" height="30">
<rect width="35" height="30" fill="#C4C4C4"/>
</mask>
<g mask="url(#mask0)">
<path d="M30.1911 5.49649L22.7837 -8.194H12.4695L5.06213 5.49649V24.9723L12.4695 38.6628H22.7837L30.1911 24.9723V5.49649Z" stroke="#E1E1E1" stroke-opacity="0.5" stroke-width="0.487" stroke-miterlimit="10"/>
<path d="M26.9469 7.97797L21.4405 -2.199H13.8122L8.30587 7.97797V22.4898L13.8123 32.6667H21.4405L26.9469 22.4898V7.97797Z" stroke="#E1E1E1" stroke-opacity="0.5" stroke-width="0.487" stroke-miterlimit="10"/>
</g>
<path d="M14.1833 12.496V15.536C14.1833 16.2667 14.1353 16.8027 14.0393 17.144C13.9487 17.48 13.754 17.7173 13.4553 17.856C13.1567 17.9947 12.6767 18.064 12.0153 18.064C11.354 18.064 10.874 17.9947 10.5753 17.856C10.2767 17.7173 10.0793 17.48 9.98333 17.144C9.88733 16.8027 9.83933 16.2667 9.83933 15.536V12.496H10.9753V15.824C10.9753 16.2347 10.994 16.52 11.0313 16.68C11.0687 16.84 11.1567 16.9493 11.2953 17.008C11.434 17.0667 11.674 17.096 12.0153 17.096C12.362 17.096 12.602 17.0667 12.7353 17.008C12.874 16.9493 12.9593 16.84 12.9913 16.68C13.0287 16.52 13.0473 16.2347 13.0473 15.824V12.496H14.1833ZM15.4656 18V12.496H19.0896V13.48H16.6016V14.88H18.7936V15.864H16.6016V18H15.4656ZM23.5876 17.936C23.4062 17.9733 23.1822 18.0027 22.9156 18.024C22.6542 18.0507 22.4116 18.064 22.1876 18.064C21.5102 18.064 21.0089 17.9813 20.6836 17.816C20.3636 17.6507 20.1502 17.376 20.0436 16.992C19.9369 16.608 19.8836 16.0267 19.8836 15.248C19.8836 14.48 19.9369 13.904 20.0436 13.52C20.1502 13.1307 20.3636 12.8533 20.6836 12.688C21.0089 12.5173 21.5102 12.432 22.1876 12.432C22.4169 12.432 22.6596 12.4453 22.9156 12.472C23.1716 12.4987 23.3849 12.5333 23.5556 12.576V13.496C23.0916 13.4427 22.7316 13.416 22.4756 13.416C21.9902 13.416 21.6542 13.4533 21.4676 13.528C21.2809 13.5973 21.1609 13.7493 21.1076 13.984C21.0542 14.2187 21.0276 14.64 21.0276 15.248C21.0276 15.856 21.0542 16.2773 21.1076 16.512C21.1609 16.7467 21.2809 16.9013 21.4676 16.976C21.6542 17.0453 21.9902 17.08 22.4756 17.08C22.8809 17.08 23.2516 17.0533 23.5876 17V17.936Z" fill="white"/>
</svg>
