<svg width="35" height="30" viewBox="0 0 35 30" fill="none" xmlns="http://www.w3.org/2000/svg">
<rect width="35" height="30" fill="#1A1A1A"/>
<mask id="mask0" mask-type="alpha" maskUnits="userSpaceOnUse" x="0" y="0" width="35" height="30">
<rect width="35" height="30" fill="#C4C4C4"/>
</mask>
<g mask="url(#mask0)">
<path d="M18.0983 7.29233V-6.22197L36.9508 -6.22197V1.90645H37.135V-6.56195L17.9141 -6.56195V7.28667H18.0062C18.0369 7.2895 18.0676 7.2895 18.0983 7.29233Z" fill="#E1E1E1" fill-opacity="0.5"/>
<path d="M36.9508 36.6646L18.0983 36.6646V23.7169C18.0676 23.7169 18.0369 23.7198 18.0062 23.7198H17.9141V37.0017L37.135 37.0017V28.5333H36.9508V36.6646Z" fill="#E1E1E1" fill-opacity="0.5"/>
<path d="M30.9336 8.99519C30.9459 8.97819 30.9582 8.96119 30.9704 8.94136L31.1178 8.73454V2.24654L36.9517 2.24654V1.90656L30.9336 1.90656V8.99519Z" fill="#E1E1E1" fill-opacity="0.5"/>
<path d="M31.1178 22.2745L30.9704 22.0705C30.9582 22.0535 30.9459 22.0365 30.9336 22.0167V28.5387H36.9517V28.1987H31.1178V22.2745Z" fill="#E1E1E1" fill-opacity="0.5"/>
<path d="M34.8639 9.32906H36.9518V8.98907H34.6797V21.4551H36.9518V21.1151H34.8639V9.32906Z" fill="#E1E1E1" fill-opacity="0.5"/>
<path d="M29.3791 15.5052C29.3791 13.1281 29.9426 10.9324 30.9312 9.42799V8.99451C30.4093 9.7368 29.9763 10.7001 29.677 11.7795C29.3561 12.9411 29.1934 14.1934 29.1934 15.5052C29.1934 16.8169 29.3561 18.0692 29.677 19.2308C29.9748 20.3131 30.4093 21.2735 30.9312 22.0158V21.5824C29.9426 20.0779 29.3791 17.8822 29.3791 15.5052Z" fill="#E1E1E1" fill-opacity="0.5"/>
<path d="M30.9336 8.99525V9.42872V21.5831V22.0166C30.9459 22.0336 30.9582 22.0506 30.9704 22.0704L31.1178 22.2744V8.73743L30.9704 8.94425C30.9582 8.95841 30.9459 8.97541 30.9336 8.99525Z" fill="#E1E1E1" fill-opacity="0.5"/>
<path d="M33.1254 14.8145C33.0026 14.8145 32.9043 14.9958 32.9043 15.2224C32.9043 15.4491 33.0026 15.6304 33.1254 15.6304C33.2482 15.6304 33.3465 15.4491 33.3465 15.2224C33.3465 14.9958 33.2482 14.8145 33.1254 14.8145Z" fill="#E1E1E1" fill-opacity="0.5"/>
<path d="M18.2097 15.5055C18.2097 15.3554 18.1652 15.2222 18.0977 15.1514V15.8597C18.1652 15.7888 18.2097 15.6557 18.2097 15.5055Z" fill="#E1E1E1" fill-opacity="0.5"/>
<path d="M17.7656 15.5058C17.7656 15.6815 17.827 15.8344 17.9115 15.8883V15.1205C17.827 15.1771 17.7656 15.3273 17.7656 15.5058Z" fill="#E1E1E1" fill-opacity="0.5"/>
<path d="M22.4408 15.5058C22.4408 13.3157 21.9802 11.2588 21.142 9.70623C20.3268 8.19615 19.2491 7.34336 18.0977 7.29236V7.63234C20.3989 7.74 22.2566 11.2362 22.2566 15.5058C22.2566 19.7754 20.3989 23.2715 18.0977 23.3792V23.7192C19.2491 23.6682 20.3268 22.8154 21.142 21.3053C21.9802 19.7527 22.4408 17.693 22.4408 15.5058Z" fill="#E1E1E1" fill-opacity="0.5"/>
<path d="M18.0983 15.1515V7.63224V7.29226C18.0676 7.29226 18.0369 7.28943 18.0062 7.28943H17.9141V15.1232C17.9371 15.109 17.9617 15.0977 17.9893 15.0977C18.0277 15.0977 18.066 15.1175 18.0983 15.1515Z" fill="#E1E1E1" fill-opacity="0.5"/>
<path d="M18.0983 23.7158V23.3758V15.8566C18.066 15.8906 18.0292 15.9104 17.9893 15.9104C17.9632 15.9104 17.9386 15.9019 17.9141 15.8849V23.7187H18.0062C18.0369 23.7187 18.0676 23.7187 18.0983 23.7158Z" fill="#E1E1E1" fill-opacity="0.5"/>
<path d="M18.0983 15.8574V15.1491C18.066 15.1151 18.0292 15.0953 17.9893 15.0953C17.9632 15.0953 17.9386 15.1038 17.9141 15.1208V15.8886C17.9371 15.9027 17.9617 15.9141 17.9893 15.9141C18.0277 15.9141 18.066 15.8942 18.0983 15.8574Z" fill="#E1E1E1" fill-opacity="0.5"/>
<path d="M17.9137 7.29203V-6.22227L-0.938821 -6.22227L-0.938821 1.90614H-1.12305L-1.12305 -6.56226L18.0979 -6.56226V7.28637H18.0058C17.9751 7.2892 17.9444 7.2892 17.9137 7.29203Z" fill="#E1E1E1" fill-opacity="0.5"/>
<path d="M-0.938821 36.6643L17.9137 36.6643V23.7166C17.9444 23.7166 17.9751 23.7194 18.0058 23.7194H18.0979V37.0014L-1.12305 37.0014L-1.12305 28.533H-0.938821L-0.938821 36.6643Z" fill="#E1E1E1" fill-opacity="0.5"/>
<path d="M5.0786 8.99488C5.06632 8.97788 5.05404 8.96088 5.04176 8.94105L4.89438 8.73706L4.89438 2.24623L-0.939453 2.24623V1.90625L5.0786 1.90625L5.0786 8.99488Z" fill="#E1E1E1" fill-opacity="0.5"/>
<path d="M4.89438 22.2742L5.04176 22.0702C5.05404 22.0532 5.06632 22.0362 5.0786 22.0164L5.0786 28.5384H-0.939453V28.1984H4.89438L4.89438 22.2742Z" fill="#E1E1E1" fill-opacity="0.5"/>
<path d="M1.14844 9.32875H-0.939453V8.98877H1.33267L1.33267 21.4548H-0.939453V21.1148H1.14844L1.14844 9.32875Z" fill="#E1E1E1" fill-opacity="0.5"/>
<path d="M6.63121 15.5052C6.63121 13.1281 6.06778 10.9324 5.0791 9.42799V8.99451C5.60108 9.7368 6.03401 10.7001 6.33338 11.7795C6.65424 12.9411 6.81697 14.1934 6.81697 15.5052C6.81697 16.8169 6.65424 18.0692 6.33338 19.2308C6.03554 20.3131 5.60108 21.2735 5.0791 22.0158V21.5824C6.06778 20.0779 6.63121 17.8822 6.63121 15.5052Z" fill="#E1E1E1" fill-opacity="0.5"/>
<path d="M5.07876 8.99494V9.42842L5.07876 21.5828V22.0163C5.06647 22.0333 5.05419 22.0503 5.04191 22.0701L4.89453 22.2741L4.89453 8.73712L5.04191 8.94394C5.05419 8.95811 5.06647 8.97511 5.07876 8.99494Z" fill="#E1E1E1" fill-opacity="0.5"/>
<path d="M2.88513 14.8143C3.00795 14.8143 3.10621 14.9957 3.10621 15.2223C3.10621 15.449 3.00795 15.6303 2.88513 15.6303C2.76232 15.6303 2.66406 15.449 2.66406 15.2223C2.66406 14.9957 2.76385 14.8143 2.88513 14.8143Z" fill="#E1E1E1" fill-opacity="0.5"/>
<path d="M17.8008 15.5054C17.8008 15.3552 17.8453 15.2221 17.9129 15.1512V15.8595C17.8453 15.7887 17.8008 15.6556 17.8008 15.5054Z" fill="#E1E1E1" fill-opacity="0.5"/>
<path d="M18.2435 15.5055C18.2435 15.6811 18.1821 15.8341 18.0977 15.888V15.1202C18.1821 15.1768 18.2435 15.327 18.2435 15.5055Z" fill="#E1E1E1" fill-opacity="0.5"/>
<path d="M13.5693 15.5055C13.5693 13.3154 14.0299 11.2585 14.8681 9.70593C15.6833 8.19584 16.7611 7.34305 17.9125 7.29205V7.63204C15.6112 7.7397 13.7536 11.2359 13.7536 15.5055C13.7536 19.7751 15.6112 23.2712 17.9125 23.3789V23.7189C16.7611 23.6679 15.6833 22.8151 14.8681 21.305C14.0314 19.7524 13.5693 17.6927 13.5693 15.5055Z" fill="#E1E1E1" fill-opacity="0.5"/>
<path d="M17.9141 15.1515V7.63224V7.29226C17.9448 7.29226 17.9755 7.28943 18.0062 7.28943H18.0983V15.1232C18.0753 15.109 18.0507 15.0977 18.0231 15.0977C17.9831 15.0977 17.9463 15.1175 17.9141 15.1515Z" fill="#E1E1E1" fill-opacity="0.5"/>
<path d="M17.9141 23.7155V23.3755V15.8563C17.9463 15.8903 17.9831 15.9101 18.0231 15.9101C18.0492 15.9101 18.0737 15.9016 18.0983 15.8846V23.7184H18.0062C17.9755 23.7184 17.9448 23.7184 17.9141 23.7155Z" fill="#E1E1E1" fill-opacity="0.5"/>
<path d="M17.9141 15.8571V15.1488C17.9463 15.1148 17.9831 15.095 18.0231 15.095C18.0492 15.095 18.0737 15.1035 18.0983 15.1205V15.8883C18.0753 15.9024 18.0507 15.9138 18.0231 15.9138C17.9831 15.9138 17.9463 15.8939 17.9141 15.8571Z" fill="#E1E1E1" fill-opacity="0.5"/>
</g>
<path d="M5.02578 18.064C4.24178 18.064 3.56978 18.0213 3.00978 17.936V16.984C3.66578 17.048 4.22578 17.08 4.68978 17.08C4.96178 17.08 5.17245 17.0693 5.32178 17.048C5.47645 17.0213 5.59111 16.9787 5.66578 16.92C5.73511 16.8667 5.77778 16.8027 5.79378 16.728C5.81511 16.6533 5.82578 16.5467 5.82578 16.408C5.82578 16.2533 5.81511 16.1413 5.79378 16.072C5.77245 15.9973 5.72978 15.944 5.66578 15.912C5.60178 15.8747 5.49511 15.848 5.34578 15.832L4.16978 15.696C3.81778 15.648 3.54578 15.5573 3.35378 15.424C3.16178 15.2853 3.02845 15.1093 2.95378 14.896C2.88445 14.6773 2.84978 14.408 2.84978 14.088C2.84978 13.6187 2.93511 13.264 3.10578 13.024C3.27645 12.7787 3.50578 12.6187 3.79378 12.544C4.08178 12.4693 4.45245 12.432 4.90578 12.432C5.60445 12.432 6.20178 12.4853 6.69778 12.592V13.52C6.18045 13.4507 5.66045 13.416 5.13778 13.416C4.65778 13.416 4.34045 13.456 4.18578 13.536C4.10045 13.5787 4.04711 13.6347 4.02578 13.704C4.00445 13.7733 3.99378 13.8773 3.99378 14.016C3.99378 14.176 4.00445 14.2907 4.02578 14.36C4.04711 14.4293 4.09245 14.48 4.16178 14.512C4.23645 14.5387 4.35911 14.5627 4.52978 14.584L5.79378 14.736C6.03911 14.7627 6.24178 14.8133 6.40178 14.888C6.56178 14.9573 6.68711 15.0747 6.77778 15.24C6.90578 15.4693 6.96978 15.824 6.96978 16.304C6.96978 16.8107 6.88978 17.192 6.72978 17.448C6.56978 17.704 6.35378 17.872 6.08178 17.952C5.81511 18.0267 5.46311 18.064 5.02578 18.064ZM10.2343 18.064C9.48234 18.064 8.94634 17.984 8.62634 17.824C8.30634 17.664 8.10368 17.4027 8.01834 17.04C7.93834 16.6773 7.89834 16.08 7.89834 15.248C7.89834 14.416 7.93834 13.8187 8.01834 13.456C8.10368 13.0933 8.30634 12.832 8.62634 12.672C8.94634 12.512 9.48234 12.432 10.2343 12.432C10.9863 12.432 11.5223 12.512 11.8423 12.672C12.1677 12.832 12.3703 13.0933 12.4503 13.456C12.5357 13.8187 12.5783 14.416 12.5783 15.248C12.5783 16.08 12.5357 16.6773 12.4503 17.04C12.3703 17.4027 12.1677 17.664 11.8423 17.824C11.5223 17.984 10.9863 18.064 10.2343 18.064ZM10.2343 17.08C10.6557 17.08 10.9383 17.0507 11.0823 16.992C11.2317 16.9333 11.325 16.792 11.3623 16.568C11.405 16.3387 11.4263 15.8987 11.4263 15.248C11.4263 14.5973 11.405 14.16 11.3623 13.936C11.325 13.7067 11.2317 13.5627 11.0823 13.504C10.9383 13.4453 10.6557 13.416 10.2343 13.416C9.81301 13.416 9.53034 13.4453 9.38634 13.504C9.24234 13.5627 9.14901 13.7067 9.10634 13.936C9.06368 14.1653 9.04234 14.6027 9.04234 15.248C9.04234 15.8933 9.06368 16.3307 9.10634 16.56C9.14901 16.7893 9.24234 16.9333 9.38634 16.992C9.53034 17.0507 9.81301 17.08 10.2343 17.08ZM17.2742 17.936C17.0929 17.9733 16.8689 18.0027 16.6022 18.024C16.3409 18.0507 16.0982 18.064 15.8742 18.064C15.1969 18.064 14.6956 17.9813 14.3702 17.816C14.0502 17.6507 13.8369 17.376 13.7302 16.992C13.6236 16.608 13.5702 16.0267 13.5702 15.248C13.5702 14.48 13.6236 13.904 13.7302 13.52C13.8369 13.1307 14.0502 12.8533 14.3702 12.688C14.6956 12.5173 15.1969 12.432 15.8742 12.432C16.1036 12.432 16.3462 12.4453 16.6022 12.472C16.8582 12.4987 17.0716 12.5333 17.2422 12.576V13.496C16.7782 13.4427 16.4182 13.416 16.1622 13.416C15.6769 13.416 15.3409 13.4533 15.1542 13.528C14.9676 13.5973 14.8476 13.7493 14.7942 13.984C14.7409 14.2187 14.7142 14.64 14.7142 15.248C14.7142 15.856 14.7409 16.2773 14.7942 16.512C14.8476 16.7467 14.9676 16.9013 15.1542 16.976C15.3409 17.0453 15.6769 17.08 16.1622 17.08C16.5676 17.08 16.9382 17.0533 17.2742 17V17.936ZM21.8602 17.936C21.6788 17.9733 21.4548 18.0027 21.1882 18.024C20.9268 18.0507 20.6842 18.064 20.4602 18.064C19.7828 18.064 19.2815 17.9813 18.9562 17.816C18.6362 17.6507 18.4228 17.376 18.3162 16.992C18.2095 16.608 18.1562 16.0267 18.1562 15.248C18.1562 14.48 18.2095 13.904 18.3162 13.52C18.4228 13.1307 18.6362 12.8533 18.9562 12.688C19.2815 12.5173 19.7828 12.432 20.4602 12.432C20.6895 12.432 20.9322 12.4453 21.1882 12.472C21.4442 12.4987 21.6575 12.5333 21.8282 12.576V13.496C21.3642 13.4427 21.0042 13.416 20.7482 13.416C20.2628 13.416 19.9268 13.4533 19.7402 13.528C19.5535 13.5973 19.4335 13.7493 19.3802 13.984C19.3268 14.2187 19.3002 14.64 19.3002 15.248C19.3002 15.856 19.3268 16.2773 19.3802 16.512C19.4335 16.7467 19.5535 16.9013 19.7402 16.976C19.9268 17.0453 20.2628 17.08 20.7482 17.08C21.1535 17.08 21.5242 17.0533 21.8602 17V17.936ZM22.9101 18V12.496H26.6941V13.48H24.0461V14.728H26.3181V15.712H24.0461V17.016H26.6941V18H22.9101ZM30.9925 18L30.1845 16.008H28.9445V18H27.8085V12.496H30.4005C30.8752 12.496 31.2352 12.568 31.4805 12.712C31.7312 12.8507 31.8965 13.0453 31.9765 13.296C32.0619 13.5413 32.1045 13.8587 32.1045 14.248C32.1045 15.1173 31.8432 15.6533 31.3205 15.856L32.2005 18H30.9925ZM29.9445 15.024C30.2539 15.024 30.4779 15.0027 30.6165 14.96C30.7605 14.9173 30.8512 14.8453 30.8885 14.744C30.9312 14.6373 30.9525 14.472 30.9525 14.248C30.9525 14.0187 30.9312 13.8533 30.8885 13.752C30.8512 13.6507 30.7632 13.5813 30.6245 13.544C30.4912 13.5013 30.2672 13.48 29.9525 13.48H28.9445V15.024H29.9445Z" fill="white"/>
</svg>
