<svg width="418" height="72" viewBox="0 0 418 72" fill="none" xmlns="http://www.w3.org/2000/svg">
<path d="M31.7246 7.63965H45.5886C51.1255 7.63965 55.0447 8.24038 57.3463 9.44185C58.4588 10.0064 59.4245 10.8222 60.167 11.8247C60.9094 12.8272 61.4082 13.9889 61.6238 15.2176C62.2973 19.6608 62.5735 24.1551 62.449 28.6473C62.5734 33.1431 62.2972 37.641 61.6238 42.0878C61.4082 43.3166 60.9094 44.4782 60.167 45.4807C59.4245 46.4832 58.4588 47.299 57.3463 47.8636C55.0447 49.0578 51.1255 49.6585 45.5886 49.6658H31.7246V7.63965ZM45.7406 40.0685C46.7598 40.1673 47.7864 39.9793 48.7044 39.5257C49.0257 39.1771 49.2746 38.7683 49.4367 38.3229C49.5988 37.8775 49.671 37.4044 49.649 36.9309C49.7648 35.563 49.8263 32.8235 49.8335 28.7124C49.8408 24.6014 49.7792 21.8221 49.649 20.3745C49.6928 19.4241 49.3659 18.4937 48.737 17.7798C47.8115 17.3129 46.7717 17.1208 45.7406 17.2261H44.2423V40.0251L45.7406 40.0685Z" fill="white"/>
<path d="M90.2549 49.6658L88.9738 42.9781H79.0834L77.8566 49.6983H65.5234L75.2293 7.63965H93.1319L102.783 49.6658H90.2549ZM84.2078 18.1815H83.7192L80.9182 33.6631H87.139L84.2078 18.1815Z" fill="white"/>
<path d="M137.348 49.6658V7.63965H149.963V39.6451H161.634V49.6658H137.348Z" fill="white"/>
<path d="M170.605 49.6658V35.9212L159.184 7.63965H172.005L176.891 23.9246H177.379L182.145 7.63965H194.641L183.242 35.9212V49.6658H170.605Z" fill="white"/>
<path d="M215.245 49.8503C212.618 49.6114 210.399 49.3436 208.59 49.0469V40.0142C213.269 40.3833 216.635 40.557 218.665 40.557C219.752 40.5778 220.839 40.5379 221.922 40.4376C222.43 40.4159 222.921 40.2461 223.333 39.949C223.579 39.6975 223.749 39.3812 223.822 39.0371C223.914 38.492 223.954 37.9394 223.941 37.3868C223.981 36.6502 223.877 35.913 223.637 35.2155C223.516 34.9793 223.347 34.7707 223.142 34.6026C222.936 34.4345 222.699 34.3105 222.443 34.2384C221.376 33.9469 220.287 33.7435 219.186 33.6304L213.009 32.7185C212.028 32.572 211.109 32.1535 210.355 31.5106C209.601 30.8677 209.042 30.0261 208.742 29.0815C207.808 26.1954 207.392 23.1666 207.515 20.1356C207.515 16.5891 208.138 13.8713 209.383 11.9823C210.556 10.1176 212.371 8.74677 214.485 8.12815C217.05 7.41773 219.706 7.0885 222.367 7.15105C224.653 7.14959 226.937 7.28372 229.207 7.55275C231.487 7.81331 233.3 8.08472 234.635 8.37785V17.2912C231.374 16.9145 228.093 16.7296 224.81 16.7375C223.962 16.7267 223.114 16.7594 222.269 16.8352C221.825 16.8462 221.392 16.9816 221.021 17.226C220.7 17.4643 220.464 17.7991 220.348 18.1814C220.211 18.6871 220.148 19.2102 220.163 19.7339C220.14 20.3619 220.202 20.9901 220.348 21.6013C220.407 21.788 220.506 21.9601 220.637 22.106C220.768 22.252 220.928 22.3685 221.108 22.4481C221.747 22.7007 222.414 22.8757 223.094 22.9692L228.523 23.7617C229.951 23.9854 231.334 24.4401 232.616 25.108C233.849 25.8798 234.81 27.0188 235.363 28.365C236.252 30.8293 236.647 33.4451 236.524 36.0623C236.524 40.1336 235.927 43.1952 234.755 45.2579C233.764 47.1525 232.074 48.5859 230.043 49.2532C227.57 49.9398 225.008 50.2509 222.443 50.176C220.283 50.1543 217.872 50.0457 215.245 49.8503Z" fill="white"/>
<path d="M248.325 49.6658V17.6603H239.531V7.63965H269.767V17.6603H260.908V49.6658H248.325Z" fill="white"/>
<path d="M294.499 49.6658L293.218 42.9781H283.328L282.101 49.6983H269.768L279.473 7.63965H297.376L307.028 49.6658H294.499ZM288.452 18.1815H287.963L285.162 33.6413H291.394L288.452 18.1815Z" fill="white"/>
<path d="M331.991 49.6658L325.032 33.1094H324.294V49.6658H311.711V7.63965H324.294V23.5229H325.032L332.176 7.63965H345.486L335.172 27.4965L345.616 49.6658H331.991Z" fill="white"/>
<path d="M350.482 49.6658V7.63965H376.625V17.2261H363V23.7401H374.367V33.2071H363V40.1011H376.625V49.6983L350.482 49.6658Z" fill="white"/>
<path d="M389.739 49.8501C387.111 49.6474 384.882 49.3796 383.051 49.0467V40.0139C387.73 40.383 391.096 40.5568 393.126 40.5568C394.213 40.5776 395.3 40.5377 396.383 40.4373C396.887 40.4155 397.375 40.2456 397.783 39.9488C398.037 39.7028 398.207 39.3841 398.272 39.0368C398.374 38.4929 398.418 37.9397 398.402 37.3866C398.439 36.6493 398.332 35.9118 398.087 35.2153C397.969 34.9787 397.803 34.7695 397.599 34.6011C397.395 34.4328 397.159 34.3092 396.904 34.2382C395.837 33.9475 394.747 33.7442 393.647 33.6302L387.48 32.7182C386.499 32.5712 385.579 32.1527 384.823 31.51C384.067 30.8673 383.506 30.0261 383.203 29.0813C382.273 26.1944 381.861 23.1657 381.987 20.1354C381.987 16.5889 382.609 13.8711 383.854 11.982C385.035 10.1111 386.863 8.73945 388.989 8.12792C391.551 7.41855 394.203 7.08933 396.861 7.15082C399.146 7.14935 401.43 7.28349 403.7 7.55251C405.98 7.81307 407.793 8.08449 409.129 8.37762V17.2909C405.863 16.9142 402.579 16.7294 399.292 16.7372C398.448 16.7265 397.604 16.7591 396.763 16.835C396.315 16.8479 395.88 16.983 395.503 17.2258C395.189 17.4677 394.957 17.8017 394.841 18.1812C394.704 18.6869 394.642 19.2099 394.657 19.7337C394.633 20.3616 394.695 20.9898 394.841 21.601C394.899 21.7888 394.997 21.9617 395.128 22.1079C395.259 22.2541 395.421 22.3701 395.601 22.4478C396.24 22.702 396.907 22.877 397.588 22.969L403.016 23.7615C404.448 23.9853 405.834 24.44 407.12 25.1077C408.354 25.8795 409.314 27.0186 409.867 28.3647C410.757 30.8291 411.151 33.4449 411.028 36.0621C411.028 40.1333 410.431 43.1949 409.259 45.2577C408.266 47.1501 406.576 48.5826 404.547 49.2529C402.074 49.9395 399.513 50.2506 396.947 50.1758C394.776 50.154 392.366 50.0455 389.739 49.8501Z" fill="white"/>
<path d="M6.65625 11.7002H20.4008V7.92212H24.7434V20.9501H20.4008V17.1069H6.65625V11.7002Z" fill="white"/>
<path d="M6.65625 30.8886H13.4525V28.1527H6.65625V22.7244H24.7109V28.1527H17.9906V30.8886H24.7109V36.3169H6.65625V30.8886Z" fill="white"/>
<path d="M6.65625 38.3315H24.7109V49.5573H20.5853V43.7056H17.806V48.5911H13.7456V43.7056H10.7709V49.5573H6.65625V38.3315Z" fill="white"/>
<path fill-rule="evenodd" clip-rule="evenodd" d="M118.577 42.1203L118.49 41.9355L118.403 42.1203L118.403 41.7509L117.363 39.5407L116.492 37.7135H115.03H114.687L112.8 31.0815H108.365L105.828 22.2679L106.333 21.7412H110.143L106.948 10.5095L108.42 7.63965H114.869H118.489H118.491H122.122H128.571L130.043 10.5095L126.843 21.7412H130.655L131.161 22.2679L128.613 31.0815H124.183L122.293 37.7135H121.96H120.488L119.628 39.5407L118.576 41.7542L118.577 42.1203ZM110.675 23.6114H109.042L108.354 24.2885L109.601 28.5986L110.213 29.2113H112.268L110.675 23.6114ZM124.715 29.2113L126.311 23.6114H127.947L128.635 24.2885L127.388 28.5986L126.775 29.2113H124.715ZM110.171 49.6983H126.659L124.047 42.1208H112.794L110.171 49.6983Z" fill="white"/>
<path d="M411.05 57.9929H6.65625V66.2114H411.05V57.9929Z" fill="white"/>
</svg>
