<svg width="72" height="74" viewBox="0 0 72 74" fill="none" xmlns="http://www.w3.org/2000/svg">
<g clip-path="url(#clip0)">
<path d="M0 0H72V74H0V0Z" fill="black"/>
<g clip-path="url(#clip1)">
<path fill-rule="evenodd" clip-rule="evenodd" d="M103.389 42.3507C100.792 45.6171 95.1156 46.866 89.6318 47.2503C86.938 47.4425 60.3851 47.3464 43.7413 47.3464L51.1492 44.2721C51.1492 44.2721 88.3811 44.2721 92.6142 44.2721C96.8473 44.2721 100.696 43.3114 103.389 42.3507Z" stroke="#505054" stroke-width="0.223451" stroke-miterlimit="22.9256" stroke-linejoin="round"/>
<path fill-rule="evenodd" clip-rule="evenodd" d="M17.3805 7.28472C24.7884 13.6254 39.989 26.5951 40.8549 27.4597C41.9132 28.5165 43.9335 27.844 44.7031 27.5558C45.3766 27.3636 46.6273 27.5558 47.7817 28.6125C48.9362 29.7654 49.2248 30.3418 51.9186 30.3418C54.6124 30.3418 95.885 30.3418 99.5408 30.3418C103.197 30.3418 106.275 32.3593 105.506 35.7218C103.197 45.329 98.9636 46.5779 89.6316 47.2504C85.6871 47.5386 33.0622 47.2504 31.5229 47.2504C29.9836 47.2504 29.5987 46.4818 29.6949 45.425C29.6949 44.3682 29.7911 43.5036 29.5987 43.0232C29.4063 42.5429 28.4443 42.4468 27.2898 43.5036C26.8087 44.08 25.9429 44.7525 24.9808 45.425C21.9984 47.5386 18.4388 47.6347 14.8791 47.5386C5.54711 47.4425 -1.76458 43.4075 -4.26595 32.8397C-6.4787 23.5208 -6.95973 13.3372 -7.05594 12.4726C-7.15215 11.6079 -7.9218 11.4158 -8.78766 11.1276C-9.55731 10.8394 -9.94213 9.59043 -10.2308 8.53365C-10.5194 7.47686 -15.3297 -4.62813 -16.388 -7.60634C-17.6387 -10.5845 -18.2159 -14.7156 -12.7321 -15.7724C-7.24835 -16.8292 -3.59251 -17.1174 -1.86079 -17.2135C-0.129074 -17.2135 2.27609 -17.0213 4.29642 -13.0824C5.4509 -10.7767 8.24089 -5.49277 10.4536 -1.55384C13.5322 4.30651 12.474 3.05758 17.3805 7.28472Z" stroke="#505054" stroke-width="0.223451" stroke-miterlimit="22.9256"/>
</g>
<path fill-rule="evenodd" clip-rule="evenodd" d="M37.0653 56.0114L36.9968 55.8777L36.9277 56.0114L36.9284 55.7443L36.1065 54.1402L35.4191 52.8148H34.2651H33.9935L32.5041 48.0043H29.0026L27 41.6111L27.3988 41.2291H30.4064L27.8838 33.0817L29.0463 31H34.1378H36.9956H36.9975H39.8638H44.9552L46.1178 33.0817L43.5917 41.2291H46.6012L47 41.6111L44.9889 48.0043H41.491L39.9996 52.8148H39.7365H38.574L37.8951 54.1402L37.0646 55.7466L37.0653 56.0114ZM30.8264 42.5857H29.5372L28.9941 43.0769L29.9785 46.2033L30.4622 46.6477H32.0841L30.8264 42.5857ZM41.9117 46.6477L43.1711 42.5857H44.4628L45.0059 43.0769L44.0215 46.2033L43.5378 46.6477H41.9117ZM30.4287 61.5085H43.4458L41.3838 56.0119H32.4992L30.4287 61.5085Z" fill="#FFC700"/>
<g clip-path="url(#clip2)">
<path d="M47.4737 43.3612L67.071 23.7639H94.7583L114.356 43.3612V71.0485L94.7583 90.6458H67.071L47.4737 71.0485V43.3612Z" stroke="#505054" stroke-width="0.223451" stroke-miterlimit="10"/>
<path d="M55.9724 46.8791L70.5896 32.2619H91.241L105.858 46.8791V67.5304L91.241 82.1476H70.5896L55.9724 67.5304V46.8791Z" stroke="#505054" stroke-width="0.223451" stroke-miterlimit="10"/>
</g>
<g clip-path="url(#clip3)">
<path d="M-21.5513 25.2711L-1.95403 5.67386H25.7332L45.3305 25.2711V52.9584L25.7332 72.5557H-1.95403L-21.5513 52.9584V25.2711Z" stroke="#505054" stroke-width="0.223451" stroke-miterlimit="10"/>
<path d="M-13.0532 28.789L1.564 14.1718H22.2153L36.8325 28.789V49.4404L22.2153 64.0576H1.564L-13.0532 49.4404V28.789Z" stroke="#505054" stroke-width="0.223451" stroke-miterlimit="10"/>
</g>
<g clip-path="url(#clip4)">
<path d="M114.924 51.673V-22.588L51.3118 -22.588V-23.9203H51.0189V-22.588H39.4815V-23.9203H39.1838V-22.588L-24.4327 -22.588L-24.4327 51.673L114.924 51.673ZM45.099 23.2688C44.6643 23.2594 44.2391 23.2216 43.8234 23.1554C43.7997 23.1507 43.7761 23.146 43.7525 23.1413C43.5682 23.1082 43.3887 23.0751 43.2092 23.0279C43.1052 23.0042 42.9966 22.9759 42.8974 22.9476C42.8029 22.9239 42.7036 22.8909 42.6091 22.8625C41.239 22.4278 40.0154 21.6625 39.0326 20.6656C38.8862 20.5191 38.7444 20.3632 38.6121 20.2073C38.5224 20.1034 38.4326 19.9947 38.3523 19.886C38.2862 19.801 38.22 19.7112 38.1539 19.6214C37.1286 18.1899 36.5239 16.4371 36.5239 14.5472C36.5239 12.6857 37.1097 10.9613 38.1066 9.5439C38.1869 9.43051 38.2673 9.31712 38.3523 9.20845C38.4373 9.09979 38.5224 8.99112 38.6121 8.88718C38.6783 8.80687 38.7492 8.73127 38.82 8.65568C38.8909 8.58009 38.9618 8.50449 39.0326 8.4289C39.4673 7.98479 39.9539 7.58792 40.4736 7.24775C40.587 7.17216 40.7051 7.09657 40.828 7.0257C41.669 6.52962 42.595 6.17527 43.5824 5.98156C43.7242 5.95321 43.8659 5.92959 44.0076 5.91069C44.3667 5.85872 44.7305 5.83038 45.1037 5.82565L45.1037 23.2688H45.099ZM45.099 5.52328C40.1902 5.60359 36.2215 9.6195 36.2215 14.5425C36.2215 19.4703 40.1902 23.4814 45.099 23.5618V51.3801L6.92907 51.3801V49.3108H6.63614V51.3801H-24.1351V47.2367H-2.85083L-2.82248 47.2225C10.3024 41.638 18.7878 28.8108 18.7878 14.5425C18.7878 0.27426 10.3024 -12.5483 -2.82248 -18.1375L-2.85083 -18.1469L-24.1351 -18.1469V-22.2904L6.63614 -22.2904V-20.221H6.92907V-22.2904L45.0943 -22.2904V5.52328H45.099ZM-24.1351 32.1463L-24.1351 26.5241H-14.0764V27.8564H-13.7788V26.5241H-12.5976V27.8564H-12.3V26.5241H-8.15654V27.8564H-7.86361V26.5241H-3.72015V27.8564H-3.4225V26.5241L3.9762 26.5241V23.5618C8.88505 23.4814 12.8537 19.4703 12.8537 14.5425C12.8537 9.61477 8.88505 5.60359 3.9762 5.52328V2.56096H-3.4225V1.22863H-3.72015V2.56096H-7.86361V1.22863H-8.15654V2.56096H-12.3V1.22863H-12.5976V2.56096L-13.7788 2.56096V1.22863H-14.0764V2.56096H-24.1351V-3.0613H-22.8028V-3.35422H-24.1351L-24.1351 -17.854L-2.90752 -17.854C10.0945 -12.3073 18.4901 0.406548 18.4901 14.5425C18.4901 28.6785 10.0898 41.3923 -2.90752 46.939H-24.1351V32.444H-22.8028V32.1463H-24.1351ZM-24.1351 26.2311V23.5665L3.67383 23.5665V26.2264L-24.1351 26.2264V26.2311ZM-24.1351 5.51855V2.85388L3.67383 2.85388V5.51855L-24.1351 5.51855ZM3.97148 23.2688L3.97148 5.82093C8.71496 5.90125 12.5513 9.78013 12.5513 14.5425C12.5513 19.3049 8.71496 23.1885 3.97148 23.2688ZM114.626 51.3801L83.8548 51.3801V49.3108H83.5619V51.3801H45.3967V23.5618C50.3055 23.4814 54.2742 19.4703 54.2742 14.5425C54.2742 9.61477 50.3055 5.60359 45.3967 5.52328V-22.2904L83.5619 -22.2904V-20.221H83.8548V-22.2904L114.626 -22.2904V-18.1469L93.3418 -18.1469L93.3134 -18.1375C80.1838 -12.5483 71.7032 0.278986 71.7032 14.5425C71.7032 28.806 80.1838 41.6333 93.3087 47.2225L93.337 47.2367L114.621 47.2367V51.3801H114.626ZM45.3919 23.2688L45.3919 5.82093C45.7604 5.82565 46.129 5.85872 46.488 5.90597C46.6298 5.92487 46.7715 5.94849 46.9132 5.97684C47.929 6.17527 48.8787 6.54851 49.7338 7.06349C49.833 7.12019 49.9275 7.18161 50.022 7.24303C52.4032 8.80214 53.9765 11.4952 53.9765 14.5425C53.9765 17.2214 52.7623 19.6214 50.8583 21.2231C50.7543 21.3128 50.6457 21.3979 50.5323 21.4829C49.9842 21.9034 49.3795 22.2578 48.7369 22.5412C48.6094 22.5979 48.4771 22.6499 48.3495 22.7019C48.2172 22.7491 48.0849 22.8011 47.9479 22.8436C47.8156 22.8861 47.6786 22.9287 47.5416 22.9665C47.4707 22.9854 47.4046 23.0042 47.3337 23.0184C47.1259 23.0704 46.918 23.1129 46.7054 23.1507C46.6534 23.1602 46.5967 23.1696 46.5447 23.1743C46.1668 23.231 45.7793 23.2641 45.3919 23.2688ZM86.8124 5.51855V2.85388L114.621 2.85388V5.51855L86.8124 5.51855ZM114.626 32.1463H113.294V32.444H114.626V46.939L93.3985 46.939C80.3964 41.3876 71.9961 28.6785 71.9961 14.5425C71.9961 0.406548 80.3964 -12.3073 93.3985 -17.854L114.626 -17.854V-3.35422H113.294V-3.0613H114.626V2.56096H104.567V1.22863H104.274V2.56096H103.089V1.22863H102.791V2.56096H98.6475V1.22863H98.3546V2.56096L94.2111 2.56096V1.22863H93.9134V2.56096H86.5147V5.52328C81.6059 5.60359 77.6372 9.6195 77.6372 14.5425C77.6372 19.4703 81.6059 23.4814 86.5147 23.5618V26.5241H93.9134V27.8564H94.2111V26.5241H98.3546V27.8564H98.6475V26.5241H102.791V27.8564H103.089V26.5241H104.274V27.8564H104.567V26.5241H114.626V32.1463ZM86.5195 5.82093L86.5195 23.2688C81.776 23.1885 77.9396 19.3049 77.9396 14.5425C77.9396 9.78013 81.776 5.90125 86.5195 5.82093ZM114.626 26.2311H86.8171V23.5665H114.626V26.2311ZM99.238 23.2688C95.756 23.2688 92.4016 23.2688 90.0582 23.2688C88.1164 23.2688 86.8644 23.2688 86.8124 23.2688L86.8124 5.82093C86.9399 5.82565 94.8253 5.82093 102.163 5.82093C104.912 5.82093 107.582 5.82093 109.741 5.82093C112.642 5.82093 114.621 5.82093 114.621 5.82093V23.2783C114.626 23.2736 106.651 23.2688 99.238 23.2688ZM-24.1351 5.8162C-24.1351 5.8162 -23.4075 5.8162 -22.1886 5.8162C-19.8357 5.8162 -15.6497 5.8162 -11.322 5.8162C-4.08867 5.8162 3.54626 5.82092 3.67383 5.8162L3.67383 23.2641C3.54626 23.2641 -3.89496 23.2641 -11.048 23.2641C-17.7191 23.2641 -24.1398 23.2688 -24.1398 23.2688L-24.1398 5.8162H-24.1351Z" fill="#505054"/>
<path d="M1.18864 23.1789C0.626411 23.0088 0.0783594 22.7773 -0.441345 22.4985L-0.299608 22.2387C0.201199 22.508 0.735078 22.73 1.27841 22.8954L1.18864 23.1789Z" fill="#505054"/>
</g>
<g clip-path="url(#clip5)">
<path d="M24.819 8.02179H24.5778V10.4099H24.819V8.02179Z" fill="#505054"/>
<path d="M26.0252 8.02179H25.784V10.4099H26.0252V8.02179Z" fill="#505054"/>
<path d="M28.4373 8.02179H28.196V10.4099H28.4373V8.02179Z" fill="#505054"/>
<path d="M29.6435 8.02179H29.4023V10.4099H29.6435V8.02179Z" fill="#505054"/>
<path d="M30.8498 8.02179H30.6086V10.4099H30.8498V8.02179Z" fill="#505054"/>
<path d="M32.0556 8.02179H31.8143V10.4099H32.0556V8.02179Z" fill="#505054"/>
<path d="M34.4681 8.02179H34.2269V10.4099H34.4681V8.02179Z" fill="#505054"/>
<path d="M35.6743 8.02179H35.4331V10.4099H35.6743V8.02179Z" fill="#505054"/>
<path d="M36.8801 8.02179H36.6389V10.4099H36.8801V8.02179Z" fill="#505054"/>
<path d="M38.0864 8.02179H37.8452V10.4099H38.0864V8.02179Z" fill="#505054"/>
<path d="M40.4984 8.02179H40.2572V10.4099H40.4984V8.02179Z" fill="#505054"/>
<path d="M41.7047 8.02179H41.4634V10.4099H41.7047V8.02179Z" fill="#505054"/>
<path d="M42.911 8.02179H42.6697V10.4099H42.911V8.02179Z" fill="#505054"/>
<path d="M44.1172 8.02179H43.876V10.4099H44.1172V8.02179Z" fill="#505054"/>
<path d="M46.5293 8.02179H46.288V10.4099H46.5293V8.02179Z" fill="#505054"/>
<path d="M47.7355 8.02179H47.4943V10.4099H47.7355V8.02179Z" fill="#505054"/>
<path d="M24.819 17.6708H24.5778V20.059H24.819V17.6708Z" fill="#505054"/>
<path d="M26.0252 17.6708H25.784V20.059H26.0252V17.6708Z" fill="#505054"/>
<path d="M28.4373 17.6708H28.196V20.059H28.4373V17.6708Z" fill="#505054"/>
<path d="M29.6435 17.6708H29.4023V20.059H29.6435V17.6708Z" fill="#505054"/>
<path d="M30.8498 17.6708H30.6086V20.059H30.8498V17.6708Z" fill="#505054"/>
<path d="M32.0556 17.6708H31.8143V20.059H32.0556V17.6708Z" fill="#505054"/>
<path d="M34.4681 17.6708H34.2269V20.059H34.4681V17.6708Z" fill="#505054"/>
<path d="M35.6743 17.6708H35.4331V20.059H35.6743V17.6708Z" fill="#505054"/>
<path d="M36.8801 17.6708H36.6389V20.059H36.8801V17.6708Z" fill="#505054"/>
<path d="M38.0864 17.6708H37.8452V20.059H38.0864V17.6708Z" fill="#505054"/>
<path d="M40.4984 17.6708H40.2572V20.059H40.4984V17.6708Z" fill="#505054"/>
<path d="M41.7047 17.6708H41.4634V20.059H41.7047V17.6708Z" fill="#505054"/>
<path d="M42.911 17.6708H42.6697V20.059H42.911V17.6708Z" fill="#505054"/>
<path d="M44.1172 17.6708H43.876V20.059H44.1172V17.6708Z" fill="#505054"/>
<path d="M46.5293 17.6708H46.288V20.059H46.5293V17.6708Z" fill="#505054"/>
<path d="M47.7355 17.6708H47.4943V20.059H47.7355V17.6708Z" fill="#505054"/>
<path d="M12.0225 -22.2039L12.0225 50.2245L150.752 50.2245V-22.2039L12.0225 -22.2039ZM20.9599 49.9833H12.2637L12.2637 -21.9626H20.9599L20.9599 49.9833ZM26.9906 49.9833H26.0257L26.0257 47.7158H25.7845L25.7845 49.9833H24.8196L24.8196 47.7158H24.5783L24.5783 49.9833H23.6134L23.6134 47.7158H23.3722L23.3722 49.9833H22.4073L22.4073 47.7158H22.1661L22.1661 49.9833H21.2011L21.2011 -21.9626H22.1661V-19.6951H22.4073V-21.9626L23.3722 -21.9626V-19.6951H23.6134V-21.9626H24.5783V-19.6951H24.8196V-21.9626H25.7845V-19.6951H26.0257V-21.9626H26.9906L26.9906 49.9833ZM33.0213 49.9833H32.0564V47.7158H31.8151V49.9833H30.8502V47.7158H30.609V49.9833H29.6441V47.7158H29.4029V49.9833H28.438V47.7158H28.1967V49.9833H27.2318L27.2318 -21.9626H28.1967V-19.6951H28.438V-21.9626H29.4029V-19.6951H29.6441V-21.9626H30.609V-19.6951H30.8502V-21.9626H31.8151V-19.6951H32.0564V-21.9626H33.0213L33.0213 49.9833ZM39.0519 49.9833H38.087V47.7158H37.8458V49.9833H36.8809V47.7158H36.6397V49.9833H35.6748V47.7158H35.4335V49.9833H34.4686V47.7158H34.2274V49.9833H33.2625L33.2625 -21.9626H34.2274V-19.6951H34.4686V-21.9626H35.4335V-19.6951H35.6748V-21.9626H36.6397V-19.6951H36.8809V-21.9626H37.8458V-19.6951H38.087V-21.9626H39.0519L39.0519 49.9833ZM45.0826 49.9833H44.1177V47.7158H43.8765V49.9833H42.9116V47.7158H42.6704V49.9833H41.7054V47.7158H41.4642V49.9833H40.4993V47.7158H40.2581V49.9833H39.2932L39.2932 -21.9626H40.2581V-19.6951H40.4993V-21.9626H41.4642V-19.6951H41.7054V-21.9626H42.6704V-19.6951H42.9116V-21.9626H43.8765V-19.6951H44.1177V-21.9626L45.0826 -21.9626L45.0826 49.9833ZM51.1133 49.9833H50.1484V47.7158H49.9072V49.9833H48.9423V47.7158H48.701V49.9833H47.7361V47.7158H47.4949V49.9833H46.53V47.7158H46.2888V49.9833H45.3238L45.3238 -21.9626H46.2888V-19.6951H46.53V-21.9626H47.4949V-19.6951H47.7361V-21.9626H48.701V-19.6951H48.9423V-21.9626H49.9072V-19.6951H50.1484V-21.9626H51.1133L51.1133 49.9833ZM57.144 49.9833L56.1791 49.9833V47.7158H55.9378V49.9833H54.9729V47.7158H54.7317V49.9833H53.7668V47.7158H53.5256V49.9833H52.5607V47.7158H52.3194V49.9833H51.3545L51.3545 -21.9626H52.3194V-19.6951H52.5607V-21.9626H53.5256V-19.6951H53.7668V-21.9626H54.7317V-19.6951H54.9729V-21.9626H55.9378V-19.6951H56.1791V-21.9626H57.144L57.144 49.9833ZM63.1746 49.9833H62.2097V47.7158H61.9685V49.9833H61.0036V47.7158H60.7624V49.9833H59.7975V47.7158H59.5562V49.9833H58.5913V47.7158H58.3501V49.9833H57.3852L57.3852 -21.9626H58.3501V-19.6951H58.5913V-21.9626H59.5562V-19.6951H59.7975V-21.9626H60.7624V-19.6951H61.0036V-21.9626H61.9685V-19.6951H62.2097V-21.9626H63.1746L63.1746 49.9833ZM69.2053 49.9833H68.2404V47.7158H67.9992V49.9833H67.0343V47.7158H66.793V49.9833H65.8281V47.7158H65.5869V49.9833H64.622V47.7158H64.3808V49.9833H63.4159L63.4159 -21.9626H64.3808V-19.6951H64.622V-21.9626H65.5869V-19.6951H65.8281V-21.9626H66.793V-19.6951H67.0343V-21.9626L67.9992 -21.9626V-19.6951H68.2404V-21.9626H69.2053L69.2053 49.9833ZM75.236 49.9833H74.2711V47.7158H74.0299V49.9833H73.0649V47.7158H72.8237V49.9833H71.8588V47.7158H71.6176V49.9833H70.6527V47.7158H70.4115V49.9833H69.4465L69.4465 -21.9626H70.4115V-19.6951H70.6527V-21.9626H71.6176V-19.6951H71.8588V-21.9626H72.8237V-19.6951H73.0649V-21.9626H74.0299V-19.6951H74.2711V-21.9626H75.236L75.236 49.9833ZM81.2667 49.9833H80.3018V47.7158H80.0605V49.9833H79.0956V47.7158H78.8544V49.9833H77.8895V47.7158H77.6483V49.9833H76.6833V47.7158H76.4421V49.9833H75.4772L75.4772 -21.9626H76.4421V-19.6951H76.6833V-21.9626H77.6483V-19.6951H77.8895V-21.9626H78.8544V-19.6951H79.0956V-21.9626H80.0605V-19.6951H80.3018V-21.9626H81.2667L81.2667 49.9833ZM87.2973 49.9833H86.3324V47.7158H86.0912V49.9833H85.1263V47.7158H84.8851V49.9833H83.9202V47.7158H83.6789V49.9833H82.714V47.7158H82.4728V49.9833H81.5079L81.5079 -21.9626H82.4728V-19.6951H82.714V-21.9626H83.6789V-19.6951H83.9202V-21.9626H84.8851V-19.6951H85.1263V-21.9626H86.0912V-19.6951H86.3324V-21.9626H87.2973L87.2973 49.9833ZM93.328 49.9833H92.3631V47.7158H92.1219V49.9833H91.157V47.7158H90.9157V49.9833H89.9508V47.7158H89.7096V49.9833H88.7447V47.7158H88.5035V49.9833H87.5386L87.5386 -21.9626H88.5035V-19.6951H88.7447V-21.9626L89.7096 -21.9626V-19.6951H89.9508V-21.9626H90.9157V-19.6951H91.157V-21.9626H92.1219V-19.6951H92.3631V-21.9626H93.328L93.328 49.9833ZM99.3587 49.9833H98.3938V47.7158H98.1525V49.9833H97.1876V47.7158H96.9464V49.9833H95.9815V47.7158H95.7403V49.9833H94.7754V47.7158H94.5341V49.9833H93.5692L93.5692 -21.9626H94.5341V-19.6951H94.7754V-21.9626H95.7403V-19.6951H95.9815V-21.9626H96.9464V-19.6951H97.1876V-21.9626H98.1525V-19.6951H98.3938V-21.9626H99.3587L99.3587 49.9833ZM105.389 49.9833H104.424V47.7158H104.183V49.9833H103.218V47.7158H102.977V49.9833H102.012V47.7158H101.771V49.9833H100.806V47.7158H100.565V49.9833H99.5999L99.5999 -21.9626H100.565V-19.6951H100.806V-21.9626H101.771V-19.6951H102.012V-21.9626H102.977V-19.6951H103.218V-21.9626H104.183V-19.6951H104.424V-21.9626H105.389L105.389 49.9833ZM111.42 49.9833H110.455V47.7158H110.214V49.9833H109.249V47.7158H109.008V49.9833H108.043V47.7158H107.802V49.9833H106.837V47.7158H106.595V49.9833H105.631L105.631 -21.9626H106.595V-19.6951H106.837V-21.9626H107.802V-19.6951H108.043V-21.9626H109.008V-19.6951H109.249V-21.9626H110.214V-19.6951H110.455V-21.9626H111.42L111.42 49.9833ZM117.451 49.9833H116.486V47.7158H116.245V49.9833H115.28V47.7158H115.038V49.9833H114.074V47.7158H113.832V49.9833H112.867V47.7158H112.626V49.9833H111.661L111.661 -21.9626H112.626V-19.6951L112.867 -19.6951V-21.9626H113.832V-19.6951H114.074V-21.9626H115.038V-19.6951H115.28V-21.9626H116.245V-19.6951H116.486V-21.9626H117.451L117.451 49.9833ZM123.481 49.9833H122.516V47.7158H122.275V49.9833H121.31V47.7158H121.069V49.9833H120.104V47.7158H119.863V49.9833H118.898V47.7158H118.657V49.9833H117.692L117.692 -21.9626H118.657V-19.6951H118.898V-21.9626H119.863V-19.6951H120.104V-21.9626H121.069V-19.6951H121.31V-21.9626H122.275V-19.6951H122.516V-21.9626H123.481L123.481 49.9833ZM129.512 49.9833H128.547V47.7158H128.306V49.9833H127.341V47.7158H127.1V49.9833H126.135V47.7158H125.894V49.9833H124.929V47.7158H124.688V49.9833H123.723L123.723 -21.9626H124.688V-19.6951H124.929V-21.9626H125.894V-19.6951H126.135V-21.9626H127.1V-19.6951H127.341V-21.9626H128.306V-19.6951H128.547V-21.9626H129.512V49.9833ZM135.543 49.9833H134.578V47.7158H134.337V49.9833H133.372V47.7158H133.13V49.9833H132.166V47.7158H131.924V49.9833H130.959V47.7158H130.718V49.9833H129.753V-21.9626H130.718V-19.6951H130.959V-21.9626H131.924V-19.6951L132.166 -19.6951V-21.9626H133.13V-19.6951H133.372V-21.9626L134.337 -21.9626V-19.6951H134.578V-21.9626H135.543V49.9833ZM141.573 49.9833H140.609V47.7158H140.367V49.9833H139.402V47.7158H139.161V49.9833H138.196V47.7158H137.955V49.9833H136.99V47.7158H136.749V49.9833H135.784V-21.9626H136.749V-19.6951H136.99V-21.9626H137.955V-19.6951H138.196V-21.9626H139.161V-19.6951H139.402V-21.9626H140.367V-19.6951H140.609V-21.9626H141.573V49.9833ZM150.511 49.9833L141.815 49.9833V-21.9626H150.511V49.9833Z" fill="#505054"/>
<path d="M29.123 24L26.495 15.744H28.247L30.251 22.08H30.323L32.291 15.744H34.019L31.391 24H29.123ZM35.2203 24V15.744H36.9243V24H35.2203ZM38.9003 15.744H42.7043C43.3923 15.744 43.9203 15.852 44.2883 16.068C44.6563 16.284 44.9043 16.588 45.0323 16.98C45.1603 17.372 45.2243 17.876 45.2243 18.492C45.2243 19.084 45.1603 19.576 45.0323 19.968C44.9123 20.36 44.6643 20.672 44.2883 20.904C43.9123 21.136 43.3723 21.252 42.6683 21.252H40.6043V24H38.9003V15.744ZM41.9723 19.776C42.4523 19.776 42.7963 19.744 43.0043 19.68C43.2123 19.616 43.3483 19.5 43.4123 19.332C43.4763 19.156 43.5083 18.876 43.5083 18.492C43.5083 18.108 43.4763 17.832 43.4123 17.664C43.3563 17.496 43.2243 17.38 43.0163 17.316C42.8163 17.252 42.4763 17.22 41.9963 17.22H40.6043V19.776H41.9723Z" fill="white"/>
</g>
<g clip-path="url(#clip6)">
<path d="M48.8067 55.93H48.5654V58.3181H48.8067V55.93Z" fill="#505054"/>
<path d="M51.2191 55.93H50.9779V58.3181H51.2191V55.93Z" fill="#505054"/>
<path d="M52.4249 55.93H52.1837V58.3181H52.4249V55.93Z" fill="#505054"/>
<path d="M53.6312 55.93H53.39V58.3181H53.6312V55.93Z" fill="#505054"/>
<path d="M54.8374 55.93H54.5962V58.3181H54.8374V55.93Z" fill="#505054"/>
<path d="M48.8067 65.579H48.5654V67.9672H48.8067V65.579Z" fill="#505054"/>
<path d="M51.2191 65.579H50.9779V67.9672H51.2191V65.579Z" fill="#505054"/>
<path d="M52.4249 65.579H52.1837V67.9672H52.4249V65.579Z" fill="#505054"/>
<path d="M53.6312 65.579H53.39V67.9672H53.6312V65.579Z" fill="#505054"/>
<path d="M54.8374 65.579H54.5962V67.9672H54.8374V65.579Z" fill="#505054"/>
<path d="M-73.7483 25.7041L-73.7483 98.1325L64.9813 98.1325V25.7041L-73.7483 25.7041ZM-64.8108 97.8912H-73.5071L-73.5071 25.9453H-64.8108L-64.8108 97.8912ZM-58.7802 97.8912H-59.7451V95.6237H-59.9863V97.8912H-60.9512V95.6237H-61.1924V97.8912H-62.1573V95.6237H-62.3986V97.8912H-63.3635V95.6237H-63.6047V97.8912H-64.5696L-64.5696 25.9453H-63.6047V28.2128H-63.3635V25.9453L-62.3986 25.9453V28.2128H-62.1573V25.9453H-61.1924V28.2128H-60.9512V25.9453H-59.9863V28.2128H-59.7451V25.9453H-58.7802L-58.7802 97.8912ZM-52.7495 97.8912H-53.7144V95.6237H-53.9556V97.8912H-54.9205V95.6237H-55.1618V97.8912H-56.1267V95.6237H-56.3679V97.8912H-57.3328V95.6237H-57.574V97.8912H-58.5389L-58.5389 25.9453H-57.574V28.2128H-57.3328V25.9453H-56.3679V28.2128H-56.1267V25.9453H-55.1618V28.2128H-54.9205V25.9453H-53.9556V28.2128H-53.7144V25.9453H-52.7495L-52.7495 97.8912ZM-46.7188 97.8912H-47.6837V95.6237H-47.9249V97.8912H-48.8898V95.6237H-49.1311V97.8912H-50.096V95.6237H-50.3372V97.8912H-51.3021V95.6237H-51.5433V97.8912H-52.5083L-52.5083 25.9453H-51.5433V28.2128H-51.3021V25.9453H-50.3372V28.2128H-50.096V25.9453H-49.1311V28.2128H-48.8898V25.9453H-47.9249V28.2128H-47.6837V25.9453H-46.7188L-46.7188 97.8912ZM-40.6881 97.8912H-41.653V95.6237H-41.8943V97.8912H-42.8592V95.6237H-43.1004V97.8912H-44.0653V95.6237H-44.3065V97.8912H-45.2714V95.6237H-45.5127V97.8912H-46.4776L-46.4776 25.9453H-45.5127V28.2128H-45.2714V25.9453H-44.3065V28.2128H-44.0653V25.9453H-43.1004V28.2128H-42.8592V25.9453H-41.8943V28.2128H-41.653V25.9453L-40.6881 25.9453L-40.6881 97.8912ZM-34.6575 97.8912H-35.6224V95.6237H-35.8636V97.8912H-36.8285V95.6237H-37.0697V97.8912H-38.0346V95.6237H-38.2759V97.8912H-39.2408V95.6237H-39.482V97.8912H-40.4469L-40.4469 25.9453H-39.482V28.2128H-39.2408V25.9453H-38.2759V28.2128H-38.0346V25.9453H-37.0697V28.2128H-36.8285V25.9453H-35.8636V28.2128H-35.6224V25.9453H-34.6575L-34.6575 97.8912ZM-28.6268 97.8912L-29.5917 97.8912V95.6237H-29.8329V97.8912H-30.7978V95.6237H-31.0391V97.8912H-32.004V95.6237H-32.2452V97.8912H-33.2101V95.6237H-33.4513V97.8912H-34.4162L-34.4162 25.9453H-33.4513V28.2128H-33.2101V25.9453H-32.2452V28.2128H-32.004V25.9453H-31.0391V28.2128H-30.7978V25.9453H-29.8329V28.2128H-29.5917V25.9453H-28.6268L-28.6268 97.8912ZM-22.5961 97.8912H-23.561V95.6237H-23.8022V97.8912H-24.7672V95.6237H-25.0084V97.8912H-25.9733V95.6237H-26.2145V97.8912H-27.1794V95.6237H-27.4206V97.8912H-28.3856L-28.3856 25.9453H-27.4206V28.2128H-27.1794V25.9453H-26.2145V28.2128H-25.9733V25.9453H-25.0084V28.2128H-24.7672V25.9453H-23.8022V28.2128H-23.561V25.9453H-22.5961L-22.5961 97.8912ZM-16.5654 97.8912H-17.5303V95.6237H-17.7716V97.8912H-18.7365V95.6237H-18.9777V97.8912H-19.9426V95.6237H-20.1838V97.8912H-21.1487V95.6237H-21.39V97.8912H-22.3549L-22.3549 25.9453H-21.39V28.2128H-21.1487V25.9453H-20.1838V28.2128H-19.9426V25.9453H-18.9777V28.2128H-18.7365V25.9453L-17.7716 25.9453V28.2128H-17.5303V25.9453H-16.5654L-16.5654 97.8912ZM-10.5348 97.8912H-11.4997V95.6237H-11.7409V97.8912H-12.7058V95.6237H-12.947V97.8912H-13.9119V95.6237H-14.1532V97.8912H-15.1181V95.6237H-15.3593V97.8912H-16.3242L-16.3242 25.9453H-15.3593V28.2128H-15.1181V25.9453H-14.1532V28.2128H-13.9119V25.9453H-12.947V28.2128H-12.7058V25.9453H-11.7409V28.2128H-11.4997V25.9453H-10.5348L-10.5348 97.8912ZM-4.50409 97.8912H-5.46899V95.6237H-5.71022V97.8912H-6.67513V95.6237H-6.91636V97.8912H-7.88126V95.6237H-8.12249V97.8912H-9.0874V95.6237H-9.32863V97.8912H-10.2935L-10.2935 25.9453H-9.32863V28.2128H-9.0874V25.9453H-8.12249V28.2128H-7.88126V25.9453H-6.91636V28.2128H-6.67513V25.9453H-5.71022V28.2128H-5.46899V25.9453H-4.50409L-4.50409 97.8912ZM1.52659 97.8912H0.561676V95.6237H0.32045V97.8912H-0.644455V95.6237H-0.885681V97.8912H-1.85059V95.6237H-2.09182V97.8912H-3.05672V95.6237H-3.29795V97.8912H-4.26286L-4.26286 25.9453H-3.29795V28.2128H-3.05672V25.9453H-2.09182V28.2128H-1.85059V25.9453H-0.885681V28.2128H-0.644455V25.9453H0.32045V28.2128H0.561676V25.9453H1.52659L1.52659 97.8912ZM7.55726 97.8912H6.59235V95.6237H6.35113V97.8912H5.38622V95.6237H5.14499V97.8912H4.18008V95.6237H3.93886V97.8912H2.97395V95.6237H2.73272V97.8912H1.76781L1.76781 25.9453H2.73272V28.2128H2.97395V25.9453L3.93886 25.9453V28.2128H4.18008V25.9453H5.14499V28.2128H5.38622V25.9453H6.35113V28.2128H6.59235V25.9453H7.55726L7.55726 97.8912ZM13.5879 97.8912H12.623V95.6237H12.3818V97.8912H11.4169V95.6237H11.1757V97.8912H10.2108V95.6237H9.96953V97.8912H9.00462V95.6237H8.7634V97.8912H7.79849L7.79849 25.9453H8.7634V28.2128H9.00462V25.9453H9.96953V28.2128H10.2108V25.9453H11.1757V28.2128H11.4169V25.9453H12.3818V28.2128H12.623V25.9453H13.5879L13.5879 97.8912ZM19.6186 97.8912H18.6537V95.6237H18.4125V97.8912H17.4476V95.6237H17.2063V97.8912H16.2414V95.6237H16.0002V97.8912H15.0353V95.6237H14.7941V97.8912H13.8292L13.8292 25.9453H14.7941V28.2128H15.0353V25.9453H16.0002V28.2128H16.2414V25.9453H17.2063V28.2128H17.4476V25.9453H18.4125V28.2128H18.6537V25.9453H19.6186L19.6186 97.8912ZM25.6493 97.8912H24.6844V95.6237H24.4432V97.8912H23.4782V95.6237H23.237V97.8912H22.2721V95.6237H22.0309V97.8912H21.066V95.6237H20.8247V97.8912H19.8598L19.8598 25.9453H20.8247V28.2128H21.066V25.9453H22.0309V28.2128H22.2721V25.9453H23.237V28.2128H23.4782V25.9453H24.4432V28.2128H24.6844V25.9453H25.6493L25.6493 97.8912ZM31.68 97.8912H30.715V95.6237H30.4738V97.8912H29.5089V95.6237H29.2677V97.8912H28.3028V95.6237H28.0616V97.8912H27.0966V95.6237H26.8554V97.8912H25.8905L25.8905 25.9453H26.8554V28.2128L27.0966 28.2128V25.9453H28.0616V28.2128H28.3028V25.9453H29.2677V28.2128H29.5089V25.9453H30.4738V28.2128H30.715V25.9453H31.68L31.68 97.8912ZM37.7106 97.8912H36.7457V95.6237H36.5045V97.8912H35.5396V95.6237H35.2984V97.8912H34.3335V95.6237H34.0922V97.8912H33.1273V95.6237H32.8861V97.8912H31.9212L31.9212 25.9453H32.8861V28.2128H33.1273V25.9453H34.0922V28.2128H34.3335V25.9453H35.2984V28.2128H35.5396V25.9453H36.5045V28.2128H36.7457V25.9453H37.7106L37.7106 97.8912ZM43.7413 97.8912H42.7764V95.6237H42.5352V97.8912H41.5703V95.6237H41.329V97.8912H40.3641V95.6237H40.1229V97.8912H39.158V95.6237H38.9168V97.8912H37.9519L37.9519 25.9453H38.9168V28.2128H39.158V25.9453H40.1229V28.2128H40.3641V25.9453H41.329V28.2128H41.5703V25.9453H42.5352V28.2128H42.7764V25.9453H43.7413L43.7413 97.8912ZM49.772 97.8912H48.8071V95.6237H48.5658V97.8912H47.6009V95.6237H47.3597V97.8912H46.3948V95.6237H46.1536V97.8912H45.1887V95.6237H44.9474V97.8912H43.9825L43.9825 25.9453H44.9474V28.2128H45.1887V25.9453H46.1536V28.2128L46.3948 28.2128V25.9453H47.3597V28.2128H47.6009V25.9453L48.5658 25.9453V28.2128H48.8071V25.9453H49.772L49.772 97.8912ZM55.8027 97.8912H54.8378V95.6237H54.5965V97.8912H53.6316V95.6237H53.3904V97.8912H52.4255V95.6237H52.1843V97.8912H51.2193V95.6237H50.9781V97.8912H50.0132L50.0132 25.9453H50.9781V28.2128H51.2193V25.9453H52.1843V28.2128H52.4255V25.9453H53.3904V28.2128H53.6316V25.9453H54.5965V28.2128H54.8378V25.9453H55.8027V97.8912ZM64.7401 97.8912L56.0439 97.8912V25.9453H64.7401V97.8912Z" fill="#505054"/>
<path d="M66.1511 55.9297H65.9099V67.967H66.1511V55.9297Z" fill="#505054"/>
</g>
<g clip-path="url(#clip7)">
<path d="M52.3387 53.5424C48.475 53.5424 45.3351 50.4024 45.3351 46.5387C45.3351 45.0707 45.7836 43.6843 46.6196 42.4915L8.15576 4.01749L8.21693 3.88496C8.24751 3.8136 11.3364 -2.83321 18.2891 -9.38827C22.3771 -13.2418 26.9748 -16.3103 31.9599 -18.5123C38.1887 -21.2649 45.0496 -22.6615 52.3387 -22.6615C59.6278 -22.6615 66.4988 -21.2649 72.7481 -18.5123C77.7536 -16.3103 82.3717 -13.2418 86.4903 -9.37807C93.4939 -2.81282 96.644 3.84419 96.6746 3.90535L96.7357 4.03788L96.6338 4.13983L58.1292 42.6037C58.9243 43.7658 59.3423 45.1217 59.3423 46.5387C59.3423 50.4024 56.2024 53.5424 52.3387 53.5424ZM8.6451 3.92574L47.1599 42.4609L47.058 42.6037C46.2016 43.7454 45.7531 45.1115 45.7531 46.5489C45.7531 50.1884 48.7095 53.1448 52.3489 53.1448C55.9883 53.1448 58.9447 50.1884 58.9447 46.5489C58.9447 45.1625 58.5166 43.827 57.7112 42.7056L57.6093 42.5629L57.7316 42.4405L96.2464 3.94613C95.7774 2.99804 92.6273 -3.08807 86.2048 -9.10282C79.7925 -15.0972 68.7111 -22.2537 52.3387 -22.2537C35.9663 -22.2537 24.9359 -15.0972 18.5745 -9.09263C12.203 -3.08807 9.10385 2.97765 8.6451 3.92574Z" fill="#505054"/>
<path d="M52.3588 33.1431C50.1466 33.1431 48.3524 31.3489 48.3524 29.1367C48.3524 26.9245 50.1466 25.1302 52.3588 25.1302C54.571 25.1302 56.3652 26.9245 56.3652 29.1367C56.3652 31.3489 54.571 33.1431 52.3588 33.1431ZM52.3588 25.3239C50.2587 25.3239 48.5562 27.0264 48.5562 29.1265C48.5562 31.2266 50.2587 32.929 52.3588 32.929C54.4589 32.929 56.1613 31.2266 56.1613 29.1265C56.1613 27.0264 54.4589 25.3239 52.3588 25.3239Z" fill="#505054"/>
<path d="M79.4355 20.9912C79.4152 20.9504 77.3864 16.9644 73.0538 13.0191C69.0677 9.38989 62.2476 5.05722 52.4507 5.05722C42.6436 5.05722 35.7725 9.33891 31.7253 12.9172C27.3519 16.8013 25.262 20.7364 25.2416 20.7771L25.0581 20.6854C25.0785 20.6446 27.1786 16.6789 31.5826 12.7643C34.172 10.4705 37.0366 8.63549 40.095 7.3204C43.9281 5.67909 48.0773 4.84314 52.4303 4.84314C56.7936 4.84314 60.9325 5.68928 64.7351 7.35099C67.7832 8.68646 70.6173 10.5419 73.1761 12.8662C77.5292 16.8319 79.5783 20.8485 79.5987 20.8893L79.4355 20.9912Z" fill="#505054"/>
<path d="M38.362 33.9585L38.2294 33.8056C39.9523 32.2968 40.8392 30.7065 40.8698 29.0958C40.8902 28.0253 40.5436 26.3942 38.7392 24.6612L38.6882 24.6102C38.5251 24.4471 38.4435 24.284 38.4639 24.1209C38.4843 23.917 38.627 23.7844 38.6678 23.7539C39.0654 23.3563 46.8336 15.5779 47.0884 15.3434C47.2618 15.1803 47.4249 15.1599 47.5268 15.1701C47.6491 15.1803 47.7613 15.2516 47.8326 15.3536C49.9429 17.7595 52.4202 17.5658 52.4406 17.5658L52.4609 17.7697C52.4304 17.7697 49.8512 17.9736 47.6797 15.4861L47.6695 15.4759C47.6491 15.4453 47.588 15.3842 47.5064 15.374C47.4249 15.3638 47.3229 15.4046 47.2312 15.4963C46.9763 15.7308 38.8921 23.8252 38.8105 23.9068L38.8003 23.917C38.8003 23.917 38.678 24.0087 38.678 24.1412C38.6678 24.2432 38.729 24.3553 38.8411 24.4675L38.8921 24.5184C40.7475 26.2923 41.1145 27.9948 41.0839 29.106C41.0431 30.7779 40.1256 32.409 38.362 33.9585Z" fill="#505054"/>
<path d="M66.4989 33.9587C64.7353 32.4092 63.8178 30.778 63.7872 29.096C63.7668 27.9848 64.1236 26.2925 65.979 24.5084L66.03 24.4575C66.1523 24.3453 66.2033 24.2332 66.1931 24.121C66.1829 23.9885 66.0708 23.8968 66.0708 23.8968L66.0606 23.8866C65.979 23.805 57.8948 15.7106 57.6399 15.4761C57.5482 15.3844 57.4462 15.3436 57.3647 15.3538C57.2729 15.364 57.222 15.4251 57.2016 15.4557L57.1914 15.4659C55.0098 17.9534 52.4305 17.7495 52.4102 17.7495L52.4305 17.5456C52.4509 17.5456 54.9384 17.7393 57.0385 15.3334C57.1098 15.2314 57.222 15.1601 57.3443 15.1499C57.4462 15.1397 57.5992 15.1601 57.7827 15.3232C58.0375 15.5577 65.8057 23.3463 66.2033 23.7337C66.2441 23.7642 66.3868 23.8968 66.4072 24.1007C66.4174 24.2638 66.346 24.4371 66.1829 24.59L66.1319 24.641C64.3275 26.3638 63.9809 28.0051 64.0013 29.0756C64.0319 30.6863 64.929 32.2766 66.6417 33.7854L66.4989 33.9587Z" fill="#505054"/>
<path d="M53.628 10.2273L52.4891 9.08835L51.3501 10.2273L52.4891 11.3662L53.628 10.2273Z" fill="#505054"/>
</g>
<g clip-path="url(#clip8)">
<path d="M77.9695 -3.83197H-51.6647V75.5103H77.9695V-3.83197Z" stroke="#505054" stroke-width="0.223451"/>
<circle cx="13.0138" cy="36.2533" r="14.4595" stroke="#505054" stroke-width="0.223451"/>
<circle cx="13.0138" cy="36.2533" r="0.752813" fill="#191919" stroke="#505054" stroke-width="0.111725"/>
<path d="M13.0604 -3.77869V75.3228" stroke="#505054" stroke-width="0.223451"/>
</g>
<g clip-path="url(#clip9)">
<path d="M63.8949 33.8378L-27.7703 -57.8274L-83.8738 -1.7239L7.79139 89.9413L63.8949 33.8378Z" stroke="#505054" stroke-width="0.223451"/>
<path d="M52.8512 44.6606L38.494 30.3034L4.47853 64.3189L18.8357 78.6761" stroke="#505054" stroke-width="0.223451"/>
<path d="M40.4818 57.03L43.795 60.3432L34.2971 69.841L30.9839 66.5278" stroke="#505054" stroke-width="0.223451"/>
<path d="M43.6218 53.9853L37.9893 48.3528L22.4173 63.9249L28.0497 69.5574" stroke="#505054" stroke-width="0.223451"/>
<path d="M29.3461 39.2822C27.0126 38.766 21.2058 38.8734 17.1419 42.9373C12.1859 47.8933 12.4544 53.3243 12.6506 55.9778" stroke="#505054" stroke-width="0.223451"/>
<circle cx="26.2935" cy="52.2293" r="0.68161" transform="rotate(45 26.2935 52.2293)" fill="#191919" stroke="#505054" stroke-width="0.111725"/>
</g>
<path d="M-0.121094 25.8869L71.8296 25.8869" stroke="#505054" stroke-width="0.223451"/>
<path d="M-0.121094 49.9077L71.8296 49.9077" stroke="#505054" stroke-width="0.223451"/>
<path d="M23.8999 1.86591L23.8999 73.9287" stroke="#505054" stroke-width="0.223451"/>
<path d="M47.9209 1.86591L47.9209 73.9287" stroke="#505054" stroke-width="0.223451"/>
</g>
<path d="M0 0V-1H-1V0H0ZM72 0H73V-1H72V0ZM72 74V75H73V74H72ZM0 74H-1V75H0V74ZM0 1H72V-1H0V1ZM71 0V74H73V0H71ZM72 73H0V75H72V73ZM1 74V0H-1V74H1Z" fill="#FFC700"/>
<defs>
<clipPath id="clip0">
<path d="M0 0H72V74H0V0Z" fill="white"/>
</clipPath>
<clipPath id="clip1">
<rect width="24.0209" height="24.0209" fill="white" transform="translate(24 26)"/>
</clipPath>
<clipPath id="clip2">
<rect width="23.7975" height="24.0209" fill="white" transform="translate(48.0327 25.8869)"/>
</clipPath>
<clipPath id="clip3">
<rect width="23.7975" height="24.0209" fill="white" transform="translate(-0.00933838 49.9077)"/>
</clipPath>
<clipPath id="clip4">
<rect width="24.0209" height="24.0209" fill="white" transform="translate(-0.121094 1.86636)"/>
</clipPath>
<clipPath id="clip5">
<rect width="24.0209" height="24.0209" fill="white" transform="translate(24 2)"/>
</clipPath>
<clipPath id="clip6">
<rect width="24.0209" height="24.0209" fill="white" transform="translate(47.9209 49.9077)"/>
</clipPath>
<clipPath id="clip7">
<rect width="24.0209" height="24.0209" fill="white" transform="translate(47.9209 1.86591)"/>
</clipPath>
<clipPath id="clip8">
<rect width="24.0209" height="24.0209" fill="white" transform="translate(-0.121094 25.8869)"/>
</clipPath>
<clipPath id="clip9">
<rect width="24.0209" height="24.0209" fill="white" transform="translate(23.8999 49.9788)"/>
</clipPath>
</defs>
</svg>
