<svg width="337" height="157" viewBox="0 0 337 157" fill="none" xmlns="http://www.w3.org/2000/svg">
<rect x="0.197754" y="0.00878906" width="336.428" height="156.025" fill="#1878FB"/>
<mask id="mask0" mask-type="alpha" maskUnits="userSpaceOnUse" x="0" y="0" width="337" height="157">
<rect x="0.197754" y="0.00878906" width="336.428" height="156.025" fill="#C4C4C4"/>
</mask>
<g mask="url(#mask0)">
<path d="M164.592 259.633C143.394 259.633 126.167 242.406 126.167 221.208C126.167 213.154 128.628 205.547 133.214 199.003L-77.8145 -12.0814L-77.4789 -12.8085C-77.3111 -13.2 -60.3639 -49.6672 -22.2188 -85.6311C0.209648 -106.773 25.4347 -123.608 52.7851 -135.69C86.9591 -150.791 124.601 -158.454 164.592 -158.454C204.583 -158.454 242.28 -150.791 276.566 -135.69C304.028 -123.608 329.365 -106.773 351.962 -85.5751C390.386 -49.5554 407.669 -13.0322 407.837 -12.6967L408.173 -11.9696L407.613 -11.4102L196.361 199.619C200.723 205.995 203.017 213.434 203.017 221.208C203.017 242.406 185.79 259.633 164.592 259.633ZM-75.1298 -12.5848L136.179 198.835L135.619 199.619C130.921 205.883 128.46 213.378 128.46 221.264C128.46 241.231 144.68 257.451 164.648 257.451C184.615 257.451 200.835 241.231 200.835 221.264C200.835 213.657 198.486 206.33 194.068 200.178L193.508 199.395L194.179 198.724L405.488 -12.4729C402.915 -17.6745 385.632 -51.0655 350.396 -84.065C315.215 -116.953 254.417 -156.216 164.592 -156.216C74.7661 -156.216 14.2484 -116.953 -20.6527 -84.0091C-55.6098 -51.0655 -72.6129 -17.7864 -75.1298 -12.5848Z" fill="#E1E1E1" fill-opacity="0.3"/>
<path d="M164.703 147.714C152.566 147.714 142.722 137.87 142.722 125.733C142.722 113.596 152.566 103.752 164.703 103.752C176.84 103.752 186.684 113.596 186.684 125.733C186.684 137.87 176.84 147.714 164.703 147.714ZM164.703 104.815C153.181 104.815 143.84 114.155 143.84 125.677C143.84 137.199 153.181 146.539 164.703 146.539C176.225 146.539 185.565 137.199 185.565 125.677C185.565 114.155 176.225 104.815 164.703 104.815Z" fill="#E1E1E1" fill-opacity="0.3"/>
<path d="M164.703 130.318C167.236 130.318 169.289 128.265 169.289 125.732C169.289 123.199 167.236 121.146 164.703 121.146C162.17 121.146 160.117 123.199 160.117 125.732C160.117 128.265 162.17 130.318 164.703 130.318Z" fill="#E1E1E1" fill-opacity="0.3"/>
<path d="M313.257 81.0434C313.145 80.8197 302.014 58.9506 278.244 37.3051C256.375 17.3936 218.956 -6.3772 165.207 -6.3772C111.401 -6.3772 73.7029 17.114 51.4982 36.7458C27.5037 58.0557 16.0378 79.6451 15.9259 79.8689L14.9191 79.3655C15.031 79.1418 26.5528 57.3845 50.7152 35.9069C64.9217 23.3223 80.6384 13.2547 97.4178 6.03956C118.448 -2.96538 141.212 -7.55176 165.095 -7.55176C189.033 -7.55176 211.741 -2.90946 232.604 6.20734C249.327 13.5343 264.876 23.7138 278.915 36.4662C302.797 58.2234 314.04 80.2604 314.152 80.4841L313.257 81.0434Z" fill="#E1E1E1" fill-opacity="0.3"/>
<path d="M87.909 152.188L87.1819 151.349C96.6343 143.071 101.5 134.345 101.668 125.508C101.78 119.636 99.8784 110.687 89.9785 101.178L89.6989 100.899C88.804 100.004 88.3565 99.1088 88.4684 98.2139C88.5802 97.0952 89.3633 96.3681 89.587 96.2003C91.7683 94.019 134.388 51.3434 135.786 50.057C136.737 49.1621 137.632 49.0503 138.191 49.1062C138.862 49.1621 139.478 49.5536 139.869 50.113C151.447 63.3127 165.038 62.2501 165.15 62.2501L165.262 63.3687C165.094 63.3687 150.944 64.4873 139.03 50.8401L138.974 50.7841C138.862 50.6163 138.527 50.2808 138.079 50.2248C137.632 50.1689 137.073 50.3926 136.569 50.896C135.171 52.1824 90.8175 96.5919 90.37 97.0393L90.3141 97.0952C90.3141 97.0952 89.6429 97.5986 89.6429 98.3257C89.587 98.8851 89.9226 99.5003 90.5378 100.116L90.8175 100.395C100.997 110.127 103.011 119.468 102.843 125.564C102.619 134.737 97.5852 143.686 87.909 152.188Z" fill="#E1E1E1" fill-opacity="0.3"/>
<path d="M242.279 152.188C232.603 143.687 227.57 134.738 227.402 125.509C227.29 119.412 229.247 110.128 239.427 100.34L239.707 100.06C240.378 99.4449 240.657 98.8297 240.602 98.2144C240.546 97.4873 239.93 96.9839 239.93 96.9839L239.874 96.928C239.427 96.4806 195.073 52.0711 193.675 50.7847C193.172 50.2813 192.612 50.0576 192.165 50.1135C191.662 50.1694 191.382 50.505 191.27 50.6728L191.214 50.7287C179.245 64.376 165.094 63.2574 164.982 63.2574L165.094 62.1387C165.206 62.1387 178.853 63.2014 190.375 50.0016C190.767 49.4423 191.382 49.0508 192.053 48.9949C192.612 48.9389 193.451 49.0508 194.458 49.9457C195.856 51.2321 238.476 93.9636 240.657 96.089C240.881 96.2568 241.664 96.9839 241.776 98.1026C241.832 98.9975 241.441 99.9483 240.546 100.787L240.266 101.067C230.366 110.519 228.464 119.524 228.576 125.397C228.744 134.234 233.666 142.959 243.063 151.237L242.279 152.188Z" fill="#E1E1E1" fill-opacity="0.3"/>
<path d="M58.4904 122.655L65.5936 115.216L67.9987 117.454L60.7835 125.004L58.4904 122.655Z" fill="#E1E1E1" fill-opacity="0.3"/>
<path d="M60.7828 125.396L58.0422 122.656L65.537 114.77L68.3335 117.398L60.7828 125.396ZM58.8811 122.656L60.7828 124.558L67.5505 117.454L65.537 115.553L58.8811 122.656Z" fill="#E1E1E1" fill-opacity="0.3"/>
<path d="M271.868 122.655L264.764 115.216L262.359 117.454L269.518 125.004L271.868 122.655Z" fill="#E1E1E1" fill-opacity="0.3"/>
<path d="M269.518 125.396L261.968 117.454L264.764 114.825L272.259 122.712L269.518 125.396ZM262.751 117.51L269.518 124.613L271.42 122.712L264.708 115.664L262.751 117.51Z" fill="#E1E1E1" fill-opacity="0.3"/>
<path d="M171.665 21.9875L165.416 15.7388L159.168 21.9875L165.416 28.2362L171.665 21.9875Z" fill="#E1E1E1" fill-opacity="0.3"/>
<path d="M50.2678 152.299L49.4848 151.516L55.2457 145.643L40.4239 131.045L34.663 136.862L33.88 136.079L40.4239 129.423L56.8118 145.643L50.2678 152.299Z" fill="#E1E1E1" fill-opacity="0.3"/>
<path d="M280.089 152.299L273.489 145.643L289.877 129.423L296.421 136.079L295.638 136.862L289.877 131.045L275.111 145.643L280.872 151.516L280.089 152.299Z" fill="#E1E1E1" fill-opacity="0.3"/>
</g>
<path d="M153.585 95.2046V76.8717H153.39L146.447 95.2046H142.625L135.721 76.8717H135.526V95.2046H130.338V68.3683H137.983L144.536 85.5701H144.77L151.323 68.3683H158.929V95.2046H153.585ZM165.383 95.2046V68.3683H170.922V90.1728H182.273V95.2046H165.383ZM186.486 68.3683H199.592C202.193 68.3683 204.104 68.9404 205.326 70.0846C206.548 71.2028 207.16 72.8801 207.16 75.1164C207.16 76.9887 206.795 78.4189 206.067 79.4071C205.339 80.3952 204.169 81.0714 202.557 81.4354V81.5914C204.325 81.9555 205.573 82.6316 206.301 83.6198C207.055 84.6079 207.433 86.0901 207.433 88.0665C207.433 90.3808 206.834 92.1491 205.638 93.3713C204.468 94.5935 202.453 95.2046 199.592 95.2046H186.486V68.3683ZM197.603 79.2511C199.111 79.2511 200.138 79.043 200.684 78.627C201.257 78.1849 201.543 77.3918 201.543 76.2476C201.543 75.3895 201.439 74.7524 201.231 74.3363C201.023 73.8942 200.645 73.5952 200.099 73.4391C199.553 73.2571 198.721 73.1661 197.603 73.1661H192.025V79.2511H197.603ZM197.798 90.4068C198.89 90.4068 199.722 90.3158 200.294 90.1338C200.867 89.9518 201.257 89.6397 201.465 89.1976C201.699 88.7556 201.816 88.1055 201.816 87.2473C201.816 86.3892 201.699 85.7391 201.465 85.297C201.231 84.8289 200.828 84.5039 200.255 84.3219C199.709 84.1398 198.89 84.0488 197.798 84.0488H192.025V90.4068H197.798Z" fill="white"/>
</svg>
