<svg width="337" height="157" viewBox="0 0 337 157" fill="none" xmlns="http://www.w3.org/2000/svg">
<rect x="0.400391" y="0.00878906" width="336.428" height="156.025" fill="#EC4C15"/>
<mask id="mask0" mask-type="alpha" maskUnits="userSpaceOnUse" x="0" y="0" width="337" height="157">
<rect x="0.400391" y="0.00878906" width="336.428" height="156.025" fill="#C4C4C4"/>
</mask>
<g mask="url(#mask0)">
<path d="M999.935 389.858V-158.369H530.325V-168.205H528.162V-158.369H442.988V-168.205H440.79V-158.369H-28.8542V389.858H999.935ZM484.459 180.166C481.25 180.096 478.111 179.817 475.042 179.329C474.867 179.294 474.693 179.259 474.518 179.224C473.158 178.98 471.833 178.736 470.507 178.387C469.74 178.212 468.938 178.003 468.205 177.794C467.508 177.619 466.775 177.375 466.078 177.166C455.963 173.957 446.929 168.307 439.674 160.947C438.593 159.866 437.547 158.715 436.57 157.564C435.907 156.797 435.245 155.995 434.652 155.192C434.163 154.564 433.675 153.902 433.187 153.239C425.618 142.671 421.154 129.731 421.154 115.779C421.154 102.037 425.479 89.306 432.838 78.8423C433.431 78.0052 434.024 77.1681 434.652 76.3659C435.28 75.5637 435.907 74.7615 436.57 73.9942C437.058 73.4012 437.582 72.8432 438.105 72.2851C438.628 71.7271 439.151 71.169 439.674 70.6109C442.883 67.3323 446.476 64.4025 450.312 61.8912C451.15 61.3331 452.022 60.7751 452.928 60.2519C459.137 56.5896 465.973 53.9737 473.263 52.5436C474.309 52.3344 475.356 52.16 476.402 52.0204C479.053 51.6368 481.738 51.4275 484.494 51.3926V180.166H484.459ZM484.459 49.1604C448.22 49.7533 418.921 79.4004 418.921 115.744C418.921 152.123 448.22 181.735 484.459 182.328V387.695H202.672V372.418H200.51V387.695H-26.6569V357.106H130.473L130.682 357.002C227.576 315.775 290.218 221.079 290.218 115.744C290.218 10.4099 227.576 -84.2515 130.682 -125.513L130.473 -125.583H-26.6569V-156.172H200.51V-140.895H202.672V-156.172H484.424V49.1604H484.459ZM-26.6569 245.703V204.197H47.6004V214.033H49.7977V204.197H58.5175V214.033H60.7148V204.197H91.3036V214.033H93.4661V204.197H124.055V214.033H126.252V204.197H180.873V182.328C217.112 181.735 246.41 152.123 246.41 115.744C246.41 79.3655 217.112 49.7533 180.873 49.1604V27.2913H126.252V17.4554H124.055V27.2913H93.4661V17.4554H91.3036V27.2913H60.7148V17.4554H58.5175V27.2913H49.7977V17.4554H47.6004V27.2913H-26.6569V-14.2146H-16.821V-16.3771H-26.6569V-123.421H130.054C226.041 -82.4727 288.021 11.3865 288.021 115.744C288.021 220.102 226.006 313.961 130.054 354.909H-26.6569V247.9H-16.821V245.703H-26.6569ZM-26.6569 202.035V182.363H178.64V202H-26.6569V202.035ZM-26.6569 49.1255V29.4538H178.64V49.1255H-26.6569ZM180.838 180.166V51.3578C215.856 51.9507 244.178 80.5863 244.178 115.744C244.178 150.902 215.856 179.573 180.838 180.166ZM997.737 387.695H770.571V372.418H768.408V387.695H486.656V182.328C522.895 181.735 552.194 152.123 552.194 115.744C552.194 79.3655 522.895 49.7533 486.656 49.1604V-156.172H768.408V-140.895H770.571V-156.172H997.737V-125.583H840.608L840.398 -125.513C743.47 -84.2515 680.862 10.4448 680.862 115.744C680.862 221.044 743.47 315.74 840.363 357.002L840.573 357.106H997.702V387.695H997.737ZM486.621 180.166V51.3578C489.342 51.3926 492.062 51.6368 494.713 51.9856C495.76 52.1251 496.806 52.2995 497.852 52.5088C505.351 53.9737 512.362 56.7291 518.675 60.5309C519.408 60.9494 520.105 61.4029 520.803 61.8563C538.382 73.3663 549.996 93.2473 549.996 115.744C549.996 135.521 541.033 153.239 526.976 165.063C526.209 165.726 525.407 166.354 524.57 166.981C520.524 170.086 516.059 172.702 511.316 174.794C510.374 175.213 509.397 175.596 508.456 175.98C507.479 176.329 506.502 176.713 505.491 177.026C504.514 177.34 503.503 177.654 502.491 177.933C501.968 178.073 501.48 178.212 500.957 178.317C499.422 178.701 497.887 179.015 496.318 179.294C495.934 179.363 495.516 179.433 495.132 179.468C492.342 179.887 489.481 180.131 486.621 180.166ZM792.405 49.1255V29.4538H997.702V49.1255H792.405ZM997.737 245.703H987.901V247.9H997.737V354.909H841.026C745.039 313.926 683.025 220.102 683.025 115.744C683.025 11.3865 745.039 -82.4727 841.026 -123.421H997.737V-16.3771H987.901V-14.2146H997.737V27.2913H923.48V17.4554H921.317V27.2913H912.563V17.4554H910.365V27.2913H879.777V17.4554H877.614V27.2913H847.025V17.4554H844.828V27.2913H790.208V49.1604C753.968 49.7533 724.67 79.4004 724.67 115.744C724.67 152.123 753.968 181.735 790.208 182.328V204.197H844.828V214.033H847.025V204.197H877.614V214.033H879.777V204.197H910.365V214.033H912.563V204.197H921.317V214.033H923.48V204.197H997.737V245.703ZM790.242 51.3578V180.166C755.224 179.573 726.902 150.902 726.902 115.744C726.902 80.5863 755.224 51.9507 790.242 51.3578ZM997.737 202.035H792.44V182.363H997.737V202.035ZM884.137 180.166C858.431 180.166 833.667 180.166 816.367 180.166C802.031 180.166 792.789 180.166 792.405 180.166V51.3578C793.347 51.3926 851.56 51.3578 905.727 51.3578C926.026 51.3578 945.733 51.3578 961.672 51.3578C983.088 51.3578 997.702 51.3578 997.702 51.3578V180.235C997.737 180.201 938.862 180.166 884.137 180.166ZM-26.6569 51.3229C-26.6569 51.3229 -21.2855 51.3229 -12.2868 51.3229C5.08295 51.3229 35.9857 51.3229 67.9348 51.3229C121.334 51.3229 177.699 51.3577 178.64 51.3229V180.131C177.699 180.131 122.764 180.131 69.9577 180.131C20.7087 180.131 -26.6918 180.166 -26.6918 180.166V51.3229H-26.6569Z" fill="white" fill-opacity="0.2"/>
<path d="M129.845 74.9706L128.136 73.5754C130.891 70.2271 133.995 67.1228 137.344 64.3325L138.739 66.0416C135.53 68.7273 132.53 71.7269 129.845 74.9706Z" fill="white" fill-opacity="0.2"/>
<path d="M149.238 58.9961L148.191 57.0777C152.028 55.0199 156.074 53.3108 160.224 52.0552L160.852 54.1479C156.841 55.3687 152.935 57.008 149.238 58.9961Z" fill="white" fill-opacity="0.2"/>
<path d="M120.986 147.135C118.928 143.298 117.254 139.253 115.998 135.102L118.091 134.474C119.312 138.485 120.916 142.392 122.904 146.124L120.986 147.135Z" fill="white" fill-opacity="0.2"/>
<path d="M113.452 122.337C113.242 120.174 113.138 117.942 113.138 115.779C113.138 113.617 113.242 111.42 113.452 109.292L115.614 109.501C115.405 111.559 115.335 113.687 115.335 115.779C115.335 117.907 115.44 120.035 115.649 122.127L113.452 122.337Z" fill="white" fill-opacity="0.2"/>
<path d="M118.056 97.1193L115.963 96.4914C117.219 92.3408 118.893 88.2949 120.951 84.4233L122.869 85.4348C120.881 89.1669 119.242 93.1082 118.056 97.1193Z" fill="white" fill-opacity="0.2"/>
<path d="M17.0463 148.461V120.104L19.2437 118.5C20.4295 122.267 23.9523 125.022 28.1029 125.022C33.2301 125.022 37.3807 120.837 37.3807 115.744C37.3807 110.617 33.1952 106.466 28.1029 106.466C23.9523 106.466 20.4295 109.222 19.2437 112.989L17.0463 111.384V82.958H14.8838V148.496H17.0463V148.461ZM28.1029 108.664C32.0442 108.664 35.2182 111.838 35.2182 115.744C35.2182 119.651 32.0442 122.86 28.1029 122.86C24.1965 122.86 21.0225 119.651 21.0225 115.744C20.9876 111.838 24.1965 108.664 28.1029 108.664Z" fill="white" fill-opacity="0.2"/>
<path d="M28.1033 160.529V158.331C51.6117 158.331 70.6904 139.218 70.6904 115.744C70.6904 92.2356 51.5768 73.1569 28.1033 73.1569V70.9595C52.7976 70.9595 72.8878 91.0497 72.8878 115.744C72.8878 140.438 52.7976 160.529 28.1033 160.529Z" fill="white" fill-opacity="0.2"/>
</g>
<g clip-path="url(#clip0)">
<path d="M147.61 95.2046L136.65 78.1589H136.494V95.2046H131.15V68.3683H136.884L147.376 84.4389H147.571V68.3683H152.915V95.2046H147.61ZM159.301 68.3683H172.407C175.007 68.3683 176.918 68.9404 178.141 70.0846C179.363 71.2028 179.974 72.8801 179.974 75.1164C179.974 76.9887 179.61 78.4189 178.882 79.4071C178.154 80.3952 176.983 81.0714 175.371 81.4354V81.5914C177.139 81.9555 178.388 82.6316 179.116 83.6198C179.87 84.6079 180.247 86.0901 180.247 88.0665C180.247 90.3808 179.649 92.1491 178.453 93.3713C177.282 94.5935 175.267 95.2046 172.407 95.2046H159.301V68.3683ZM170.417 79.2511C171.926 79.2511 172.953 79.043 173.499 78.627C174.071 78.1849 174.357 77.3918 174.357 76.2476C174.357 75.3895 174.253 74.7524 174.045 74.3363C173.837 73.8942 173.46 73.5952 172.914 73.4391C172.368 73.2571 171.536 73.1661 170.417 73.1661H164.839V79.2511H170.417ZM170.612 90.4068C171.705 90.4068 172.537 90.3158 173.109 90.1338C173.681 89.9518 174.071 89.6397 174.279 89.1976C174.513 88.7556 174.63 88.1055 174.63 87.2473C174.63 86.3892 174.513 85.7391 174.279 85.297C174.045 84.8289 173.642 84.5039 173.07 84.3219C172.524 84.1398 171.705 84.0488 170.612 84.0488H164.839V90.4068H170.612ZM202.977 95.2046L201.027 89.4317H190.573L188.662 95.2046H183.084L192.172 68.3683H199.623L208.711 95.2046H202.977ZM195.878 73.5952H195.683L192.055 84.5949H199.545L195.878 73.5952Z" fill="white"/>
</g>
<defs>
<clipPath id="clip0">
<rect width="336.428" height="60.9471" fill="white" transform="translate(0.400391 51.2046)"/>
</clipPath>
</defs>
</svg>
