<svg width="337" height="157" viewBox="0 0 337 157" fill="none" xmlns="http://www.w3.org/2000/svg">
<rect x="0.00268555" y="0.00878906" width="336.428" height="156.025" fill="#91442A"/>
<mask id="mask0" mask-type="alpha" maskUnits="userSpaceOnUse" x="0" y="0" width="337" height="157">
<rect x="0.00268555" y="0.00878906" width="336.428" height="156.025" fill="#C4C4C4"/>
</mask>
<g mask="url(#mask0)">
<path d="M269.148 10.819L269.148 9.2666L253.78 9.2666L253.78 10.819L269.148 10.819Z" fill="#E1E1E1" fill-opacity="0.3"/>
<path d="M269.148 18.5807L269.148 17.0283L253.78 17.0283L253.78 18.5807L269.148 18.5807Z" fill="#E1E1E1" fill-opacity="0.3"/>
<path d="M269.148 26.3434L269.148 24.791L253.78 24.791L253.78 26.3434L269.148 26.3434Z" fill="#E1E1E1" fill-opacity="0.3"/>
<path d="M269.148 34.1041L269.148 32.5518L253.78 32.5518L253.78 34.1041L269.148 34.1041Z" fill="#E1E1E1" fill-opacity="0.3"/>
<path d="M269.148 49.628L269.148 48.0757L253.78 48.0757L253.78 49.628L269.148 49.628Z" fill="#E1E1E1" fill-opacity="0.3"/>
<path d="M269.148 57.3888L269.148 55.8364L253.78 55.8364L253.78 57.3888L269.148 57.3888Z" fill="#E1E1E1" fill-opacity="0.3"/>
<path d="M269.148 65.1515L269.148 63.5991L253.78 63.5991L253.78 65.1515L269.148 65.1515Z" fill="#E1E1E1" fill-opacity="0.3"/>
<path d="M269.148 72.9117L269.148 71.3594L253.78 71.3594L253.78 72.9117L269.148 72.9117Z" fill="#E1E1E1" fill-opacity="0.3"/>
<path d="M269.148 88.4352L269.148 86.8828L253.78 86.8828L253.78 88.4352L269.148 88.4352Z" fill="#E1E1E1" fill-opacity="0.3"/>
<path d="M269.148 96.1974L269.148 94.645L253.78 94.645L253.78 96.1974L269.148 96.1974Z" fill="#E1E1E1" fill-opacity="0.3"/>
<path d="M269.148 103.959L269.148 102.407L253.78 102.407L253.78 103.959L269.148 103.959Z" fill="#E1E1E1" fill-opacity="0.3"/>
<path d="M269.148 111.72L269.148 110.168L253.78 110.168L253.78 111.72L269.148 111.72Z" fill="#E1E1E1" fill-opacity="0.3"/>
<path d="M269.148 127.246L269.148 125.693L253.78 125.693L253.78 127.246L269.148 127.246Z" fill="#E1E1E1" fill-opacity="0.3"/>
<path d="M269.148 135.008L269.148 133.456L253.78 133.456L253.78 135.008L269.148 135.008Z" fill="#E1E1E1" fill-opacity="0.3"/>
<path d="M269.148 142.77L269.148 141.218L253.78 141.218L253.78 142.77L269.148 142.77Z" fill="#E1E1E1" fill-opacity="0.3"/>
<path d="M269.148 150.531L269.148 148.979L253.78 148.979L253.78 150.531L269.148 150.531Z" fill="#E1E1E1" fill-opacity="0.3"/>
<path d="M207.055 10.819L207.055 9.2666L191.687 9.2666L191.687 10.819L207.055 10.819Z" fill="#E1E1E1" fill-opacity="0.3"/>
<path d="M207.055 18.5807L207.055 17.0283L191.687 17.0283L191.687 18.5807L207.055 18.5807Z" fill="#E1E1E1" fill-opacity="0.3"/>
<path d="M207.055 26.3434L207.055 24.791L191.687 24.791L191.687 26.3434L207.055 26.3434Z" fill="#E1E1E1" fill-opacity="0.3"/>
<path d="M207.055 34.1041L207.055 32.5518L191.687 32.5518L191.687 34.1041L207.055 34.1041Z" fill="#E1E1E1" fill-opacity="0.3"/>
<path d="M207.055 49.628L207.055 48.0757L191.687 48.0757L191.687 49.628L207.055 49.628Z" fill="#E1E1E1" fill-opacity="0.3"/>
<path d="M207.055 57.3888L207.055 55.8364L191.687 55.8364L191.687 57.3888L207.055 57.3888Z" fill="#E1E1E1" fill-opacity="0.3"/>
<path d="M207.055 65.1515L207.055 63.5991L191.687 63.5991L191.687 65.1515L207.055 65.1515Z" fill="#E1E1E1" fill-opacity="0.3"/>
<path d="M207.055 72.9117L207.055 71.3594L191.687 71.3594L191.687 72.9117L207.055 72.9117Z" fill="#E1E1E1" fill-opacity="0.3"/>
<path d="M207.055 88.4352L207.055 86.8828L191.687 86.8828L191.687 88.4352L207.055 88.4352Z" fill="#E1E1E1" fill-opacity="0.3"/>
<path d="M207.055 96.1974L207.055 94.645L191.687 94.645L191.687 96.1974L207.055 96.1974Z" fill="#E1E1E1" fill-opacity="0.3"/>
<path d="M207.055 103.959L207.055 102.407L191.687 102.407L191.687 103.959L207.055 103.959Z" fill="#E1E1E1" fill-opacity="0.3"/>
<path d="M207.055 111.72L207.055 110.168L191.687 110.168L191.687 111.72L207.055 111.72Z" fill="#E1E1E1" fill-opacity="0.3"/>
<path d="M207.055 127.246L207.055 125.693L191.687 125.693L191.687 127.246L207.055 127.246Z" fill="#E1E1E1" fill-opacity="0.3"/>
<path d="M207.055 135.008L207.055 133.456L191.687 133.456L191.687 135.008L207.055 135.008Z" fill="#E1E1E1" fill-opacity="0.3"/>
<path d="M207.055 142.77L207.055 141.218L191.687 141.218L191.687 142.77L207.055 142.77Z" fill="#E1E1E1" fill-opacity="0.3"/>
<path d="M207.055 150.531L207.055 148.979L191.687 148.979L191.687 150.531L207.055 150.531Z" fill="#E1E1E1" fill-opacity="0.3"/>
<path d="M463.659 -133.626L-2.43555 -133.626L-2.43559 759.133L463.659 759.133L463.659 -133.626ZM-0.883212 -76.1117L-0.883209 -132.074L462.107 -132.074L462.107 -76.1117L-0.883212 -76.1117ZM-0.883213 -37.3028L-0.883213 -43.5122L13.7089 -43.5122L13.7089 -45.0646L-0.883213 -45.0646L-0.883213 -51.274L13.709 -51.274L13.709 -52.8264L-0.883213 -52.8264L-0.883212 -59.0358L13.709 -59.0358L13.709 -60.5881L-0.883212 -60.5881L-0.883212 -66.7976L13.709 -66.7976L13.709 -68.3499L-0.883212 -68.3499L-0.883212 -74.5594L462.107 -74.5593L462.107 -68.3499L447.515 -68.3499L447.515 -66.7976L462.107 -66.7976L462.107 -60.5881L447.515 -60.5881L447.515 -59.0358L462.107 -59.0358L462.107 -52.8263L447.515 -52.8263L447.515 -51.274L462.107 -51.274L462.107 -45.0646L447.515 -45.0646L447.515 -43.5122L462.107 -43.5122L462.107 -37.3028L-0.883213 -37.3028ZM-0.883215 1.50608L-0.883215 -4.70333L13.7089 -4.70333L13.7089 -6.25569L-0.883215 -6.25569L-0.883215 -12.4651L13.7089 -12.4651L13.7089 -14.0175L-0.883214 -14.0175L-0.883214 -20.2269L13.7089 -20.2269L13.7089 -21.7792L-0.883214 -21.7792L-0.883214 -27.9887L13.7089 -27.9887L13.7089 -29.541L-0.883214 -29.541L-0.883214 -35.7504L462.107 -35.7504L462.107 -29.541L447.515 -29.541L447.515 -27.9886L462.107 -27.9886L462.107 -21.7792L447.515 -21.7792L447.515 -20.2269L462.107 -20.2269L462.107 -14.0174L447.515 -14.0174L447.515 -12.4651L462.107 -12.4651L462.107 -6.25567L447.515 -6.25567L447.515 -4.70331L462.107 -4.70331L462.107 1.5061L-0.883215 1.50608ZM-0.883217 40.315L-0.883217 34.1056L13.7089 34.1056L13.7089 32.5532L-0.883216 32.5532L-0.883216 26.3438L13.7089 26.3438L13.7089 24.7914L-0.883216 24.7914L-0.883216 18.582L13.7089 18.582L13.7089 17.0296L-0.883216 17.0296L-0.883216 10.8202L13.7089 10.8202L13.7089 9.26786L-0.883215 9.26786L-0.883215 3.05845L462.107 3.05847L462.107 9.26788L447.515 9.26788L447.515 10.8203L462.107 10.8203L462.107 17.0297L447.515 17.0297L447.515 18.582L462.107 18.582L462.107 24.7914L447.515 24.7914L447.515 26.3438L462.107 26.3438L462.107 32.5532L447.515 32.5532L447.515 34.1056L462.107 34.1056L462.107 40.315L-0.883217 40.315ZM-0.883219 79.1239L-0.883218 72.9145L13.7089 72.9145L13.7089 71.3621L-0.883218 71.3621L-0.883218 65.1527L13.7089 65.1527L13.7089 63.6003L-0.883218 63.6003L-0.883218 57.3909L13.7089 57.3909L13.7089 55.8385L-0.883218 55.8385L-0.883217 49.6291L13.7089 49.6291L13.7089 48.0768L-0.883217 48.0768L-0.883217 41.8673L462.107 41.8674L462.107 48.0768L447.515 48.0768L447.515 49.6291L462.107 49.6291L462.107 55.8386L447.515 55.8386L447.515 57.3909L462.107 57.3909L462.107 63.6003L447.515 63.6003L447.515 65.1527L462.107 65.1527L462.107 71.3621L447.515 71.3621L447.515 72.9145L462.107 72.9145L462.107 79.1239L-0.883219 79.1239ZM-0.88322 117.933L-0.88322 111.723L13.7089 111.723L13.7089 110.171L-0.88322 110.171L-0.88322 103.962L13.7089 103.962L13.7089 102.409L-0.88322 102.409L-0.883219 96.1998L13.7089 96.1998L13.7089 94.6474L-0.883219 94.6474L-0.883219 88.438L13.7089 88.438L13.7089 86.8857L-0.883219 86.8857L-0.883219 80.6762L462.107 80.6763L462.107 86.8857L447.515 86.8857L447.515 88.438L462.107 88.438L462.107 94.6475L447.515 94.6475L447.515 96.1998L462.107 96.1998L462.107 102.409L447.515 102.409L447.515 103.962L462.107 103.962L462.107 110.171L447.515 110.171L447.515 111.723L462.107 111.723L462.107 117.933L-0.88322 117.933ZM-0.883222 156.742L-0.883222 150.532L13.7089 150.532L13.7089 148.98L-0.883222 148.98L-0.883221 142.77L13.7089 142.77L13.7089 141.218L-0.883221 141.218L-0.883221 135.009L13.7089 135.009L13.7089 133.456L-0.883221 133.456L-0.883221 127.247L13.7089 127.247L13.7089 125.695L-0.883221 125.695L-0.88322 119.485L462.107 119.485L462.107 125.695L447.515 125.695L447.515 127.247L462.107 127.247L462.107 133.456L447.515 133.456L447.515 135.009L462.107 135.009L462.107 141.218L447.515 141.218L447.515 142.77L462.107 142.77L462.107 148.98L447.515 148.98L447.515 150.532L462.107 150.532L462.107 156.742L-0.883222 156.742ZM-0.883224 195.551L-0.883223 189.341L13.7089 189.341L13.7089 187.789L-0.883223 187.789L-0.883223 181.579L13.7089 181.579L13.7089 180.027L-0.883223 180.027L-0.883223 173.818L13.7089 173.818L13.7089 172.265L-0.883223 172.265L-0.883222 166.056L13.7089 166.056L13.7089 164.503L-0.883222 164.503L-0.883222 158.294L462.107 158.294L462.107 164.503L447.515 164.503L447.515 166.056L462.107 166.056L462.107 172.265L447.515 172.265L447.515 173.818L462.107 173.818L462.107 180.027L447.515 180.027L447.515 181.579L462.107 181.579L462.107 187.789L447.515 187.789L447.515 189.341L462.107 189.341L462.107 195.551L-0.883224 195.551ZM-0.883225 234.359L-0.883225 228.15L13.7089 228.15L13.7089 226.598L-0.883225 226.598L-0.883225 220.388L13.7089 220.388L13.7089 218.836L-0.883225 218.836L-0.883224 212.626L13.7089 212.626L13.7089 211.074L-0.883224 211.074L-0.883224 204.865L13.7089 204.865L13.7089 203.312L-0.883224 203.312L-0.883224 197.103L462.107 197.103L462.107 203.312L447.515 203.312L447.515 204.865L462.107 204.865L462.107 211.074L447.515 211.074L447.515 212.626L462.107 212.626L462.107 218.836L447.515 218.836L447.515 220.388L462.107 220.388L462.107 226.598L447.515 226.598L447.515 228.15L462.107 228.15L462.107 234.359L-0.883225 234.359ZM-0.883227 273.168L-0.883227 266.959L13.7089 266.959L13.7089 265.407L-0.883227 265.407L-0.883226 259.197L13.7089 259.197L13.7089 257.645L-0.883226 257.645L-0.883226 251.435L13.7089 251.435L13.7089 249.883L-0.883226 249.883L-0.883226 243.674L13.7089 243.674L13.7089 242.121L-0.883226 242.121L-0.883225 235.912L462.107 235.912L462.107 242.121L447.515 242.121L447.515 243.674L462.107 243.674L462.107 249.883L447.515 249.883L447.515 251.435L462.107 251.435L462.107 257.645L447.515 257.645L447.515 259.197L462.107 259.197L462.107 265.407L447.515 265.407L447.515 266.959L462.107 266.959L462.107 273.168L-0.883227 273.168ZM-0.883229 311.977L-0.883228 305.768L13.7089 305.768L13.7089 304.215L-0.883228 304.215L-0.883228 298.006L13.7089 298.006L13.7089 296.454L-0.883228 296.454L-0.883228 290.244L13.7089 290.244L13.7089 288.692L-0.883228 288.692L-0.883227 282.482L13.7089 282.482L13.7089 280.93L-0.883227 280.93L-0.883227 274.721L462.107 274.721L462.107 280.93L447.515 280.93L447.515 282.482L462.107 282.482L462.107 288.692L447.515 288.692L447.515 290.244L462.107 290.244L462.107 296.454L447.515 296.454L447.515 298.006L462.107 298.006L462.107 304.215L447.515 304.215L447.515 305.768L462.107 305.768L462.107 311.977L-0.883229 311.977ZM-0.88323 350.786L-0.88323 344.577L13.7089 344.577L13.7089 343.024L-0.88323 343.024L-0.88323 336.815L13.7089 336.815L13.7089 335.263L-0.88323 335.263L-0.883229 329.053L13.7089 329.053L13.7089 327.501L-0.883229 327.501L-0.883229 321.291L13.7089 321.291L13.7089 319.739L-0.883229 319.739L-0.883229 313.53L462.107 313.53L462.107 319.739L447.515 319.739L447.515 321.291L462.107 321.291L462.107 327.501L447.515 327.501L447.515 329.053L462.107 329.053L462.107 335.263L447.515 335.263L447.515 336.815L462.107 336.815L462.107 343.024L447.515 343.024L447.515 344.577L462.107 344.577L462.107 350.786L-0.88323 350.786ZM-0.883232 389.595L-0.883232 383.386L13.7089 383.386L13.7089 381.833L-0.883232 381.833L-0.883231 375.624L13.7089 375.624L13.7089 374.071L-0.883231 374.071L-0.883231 367.862L13.7089 367.862L13.7089 366.31L-0.883231 366.31L-0.883231 360.1L13.7089 360.1L13.7089 358.548L-0.883231 358.548L-0.88323 352.338L462.107 352.339L462.107 358.548L447.515 358.548L447.515 360.1L462.107 360.1L462.107 366.31L447.515 366.31L447.515 367.862L462.107 367.862L462.107 374.071L447.515 374.071L447.515 375.624L462.107 375.624L462.107 381.833L447.515 381.833L447.515 383.386L462.107 383.386L462.107 389.595L-0.883232 389.595ZM-0.883234 428.404L-0.883234 422.194L13.7089 422.194L13.7089 420.642L-0.883233 420.642L-0.883233 414.433L13.7089 414.433L13.7089 412.88L-0.883233 412.88L-0.883233 406.671L13.7089 406.671L13.7089 405.119L-0.883233 405.119L-0.883233 398.909L13.7089 398.909L13.7089 397.357L-0.883232 397.357L-0.883232 391.147L462.107 391.147L462.107 397.357L447.515 397.357L447.515 398.909L462.107 398.909L462.107 405.119L447.515 405.119L447.515 406.671L462.107 406.671L462.107 412.88L447.515 412.88L447.515 414.433L462.107 414.433L462.107 420.642L447.515 420.642L447.515 422.195L462.107 422.195L462.107 428.404L-0.883234 428.404ZM-0.883235 467.213L-0.883235 461.003L13.7089 461.003L13.7089 459.451L-0.883235 459.451L-0.883235 453.242L13.7089 453.242L13.7089 451.689L-0.883235 451.689L-0.883235 445.48L13.7089 445.48L13.7089 443.927L-0.883234 443.927L-0.883234 437.718L13.7089 437.718L13.7089 436.166L-0.883234 436.166L-0.883234 429.956L462.107 429.956L462.107 436.166L447.515 436.166L447.515 437.718L462.107 437.718L462.107 443.927L447.515 443.927L447.515 445.48L462.107 445.48L462.107 451.689L447.515 451.689L447.515 453.242L462.107 453.242L462.107 459.451L447.515 459.451L447.515 461.003L462.107 461.003L462.107 467.213L-0.883235 467.213ZM-0.883237 506.022L-0.883237 499.812L13.7089 499.812L13.7089 498.26L-0.883237 498.26L-0.883237 492.051L13.7089 492.051L13.7089 490.498L-0.883237 490.498L-0.883236 484.289L13.7089 484.289L13.7089 482.736L-0.883236 482.736L-0.883236 476.527L13.7089 476.527L13.7089 474.975L-0.883236 474.975L-0.883236 468.765L462.107 468.765L462.107 474.975L447.515 474.975L447.515 476.527L462.107 476.527L462.107 482.736L447.515 482.736L447.515 484.289L462.107 484.289L462.107 490.498L447.515 490.498L447.515 492.051L462.107 492.051L462.107 498.26L447.515 498.26L447.515 499.812L462.107 499.812L462.107 506.022L-0.883237 506.022ZM-0.883239 544.831L-0.883239 538.621L13.7089 538.621L13.7089 537.069L-0.883239 537.069L-0.883238 530.859L13.7089 530.859L13.7089 529.307L-0.883238 529.307L-0.883238 523.098L13.7089 523.098L13.7089 521.545L-0.883238 521.545L-0.883238 515.336L13.7089 515.336L13.7089 513.783L-0.883238 513.783L-0.883237 507.574L462.107 507.574L462.107 513.784L447.515 513.784L447.515 515.336L462.107 515.336L462.107 521.545L447.515 521.545L447.515 523.098L462.107 523.098L462.107 529.307L447.515 529.307L447.515 530.859L462.107 530.859L462.107 537.069L447.515 537.069L447.515 538.621L462.107 538.621L462.107 544.831L-0.883239 544.831ZM-0.883241 583.64L-0.88324 577.43L13.7089 577.43L13.7089 575.878L-0.88324 575.878L-0.88324 569.668L13.7089 569.668L13.7089 568.116L-0.88324 568.116L-0.88324 561.906L13.7089 561.906L13.7089 560.354L-0.88324 560.354L-0.883239 554.145L13.7089 554.145L13.7089 552.592L-0.883239 552.592L-0.883239 546.383L462.107 546.383L462.107 552.592L447.515 552.592L447.515 554.145L462.107 554.145L462.107 560.354L447.515 560.354L447.515 561.906L462.107 561.906L462.107 568.116L447.515 568.116L447.515 569.668L462.107 569.668L462.107 575.878L447.515 575.878L447.515 577.43L462.107 577.43L462.107 583.64L-0.883241 583.64ZM-0.883242 622.448L-0.883242 616.239L13.7089 616.239L13.7089 614.687L-0.883242 614.687L-0.883242 608.477L13.7089 608.477L13.7089 606.925L-0.883242 606.925L-0.883241 600.715L13.7089 600.715L13.7089 599.163L-0.883241 599.163L-0.883241 592.954L13.7089 592.954L13.7089 591.401L-0.883241 591.401L-0.883241 585.192L462.107 585.192L462.107 591.401L447.515 591.401L447.515 592.954L462.107 592.954L462.107 599.163L447.515 599.163L447.515 600.715L462.107 600.715L462.107 606.925L447.515 606.925L447.515 608.477L462.107 608.477L462.107 614.687L447.515 614.687L447.515 616.239L462.107 616.239L462.107 622.448L-0.883242 622.448ZM-0.883244 661.257L-0.883244 655.048L13.7089 655.048L13.7089 653.495L-0.883244 653.495L-0.883243 647.286L13.7089 647.286L13.7089 645.734L-0.883243 645.734L-0.883243 639.524L13.7089 639.524L13.7089 637.972L-0.883243 637.972L-0.883243 631.762L13.7089 631.762L13.7089 630.21L-0.883243 630.21L-0.883242 624.001L462.107 624.001L462.107 630.21L447.515 630.21L447.515 631.763L462.107 631.763L462.107 637.972L447.515 637.972L447.515 639.524L462.107 639.524L462.107 645.734L447.515 645.734L447.515 647.286L462.107 647.286L462.107 653.495L447.515 653.495L447.515 655.048L462.107 655.048L462.107 661.257L-0.883244 661.257ZM-0.883246 700.066L-0.883245 693.857L13.7089 693.857L13.7089 692.304L-0.883245 692.304L-0.883245 686.095L13.7089 686.095L13.7089 684.543L-0.883245 684.543L-0.883245 678.333L13.7089 678.333L13.7089 676.781L-0.883245 676.781L-0.883244 670.571L13.7089 670.571L13.7089 669.019L-0.883244 669.019L-0.883244 662.81L462.107 662.81L462.107 669.019L447.515 669.019L447.515 670.571L462.107 670.571L462.107 676.781L447.515 676.781L447.515 678.333L462.107 678.333L462.107 684.543L447.515 684.543L447.515 686.095L462.107 686.095L462.107 692.304L447.515 692.304L447.515 693.857L462.107 693.857L462.107 700.066L-0.883246 700.066ZM-0.883248 757.581L-0.883246 701.619L462.107 701.619L462.107 757.581L-0.883248 757.581Z" fill="#E1E1E1" fill-opacity="0.3"/>
<path d="M60.2014 -12.0782L62.4523 -12.0782L62.4523 -7.26587L78.5968 -7.26587L77.3549 -12.311L79.4506 -12.311L81.1582 -6.33446L81.1582 -4.31639L62.4523 -4.31639L62.4523 0.418292L60.2014 0.418292L60.2014 -12.0782Z" fill="#E1E1E1" fill-opacity="0.3"/>
<path d="M70.6024 4.14551C72.2323 4.14551 73.7847 4.30075 75.1042 4.61122C76.4237 4.92169 77.588 5.38739 78.5194 6.00833C79.4508 6.62928 80.227 7.40545 80.6927 8.33687C81.236 9.26828 81.4689 10.3549 81.4689 11.5192C81.4689 12.7611 81.236 13.8477 80.6927 14.7792C80.1494 15.7106 79.4508 16.4868 78.5194 17.1853C77.588 17.8063 76.4237 18.3496 75.1042 18.6601C73.7847 18.9705 72.2323 19.1258 70.6024 19.1258C68.9724 19.1258 67.42 18.9705 66.1005 18.6601C64.781 18.3496 63.6944 17.8063 62.763 17.1853C61.8316 16.5644 61.133 15.7106 60.6673 14.7792C60.2016 13.8477 59.9688 12.7611 59.9688 11.5192C59.9688 10.2773 60.2016 9.26828 60.6673 8.33687C61.133 7.40545 61.8316 6.62927 62.763 6.00833C63.6944 5.38739 64.781 4.92169 66.1005 4.61122C67.42 4.30075 68.9724 4.14551 70.6024 4.14551ZM70.6024 7.1726C69.2829 7.1726 68.1186 7.25023 67.032 7.48308C66.0229 7.63831 65.0915 7.94878 64.3929 8.33687C63.6944 8.72496 63.0735 9.19067 62.763 9.73399C62.3749 10.2773 62.2196 10.8983 62.2196 11.6744C62.2196 12.4506 62.3749 13.0716 62.763 13.6149C63.1511 14.1582 63.6944 14.6239 64.3929 15.012C65.0915 15.4001 66.0229 15.7106 67.032 15.8658C68.041 16.0987 69.2829 16.1763 70.6024 16.1763C71.9219 16.1763 73.1638 16.0987 74.1728 15.8658C75.2595 15.633 76.1909 15.4001 76.8894 15.012C77.6656 14.6239 78.209 14.1582 78.597 13.6149C78.9851 13.0716 79.218 12.373 79.218 11.6744C79.218 10.9759 78.9851 10.2773 78.597 9.73399C78.209 9.19067 77.588 8.72496 76.8894 8.33687C76.1133 7.94878 75.2595 7.71593 74.1728 7.48308C73.1638 7.25023 71.9219 7.1726 70.6024 7.1726Z" fill="#E1E1E1" fill-opacity="0.3"/>
<path d="M62.4524 77.8037L60.2015 77.8037L60.2015 63.9101L61.2105 63.9101C62.53 63.9101 63.6167 64.0653 64.6257 64.2982C65.5571 64.6087 66.4885 64.9967 67.1871 65.5401C67.9633 66.0834 68.6618 66.8596 69.2828 67.7134C69.9037 68.5672 70.5246 69.5762 71.1456 70.8181C71.5337 71.439 71.8442 71.9823 72.2322 72.4481C72.6203 72.9138 72.9308 73.3018 73.3189 73.5347C73.707 73.8452 74.095 74.078 74.4831 74.1557C74.8712 74.3109 75.337 74.3885 75.725 74.3885C76.1908 74.3885 76.6565 74.3109 77.1222 74.078C77.5102 73.8452 77.8984 73.6123 78.2088 73.2242C78.5193 72.8361 78.7521 72.448 78.9074 71.9047C79.0626 71.439 79.1402 70.8181 79.1402 70.1971C79.1402 69.6538 79.0626 69.1105 78.985 68.5672C78.9074 68.1015 78.7522 67.5581 78.5969 67.0924C78.4417 66.6267 78.2088 66.161 78.0536 65.7729C77.8207 65.3072 77.5879 64.9191 77.4326 64.531L79.3731 63.6772C79.6059 63.9877 79.8388 64.3758 80.0716 64.9191C80.3045 65.3848 80.5374 65.9282 80.7702 66.5491C81.0031 67.17 81.1583 67.791 81.3135 68.4119C81.4688 69.1105 81.5464 69.7314 81.5464 70.5076C81.5464 71.5166 81.3912 72.5257 81.1583 73.3795C80.9254 74.2333 80.5374 74.9318 79.994 75.5528C79.5283 76.1737 78.9074 76.6394 78.2088 76.9499C77.5103 77.2604 76.7341 77.4156 75.8026 77.4156C75.0265 77.4156 74.2503 77.2604 73.6294 77.0275C73.0084 76.717 72.3875 76.3289 71.9217 75.8632C71.3784 75.3975 70.9127 74.7766 70.5246 74.1557C70.1365 73.5347 69.6709 72.8362 69.2828 72.1376C68.8171 71.439 68.429 70.7405 67.9633 70.1195C67.4975 69.4986 67.0318 68.9552 66.4885 68.4895C65.9452 68.0238 65.4019 67.6357 64.7033 67.4029C64.0824 67.0924 63.3062 66.9372 62.4524 66.9372L62.4524 77.8037Z" fill="#E1E1E1" fill-opacity="0.3"/>
<path d="M70.6024 81.4531C72.2323 81.4531 73.7847 81.6084 75.1042 81.9188C76.4237 82.2293 77.588 82.695 78.5194 83.3159C79.4508 83.9369 80.227 84.7131 80.6927 85.6445C81.236 86.5759 81.4689 87.6626 81.4689 88.8268C81.4689 90.0687 81.236 91.1553 80.6927 92.0868C80.1494 93.0182 79.4508 93.7944 78.5194 94.4929C77.588 95.1139 76.4237 95.6572 75.1042 95.9677C73.7847 96.2781 72.2323 96.4334 70.6024 96.4334C68.9724 96.4334 67.42 96.2781 66.1005 95.9677C64.781 95.6572 63.6944 95.1139 62.763 94.4929C61.8316 93.872 61.133 93.0182 60.6673 92.0868C60.2016 91.1553 59.9688 90.0687 59.9688 88.8268C59.9688 87.5849 60.2016 86.5759 60.6673 85.6445C61.133 84.7131 61.8316 83.9369 62.763 83.3159C63.6944 82.695 64.781 82.2293 66.1005 81.9188C67.42 81.6084 68.9724 81.4531 70.6024 81.4531ZM70.6024 84.4802C69.2829 84.4802 68.1186 84.5578 67.032 84.7907C66.0229 84.9459 65.0915 85.2564 64.3929 85.6445C63.6944 86.0326 63.0735 86.4983 62.763 87.0416C62.3749 87.5849 62.2196 88.2059 62.2196 88.982C62.2196 89.7582 62.3749 90.3792 62.763 90.9225C63.1511 91.4658 63.6944 91.9315 64.3929 92.3196C65.0915 92.7077 66.0229 93.0182 67.032 93.1734C68.041 93.4063 69.2829 93.4839 70.6024 93.4839C71.9219 93.4839 73.1638 93.4063 74.1728 93.1734C75.2595 92.9406 76.1909 92.7077 76.8894 92.3196C77.6656 91.9315 78.209 91.4658 78.597 90.9225C78.9851 90.3792 79.218 89.6806 79.218 88.982C79.218 88.2835 78.9851 87.5849 78.597 87.0416C78.209 86.4983 77.588 86.0326 76.8894 85.6445C76.1133 85.2564 75.2595 85.0235 74.1728 84.7907C73.1638 84.5578 71.9219 84.4802 70.6024 84.4802Z" fill="#E1E1E1" fill-opacity="0.3"/>
<path d="M75.725 154.8C74.6384 154.8 73.6294 154.489 72.8532 153.869C72.077 153.248 71.456 152.394 70.9903 151.307C70.6022 152.627 69.9037 153.713 69.0499 154.412C68.1961 155.11 67.1095 155.499 65.8676 155.499C65.0138 155.499 64.16 155.343 63.4614 154.955C62.7629 154.567 62.0643 154.101 61.5986 153.403C61.0553 152.704 60.6672 151.85 60.3567 150.919C60.0462 149.91 59.891 148.823 59.891 147.582C59.891 147.038 59.891 146.417 59.9686 145.874C60.0462 145.253 60.1238 144.71 60.2791 144.166C60.4343 143.623 60.5896 143.08 60.7448 142.614C60.9 142.148 61.1329 141.683 61.3657 141.372L63.2285 142.303C62.9181 143.002 62.6852 143.778 62.4524 144.554C62.2195 145.331 62.1419 146.262 62.1419 147.271C62.1419 148.047 62.2195 148.746 62.3748 149.444C62.53 150.143 62.7629 150.686 63.0733 151.152C63.3838 151.618 63.7719 152.006 64.2376 152.239C64.7033 152.471 65.2466 152.627 65.8676 152.627C66.5661 152.627 67.1094 152.471 67.6528 152.239C68.1185 152.006 68.5066 151.618 68.8947 151.152C69.2052 150.686 69.438 150.143 69.5932 149.522C69.7484 148.901 69.8261 148.202 69.8261 147.504L69.8261 144.71L72.077 144.71L72.077 147.504C72.077 148.125 72.1546 148.746 72.3098 149.289C72.4651 149.832 72.6979 150.298 73.0084 150.686C73.3189 151.074 73.707 151.385 74.1727 151.618C74.6384 151.85 75.1817 151.928 75.8026 151.928C76.4236 151.928 76.9669 151.773 77.4326 151.54C77.8984 151.307 78.2864 150.997 78.5193 150.531C78.8297 150.065 78.985 149.6 79.1402 149.056C79.2954 148.513 79.3731 147.814 79.3731 147.193C79.3731 146.728 79.3731 146.262 79.2954 145.874C79.2178 145.486 79.1402 145.098 79.0626 144.71C78.985 144.322 78.8297 144.011 78.7521 143.623C78.5969 143.313 78.4417 142.924 78.2864 142.614L80.0716 141.605C80.3045 141.915 80.5373 142.303 80.6926 142.769C80.8478 143.235 81.0031 143.701 81.1583 144.244C81.3135 144.787 81.3911 145.331 81.4687 145.874C81.5464 146.417 81.5464 146.961 81.5464 147.504C81.5464 148.591 81.3912 149.6 81.1583 150.531C80.8478 151.462 80.4597 152.161 79.994 152.86C79.5283 153.48 78.9074 153.946 78.1312 154.334C77.4326 154.645 76.5788 154.8 75.725 154.8Z" fill="#E1E1E1" fill-opacity="0.3"/>
<path d="M67.5748 61.97L70.6795 53.0439L73.7065 61.97L67.5748 61.97Z" fill="#E1E1E1" fill-opacity="0.3"/>
<path d="M67.5748 139.587L70.6795 130.661L73.7065 139.587L67.5748 139.587Z" fill="#E1E1E1" fill-opacity="0.3"/>
</g>
<g clip-path="url(#clip0)">
<path d="M152.089 95.2046L141.128 78.1589H140.972V95.2046H135.628V68.3683H141.362L151.854 84.4389H152.05V68.3683H157.393V95.2046H152.089ZM163.779 95.2046V68.3683H181.449V73.1661H169.318V79.9922H180.005V84.7899H169.318V95.2046H163.779ZM186.139 95.2046V68.3683H191.678V90.1728H203.028V95.2046H186.139Z" fill="white"/>
</g>
<defs>
<clipPath id="clip0">
<rect width="336.428" height="60.9471" fill="white" transform="translate(0.00268555 51.2046)"/>
</clipPath>
</defs>
</svg>
