<svg width="444" height="140" viewBox="0 0 444 140" fill="none" xmlns="http://www.w3.org/2000/svg">
<path d="M222.351 0.469867C200.599 1.64649 178.809 0.622436 157 2.34217C137.635 3.95442 118.403 6.86219 100.126 10.9693C65.7868 18.6857 29.5363 31.6917 9.74507 52.6632C-7.60092 70.9645 -0.752101 93.1072 25.4825 108.331C40.5283 116.879 58.4591 121.156 76.3708 125.614C97.9679 131.012 120.043 134.446 142.558 136.279C189.975 140.38 238.672 140.041 285.08 135.798C326.579 131.952 369.683 125.712 405.266 111.354C433.208 100.215 459.473 79.3788 432.42 56.5628C409.109 36.7056 364.634 27.7896 331.236 21.5098C281.166 11.8187 228.745 9.01807 178.252 10.9979C138.892 12.5083 90.9002 16.4003 67.3652 39.5385C65.2639 41.5129 69.5407 44.5283 72.4249 42.8198C98.8791 27.862 126.878 21.3053 161.979 19.1613C200.88 16.8703 240.774 17.9793 280.055 22.3186C317.465 26.4599 355.676 33.2488 390.697 44.6428C405.075 49.2761 420.618 55.6803 429.056 65.3599C443.03 81.4833 424.578 94.908 407.235 102.958C377.057 117.339 339.319 123.964 302.594 128.682C262.584 133.784 221.601 135.306 180.065 134.389C139.599 133.586 100.91 128.76 61.9355 118.961C26.6468 110.102 -9.61134 87.4103 7.01166 60.6117C22.3162 36.0535 63.628 21.2032 98.8648 12.6665C117.734 8.07285 137.252 5.01233 157.19 3.09458C177.95 1.08067 201.134 -0.859686 222.255 1.37503C223.343 1.30715 223.172 0.373696 222.351 0.469867Z" fill="#FFC700"/>
</svg>
