<svg width="439" height="140" viewBox="0 0 439 140" fill="none" xmlns="http://www.w3.org/2000/svg">
<path d="M236.921 139.779C276.287 135.439 315.343 127.69 352.539 113.122C380.126 102.273 416.392 87.0842 432.821 60.7369C470.947 -0.636734 308.833 -0.0168152 283.416 0.913086C204.374 3.7028 124.092 12.3819 50.6299 42.7588C33.2717 49.8881 8.78427 60.737 1.96497 79.645C-5.47427 99.7929 14.3636 113.432 30.792 119.321C60.8589 129.86 95.5753 128.93 126.882 128C179.267 126.45 231.341 119.011 283.106 111.262C286.206 110.952 284.656 106.302 281.866 106.922C215.223 116.221 147.65 126.14 80.0769 122.421C58.3791 121.181 23.3528 119.631 9.40417 99.483C-7.02414 75.9254 29.5521 57.0173 46.9103 49.2681C103.634 23.5408 168.418 12.3819 230.102 7.73238C265.128 4.94267 300.464 3.08287 335.491 4.94269C352.849 5.87259 370.207 8.35234 386.945 12.072C402.134 15.1716 429.721 22.3009 434.06 39.9691C439.02 59.8071 412.983 76.8553 399.344 85.5344C382.916 96.0733 365.248 104.442 346.959 111.572C311.623 124.9 274.427 132.34 237.231 136.369C234.751 136.989 234.751 140.089 236.921 139.779Z" fill="#FFC700"/>
</svg>
