<svg width="334" height="67" viewBox="0 0 334 67" fill="none" xmlns="http://www.w3.org/2000/svg">
<path d="M162.71 0.631088C146.487 1.6017 130.104 1.52944 113.871 2.75869C99.4614 3.89059 85.2293 5.63433 71.7835 7.92869C46.5218 12.2393 20.1436 19.0946 6.56855 29.415C-5.33395 38.4227 1.1154 48.7931 21.6733 55.5147C33.4526 59.283 47.1384 60.971 60.8206 62.7452C77.3194 64.8949 94.0593 66.1046 111.033 66.5468C146.795 67.5923 183.251 66.5076 217.76 63.6153C248.615 61.0039 280.53 57.2272 306.328 49.7434C326.594 43.931 345.027 33.5522 323.403 23.2459C304.759 14.2716 270.914 10.8872 245.523 8.54286C207.441 4.89705 168.009 4.56343 130.305 6.46017C100.913 7.92306 65.1967 10.6791 48.9466 22.098C47.4903 23.0741 50.8734 24.4229 52.932 23.558C71.8562 15.963 92.4376 12.3226 118.602 10.6401C147.605 8.81565 177.553 8.58475 207.235 9.89731C235.503 11.1515 264.529 13.646 291.44 18.3847C302.486 20.3092 314.51 23.0512 321.407 27.4814C332.835 34.8621 319.814 41.5783 307.303 45.7248C285.555 53.1168 257.682 56.9742 230.455 59.9082C200.789 63.087 170.182 64.586 139.015 64.9393C108.656 65.3259 79.3887 63.7714 49.6116 59.8642C22.651 56.3323 -5.85998 46.2596 4.99469 33.2361C14.9953 21.2999 45.0548 13.4741 70.9402 8.75744C84.8005 6.22112 99.2381 4.39952 114.058 3.11187C129.488 1.76304 146.738 0.403085 162.692 1.06214C163.503 1.0093 163.319 0.569904 162.71 0.631088Z" fill="#FFC700"/>
</svg>
