<svg width="125" height="84" viewBox="0 0 125 84" fill="none" xmlns="http://www.w3.org/2000/svg">
<path d="M63.3613 4.70828C57.4385 6.01692 51.5357 6.19412 45.5898 7.78415C40.3092 9.23986 35.047 11.358 30.0275 14.0627C20.5969 19.1441 10.5747 27.0097 4.91251 38.4431C-0.0490105 48.4232 1.50672 59.5983 8.42158 66.5859C12.3898 70.4992 17.2001 72.121 22.0028 73.8365C27.7933 75.9163 33.7405 76.9703 39.8292 77.186C52.6487 77.7645 65.877 76.016 78.537 72.3323C89.8587 69.0111 101.649 64.4064 111.509 55.8664C119.249 49.2301 126.667 37.6574 119.635 26.7887C113.577 17.322 101.623 14.1705 92.6397 12.0179C79.1766 8.64832 64.9804 8.90122 51.242 11.5522C40.5333 13.6017 27.4478 17.1561 20.7392 29.8257C20.1415 30.9098 21.2615 32.3235 22.0681 31.3509C29.457 22.7974 37.1499 18.5178 46.7109 16.2798C57.3059 13.8433 68.1236 13.1246 78.7307 14.0884C88.8324 15.0107 99.1152 17.2698 108.468 22.0022C112.309 23.9222 116.442 26.7159 118.6 31.4252C122.173 39.272 116.979 46.7779 112.159 51.4818C103.767 59.8587 93.428 64.488 83.3906 68.1033C72.456 72.0228 61.3064 74.1306 50.0401 75.0013C39.0626 75.8957 28.623 74.6624 18.1743 70.8789C8.71344 67.4596 -0.820741 56.9525 4.06113 42.6224C8.55422 29.488 19.9762 20.5096 29.6618 14.9769C34.8488 12.0028 40.1909 9.7967 45.6313 8.16525C51.296 6.45775 57.6183 4.70972 63.3229 5.17725C63.6194 5.10712 63.5856 4.63224 63.3613 4.70828Z" fill="#FFC700"/>
</svg>
