<svg width="337" height="157" viewBox="0 0 337 157" fill="none" xmlns="http://www.w3.org/2000/svg">
<rect x="0.197754" y="0.75" width="336.428" height="156.025" fill="#6DCF40"/>
<mask id="mask0" mask-type="alpha" maskUnits="userSpaceOnUse" x="0" y="0" width="337" height="157">
<rect x="0.197754" y="0.75" width="336.428" height="156.025" fill="#C4C4C4"/>
</mask>
<g mask="url(#mask0)">
<path d="M174.152 38.6738V-31.6117L355.367 -31.6117V10.6627H357.137V-33.3799L172.381 -33.3799V38.6443H173.267C173.562 38.659 173.857 38.659 174.152 38.6738Z" fill="#E1E1E1" fill-opacity="0.3"/>
<path d="M355.367 191.432L174.152 191.432V124.094C173.857 124.094 173.562 124.108 173.267 124.108H172.381V193.186L357.137 193.186V149.143H355.367V191.432Z" fill="#E1E1E1" fill-opacity="0.3"/>
<path d="M297.521 47.5298C297.639 47.4414 297.757 47.353 297.875 47.2499L299.292 46.1742V12.4313L355.368 12.4313V10.6631L297.521 10.6631V47.5298Z" fill="#E1E1E1" fill-opacity="0.3"/>
<path d="M299.292 116.593L297.875 115.532C297.757 115.444 297.639 115.355 297.521 115.252V149.172H355.368V147.404H299.292V116.593Z" fill="#E1E1E1" fill-opacity="0.3"/>
<path d="M335.297 49.2682H355.366V47.5H333.526V112.334H355.366V110.565H335.297V49.2682Z" fill="#E1E1E1" fill-opacity="0.3"/>
<path d="M282.586 81.3891C282.586 69.0266 288.002 57.607 297.505 49.7828V47.5283C292.488 51.3889 288.327 56.3987 285.449 62.0127C282.365 68.054 280.801 74.5669 280.801 81.3891C280.801 88.2114 282.365 94.7242 285.449 100.766C288.312 106.394 292.488 111.389 297.505 115.25V112.995C288.002 105.171 282.586 93.7517 282.586 81.3891Z" fill="#E1E1E1" fill-opacity="0.3"/>
<path d="M297.521 47.5313V49.7857V112.998V115.253C297.639 115.341 297.757 115.43 297.875 115.533L299.292 116.594V46.1904L297.875 47.2661C297.757 47.3397 297.639 47.4282 297.521 47.5313Z" fill="#E1E1E1" fill-opacity="0.3"/>
<path d="M318.593 77.7969C317.412 77.7969 316.468 78.7399 316.468 79.9187C316.468 81.0975 317.412 82.0405 318.593 82.0405C319.773 82.0405 320.718 81.0975 320.718 79.9187C320.718 78.7399 319.773 77.7969 318.593 77.7969Z" fill="#E1E1E1" fill-opacity="0.3"/>
<path d="M175.216 81.3907C175.216 80.6097 174.788 79.9172 174.139 79.5488V83.2325C174.788 82.8642 175.216 82.1716 175.216 81.3907Z" fill="#E1E1E1" fill-opacity="0.3"/>
<path d="M170.965 81.3916C170.965 82.3052 171.556 83.1009 172.367 83.3808V79.3877C171.556 79.6824 170.965 80.4633 170.965 81.3916Z" fill="#E1E1E1" fill-opacity="0.3"/>
<path d="M215.886 81.3913C215.886 70.0012 211.459 59.3037 203.402 51.2289C195.566 43.3752 185.207 38.94 174.139 38.6748V40.443C196.259 41.0029 214.115 59.1858 214.115 81.3913C214.115 103.597 196.259 121.78 174.139 122.34V124.108C185.207 123.843 195.566 119.407 203.402 111.554C211.459 103.479 215.886 92.7666 215.886 81.3913Z" fill="#E1E1E1" fill-opacity="0.3"/>
<path d="M174.152 79.5476V40.4411V38.6729C173.857 38.6729 173.562 38.6582 173.267 38.6582H172.381V79.4002C172.603 79.3265 172.839 79.2676 173.104 79.2676C173.473 79.2676 173.842 79.3708 174.152 79.5476Z" fill="#E1E1E1" fill-opacity="0.3"/>
<path d="M174.152 124.09V122.322V83.2158C173.842 83.3926 173.488 83.4958 173.104 83.4958C172.854 83.4958 172.617 83.4516 172.381 83.3632V124.105H173.267C173.562 124.105 173.857 124.105 174.152 124.09Z" fill="#E1E1E1" fill-opacity="0.3"/>
<path d="M174.152 83.2186V79.5348C173.842 79.358 173.488 79.2549 173.104 79.2549C172.854 79.2549 172.617 79.2991 172.381 79.3875V83.3807C172.603 83.4544 172.839 83.5133 173.104 83.5133C173.473 83.5133 173.842 83.4101 174.152 83.2186Z" fill="#E1E1E1" fill-opacity="0.3"/>
<path d="M172.38 38.6748V-31.6107L-8.83455 -31.6107L-8.83455 10.6637H-10.6054L-10.6054 -33.3789L174.151 -33.3789V38.6453H173.265C172.97 38.66 172.675 38.66 172.38 38.6748Z" fill="#E1E1E1" fill-opacity="0.3"/>
<path d="M-8.83455 191.433L172.38 191.433V124.095C172.675 124.095 172.97 124.109 173.265 124.109H174.151V193.187L-10.6054 193.187L-10.6054 149.144H-8.83455L-8.83455 191.433Z" fill="#E1E1E1" fill-opacity="0.3"/>
<path d="M49.0135 47.5308C48.8954 47.4424 48.7773 47.354 48.6593 47.2508L47.2426 46.1899L47.2426 12.4323L-8.8335 12.4323V10.6641L49.0135 10.6641L49.0135 47.5308Z" fill="#E1E1E1" fill-opacity="0.3"/>
<path d="M47.2426 116.595L48.6593 115.534C48.7774 115.445 48.8954 115.357 49.0135 115.254L49.0135 149.174H-8.8335V147.405H47.2426L47.2426 116.595Z" fill="#E1E1E1" fill-opacity="0.3"/>
<path d="M11.2359 49.2692H-8.8335V47.501H13.0067L13.0067 112.335H-8.8335V110.566H11.2359L11.2359 49.2692Z" fill="#E1E1E1" fill-opacity="0.3"/>
<path d="M63.9313 81.3901C63.9313 69.0275 58.5155 57.608 49.0121 49.7837V47.5293C54.0295 51.3898 58.1909 56.3997 61.0685 62.0137C64.1527 68.055 65.7169 74.5679 65.7169 81.3901C65.7169 88.2124 64.1527 94.7252 61.0685 100.767C58.2057 106.395 54.0295 111.39 49.0121 115.251L49.0121 112.996C58.5155 105.172 63.9313 93.7527 63.9313 81.3901Z" fill="#E1E1E1" fill-opacity="0.3"/>
<path d="M49.0134 47.5323V49.7867L49.0134 112.999V115.254C48.8954 115.342 48.7773 115.431 48.6593 115.534L47.2426 116.595L47.2426 46.1914L48.6593 47.2671C48.7773 47.3407 48.8954 47.4291 49.0134 47.5323Z" fill="#E1E1E1" fill-opacity="0.3"/>
<path d="M27.9242 77.7979C29.1048 77.7979 30.0492 78.7409 30.0492 79.9197C30.0492 81.0985 29.1048 82.0415 27.9242 82.0415C26.7437 82.0415 25.7992 81.0985 25.7992 79.9197C25.7992 78.7409 26.7584 77.7979 27.9242 77.7979Z" fill="#E1E1E1" fill-opacity="0.3"/>
<path d="M171.304 81.3917C171.304 80.6107 171.732 79.9182 172.381 79.5498V83.2336C171.732 82.8652 171.304 82.1726 171.304 81.3917Z" fill="#E1E1E1" fill-opacity="0.3"/>
<path d="M175.552 81.3926C175.552 82.3062 174.962 83.1019 174.15 83.3818V79.3887C174.962 79.6834 175.552 80.4643 175.552 81.3926Z" fill="#E1E1E1" fill-opacity="0.3"/>
<path d="M130.633 81.3923C130.633 70.0022 135.06 59.3047 143.117 51.2299C150.953 43.3762 161.313 38.941 172.38 38.6758V40.444C150.26 41.0039 132.404 59.1868 132.404 81.3923C132.404 103.598 150.26 121.781 172.38 122.341V124.109C161.313 123.844 150.953 119.408 143.117 111.555C135.075 103.48 130.633 92.7676 130.633 81.3923Z" fill="#E1E1E1" fill-opacity="0.3"/>
<path d="M172.381 79.5485V40.4421V38.6739C172.676 38.6739 172.971 38.6592 173.266 38.6592H174.151V79.4012C173.93 79.3275 173.694 79.2686 173.428 79.2686C173.045 79.2686 172.691 79.3717 172.381 79.5485Z" fill="#E1E1E1" fill-opacity="0.3"/>
<path d="M172.381 124.091V122.323V83.2168C172.691 83.3936 173.045 83.4968 173.428 83.4968C173.679 83.4968 173.915 83.4526 174.151 83.3641V124.106H173.266C172.971 124.106 172.676 124.106 172.381 124.091Z" fill="#E1E1E1" fill-opacity="0.3"/>
<path d="M172.381 83.2195V79.5358C172.691 79.359 173.045 79.2559 173.428 79.2559C173.679 79.2559 173.915 79.3001 174.151 79.3885V83.3816C173.93 83.4553 173.694 83.5142 173.428 83.5142C173.045 83.5142 172.691 83.4111 172.381 83.2195Z" fill="#E1E1E1" fill-opacity="0.3"/>
</g>
<path d="M121.304 96.2574C117.481 96.2574 114.204 96.0493 111.474 95.6333V90.9915C114.673 91.3036 117.403 91.4596 119.665 91.4596C120.992 91.4596 122.019 91.4076 122.747 91.3036C123.501 91.1736 124.06 90.9655 124.424 90.6795C124.762 90.4194 124.97 90.1074 125.048 89.7433C125.152 89.3793 125.204 88.8592 125.204 88.1831C125.204 87.429 125.152 86.8829 125.048 86.5448C124.944 86.1808 124.736 85.9207 124.424 85.7647C124.112 85.5827 123.592 85.4527 122.864 85.3746L117.13 84.7115C115.414 84.4775 114.087 84.0354 113.151 83.3853C112.215 82.7092 111.565 81.8511 111.201 80.8109C110.863 79.7447 110.694 78.4315 110.694 76.8713C110.694 74.5829 111.11 72.8537 111.942 71.6835C112.774 70.4873 113.892 69.7072 115.297 69.3431C116.701 68.979 118.508 68.797 120.719 68.797C124.125 68.797 127.038 69.0571 129.456 69.5771V74.1019C126.933 73.7638 124.398 73.5948 121.85 73.5948C119.509 73.5948 117.962 73.7898 117.208 74.1799C116.792 74.3879 116.532 74.6609 116.428 74.999C116.324 75.3371 116.272 75.8441 116.272 76.5202C116.272 77.3004 116.324 77.8595 116.428 78.1975C116.532 78.5356 116.753 78.7826 117.091 78.9386C117.455 79.0686 118.053 79.1857 118.885 79.2897L125.048 80.0308C126.244 80.1608 127.233 80.4079 128.013 80.7719C128.793 81.11 129.404 81.6821 129.846 82.4882C130.47 83.6064 130.782 85.3356 130.782 87.676C130.782 90.1464 130.392 92.0057 129.612 93.2539C128.832 94.5021 127.779 95.3212 126.452 95.7113C125.152 96.0753 123.436 96.2574 121.304 96.2574ZM144.047 96.2574C141.186 96.2574 139.119 95.9713 137.845 95.3992C136.597 94.8011 135.791 93.826 135.427 92.4738C135.089 91.1215 134.919 88.9502 134.919 85.9597C134.919 82.9693 135.089 80.8109 135.427 79.4847C135.791 78.1325 136.597 77.1703 137.845 76.5983C139.093 76.0262 141.16 75.7401 144.047 75.7401C146.933 75.7401 149.001 76.0262 150.249 76.5983C151.497 77.1703 152.29 78.1325 152.628 79.4847C152.992 80.8109 153.174 82.9693 153.174 85.9597C153.174 88.9502 152.992 91.1215 152.628 92.4738C152.29 93.826 151.484 94.8011 150.21 95.3992C148.962 95.9713 146.907 96.2574 144.047 96.2574ZM144.047 91.9667C145.399 91.9667 146.322 91.8367 146.816 91.5766C147.336 91.3166 147.649 90.8225 147.753 90.0944C147.883 89.3663 147.948 87.9881 147.948 85.9597C147.948 83.9314 147.883 82.5662 147.753 81.8641C147.649 81.136 147.336 80.6549 146.816 80.4209C146.322 80.1608 145.399 80.0308 144.047 80.0308C142.695 80.0308 141.759 80.1608 141.238 80.4209C140.744 80.6549 140.432 81.136 140.302 81.8641C140.198 82.5662 140.146 83.9314 140.146 85.9597C140.146 87.9881 140.198 89.3663 140.302 90.0944C140.432 90.8225 140.744 91.3166 141.238 91.5766C141.759 91.8367 142.695 91.9667 144.047 91.9667ZM171.479 95.6723C170.725 95.8543 169.814 95.9973 168.748 96.1013C167.682 96.2054 166.655 96.2574 165.667 96.2574C163.118 96.2574 161.246 95.8933 160.05 95.1652C158.854 94.4111 158.087 93.3449 157.748 91.9667C157.41 90.5625 157.241 88.5601 157.241 85.9597C157.241 83.4893 157.423 81.552 157.787 80.1478C158.152 78.7436 158.932 77.6644 160.128 76.9103C161.35 76.1302 163.17 75.7401 165.589 75.7401C166.577 75.7401 167.591 75.8051 168.631 75.9351C169.697 76.0392 170.594 76.1822 171.323 76.3642V80.3819C169.97 80.1478 168.514 80.0308 166.954 80.0308C165.576 80.0308 164.588 80.1868 163.989 80.4989C163.391 80.8109 162.988 81.37 162.78 82.1761C162.598 82.9563 162.507 84.2305 162.507 85.9987C162.507 87.793 162.611 89.0932 162.819 89.8994C163.027 90.6795 163.43 91.2256 164.028 91.5376C164.653 91.8237 165.654 91.9667 167.032 91.9667C167.968 91.9667 169.45 91.8627 171.479 91.6546V95.6723ZM189.458 95.6723C188.704 95.8543 187.794 95.9973 186.728 96.1013C185.661 96.2054 184.634 96.2574 183.646 96.2574C181.098 96.2574 179.225 95.8933 178.029 95.1652C176.833 94.4111 176.066 93.3449 175.728 91.9667C175.39 90.5625 175.221 88.5601 175.221 85.9597C175.221 83.4893 175.403 81.552 175.767 80.1478C176.131 78.7436 176.911 77.6644 178.107 76.9103C179.329 76.1302 181.15 75.7401 183.568 75.7401C184.556 75.7401 185.57 75.8051 186.611 75.9351C187.677 76.0392 188.574 76.1822 189.302 76.3642V80.3819C187.95 80.1478 186.494 80.0308 184.933 80.0308C183.555 80.0308 182.567 80.1868 181.969 80.4989C181.371 80.8109 180.968 81.37 180.76 82.1761C180.578 82.9563 180.487 84.2305 180.487 85.9987C180.487 87.793 180.591 89.0932 180.799 89.8994C181.007 90.6795 181.41 91.2256 182.008 91.5376C182.632 91.8237 183.633 91.9667 185.011 91.9667C185.947 91.9667 187.43 91.8627 189.458 91.6546V95.6723ZM210.792 87.559H198.388C198.388 88.9632 198.492 89.9514 198.7 90.5235C198.908 91.0955 199.376 91.4856 200.104 91.6936C200.832 91.8757 202.12 91.9667 203.966 91.9667C205.5 91.9667 207.515 91.8627 210.012 91.6546V95.6333C209.18 95.8153 208.088 95.9583 206.735 96.0623C205.383 96.1924 204.057 96.2574 202.757 96.2574C199.87 96.2574 197.751 95.9323 196.399 95.2822C195.046 94.6321 194.175 93.6179 193.785 92.2397C193.395 90.8615 193.2 88.7942 193.2 86.0377C193.2 83.3593 193.395 81.331 193.785 79.9528C194.201 78.5486 195.046 77.4954 196.321 76.7933C197.621 76.0912 199.623 75.7401 202.328 75.7401C204.98 75.7401 206.904 76.0912 208.101 76.7933C209.297 77.4694 210.038 78.4836 210.324 79.8358C210.636 81.162 210.792 83.2293 210.792 86.0377V87.559ZM202.25 79.8748C201.079 79.8748 200.234 79.9918 199.714 80.2258C199.194 80.4339 198.843 80.8369 198.661 81.435C198.505 82.0331 198.414 83.0083 198.388 84.3605H205.877C205.877 83.0083 205.773 82.0201 205.565 81.396C205.357 80.7719 205.006 80.3688 204.512 80.1868C204.018 79.9788 203.264 79.8748 202.25 79.8748ZM215.577 76.0522H220.452L220.608 79.4847H220.92C221.415 78.0805 222.169 77.1053 223.183 76.5592C224.197 76.0132 225.562 75.7401 227.278 75.7401V80.8499C225.562 80.8499 224.236 81.084 223.3 81.552C222.364 81.9941 221.701 82.7352 221.311 83.7754C220.946 84.8156 220.764 86.2718 220.764 88.1441V95.9453H215.577V76.0522Z" fill="white"/>
</svg>
