<svg width="16" height="16" viewBox="0 0 16 16" fill="none" xmlns="http://www.w3.org/2000/svg">
<path d="M14 0H2C0.897344 0 0 0.897344 0 2V14C0 15.1027 0.897344 16 2 16H14C15.1027 16 16 15.1027 16 14V2C16 0.897344 15.1027 0 14 0ZM14.6667 14C14.6667 14.368 14.3673 14.6667 14 14.6667H2C1.63266 14.6667 1.33334 14.368 1.33334 14V2C1.33334 1.63266 1.63269 1.33334 2 1.33334H14C14.3673 1.33334 14.6667 1.63269 14.6667 2V14Z" fill="#373D40"/>
<path d="M4.61399 3.74634C4.58064 3.65968 4.53399 3.593 4.47399 3.52634C4.44064 3.49968 4.40733 3.473 4.37399 3.44634C4.33399 3.41968 4.29399 3.39968 4.25399 3.38634C4.21399 3.36634 4.17399 3.353 4.13399 3.34634C4.00064 3.31968 3.86733 3.333 3.74733 3.38634C3.66733 3.41968 3.59399 3.46634 3.52733 3.52634C3.46733 3.593 3.42067 3.65968 3.38733 3.74634C3.35398 3.82634 3.33398 3.913 3.33398 3.99968C3.33398 4.08637 3.35398 4.17303 3.38733 4.25303C3.42067 4.33968 3.46733 4.40637 3.52733 4.47303C3.65399 4.59303 3.82733 4.66637 4.00067 4.66637C4.04067 4.66637 4.08733 4.65972 4.13402 4.65303C4.17402 4.64637 4.21402 4.63303 4.25402 4.61303C4.29402 4.59968 4.33402 4.57968 4.37402 4.55303C4.40736 4.52637 4.44068 4.49968 4.47402 4.47303C4.59402 4.34637 4.66736 4.17303 4.66736 3.99968C4.6673 3.91303 4.6473 3.82634 4.61399 3.74634Z" fill="#373D40"/>
<path d="M12 3.33301H6.66666C6.29866 3.33301 6 3.63166 6 3.99967C6 4.36767 6.29866 4.66632 6.66666 4.66632H12C12.368 4.66632 12.6667 4.36767 12.6667 3.99967C12.6667 3.63166 12.368 3.33301 12 3.33301Z" fill="#373D40"/>
<path d="M4.65399 7.86691C4.64733 7.82691 4.63399 7.78691 4.61399 7.74691C4.60064 7.70691 4.58064 7.66691 4.55399 7.62691C4.52733 7.59356 4.50064 7.56025 4.47399 7.52691C4.40733 7.46691 4.33399 7.42025 4.25399 7.38691C4.09399 7.32025 3.90733 7.32025 3.74733 7.38691C3.66733 7.42025 3.59399 7.46691 3.52733 7.52691C3.50067 7.56025 3.47398 7.59356 3.44733 7.62691C3.42067 7.66691 3.40067 7.70691 3.38733 7.74691C3.36733 7.78691 3.35398 7.82691 3.34733 7.86691C3.34067 7.91356 3.33398 7.96025 3.33398 8.00025C3.33398 8.1736 3.40733 8.34691 3.52733 8.4736C3.65399 8.5936 3.82733 8.66694 4.00067 8.66694C4.17402 8.66694 4.34733 8.5936 4.47402 8.4736C4.59402 8.34694 4.66736 8.1736 4.66736 8.00025C4.6673 7.96025 4.66064 7.91359 4.65399 7.86691Z" fill="#373D40"/>
<path d="M12 7.33301H6.66666C6.29866 7.33301 6 7.63166 6 7.99966C6 8.36766 6.29866 8.66631 6.66666 8.66631H12C12.368 8.66631 12.6667 8.36766 12.6667 7.99966C12.6667 7.63166 12.368 7.33301 12 7.33301Z" fill="#373D40"/>
<path d="M4.61399 11.7462C4.58064 11.6596 4.53399 11.5929 4.47399 11.5262C4.28733 11.3455 3.99399 11.2862 3.74733 11.3862C3.66733 11.4195 3.59399 11.4662 3.52733 11.5262C3.46733 11.5929 3.42067 11.6662 3.38733 11.7462C3.35398 11.8262 3.33398 11.9129 3.33398 11.9996C3.33398 12.1796 3.40064 12.3462 3.52733 12.4729C3.65399 12.5989 3.82067 12.6662 4.00067 12.6662C4.18067 12.6662 4.34733 12.5989 4.47402 12.4729C4.60068 12.3462 4.66736 12.1796 4.66736 11.9996C4.6673 11.9129 4.65399 11.8262 4.61399 11.7462Z" fill="#373D40"/>
<path d="M12 11.333H6.66666C6.29866 11.333 6 11.631 6 11.9997C6 12.3683 6.29866 12.6663 6.66666 12.6663H12C12.368 12.6663 12.6667 12.3683 12.6667 11.9997C12.6667 11.631 12.368 11.333 12 11.333Z" fill="#373D40"/>
</svg>
