<svg width="494" height="169" viewBox="0 0 494 169" fill="none" xmlns="http://www.w3.org/2000/svg">
<path d="M250.703 28.8855C180.19 25.2458 107.36 38.1501 44.1305 70.2455C28.2403 78.1867 3.41193 91.091 0.763573 111.275C-2.21583 136.091 33.8681 150.649 52.0756 156.605C92.132 169.51 136.492 168.186 178.204 168.517C232.164 168.848 285.793 163.223 338.761 153.296C384.114 144.694 435.757 133.113 473.496 104.326C499.649 84.4734 501.304 56.3486 473.496 37.1575C436.088 11.6797 383.452 3.73859 339.423 1.09154C310.953 -0.893738 282.152 0.0989027 253.682 2.74595C227.861 5.06211 199.391 6.38563 175.555 16.9738C171.583 18.9591 173.9 24.584 177.542 24.9149C198.066 26.2384 218.26 20.9444 238.785 18.9591C259.31 16.6429 280.166 15.3194 301.022 15.3194C343.395 14.9885 386.431 19.9517 427.15 32.8561C452.971 41.1281 504.283 60.65 467.206 92.4145C436.088 118.885 390.404 130.797 351.34 139.4C269.572 157.598 183.169 165.87 99.415 158.591C80.2144 156.936 60.6828 153.627 42.8064 146.348C30.2266 141.385 9.70183 132.12 6.39138 117.231C1.75675 96.3851 33.206 80.5028 47.772 72.8926C109.677 40.7972 181.183 27.2311 250.703 29.5473C251.365 29.8781 251.365 28.8855 250.703 28.8855Z" fill="#FFC700"/>
</svg>
