<svg width="337" height="157" viewBox="0 0 337 157" fill="none" xmlns="http://www.w3.org/2000/svg">
<rect x="0.400391" y="0.75" width="336.428" height="156.025" fill="#F9282B"/>
<mask id="mask0" mask-type="alpha" maskUnits="userSpaceOnUse" x="0" y="0" width="337" height="157">
<rect x="0.400391" y="0.75" width="336.428" height="156.025" fill="#C4C4C4"/>
</mask>
<g mask="url(#mask0)">
<path d="M292.051 29.3866L220.428 -42.2365H119.239L47.6157 29.3866V130.576L119.239 202.199H220.428L292.051 130.576V29.3866Z" stroke="#E1E1E1" stroke-opacity="0.3" stroke-width="1.79074" stroke-miterlimit="10"/>
<path d="M260.87 42.2951L207.52 -11.0548H132.147L78.7973 42.2951V117.668L132.147 171.018H207.52L260.87 117.668V42.2951Z" stroke="#E1E1E1" stroke-opacity="0.3" stroke-width="1.79074" stroke-miterlimit="10"/>
</g>
<path d="M156.819 69.1091V83.9314C156.819 87.494 156.585 90.1074 156.117 91.7717C155.675 93.4099 154.726 94.5671 153.27 95.2432C151.814 95.9193 149.473 96.2574 146.249 96.2574C143.024 96.2574 140.684 95.9193 139.228 95.2432C137.771 94.5671 136.809 93.4099 136.341 91.7717C135.873 90.1074 135.639 87.494 135.639 83.9314V69.1091H141.178V85.3356C141.178 87.338 141.269 88.7292 141.451 89.5093C141.633 90.2894 142.062 90.8225 142.738 91.1085C143.414 91.3946 144.585 91.5376 146.249 91.5376C147.939 91.5376 149.109 91.3946 149.759 91.1085C150.435 90.8225 150.852 90.2894 151.008 89.5093C151.19 88.7292 151.281 87.338 151.281 85.3356V69.1091H156.819ZM163.072 95.9453V69.1091H180.742V73.9068H168.611V80.7329H179.298V85.5307H168.611V95.9453H163.072ZM202.672 95.6333C201.788 95.8153 200.696 95.9583 199.396 96.0623C198.122 96.1924 196.939 96.2574 195.846 96.2574C192.544 96.2574 190.099 95.8543 188.513 95.0482C186.953 94.242 185.913 92.9028 185.393 91.0305C184.873 89.1582 184.613 86.3238 184.613 82.5272C184.613 78.7826 184.873 75.9742 185.393 74.1019C185.913 72.2036 186.953 70.8513 188.513 70.0452C190.099 69.2131 192.544 68.797 195.846 68.797C196.965 68.797 198.148 68.862 199.396 68.992C200.644 69.1221 201.684 69.2911 202.516 69.4991V73.9848C200.254 73.7248 198.499 73.5948 197.251 73.5948C194.884 73.5948 193.246 73.7768 192.336 74.1409C191.426 74.4789 190.841 75.22 190.581 76.3642C190.32 77.5084 190.19 79.5627 190.19 82.5272C190.19 85.4917 190.32 87.546 190.581 88.6902C190.841 89.8343 191.426 90.5885 192.336 90.9525C193.246 91.2906 194.884 91.4596 197.251 91.4596C199.227 91.4596 201.034 91.3296 202.672 91.0695V95.6333Z" fill="white"/>
</svg>
