<svg width="181" height="221" viewBox="0 0 181 221" fill="none" xmlns="http://www.w3.org/2000/svg">
<rect width="180" height="220" transform="translate(0.0722656 0.960938)" fill="black"/>
<g clip-path="url(#clip0)">
<path d="M69.9413 64.9609L62.0573 40.1929H67.3133L73.3253 59.2009H73.5413L79.4453 40.1929H84.6293L76.7453 64.9609H69.9413ZM88.2333 64.9609V40.1929H93.3453V64.9609H88.2333ZM99.2732 40.1929H110.685C112.749 40.1929 114.333 40.5169 115.437 41.1649C116.541 41.8129 117.285 42.7249 117.669 43.9009C118.053 45.0769 118.245 46.5889 118.245 48.4369C118.245 50.2129 118.053 51.6889 117.669 52.8649C117.309 54.0409 116.565 54.9769 115.437 55.6729C114.309 56.3689 112.689 56.7169 110.577 56.7169H104.385V64.9609H99.2732V40.1929ZM108.489 52.2889C109.929 52.2889 110.961 52.1929 111.585 52.0009C112.209 51.8089 112.617 51.4609 112.809 50.9569C113.001 50.4289 113.097 49.5889 113.097 48.4369C113.097 47.2849 113.001 46.4569 112.809 45.9529C112.641 45.4489 112.245 45.1009 111.621 44.9089C111.021 44.7169 110.001 44.6209 108.561 44.6209H104.385V52.2889H108.489Z" fill="white"/>
</g>
<path fill-rule="evenodd" clip-rule="evenodd" d="M90.7621 150.062L90.5586 149.685L90.3533 150.062L90.3555 149.308L87.9334 144.818L85.9058 141.103H82.5013H81.7002L77.3065 127.62H66.98L61.0723 109.702L62.2488 108.631H71.1182L63.6766 85.7954L67.1061 79.9609H82.1258H90.5536H90.5619H99.0147H114.034L117.464 85.7954L110.012 108.631H118.896L120.072 109.702L114.14 127.62H103.815L99.4152 141.103H98.6392H95.2097L93.2071 144.818L90.76 149.315L90.7621 150.062ZM72.3572 112.433H68.5571L66.955 113.81L69.8588 122.572L71.2857 123.818H76.0674L72.3572 112.433ZM105.056 123.818L108.771 112.433H112.588L114.19 113.81L111.286 122.572L109.859 123.818H105.056ZM71.1898 165.469H109.59L103.507 150.064H77.2979L71.1898 165.469Z" fill="#FFC700"/>
<defs>
<clipPath id="clip0">
<rect width="60" height="72" fill="white" transform="translate(61.0723 3.96094)"/>
</clipPath>
</defs>
</svg>
