<svg width="181" height="221" viewBox="0 0 181 221" fill="none" xmlns="http://www.w3.org/2000/svg">
<rect width="180" height="220" transform="translate(0.0722656 0.960938)" fill="black"/>
<g clip-path="url(#clip0)">
<path fill-rule="evenodd" clip-rule="evenodd" d="M259.373 124.97C252.885 134.761 238.707 138.504 225.009 139.656C218.281 140.232 151.956 139.944 110.383 139.944L128.886 130.729C128.886 130.729 221.885 130.729 232.459 130.729C243.032 130.729 252.644 127.85 259.373 124.97Z" stroke="#505054" stroke-width="0.223451" stroke-miterlimit="22.9256" stroke-linejoin="round"/>
<path fill-rule="evenodd" clip-rule="evenodd" d="M44.5386 19.864C63.0422 38.8696 101.011 77.7446 103.173 80.3362C105.817 83.5038 110.863 81.4881 112.786 80.6242C114.468 80.0482 117.592 80.6242 120.475 83.7918C123.359 87.2473 124.08 88.9751 130.809 88.9751C137.537 88.9751 240.629 88.9751 249.76 88.9751C258.892 88.9751 266.582 95.0223 264.659 105.101C258.892 133.897 248.319 137.641 225.009 139.657C215.156 140.52 83.7085 139.657 79.8636 139.657C76.0187 139.657 75.0575 137.353 75.2978 134.185C75.2978 131.018 75.5381 128.426 75.0575 126.986C74.5769 125.546 72.1738 125.258 69.2902 128.426C68.0886 130.154 65.9259 132.17 63.5228 134.185C56.0733 140.52 47.1819 140.808 38.2906 140.52C14.9809 140.232 -3.28243 128.138 -9.5304 96.4621C-15.0575 68.5297 -16.259 38.0057 -16.4993 35.414C-16.7396 32.8224 -18.662 32.2464 -20.8248 31.3825C-22.7473 30.5187 -23.7085 26.7751 -24.4294 23.6075C-25.1503 20.44 -37.1657 -15.8434 -39.809 -24.7702C-42.933 -33.697 -44.3748 -46.0794 -30.6774 -49.247C-16.9799 -52.4146 -7.84825 -53.2785 -3.52274 -53.5665C0.802781 -53.5665 6.81044 -52.9906 11.8569 -41.1841C14.7406 -34.273 21.7095 -18.435 27.2365 -6.62854C34.9263 10.9372 32.2829 7.19367 44.5386 19.864Z" stroke="#505054" stroke-width="0.223451" stroke-miterlimit="22.9256"/>
</g>
<g clip-path="url(#clip1)">
<path d="M119.547 128.239L167.411 69.3744H235.011L282.875 128.239V211.427L235.011 270.291H167.411L119.547 211.427V128.239Z" stroke="#505054" stroke-width="0.223451" stroke-miterlimit="10"/>
<path d="M140.262 138.784L175.989 94.8461H226.44L262.166 138.784V200.882L226.44 244.819H175.989L140.262 200.882V138.784Z" stroke="#505054" stroke-width="0.223451" stroke-miterlimit="10"/>
</g>
<g clip-path="url(#clip2)">
<path d="M-50.5894 74.0168L-2.7254 15.1521H64.8742L112.738 74.0168V157.204L64.8742 216.069H-2.7254L-50.5894 157.204V74.0168Z" stroke="#505054" stroke-width="0.223451" stroke-miterlimit="10"/>
<path d="M-29.8766 84.5612L5.84988 40.6237H56.3012L92.0277 84.5612V146.659L56.3012 190.597H5.84988L-29.8766 146.659V84.5612Z" stroke="#505054" stroke-width="0.223451" stroke-miterlimit="10"/>
</g>
<g clip-path="url(#clip3)">
<path d="M284.643 153.251L284.643 -69.3383L128.401 -69.3383V-73.3318H127.681V-69.3383H99.3429V-73.3318H98.6118V-69.3383L-57.6426 -69.3383L-57.6426 153.251L284.643 153.251ZM113.141 68.1124C112.073 68.084 111.029 67.9707 110.007 67.7725C109.949 67.7583 109.891 67.7442 109.833 67.73C109.381 67.6309 108.94 67.5317 108.499 67.3901C108.244 67.3193 107.977 67.2343 107.733 67.1494C107.501 67.0786 107.257 66.9794 107.025 66.8945C103.66 65.5916 100.654 63.2975 98.2405 60.3094C97.8807 59.8704 97.5326 59.4031 97.2077 58.9358C96.9872 58.6242 96.7667 58.2985 96.5694 57.9728C96.407 57.7179 96.2445 57.4488 96.082 57.1797C93.5639 52.8888 92.0785 47.635 92.0785 41.9704C92.0785 36.3908 93.5175 31.2219 95.966 26.9735C96.1633 26.6336 96.3605 26.2937 96.5694 25.968C96.7783 25.6423 96.9872 25.3166 97.2077 25.005C97.3701 24.7643 97.5442 24.5377 97.7183 24.3111C97.8923 24.0845 98.0664 23.8579 98.2405 23.6314C99.3081 22.3002 100.503 21.1106 101.78 20.091C102.058 19.8644 102.348 19.6379 102.65 19.4254C104.716 17.9385 106.99 16.8764 109.416 16.2958C109.764 16.2108 110.112 16.14 110.46 16.0833C111.342 15.9276 112.235 15.8426 113.152 15.8284V68.1124H113.141ZM113.141 14.9221C101.084 15.1628 91.3358 27.2 91.3358 41.9562C91.3358 56.7266 101.084 68.7496 113.141 68.9904V152.373L19.388 152.373V146.17H18.6685V152.373H-56.9115L-56.9115 139.953H-4.63329L-4.56366 139.911C27.6736 123.172 48.5153 84.7237 48.5153 41.9562C48.5153 -0.811218 27.6736 -39.2453 -4.56366 -55.9982L-4.63329 -56.0265L-56.9115 -56.0265V-68.4461L18.6685 -68.4461V-62.2434H19.388V-68.4461L113.129 -68.4461L113.129 14.9221H113.141ZM-56.9115 94.7216V77.8696H-32.2055V81.8631H-31.4745L-31.4745 77.8696H-28.5733L-28.5733 81.8631H-27.8423L-27.8423 77.8696H-17.6651V81.8631H-16.9456V77.8696H-6.76852V81.8631H-6.03743V77.8696H12.1352V68.9904C24.1923 68.7496 33.94 56.7266 33.94 41.9562C33.94 27.1859 24.1923 15.1628 12.1352 14.9221V6.04291H-6.03743V2.04939H-6.76852V6.04291L-16.9456 6.04291V2.04939H-17.6651V6.04291H-27.8423V2.04939H-28.5733V6.04291H-31.4745V2.04939H-32.2055V6.04291H-56.9115V-10.8092H-53.639V-11.6872H-56.9115L-56.9115 -55.1485L-4.77254 -55.1485C27.163 -38.523 47.7842 -0.414703 47.7842 41.9562C47.7842 84.3272 27.1514 122.436 -4.77254 139.061H-56.9115L-56.9115 95.6138H-53.639V94.7216H-56.9115ZM-56.9115 76.9916V69.0045H11.3925V76.9774H-56.9115V76.9916ZM-56.9115 14.9079V6.92091L11.3925 6.92091V14.9079L-56.9115 14.9079ZM12.1236 68.1124L12.1236 15.8143C23.7745 16.055 33.1973 27.6815 33.1973 41.9562C33.1973 56.2309 23.7745 67.8716 12.1236 68.1124ZM283.912 152.373L208.332 152.373V146.17H207.613V152.373H113.872V68.9904C125.929 68.7496 135.677 56.7266 135.677 41.9562C135.677 27.1859 125.929 15.1628 113.872 14.9221L113.872 -68.4461L207.613 -68.4461V-62.2434H208.332V-68.4461L283.912 -68.4461V-56.0265L231.634 -56.0265L231.564 -55.9982C199.316 -39.2453 178.486 -0.797058 178.486 41.9562C178.486 84.7095 199.316 123.158 231.553 139.911L231.622 139.953H283.901V152.373H283.912ZM113.86 68.1124V15.8143C114.765 15.8284 115.67 15.9276 116.552 16.0692C116.9 16.1258 117.249 16.1966 117.597 16.2816C120.092 16.8764 122.424 17.9951 124.525 19.5387C124.768 19.7087 125 19.8928 125.233 20.0769C131.081 24.7501 134.945 32.8221 134.945 41.9562C134.945 49.9857 131.963 57.1797 127.287 61.9805C127.031 62.2495 126.764 62.5044 126.486 62.7593C125.14 64.0197 123.654 65.0818 122.076 65.9315C121.763 66.1014 121.438 66.2572 121.125 66.413C120.8 66.5546 120.475 66.7104 120.138 66.8378C119.813 66.9653 119.477 67.0927 119.14 67.206C118.966 67.2627 118.804 67.3193 118.63 67.3618C118.119 67.5176 117.608 67.645 117.086 67.7583C116.959 67.7866 116.819 67.815 116.692 67.8291C115.763 67.9991 114.812 68.0982 113.86 68.1124ZM215.597 14.9079V6.92091L283.901 6.92091V14.9079L215.597 14.9079ZM283.912 94.7216H280.64V95.6138H283.912V139.061H231.773C199.838 122.421 179.205 84.3272 179.205 41.9562C179.205 -0.414703 199.838 -38.523 231.773 -55.1485L283.912 -55.1485V-11.6872H280.64V-10.8092H283.912V6.04291L259.206 6.04291V2.04939H258.487V6.04291H255.574V2.04939H254.843V6.04291H244.666V2.04939H243.946V6.04291H233.769V2.04939H233.038V6.04291H214.866V14.9221C202.809 15.1628 193.061 27.2 193.061 41.9562C193.061 56.7266 202.809 68.7496 214.866 68.9904V77.8696L233.038 77.8696V81.8631H233.769V77.8696H243.946V81.8631H244.666V77.8696H254.843V81.8631H255.574V77.8696H258.487V81.8631H259.206V77.8696H283.912L283.912 94.7216ZM214.877 15.8143V68.1124C203.226 67.8716 193.803 56.2309 193.803 41.9562C193.803 27.6815 203.226 16.055 214.877 15.8143ZM283.912 76.9916L215.608 76.9916V69.0045L283.912 69.0045V76.9916ZM246.116 68.1124C237.564 68.1124 229.325 68.1124 223.569 68.1124C218.799 68.1124 215.724 68.1124 215.597 68.1124V15.8143C215.91 15.8284 235.278 15.8143 253.3 15.8143C260.053 15.8143 266.61 15.8143 271.913 15.8143C279.038 15.8143 283.901 15.8143 283.901 15.8143V68.1407C283.912 68.1265 264.324 68.1124 246.116 68.1124ZM-56.9115 15.8001C-56.9115 15.8001 -55.1244 15.8001 -52.1304 15.8001C-46.3514 15.8001 -36.0698 15.8001 -25.4401 15.8001C-7.67366 15.8001 11.0792 15.8143 11.3925 15.8001L11.3925 68.0982C11.0792 68.0982 -7.19788 68.0982 -24.7671 68.0982C-41.1526 68.0982 -56.9231 68.1124 -56.9231 68.1124L-56.9231 15.8001H-56.9115Z" fill="#505054"/>
<path d="M5.2887 67.8427C3.90777 67.3329 2.56165 66.639 1.28516 65.8035L1.63329 65.0246C2.86337 65.8318 4.17468 66.4974 5.50919 66.993L5.2887 67.8427Z" fill="#505054"/>
</g>
<g clip-path="url(#clip4)">
<path d="M63.1143 22.0106H62.5117V29.1688H63.1143V22.0106Z" fill="#505054"/>
<path d="M66.1279 22.0106H65.5254V29.1688H66.1279V22.0106Z" fill="#505054"/>
<path d="M72.1533 22.0106H71.5508V29.1688H72.1533V22.0106Z" fill="#505054"/>
<path d="M75.167 22.0106H74.5645V29.1688H75.167V22.0106Z" fill="#505054"/>
<path d="M78.1787 22.0106H77.5762V29.1688H78.1787V22.0106Z" fill="#505054"/>
<path d="M81.1904 22.0106H80.5879V29.1688H81.1904V22.0106Z" fill="#505054"/>
<path d="M87.2178 22.0106H86.6152V29.1688H87.2178V22.0106Z" fill="#505054"/>
<path d="M90.2295 22.0106H89.627V29.1688H90.2295V22.0106Z" fill="#505054"/>
<path d="M93.2412 22.0106H92.6387V29.1688H93.2412V22.0106Z" fill="#505054"/>
<path d="M96.2549 22.0106H95.6523V29.1688H96.2549V22.0106Z" fill="#505054"/>
<path d="M102.278 22.0106H101.676V29.1688H102.278V22.0106Z" fill="#505054"/>
<path d="M105.292 22.0106H104.689V29.1688H105.292V22.0106Z" fill="#505054"/>
<path d="M108.306 22.0106H107.703V29.1688H108.306V22.0106Z" fill="#505054"/>
<path d="M111.319 22.0106H110.717V29.1688H111.319V22.0106Z" fill="#505054"/>
<path d="M117.343 22.0106H116.74V29.1688H117.343V22.0106Z" fill="#505054"/>
<path d="M120.356 22.0106H119.754V29.1688H120.356V22.0106Z" fill="#505054"/>
<path d="M63.1143 50.9328H62.5117V58.091H63.1143V50.9328Z" fill="#505054"/>
<path d="M66.1279 50.9328H65.5254V58.091H66.1279V50.9328Z" fill="#505054"/>
<path d="M72.1533 50.9328H71.5508V58.091H72.1533V50.9328Z" fill="#505054"/>
<path d="M75.167 50.9328H74.5645V58.091H75.167V50.9328Z" fill="#505054"/>
<path d="M78.1787 50.9328H77.5762V58.091H78.1787V50.9328Z" fill="#505054"/>
<path d="M81.1904 50.9328H80.5879V58.091H81.1904V50.9328Z" fill="#505054"/>
<path d="M87.2178 50.9328H86.6152V58.091H87.2178V50.9328Z" fill="#505054"/>
<path d="M90.2295 50.9328H89.627V58.091H90.2295V50.9328Z" fill="#505054"/>
<path d="M93.2412 50.9328H92.6387V58.091H93.2412V50.9328Z" fill="#505054"/>
<path d="M96.2549 50.9328H95.6523V58.091H96.2549V50.9328Z" fill="#505054"/>
<path d="M102.278 50.9328H101.676V58.091H102.278V50.9328Z" fill="#505054"/>
<path d="M105.292 50.9328H104.689V58.091H105.292V50.9328Z" fill="#505054"/>
<path d="M108.306 50.9328H107.703V58.091H108.306V50.9328Z" fill="#505054"/>
<path d="M111.319 50.9328H110.717V58.091H111.319V50.9328Z" fill="#505054"/>
<path d="M117.343 50.9328H116.74V58.091H117.343V50.9328Z" fill="#505054"/>
<path d="M120.356 50.9328H119.754V58.091H120.356V50.9328Z" fill="#505054"/>
<path d="M31.1543 -68.5873L31.1543 148.508L377.676 148.508L377.676 -68.5873L31.1543 -68.5873ZM53.4785 147.785H31.7568L31.7568 -67.8643H53.4785L53.4785 147.785ZM68.542 147.785H66.1318V140.989H65.5293V147.785H63.1191L63.1191 140.989H62.5166L62.5166 147.785H60.1064L60.1064 140.989H59.5039L59.5039 147.785H57.0937L57.0937 140.989H56.4912L56.4912 147.785H54.081L54.081 -67.8643H56.4912V-61.0676H57.0937V-67.8643H59.5039V-61.0676H60.1064V-67.8643H62.5166V-61.0676H63.1191V-67.8643H65.5293V-61.0676H66.1318V-67.8643H68.542L68.542 147.785ZM83.6056 147.785H81.1954V140.989H80.5928V147.785H78.1827V140.989H77.5801V147.785H75.17V140.989H74.5674V147.785H72.1573V140.989H71.5547V147.785H69.1446L69.1446 -67.8643H71.5547V-61.0676H72.1573V-67.8643H74.5674V-61.0676H75.17V-67.8643H77.5801V-61.0676H78.1827V-67.8643L80.5928 -67.8643V-61.0676H81.1954V-67.8643H83.6056L83.6056 147.785ZM98.6691 147.785H96.2589V140.989H95.6564V147.785H93.2462V140.989H92.6437V147.785H90.2335V140.989H89.631V147.785H87.2208V140.989H86.6183V147.785H84.2081L84.2081 -67.8643H86.6183V-61.0676H87.2208V-67.8643H89.631V-61.0676H90.2335V-67.8643H92.6437V-61.0676H93.2462V-67.8643H95.6564V-61.0676H96.2589V-67.8643H98.6691L98.6691 147.785ZM113.733 147.785H111.322V140.989H110.72V147.785H108.31V140.989H107.707V147.785H105.297V140.989H104.695V147.785H102.284V140.989H101.682V147.785H99.2716L99.2716 -67.8643H101.682V-61.0676H102.284V-67.8643H104.695V-61.0676H105.297V-67.8643H107.707V-61.0676H108.31V-67.8643H110.72V-61.0676H111.322V-67.8643H113.733L113.733 147.785ZM128.796 147.785L126.386 147.785V140.989H125.783V147.785H123.373V140.989H122.771V147.785H120.361V140.989H119.758V147.785H117.348V140.989H116.745V147.785H114.335L114.335 -67.8643H116.745V-61.0676H117.348V-67.8643H119.758V-61.0676H120.361V-67.8643H122.771V-61.0676H123.373V-67.8643H125.783V-61.0676H126.386V-67.8643H128.796L128.796 147.785ZM143.86 147.785H141.45V140.989H140.847V147.785H138.437V140.989H137.834V147.785H135.424V140.989H134.822V147.785H132.411V140.989H131.809V147.785H129.399L129.399 -67.8643H131.809V-61.0676H132.411V-67.8643H134.822V-61.0676H135.424V-67.8643H137.834V-61.0676H138.437V-67.8643H140.847V-61.0676H141.45V-67.8643H143.86L143.86 147.785ZM158.923 147.785H156.513V140.989H155.911V147.785H153.5V140.989H152.898V147.785H150.488V140.989H149.885V147.785H147.475V140.989H146.872V147.785H144.462L144.462 -67.8643H146.872V-61.0676H147.475V-67.8643H149.885V-61.0676H150.488V-67.8643H152.898V-61.0676H153.5V-67.8643H155.911V-61.0676H156.513V-67.8643H158.923L158.923 147.785ZM173.987 147.785H171.577V140.989H170.974V147.785H168.564V140.989H167.961V147.785H165.551V140.989H164.949V147.785H162.539V140.989H161.936V147.785H159.526L159.526 -67.8643H161.936V-61.0676H162.539V-67.8643H164.949V-61.0676H165.551V-67.8643H167.961V-61.0676H168.564V-67.8643H170.974V-61.0676H171.577V-67.8643H173.987L173.987 147.785ZM189.05 147.785H186.64V140.989H186.038V147.785H183.627V140.989H183.025V147.785H180.615V140.989H180.012V147.785H177.602V140.989H177V147.785H174.589L174.589 -67.8643L177 -67.8643V-61.0676H177.602V-67.8643H180.012V-61.0676H180.615V-67.8643H183.025V-61.0676H183.627V-67.8643H186.038V-61.0676H186.64V-67.8643H189.05L189.05 147.785ZM204.114 147.785H201.704V140.989H201.101V147.785H198.691V140.989H198.088V147.785H195.678V140.989H195.076V147.785H192.666V140.989H192.063V147.785H189.653L189.653 -67.8643H192.063V-61.0676H192.666V-67.8643H195.076V-61.0676H195.678V-67.8643H198.088V-61.0676H198.691V-67.8643H201.101V-61.0676H201.704V-67.8643H204.114L204.114 147.785ZM219.177 147.785H216.767V140.989H216.165V147.785H213.755V140.989H213.152V147.785H210.742V140.989H210.139V147.785H207.729V140.989H207.127V147.785H204.716L204.716 -67.8643H207.127V-61.0676H207.729V-67.8643H210.139V-61.0676H210.742V-67.8643H213.152V-61.0676H213.755V-67.8643H216.165V-61.0676H216.767V-67.8643H219.177L219.177 147.785ZM234.241 147.785H231.831V140.989H231.228V147.785H228.818V140.989H228.216V147.785H225.805V140.989H225.203V147.785H222.793V140.989H222.19V147.785H219.78L219.78 -67.8643H222.19V-61.0676H222.793V-67.8643H225.203V-61.0676H225.805V-67.8643H228.216V-61.0676H228.818V-67.8643H231.228V-61.0676H231.831V-67.8643H234.241L234.241 147.785ZM249.305 147.785H246.894V140.989H246.292V147.785H243.882V140.989H243.279V147.785H240.869V140.989H240.266V147.785H237.856V140.989H237.254V147.785H234.844L234.844 -67.8643H237.254V-61.0676H237.856V-67.8643H240.266V-61.0676H240.869V-67.8643H243.279V-61.0676H243.882V-67.8643H246.292V-61.0676H246.894V-67.8643H249.305L249.305 147.785ZM264.368 147.785H261.958V140.989H261.355V147.785H258.945V140.989H258.343V147.785H255.932V140.989H255.33V147.785H252.92V140.989H252.317V147.785H249.907L249.907 -67.8643H252.317V-61.0676H252.92V-67.8643H255.33V-61.0676H255.932V-67.8643H258.343V-61.0676H258.945V-67.8643H261.355V-61.0676H261.958V-67.8643H264.368V147.785ZM279.432 147.785H277.021V140.989H276.419V147.785H274.009V140.989H273.406V147.785H270.996V140.989H270.393V147.785H267.983V140.989H267.381V147.785H264.971V-67.8643H267.381V-61.0676H267.983V-67.8643H270.393V-61.0676H270.996V-67.8643L273.406 -67.8643V-61.0676H274.009V-67.8643H276.419V-61.0676H277.021V-67.8643H279.432V147.785ZM294.495 147.785H292.085V140.989H291.482V147.785H289.072V140.989H288.47V147.785H286.06V140.989H285.457V147.785H283.047V140.989H282.444V147.785H280.034V-67.8643H282.444V-61.0676H283.047V-67.8643H285.457V-61.0676H286.06V-67.8643H288.47V-61.0676H289.072V-67.8643H291.482V-61.0676H292.085V-67.8643H294.495L294.495 147.785ZM309.559 147.785H307.149V140.989H306.546V147.785H304.136V140.989H303.533V147.785H301.123V140.989H300.521V147.785H298.11V140.989H297.508V147.785H295.098L295.098 -67.8643H297.508V-61.0676H298.11V-67.8643H300.521V-61.0676H301.123V-67.8643H303.533V-61.0676H304.136V-67.8643H306.546V-61.0676H307.149V-67.8643H309.559L309.559 147.785ZM324.622 147.785H322.212V140.989H321.61V147.785L319.199 147.785V140.989H318.597V147.785H316.187V140.989H315.584V147.785H313.174V140.989H312.571V147.785H310.161L310.161 -67.8643H312.571V-61.0676H313.174V-67.8643H315.584V-61.0676H316.187V-67.8643H318.597V-61.0676H319.199V-67.8643H321.61V-61.0676H322.212V-67.8643H324.622L324.622 147.785ZM339.686 147.785H337.276V140.989H336.673V147.785H334.263V140.989H333.66V147.785H331.25V140.989H330.648V147.785H328.237V140.989H327.635V147.785H325.225L325.225 -67.8643H327.635V-61.0676H328.237V-67.8643H330.648V-61.0676H331.25V-67.8643H333.66V-61.0676H334.263V-67.8643H336.673V-61.0676H337.276V-67.8643H339.686L339.686 147.785ZM354.749 147.785H352.339V140.989H351.737V147.785H349.326V140.989H348.724V147.785H346.314V140.989H345.711V147.785H343.301V140.989H342.698V147.785H340.288L340.288 -67.8643H342.698V-61.0676H343.301V-67.8643H345.711V-61.0676L346.314 -61.0676V-67.8643H348.724V-61.0676H349.326V-67.8643H351.737V-61.0676H352.339V-67.8643H354.749L354.749 147.785ZM377.073 147.785H355.352L355.352 -67.8643L377.073 -67.8643L377.073 147.785Z" fill="#505054"/>
<g clip-path="url(#clip5)">
<path d="M61.7066 45.9775H61.2246V48.3636H61.7066V45.9775Z" fill="#505054"/>
<path d="M64.1168 45.9775H63.6348V48.3636H64.1168V45.9775Z" fill="#505054"/>
<path d="M68.9391 45.9775H68.457V48.3636H68.9391V45.9775Z" fill="#505054"/>
<path d="M71.3512 45.9775H70.8691V48.3636H71.3512V45.9775Z" fill="#505054"/>
<path d="M73.7574 45.9775H73.2754V48.3636H73.7574V45.9775Z" fill="#505054"/>
<path d="M76.1676 45.9775H75.6855V48.3636H76.1676V45.9775Z" fill="#505054"/>
<path d="M80.9898 45.9775H80.5078V48.3636H80.9898V45.9775Z" fill="#505054"/>
<path d="M83.398 45.9775H82.916V48.3636H83.398V45.9775Z" fill="#505054"/>
<path d="M85.8082 45.9775H85.3262V48.3636H85.8082V45.9775Z" fill="#505054"/>
<path d="M88.2203 45.9775H87.7383V48.3636H88.2203V45.9775Z" fill="#505054"/>
<path d="M93.0387 45.9775H92.5566V48.3636H93.0387V45.9775Z" fill="#505054"/>
<path d="M95.4488 45.9775H94.9668V48.3636H95.4488V45.9775Z" fill="#505054"/>
<path d="M97.8609 45.9775H97.3789V48.3636H97.8609V45.9775Z" fill="#505054"/>
<path d="M100.271 45.9775H99.7891V48.3636H100.271V45.9775Z" fill="#505054"/>
<path d="M105.089 45.9775H104.607V48.3636H105.089V45.9775Z" fill="#505054"/>
<path d="M107.502 45.9775H107.02V48.3636H107.502V45.9775Z" fill="#505054"/>
<path d="M61.7066 55.6181H61.2246V58.0042H61.7066V55.6181Z" fill="#505054"/>
<path d="M64.1168 55.6181H63.6348V58.0042H64.1168V55.6181Z" fill="#505054"/>
<path d="M68.9391 55.6181H68.457V58.0042H68.9391V55.6181Z" fill="#505054"/>
<path d="M71.3512 55.6181H70.8691V58.0042H71.3512V55.6181Z" fill="#505054"/>
<path d="M73.7574 55.6181H73.2754V58.0042H73.7574V55.6181Z" fill="#505054"/>
<path d="M76.1676 55.6181H75.6855V58.0042H76.1676V55.6181Z" fill="#505054"/>
<path d="M80.9898 55.6181H80.5078V58.0042H80.9898V55.6181Z" fill="#505054"/>
<path d="M83.398 55.6181H82.916V58.0042H83.398V55.6181Z" fill="#505054"/>
<path d="M85.8082 55.6181H85.3262V58.0042H85.8082V55.6181Z" fill="#505054"/>
<path d="M88.2203 55.6181H87.7383V58.0042H88.2203V55.6181Z" fill="#505054"/>
<path d="M93.0387 55.6181H92.5566V58.0042H93.0387V55.6181Z" fill="#505054"/>
<path d="M95.4488 55.6181H94.9668V58.0042H95.4488V55.6181Z" fill="#505054"/>
<path d="M97.8609 55.6181H97.3789V58.0042H97.8609V55.6181Z" fill="#505054"/>
<path d="M100.271 55.6181H99.7891V58.0042H100.271V55.6181Z" fill="#505054"/>
<path d="M105.089 55.6181H104.607V58.0042H105.089V55.6181Z" fill="#505054"/>
<path d="M107.502 55.6181H107.02V58.0042H107.502V55.6181Z" fill="#505054"/>
<path d="M36.1406 15.7782L36.1406 88.1435L313.358 88.1435V15.7782L36.1406 15.7782ZM54 87.9025H36.6227L36.6227 16.0192L54 16.0192L54 87.9025ZM66.0508 87.9025H64.1227V85.6369H63.6406V87.9025H61.7125V85.6369H61.2305V87.9025H59.3023V85.6369H58.8203V87.9025H56.8922V85.6369H56.4101V87.9025H54.482L54.482 16.0192H56.4101V18.2848H56.8922V16.0192H58.8203V18.2848H59.3023V16.0192H61.2305V18.2848H61.7125V16.0192H63.6406V18.2848H64.1227V16.0192H66.0508L66.0508 87.9025ZM78.1016 87.9025H76.1735V85.6369H75.6915V87.9025H73.7633V85.6369H73.2813V87.9025H71.3532V85.6369H70.8711V87.9025H68.943V85.6369H68.461V87.9025H66.5328L66.5328 16.0192H68.461V18.2848H68.943V16.0192L70.8711 16.0192V18.2848H71.3532V16.0192H73.2813V18.2848H73.7633V16.0192H75.6915V18.2848H76.1735V16.0192H78.1016L78.1016 87.9025ZM90.1525 87.9025H88.2243V85.6369H87.7423V87.9025H85.8142V85.6369H85.3321V87.9025H83.404V85.6369H82.922V87.9025H80.9938V85.6369H80.5118V87.9025L78.5837 87.9025L78.5837 16.0192H80.5118V18.2848H80.9938V16.0192H82.922V18.2848H83.404V16.0192H85.3321V18.2848H85.8142V16.0192H87.7423V18.2848H88.2243V16.0192H90.1525L90.1525 87.9025ZM102.203 87.9025H100.275V85.6369H99.7931V87.9025H97.865V85.6369H97.383V87.9025H95.4548V85.6369H94.9728V87.9025H93.0447V85.6369H92.5626V87.9025H90.6345L90.6345 16.0192L92.5626 16.0192V18.2848L93.0447 18.2848V16.0192H94.9728V18.2848H95.4548V16.0192H97.383V18.2848H97.865V16.0192H99.7931V18.2848H100.275V16.0192H102.203L102.203 87.9025ZM114.254 87.9025H112.326V85.6369H111.844V87.9025H109.916V85.6369H109.434V87.9025H107.506V85.6369H107.024V87.9025H105.096V85.6369H104.613V87.9025H102.685L102.685 16.0192H104.613V18.2848H105.096V16.0192H107.024V18.2848H107.506V16.0192H109.434V18.2848H109.916V16.0192H111.844V18.2848L112.326 18.2848V16.0192L114.254 16.0192L114.254 87.9025ZM126.305 87.9025H124.377V85.6369H123.895V87.9025H121.967V85.6369H121.485V87.9025H119.557V85.6369H119.074V87.9025H117.146V85.6369H116.664V87.9025H114.736L114.736 16.0192H116.664V18.2848H117.146V16.0192H119.074V18.2848H119.557V16.0192H121.485V18.2848H121.967V16.0192H123.895V18.2848H124.377V16.0192H126.305L126.305 87.9025ZM138.356 87.9025H136.428V85.6369H135.946V87.9025H134.018V85.6369H133.535V87.9025H131.607V85.6369H131.125V87.9025H129.197V85.6369H128.715V87.9025H126.787L126.787 16.0192H128.715V18.2848H129.197V16.0192H131.125V18.2848H131.607V16.0192H133.535V18.2848H134.018V16.0192L135.946 16.0192V18.2848H136.428V16.0192H138.356V87.9025ZM150.407 87.9025H148.479V85.6369H147.996V87.9025H146.068V85.6369H145.586V87.9025H143.658V85.6369H143.176V87.9025H141.248V85.6369H140.766V87.9025H138.838V16.0192H140.766V18.2848H141.248V16.0192H143.176V18.2848H143.658V16.0192H145.586V18.2848H146.068V16.0192H147.996V18.2848H148.479V16.0192H150.407V87.9025ZM162.457 87.9025H160.529V85.6369H160.047V87.9025H158.119V85.6369H157.637V87.9025H155.709V85.6369H155.227V87.9025H153.299V85.6369H152.817V87.9025H150.889V16.0192H152.817V18.2848H153.299V16.0192H155.227V18.2848H155.709V16.0192L157.637 16.0192V18.2848H158.119V16.0192H160.047V18.2848H160.529V16.0192H162.457V87.9025ZM174.508 87.9025H172.58V85.6369H172.098V87.9025H170.17V85.6369H169.688V87.9025L167.76 87.9025V85.6369H167.278V87.9025H165.35V85.6369H164.868V87.9025H162.94V16.0192H164.868V18.2848H165.35V16.0192H167.278V18.2848H167.76V16.0192H169.688V18.2848H170.17V16.0192H172.098V18.2848H172.58V16.0192H174.508V87.9025ZM186.559 87.9025H184.631V85.6369H184.149V87.9025H182.221V85.6369H181.739V87.9025H179.811V85.6369H179.329V87.9025H177.401V85.6369H176.918V87.9025H174.99V16.0192H176.918V18.2848H177.401V16.0192H179.329V18.2848H179.811V16.0192L181.739 16.0192V18.2848H182.221V16.0192H184.149V18.2848H184.631V16.0192H186.559V87.9025ZM198.61 87.9025H196.682V85.6369H196.2V87.9025H194.272V85.6369H193.79V87.9025H191.862V85.6369H191.38V87.9025H189.451V85.6369H188.969V87.9025H187.041V16.0192H188.969V18.2848H189.451V16.0192H191.38V18.2848H191.862V16.0192H193.79V18.2848H194.272V16.0192H196.2V18.2848H196.682V16.0192H198.61V87.9025ZM210.661 87.9025H208.733V85.6369H208.251V87.9025H206.323V85.6369H205.84V87.9025H203.912V85.6369H203.43V87.9025H201.502V85.6369H201.02V87.9025H199.092V16.0192H201.02V18.2848H201.502V16.0192L203.43 16.0192V18.2848H203.912V16.0192H205.84V18.2848H206.323V16.0192H208.251V18.2848H208.733V16.0192H210.661V87.9025ZM222.712 87.9025H220.784V85.6369H220.301V87.9025H218.373V85.6369H217.891V87.9025H215.963V85.6369H215.481V87.9025H213.553V85.6369H213.071V87.9025H211.143V16.0192H213.071V18.2848H213.553V16.0192H215.481V18.2848H215.963V16.0192H217.891V18.2848H218.373V16.0192H220.301V18.2848H220.784V16.0192H222.712V87.9025ZM234.763 87.9025H232.834V85.6369H232.352V87.9025H230.424V85.6369H229.942V87.9025H228.014V85.6369H227.532V87.9025H225.604V85.6369H225.122V87.9025H223.194V16.0192L225.122 16.0192V18.2848L225.604 18.2848V16.0192H227.532V18.2848H228.014V16.0192H229.942V18.2848H230.424V16.0192H232.352V18.2848H232.834V16.0192H234.763V87.9025ZM246.813 87.9025H244.885V85.6369H244.403V87.9025H242.475V85.6369H241.993V87.9025H240.065V85.6369H239.583V87.9025H237.655V85.6369H237.173V87.9025H235.245V16.0192H237.173V18.2848H237.655V16.0192H239.583V18.2848H240.065V16.0192H241.993V18.2848H242.475V16.0192H244.403V18.2848L244.885 18.2848V16.0192L246.813 16.0192V87.9025ZM258.864 87.9025L256.936 87.9025V85.6369H256.454V87.9025H254.526V85.6369H254.044V87.9025H252.116V85.6369H251.634V87.9025H249.706V85.6369H249.224V87.9025H247.295V16.0192H249.224V18.2848H249.706V16.0192H251.634V18.2848H252.116V16.0192H254.044V18.2848H254.526V16.0192H256.454V18.2848H256.936V16.0192H258.864V87.9025ZM270.915 87.9025H268.987V85.6369H268.505V87.9025H266.577V85.6369H266.095V87.9025H264.167V85.6369H263.685V87.9025H261.756V85.6369H261.274V87.9025H259.346V16.0192H261.274V18.2848H261.756V16.0192H263.685V18.2848H264.167V16.0192H266.095V18.2848H266.577V16.0192L268.505 16.0192V18.2848H268.987V16.0192H270.915V87.9025ZM282.966 87.9025H281.038V85.6369H280.556V87.9025H278.628V85.6369H278.146V87.9025H276.217V85.6369H275.735V87.9025H273.807V85.6369H273.325V87.9025H271.397V16.0192H273.325V18.2848H273.807V16.0192H275.735V18.2848H276.217V16.0192H278.146V18.2848H278.628V16.0192H280.556V18.2848H281.038V16.0192H282.966V87.9025ZM295.017 87.9025H293.089V85.6369H292.607V87.9025H290.678V85.6369H290.196V87.9025H288.268V85.6369H287.786V87.9025H285.858V85.6369H285.376V87.9025H283.448V16.0192H285.376V18.2848H285.858V16.0192H287.786V18.2848H288.268V16.0192L290.196 16.0192V18.2848H290.678V16.0192H292.607V18.2848H293.089V16.0192H295.017V87.9025ZM312.876 87.9025H295.499V16.0192L312.876 16.0192V87.9025Z" fill="#505054"/>
</g>
<path d="M69.9413 64.9609L62.0573 40.1929H67.3133L73.3253 59.2009H73.5413L79.4453 40.1929H84.6293L76.7453 64.9609H69.9413ZM88.2333 64.9609V40.1929H93.3453V64.9609H88.2333ZM99.2732 40.1929H110.685C112.749 40.1929 114.333 40.5169 115.437 41.1649C116.541 41.8129 117.285 42.7249 117.669 43.9009C118.053 45.0769 118.245 46.5889 118.245 48.4369C118.245 50.2129 118.053 51.6889 117.669 52.8649C117.309 54.0409 116.565 54.9769 115.437 55.6729C114.309 56.3689 112.689 56.7169 110.577 56.7169H104.385V64.9609H99.2732V40.1929ZM108.489 52.2889C109.929 52.2889 110.961 52.1929 111.585 52.0009C112.209 51.8089 112.617 51.4609 112.809 50.9569C113.001 50.4289 113.097 49.5889 113.097 48.4369C113.097 47.2849 113.001 46.4569 112.809 45.9529C112.641 45.4489 112.245 45.1009 111.621 44.9089C111.021 44.7169 110.001 44.6209 108.561 44.6209H104.385V52.2889H108.489Z" fill="white"/>
</g>
<g clip-path="url(#clip6)">
<path d="M122.247 166.012H121.654V173.17H122.247V166.012Z" fill="#505054"/>
<path d="M128.169 166.012H127.576V173.17H128.169V166.012Z" fill="#505054"/>
<path d="M131.132 166.012H130.539V173.17H131.132V166.012Z" fill="#505054"/>
<path d="M134.096 166.012H133.504V173.17H134.096V166.012Z" fill="#505054"/>
<path d="M137.061 166.012H136.469V173.17H137.061V166.012Z" fill="#505054"/>
<path d="M122.247 194.934H121.654V202.092H122.247V194.934Z" fill="#505054"/>
<path d="M128.169 194.934H127.576V202.092H128.169V194.934Z" fill="#505054"/>
<path d="M131.132 194.934H130.539V202.092H131.132V194.934Z" fill="#505054"/>
<path d="M134.096 194.934H133.504V202.092H134.096V194.934Z" fill="#505054"/>
<path d="M137.061 194.934H136.469V202.092H137.061V194.934Z" fill="#505054"/>
<path d="M-178.771 75.4135L-178.771 292.509L161.975 292.509L161.975 75.4135L-178.771 75.4135ZM-156.819 291.786H-178.179L-178.179 76.1366H-156.819L-156.819 291.786ZM-142.007 291.786H-144.377V284.99H-144.969V291.786H-147.339V284.99H-147.932V291.786H-150.302V284.99H-150.894V291.786H-153.264V284.99H-153.857V291.786H-156.227L-156.227 76.1366H-153.857V82.9332H-153.264V76.1366H-150.894V82.9332H-150.302V76.1366H-147.932V82.9332H-147.339V76.1366H-144.969V82.9332H-144.377V76.1366L-142.007 76.1366L-142.007 291.786ZM-127.194 291.786H-129.564V284.99H-130.157V291.786H-132.527V284.99H-133.119V291.786H-135.489V284.99H-136.082V291.786H-138.452V284.99H-139.044V291.786H-141.414L-141.414 76.1366H-139.044V82.9332H-138.452V76.1366H-136.082V82.9332H-135.489V76.1366H-133.119V82.9332H-132.527V76.1366H-130.157V82.9332H-129.564V76.1366H-127.194L-127.194 291.786ZM-112.382 291.786H-114.752V284.99H-115.344V291.786H-117.714V284.99H-118.307V291.786H-120.677V284.99H-121.269V291.786H-123.639V284.99H-124.232V291.786H-126.602L-126.602 76.1366H-124.232V82.9332H-123.639V76.1366H-121.269V82.9332H-120.677V76.1366H-118.307V82.9332H-117.714V76.1366H-115.344V82.9332H-114.752V76.1366H-112.382L-112.382 291.786ZM-97.5694 291.786H-99.9394V284.99H-100.532V291.786H-102.902V284.99H-103.494V291.786H-105.864V284.99H-106.457V291.786H-108.827V284.99H-109.419V291.786H-111.789L-111.789 76.1366H-109.419V82.9332H-108.827V76.1366H-106.457V82.9332H-105.864V76.1366H-103.494V82.9332H-102.902V76.1366H-100.532V82.9332H-99.9394V76.1366H-97.5694L-97.5694 291.786ZM-82.7569 291.786H-85.1269V284.99H-85.7194V291.786H-88.0894V284.99H-88.6819V291.786H-91.0519V284.99H-91.6444V291.786H-94.0144V284.99H-94.6069V291.786H-96.9769L-96.9769 76.1366H-94.6069V82.9332H-94.0144V76.1366H-91.6444V82.9332H-91.0519V76.1366H-88.6819V82.9332H-88.0894V76.1366H-85.7194V82.9332H-85.1269V76.1366H-82.7569L-82.7569 291.786ZM-67.9445 291.786H-70.3145V284.99H-70.907V291.786H-73.2769V284.99H-73.8694V291.786H-76.2394V284.99H-76.8319V291.786H-79.2019V284.99H-79.7944V291.786H-82.1644L-82.1644 76.1366H-79.7944V82.9332H-79.2019V76.1366H-76.8319V82.9332H-76.2394V76.1366H-73.8694V82.9332H-73.2769V76.1366L-70.907 76.1366V82.9332H-70.3145V76.1366H-67.9445L-67.9445 291.786ZM-53.132 291.786H-55.502V284.99H-56.0945V291.786H-58.4645V284.99H-59.057V291.786H-61.427V284.99H-62.0195V291.786H-64.3895V284.99H-64.982V291.786H-67.352L-67.352 76.1366H-64.982V82.9332H-64.3895V76.1366H-62.0195V82.9332H-61.427V76.1366H-59.057V82.9332H-58.4645V76.1366H-56.0945V82.9332H-55.502V76.1366H-53.132L-53.132 291.786ZM-38.3195 291.786H-40.6895V284.99H-41.282V291.786H-43.652V284.99H-44.2445V291.786H-46.6145V284.99H-47.207V291.786H-49.577V284.99H-50.1695V291.786H-52.5395L-52.5395 76.1366H-50.1695V82.9332H-49.577V76.1366H-47.207V82.9332H-46.6145V76.1366H-44.2445V82.9332H-43.652V76.1366H-41.282V82.9332H-40.6895V76.1366H-38.3195L-38.3195 291.786ZM-23.507 291.786H-25.877V284.99H-26.4695V291.786H-28.8395V284.99H-29.432V291.786H-31.802V284.99H-32.3945V291.786H-34.7645V284.99H-35.357V291.786H-37.727L-37.727 76.1366H-35.357V82.9332H-34.7645V76.1366H-32.3945V82.9332H-31.802V76.1366H-29.432V82.9332H-28.8395V76.1366H-26.4695V82.9332H-25.877V76.1366H-23.507L-23.507 291.786ZM-8.69452 291.786H-11.0645V284.99H-11.657V291.786H-14.027V284.99H-14.6195V291.786H-16.9895V284.99H-17.582V291.786H-19.952V284.99H-20.5445V291.786H-22.9145L-22.9145 76.1366H-20.5445V82.9332H-19.952V76.1366H-17.582V82.9332H-16.9895V76.1366H-14.6195V82.9332H-14.027V76.1366H-11.657V82.9332H-11.0645V76.1366H-8.69452L-8.69452 291.786ZM6.11798 291.786H3.74797V284.99H3.15547V291.786H0.785477V284.99H0.192978V291.786H-2.17702V284.99H-2.76952V291.786H-5.13951V284.99H-5.73201V291.786H-8.10201L-8.10201 76.1366H-5.73201V82.9332H-5.13951V76.1366H-2.76952V82.9332H-2.17702V76.1366H0.192978V82.9332H0.785477V76.1366L3.15547 76.1366V82.9332L3.74797 82.9332V76.1366H6.11798L6.11798 291.786ZM20.9305 291.786H18.5605V284.99H17.968V291.786H15.598V284.99H15.0055V291.786H12.6355V284.99H12.043V291.786H9.67297V284.99H9.08047V291.786H6.71048L6.71048 76.1366H9.08047V82.9332H9.67297V76.1366H12.043V82.9332H12.6355V76.1366H15.0055V82.9332H15.598V76.1366H17.968V82.9332H18.5605V76.1366H20.9305L20.9305 291.786ZM35.743 291.786H33.373V284.99H32.7805V291.786H30.4105V284.99H29.818V291.786H27.448V284.99H26.8555V291.786H24.4855V284.99H23.893V291.786H21.523L21.523 76.1366H23.893V82.9332H24.4855V76.1366H26.8555V82.9332H27.448V76.1366H29.818V82.9332H30.4105V76.1366H32.7805V82.9332H33.373V76.1366H35.743L35.743 291.786ZM50.5554 291.786H48.1854V284.99H47.5929V291.786H45.2229V284.99H44.6304V291.786H42.2605V284.99H41.6679V291.786H39.2979V284.99H38.7054V291.786L36.3354 291.786L36.3354 76.1366H38.7054V82.9332H39.2979V76.1366H41.6679V82.9332H42.2605V76.1366H44.6304V82.9332H45.2229V76.1366H47.5929V82.9332H48.1854V76.1366H50.5554L50.5554 291.786ZM65.3679 291.786H62.9979V284.99H62.4054V291.786H60.0354V284.99H59.4429V291.786H57.0729V284.99H56.4804V291.786H54.1104V284.99H53.5179V291.786H51.1479L51.1479 76.1366H53.5179V82.9332H54.1104V76.1366H56.4804V82.9332H57.0729V76.1366H59.4429V82.9332H60.0354V76.1366H62.4054V82.9332H62.9979V76.1366H65.3679L65.3679 291.786ZM80.1804 291.786H77.8104V284.99H77.2179V291.786H74.8479V284.99H74.2554V291.786H71.8854V284.99H71.2929V291.786H68.9229V284.99H68.3304V291.786H65.9604L65.9604 76.1366H68.3304V82.9332H68.9229V76.1366H71.2929V82.9332H71.8854V76.1366L74.2554 76.1366V82.9332H74.8479V76.1366H77.2179V82.9332H77.8104V76.1366H80.1804V291.786ZM94.9929 291.786H92.6229V284.99H92.0304V291.786H89.6604V284.99H89.0679V291.786H86.6979V284.99H86.1054V291.786H83.7354V284.99H83.1429V291.786H80.7729V76.1366H83.1429V82.9332H83.7354V76.1366H86.1054V82.9332H86.6979V76.1366H89.0679V82.9332H89.6604V76.1366H92.0304V82.9332H92.6229V76.1366H94.9929V291.786ZM109.805 291.786H107.435V284.99H106.843V291.786H104.473V284.99H103.88V291.786H101.51V284.99H100.918V291.786H98.5479V284.99H97.9554V291.786H95.5854V76.1366H97.9554V82.9332H98.5479V76.1366H100.918V82.9332H101.51V76.1366H103.88V82.9332H104.473V76.1366H106.843V82.9332H107.435V76.1366H109.805V291.786ZM124.618 291.786H122.248V284.99H121.655V291.786H119.285V284.99H118.693V291.786H116.323V284.99H115.73V291.786H113.36V284.99H112.768V291.786H110.398V76.1366H112.768V82.9332H113.36V76.1366H115.73V82.9332H116.323V76.1366H118.693V82.9332H119.285V76.1366H121.655V82.9332H122.248V76.1366H124.618V291.786ZM139.43 291.786H137.06V284.99H136.468V291.786H134.098V284.99H133.505V291.786H131.135V284.99H130.543V291.786H128.173V284.99H127.58V291.786H125.21V76.1366H127.58V82.9332H128.173V76.1366H130.543V82.9332H131.135V76.1366H133.505V82.9332H134.098V76.1366H136.468V82.9332H137.06V76.1366H139.43V291.786ZM161.382 291.786H140.023V76.1366L161.382 76.1366V291.786Z" fill="#505054"/>
<path d="M164.846 166.011H164.254V202.092H164.846V166.011Z" fill="#505054"/>
</g>
<g clip-path="url(#clip7)">
<path d="M130.922 158.855C121.432 158.855 113.72 149.444 113.72 137.863C113.72 133.462 114.822 129.307 116.875 125.732L22.4004 10.4101L22.5506 10.0128C22.6257 9.79892 30.2128 -10.1241 47.2898 -29.7722C57.3307 -41.3227 68.6235 -50.5203 80.8679 -57.1205C96.1671 -65.3709 113.019 -69.5572 130.922 -69.5572C148.825 -69.5572 165.702 -65.3709 181.051 -57.1205C193.346 -50.5203 204.689 -41.3226 214.805 -29.7416C232.007 -10.063 239.744 9.89059 239.819 10.0739L239.97 10.4712L239.719 10.7767L145.145 126.068C147.098 129.551 148.124 133.615 148.124 137.863C148.124 149.444 140.412 158.855 130.922 158.855ZM23.6023 10.135L118.202 125.64L117.952 126.068C115.848 129.49 114.747 133.585 114.747 137.893C114.747 148.802 122.008 157.663 130.947 157.663C139.886 157.663 147.148 148.802 147.148 137.893C147.148 133.737 146.096 129.734 144.118 126.373L143.868 125.945L144.168 125.579L238.768 10.1962C237.616 7.35438 229.879 -10.8881 214.104 -28.9166C198.354 -46.884 171.136 -68.3349 130.922 -68.3349C90.7085 -68.3349 63.6156 -46.884 47.9909 -28.886C32.3411 -10.888 24.7291 7.29327 23.6023 10.135Z" fill="#505054"/>
<path d="M130.971 97.7108C125.538 97.7108 121.131 92.3328 121.131 85.702C121.131 79.0711 125.538 73.6931 130.971 73.6931C136.405 73.6931 140.812 79.0711 140.812 85.702C140.812 92.3328 136.405 97.7108 130.971 97.7108ZM130.971 74.2737C125.813 74.2737 121.632 79.3767 121.632 85.6714C121.632 91.9661 125.813 97.0691 130.971 97.0691C136.13 97.0691 140.311 91.9661 140.311 85.6714C140.311 79.3767 136.13 74.2737 130.971 74.2737Z" fill="#505054"/>
<path d="M197.477 61.2868C197.427 61.1646 192.444 49.2169 181.803 37.3914C172.012 26.5131 155.261 13.5265 131.197 13.5265C107.109 13.5265 90.2327 26.3604 80.2919 37.0858C69.5499 48.728 64.4168 60.5229 64.3667 60.6451L63.916 60.3701C63.9661 60.2479 69.1243 48.3613 79.9414 36.6275C86.3014 29.7522 93.3376 24.2519 100.849 20.3101C110.264 15.3905 120.455 12.8848 131.147 12.8848C141.864 12.8848 152.03 15.421 161.37 20.4018C168.857 24.4047 175.818 29.9661 182.103 36.933C192.795 48.8196 197.828 60.859 197.878 60.9813L197.477 61.2868Z" fill="#505054"/>
<path d="M96.5931 100.155L96.2676 99.6966C100.499 95.1742 102.678 90.4073 102.753 85.5793C102.803 82.3709 101.952 77.4818 97.5196 72.2871L97.3944 72.1343C96.9937 71.6454 96.7934 71.1565 96.8435 70.6676C96.8936 70.0564 97.2441 69.6592 97.3443 69.5675C98.3208 68.3758 117.401 45.061 118.027 44.3582C118.453 43.8692 118.853 43.8081 119.104 43.8387C119.404 43.8692 119.68 44.0831 119.855 44.3887C125.038 51.6001 131.123 51.0195 131.173 51.0195L131.223 51.6307C131.148 51.6307 124.813 52.2418 119.479 44.786L119.454 44.7554C119.404 44.6637 119.254 44.4804 119.054 44.4498C118.853 44.4193 118.603 44.5415 118.378 44.8165C117.752 45.5193 97.8952 69.7814 97.6948 70.0259L97.6698 70.0564C97.6698 70.0564 97.3693 70.3315 97.3693 70.7287C97.3443 71.0343 97.4945 71.3704 97.77 71.7065L97.8952 71.8593C102.452 77.1762 103.354 82.2792 103.279 85.6099C103.179 90.6212 100.925 95.5103 96.5931 100.155Z" fill="#505054"/>
<path d="M165.702 100.155C161.371 95.5108 159.117 90.6217 159.042 85.5798C158.992 82.2491 159.868 77.1767 164.425 71.8292L164.551 71.6765C164.851 71.3403 164.976 71.0042 164.951 70.6681C164.926 70.2708 164.651 69.9958 164.651 69.9958L164.626 69.9653C164.425 69.7208 144.569 45.4587 143.943 44.7559C143.718 44.4809 143.467 44.3587 143.267 44.3892C143.042 44.4198 142.916 44.6031 142.866 44.6948L142.841 44.7253C137.483 52.1812 131.148 51.5701 131.098 51.5701L131.148 50.9589C131.198 50.9589 137.307 51.5395 142.466 44.3281C142.641 44.0225 142.916 43.8086 143.217 43.7781C143.467 43.7475 143.843 43.8086 144.294 44.2976C144.92 45.0004 164 68.3458 164.976 69.5069C165.076 69.5986 165.427 69.9958 165.477 70.607C165.502 71.0959 165.327 71.6153 164.926 72.0737L164.801 72.2265C160.369 77.3906 159.518 82.3102 159.568 85.5187C159.643 90.3467 161.846 95.1135 166.053 99.636L165.702 100.155Z" fill="#505054"/>
<path d="M134.087 29.0232L131.289 25.6093L128.492 29.0232L131.289 32.437L134.087 29.0232Z" fill="#505054"/>
</g>
<g clip-path="url(#clip8)">
<path d="M80.1635 46.2421H-49.4707V125.584H80.1635V46.2421Z" stroke="#505054" stroke-width="0.223451"/>
<path d="M80.0073 61.7044H59.7031V109.81H80.0073" stroke="#505054" stroke-width="0.223451"/>
<path d="M59.5823 74.5218C57.5672 75.8068 53.5371 79.9888 53.5371 85.736C53.5371 92.7448 57.5672 96.3953 59.5823 98.1329" stroke="#505054" stroke-width="0.223451"/>
<circle cx="15.2079" cy="86.3273" r="14.4595" stroke="#505054" stroke-width="0.223451"/>
<circle cx="15.2071" cy="86.3274" r="0.752813" fill="#191919" stroke="#505054" stroke-width="0.111725"/>
<path d="M15.2539 46.2953V125.397" stroke="#505054" stroke-width="0.223451"/>
</g>
<g clip-path="url(#clip9)">
<path d="M101.068 131.82L9.40234 40.1548L-46.7011 96.2583L44.9641 187.923L101.068 131.82Z" stroke="#505054" stroke-width="0.223451"/>
<path d="M90.0232 142.643L75.666 128.286L41.6505 162.301L56.0077 176.658" stroke="#505054" stroke-width="0.223451"/>
<path d="M77.6543 155.012L80.9675 158.325L71.4697 167.823L68.1564 164.51" stroke="#505054" stroke-width="0.223451"/>
<path d="M80.7946 151.967L75.1621 146.335L59.59 161.907L65.2225 167.54" stroke="#505054" stroke-width="0.223451"/>
<path d="M66.5187 137.264C64.1852 136.748 58.3784 136.856 54.3145 140.919C49.3585 145.875 49.627 151.306 49.8232 153.96" stroke="#505054" stroke-width="0.223451"/>
<circle cx="63.4648" cy="150.211" r="0.68161" transform="rotate(45 63.4648 150.211)" fill="#191919" stroke="#505054" stroke-width="0.111725"/>
</g>
<path d="M2.07227 75.9609L179.072 75.961" stroke="#505054" stroke-width="0.223451"/>
<path d="M2.07227 147.961L179.072 147.961" stroke="#505054" stroke-width="0.223451"/>
<path d="M61.0723 3.96094L61.0723 219.961" stroke="#505054" stroke-width="0.223451"/>
<path d="M120.072 3.96094L120.072 219.961" stroke="#505054" stroke-width="0.223451"/>
<path fill-rule="evenodd" clip-rule="evenodd" d="M90.7621 150.062L90.5586 149.685L90.3533 150.062L90.3555 149.308L87.9334 144.818L85.9058 141.103H82.5013H81.7002L77.3065 127.62H66.98L61.0723 109.702L62.2488 108.631H71.1182L63.6766 85.7954L67.1061 79.9609H82.1258H90.5536H90.5619H99.0147H114.034L117.464 85.7954L110.012 108.631H118.896L120.072 109.702L114.14 127.62H103.815L99.4152 141.103H98.6392H95.2097L93.2071 144.818L90.76 149.315L90.7621 150.062ZM72.3572 112.433H68.5571L66.955 113.81L69.8588 122.572L71.2857 123.818H76.0674L72.3572 112.433ZM105.056 123.818L108.771 112.433H112.588L114.19 113.81L111.286 122.572L109.859 123.818H105.056ZM71.1898 165.469H109.59L103.507 150.064H77.2979L71.1898 165.469Z" fill="#FFC700"/>
<defs>
<clipPath id="clip0">
<rect width="60" height="72" fill="white" transform="translate(61.0723 75.9609)"/>
</clipPath>
<clipPath id="clip1">
<rect width="58" height="72" fill="white" transform="translate(121.072 75.9609)"/>
</clipPath>
<clipPath id="clip2">
<rect width="58" height="72" fill="white" transform="translate(2.07227 147.961)"/>
</clipPath>
<clipPath id="clip3">
<rect width="59" height="72" fill="white" transform="translate(2.07227 3.96094)"/>
</clipPath>
<clipPath id="clip4">
<rect width="60" height="72" fill="white" transform="translate(61.0723 3.96094)"/>
</clipPath>
<clipPath id="clip5">
<rect width="48" height="24" fill="white" transform="translate(60.0723 39.9609)"/>
</clipPath>
<clipPath id="clip6">
<rect width="59" height="72" fill="white" transform="translate(120.072 147.961)"/>
</clipPath>
<clipPath id="clip7">
<rect width="59" height="72" fill="white" transform="translate(120.072 3.96094)"/>
</clipPath>
<clipPath id="clip8">
<rect width="59" height="72" fill="white" transform="translate(2.07227 75.9609)"/>
</clipPath>
<clipPath id="clip9">
<rect width="59" height="72" fill="white" transform="translate(61.0723 147.961)"/>
</clipPath>
</defs>
</svg>
