<svg width="175" height="175" viewBox="0 0 175 175" fill="none" xmlns="http://www.w3.org/2000/svg">
<rect y="175" width="175" height="175" transform="rotate(-90 0 175)" fill="#1A1A1A"/>
<path d="M66.869 54L58.985 29.232H64.241L70.253 48.24H70.469L76.373 29.232H81.557L73.673 54H66.869ZM85.161 54V29.232H90.273V54H85.161ZM96.2009 29.232H107.613C109.677 29.232 111.261 29.556 112.365 30.204C113.469 30.852 114.213 31.764 114.597 32.94C114.981 34.116 115.173 35.628 115.173 37.476C115.173 39.252 114.981 40.728 114.597 41.904C114.237 43.08 113.493 44.016 112.365 44.712C111.237 45.408 109.617 45.756 107.505 45.756H101.313V54H96.2009V29.232ZM105.417 41.328C106.857 41.328 107.889 41.232 108.513 41.04C109.137 40.848 109.545 40.5 109.737 39.996C109.929 39.468 110.025 38.628 110.025 37.476C110.025 36.324 109.929 35.496 109.737 34.992C109.569 34.488 109.173 34.14 108.549 33.948C107.949 33.756 106.929 33.66 105.489 33.66H101.313V41.328H105.417Z" fill="white"/>
<path fill-rule="evenodd" clip-rule="evenodd" d="M87.6899 136.101L87.4864 135.724L87.281 136.101L87.2832 135.347L84.8612 130.857L82.8335 127.142H79.429H78.628L74.2342 113.659H63.9078L58 95.7406L59.1765 94.6699H68.0459L60.6043 71.8345L64.0338 66H79.0535H87.4813H87.4896H95.9424H110.962L114.392 71.8345L106.94 94.6699H115.824L117 95.7406L111.067 113.659H100.743L96.343 127.142H95.5669H92.1374L90.1348 130.857L87.6877 135.354L87.6899 136.101ZM69.285 98.4721H65.4848L63.8827 99.8488L66.7865 108.611L68.2134 109.857H72.9951L69.285 98.4721ZM101.984 109.857L105.699 98.4721H109.515L111.117 99.8488L108.214 108.611L106.787 109.857H101.984ZM68.1176 151.508H106.518L100.435 136.103H74.2256L68.1176 151.508Z" fill="#FFC700"/>
</svg>
