<?xml version="1.0" encoding="UTF-8"?>
<svg xmlns="http://www.w3.org/2000/svg" xmlns:xlink="http://www.w3.org/1999/xlink" width="810pt" height="809.999993pt" viewBox="0 0 810 809.999993" version="1.2">
<g id="surface1">
<path style=" stroke:none;fill-rule:nonzero;fill:rgb(0%,0%,0%);fill-opacity:1;" d="M 555.671875 808.300781 L 10.089844 808.300781 C 7.316406 808.300781 4.640625 807.140625 2.722656 805.121094 C 0.808594 803.101562 -0.152344 800.324219 0.0507812 797.546875 L 52.824219 22.535156 C 53.175781 17.234375 57.566406 13.144531 62.914062 13.144531 L 608.496094 13.144531 C 611.269531 13.144531 613.945312 14.304688 615.859375 16.324219 C 617.777344 18.34375 618.738281 21.121094 618.535156 23.898438 L 565.710938 798.859375 C 565.359375 804.160156 560.96875 808.300781 555.671875 808.300781 Z M 20.886719 788.105469 L 546.238281 788.105469 L 597.699219 33.339844 L 72.347656 33.339844 Z M 20.886719 788.105469 "/>
<path style=" stroke:none;fill-rule:nonzero;fill:rgb(0%,0%,0%);fill-opacity:1;" d="M 661.265625 755.4375 C 655.71875 755.4375 651.175781 750.894531 651.175781 745.339844 L 651.175781 516.371094 C 651.175781 510.816406 655.71875 506.273438 661.265625 506.273438 C 666.816406 506.273438 671.359375 510.816406 671.359375 516.371094 L 671.359375 745.339844 C 671.359375 750.945312 666.816406 755.4375 661.265625 755.4375 Z M 661.265625 755.4375 "/>
<path style=" stroke:none;fill-rule:nonzero;fill:rgb(0%,0%,0%);fill-opacity:1;" d="M 766.863281 808.300781 C 765.296875 808.300781 763.785156 807.949219 762.371094 807.242188 L 661.265625 756.652344 L 560.164062 807.242188 C 556.933594 808.855469 553.050781 808.605469 550.074219 806.636719 C 547.046875 804.617188 545.328125 801.183594 545.582031 797.546875 L 598.40625 22.535156 C 598.757812 17.234375 603.148438 13.144531 608.496094 13.144531 L 714.089844 13.144531 C 719.386719 13.144531 723.777344 17.234375 724.179688 22.535156 L 776.953125 797.496094 C 777.203125 801.132812 775.488281 804.566406 772.460938 806.585938 C 770.746094 807.746094 768.828125 808.300781 766.863281 808.300781 Z M 661.265625 735.242188 C 662.832031 735.242188 664.34375 735.597656 665.757812 736.304688 L 755.5625 781.238281 L 704.65625 33.339844 L 617.929688 33.339844 L 566.972656 781.289062 L 656.777344 736.355469 C 658.191406 735.597656 659.703125 735.242188 661.265625 735.242188 Z M 661.265625 735.242188 "/>
<path style=" stroke:none;fill-rule:nonzero;fill:rgb(0%,0%,0%);fill-opacity:1;" d="M 661.265625 156.632812 C 655.71875 156.632812 651.175781 152.089844 651.175781 146.535156 L 651.175781 23.242188 C 651.175781 17.6875 655.71875 13.144531 661.265625 13.144531 C 666.816406 13.144531 671.359375 17.6875 671.359375 23.242188 L 671.359375 146.535156 C 671.359375 152.089844 666.816406 156.632812 661.265625 156.632812 Z M 661.265625 156.632812 "/>
<path style=" stroke:none;fill-rule:nonzero;fill:rgb(0%,0%,0%);fill-opacity:1;" d="M 305.484375 456.035156 C 259.21875 456.035156 215.328125 435.992188 185.054688 401.003906 C 154.734375 366.015625 141.113281 319.664062 147.671875 273.921875 C 161.496094 176.929688 176.125 74.640625 176.125 74.640625 C 176.933594 69.136719 182.078125 65.246094 187.527344 66.054688 C 193.027344 66.863281 196.863281 71.964844 196.105469 77.464844 C 196.105469 77.464844 181.472656 179.757812 167.648438 276.75 C 161.898438 316.734375 173.804688 357.179688 200.292969 387.773438 C 226.730469 418.320312 265.070312 435.839844 305.484375 435.839844 C 372.886719 435.839844 430.90625 385.503906 440.441406 318.707031 C 455.777344 211.464844 475.304688 74.640625 475.304688 74.640625 L 495.28125 77.515625 C 495.28125 77.515625 475.757812 214.34375 460.421875 321.582031 C 449.472656 398.226562 382.875 456.035156 305.484375 456.035156 Z M 305.484375 456.035156 "/>
<path style=" stroke:none;fill-rule:nonzero;fill:rgb(0%,0%,0%);fill-opacity:1;" d="M 186.117188 103.773438 C 170.828125 103.773438 158.417969 91.351562 158.417969 76.054688 C 158.417969 60.753906 170.828125 48.335938 186.117188 48.335938 C 201.351562 48.335938 213.761719 60.753906 213.761719 76.054688 C 213.761719 91.351562 201.351562 103.773438 186.117188 103.773438 Z M 186.117188 68.582031 C 181.976562 68.582031 178.597656 71.964844 178.597656 76.101562 C 178.597656 80.242188 181.976562 83.625 186.117188 83.625 C 190.253906 83.625 193.582031 80.242188 193.582031 76.101562 C 193.582031 71.914062 190.253906 68.582031 186.117188 68.582031 Z M 186.117188 68.582031 "/>
<path style=" stroke:none;fill-rule:nonzero;fill:rgb(0%,0%,0%);fill-opacity:1;" d="M 485.292969 103.773438 C 470.007812 103.773438 457.59375 91.351562 457.59375 76.054688 C 457.59375 60.753906 470.007812 48.335938 485.292969 48.335938 C 500.578125 48.335938 512.992188 60.753906 512.992188 76.054688 C 512.992188 91.351562 500.578125 103.773438 485.292969 103.773438 Z M 485.292969 68.582031 C 481.15625 68.582031 477.777344 71.964844 477.777344 76.101562 C 477.777344 80.242188 481.15625 83.625 485.292969 83.625 C 489.429688 83.625 492.808594 80.242188 492.808594 76.101562 C 492.808594 71.914062 489.429688 68.582031 485.292969 68.582031 Z M 485.292969 68.582031 "/>
</g>
</svg>
