<?xml version="1.0" encoding="UTF-8"?>
<svg xmlns="http://www.w3.org/2000/svg" xmlns:xlink="http://www.w3.org/1999/xlink" width="810pt" height="809.999993pt" viewBox="0 0 810 809.999993" version="1.2">
<defs>
<clipPath id="clip1">
  <path d="M 16 81 L 794.3125 81 L 794.3125 632 L 16 632 Z M 16 81 "/>
</clipPath>
<clipPath id="clip2">
  <path d="M 16 502 L 794.3125 502 L 794.3125 535 L 16 535 Z M 16 502 "/>
</clipPath>
</defs>
<g id="surface1">
<g clip-path="url(#clip1)" clip-rule="nonzero">
<path style=" stroke:none;fill-rule:nonzero;fill:rgb(0%,0%,0%);fill-opacity:1;" d="M 745.4375 631.800781 L 64.8125 631.800781 C 38.007812 631.800781 16.195312 609.996094 16.195312 583.199219 L 16.195312 129.601562 C 16.195312 102.804688 38.007812 81 64.8125 81 L 745.4375 81 C 772.242188 81 794.054688 102.804688 794.054688 129.601562 L 794.054688 583.199219 C 794.054688 609.996094 772.242188 631.800781 745.4375 631.800781 Z M 64.8125 113.398438 C 55.898438 113.398438 48.605469 120.691406 48.605469 129.601562 L 48.605469 583.199219 C 48.605469 592.109375 55.898438 599.398438 64.8125 599.398438 L 745.4375 599.398438 C 754.351562 599.398438 761.644531 592.109375 761.644531 583.199219 L 761.644531 129.601562 C 761.644531 120.691406 754.351562 113.398438 745.4375 113.398438 Z M 64.8125 113.398438 "/>
</g>
<path style=" stroke:none;fill-rule:nonzero;fill:rgb(0%,0%,0%);fill-opacity:1;" d="M 518.5625 729 L 291.6875 729 C 285.140625 729 279.210938 725.046875 276.714844 718.988281 C 274.21875 712.929688 275.613281 705.964844 280.214844 701.332031 C 322.867188 658.691406 323.449219 617.414062 323.449219 615.664062 C 323.484375 606.789062 330.679688 599.496094 339.558594 599.433594 C 339.589844 599.433594 339.625 599.433594 339.65625 599.433594 C 348.503906 599.433594 355.730469 606.496094 355.859375 615.339844 C 355.894531 617.21875 355.957031 654.058594 326.367188 696.566406 L 483.785156 696.566406 C 454.128906 654.1875 453.707031 617.445312 453.707031 615.566406 C 453.707031 606.625 460.96875 599.367188 469.914062 599.367188 C 478.828125 599.367188 486.054688 606.59375 486.121094 615.46875 C 486.152344 617.511719 487.417969 658.757812 530.003906 701.296875 C 534.636719 705.929688 536.03125 712.898438 533.503906 718.957031 C 530.976562 725.015625 525.109375 729 518.5625 729 Z M 486.152344 615.601562 L 486.476562 615.601562 Z M 486.152344 615.601562 "/>
<g clip-path="url(#clip2)" clip-rule="nonzero">
<path style=" stroke:none;fill-rule:nonzero;fill:rgb(0%,0%,0%);fill-opacity:1;" d="M 777.847656 534.601562 L 32.402344 534.601562 C 23.457031 534.601562 16.195312 527.34375 16.195312 518.398438 C 16.195312 509.457031 23.457031 502.199219 32.402344 502.199219 L 777.847656 502.199219 C 786.792969 502.199219 794.054688 509.457031 794.054688 518.398438 C 794.054688 527.34375 786.792969 534.601562 777.847656 534.601562 Z M 777.847656 534.601562 "/>
</g>
<path style=" stroke:none;fill-rule:nonzero;fill:rgb(0%,0%,0%);fill-opacity:1;" d="M 680.617188 324 L 583.382812 324 C 574.4375 324 567.179688 316.742188 567.179688 307.800781 C 567.179688 298.859375 574.4375 291.601562 583.382812 291.601562 L 680.617188 291.601562 C 689.5625 291.601562 696.820312 298.859375 696.820312 307.800781 C 696.820312 316.742188 689.5625 324 680.617188 324 Z M 680.617188 324 "/>
<path style=" stroke:none;fill-rule:nonzero;fill:rgb(0%,0%,0%);fill-opacity:1;" d="M 680.617188 405 L 615.796875 405 C 588.992188 405 567.179688 383.195312 567.179688 356.398438 L 567.179688 259.199219 C 567.179688 232.40625 588.992188 210.601562 615.796875 210.601562 L 680.617188 210.601562 C 689.5625 210.601562 696.820312 217.859375 696.820312 226.800781 C 696.820312 235.742188 689.5625 243 680.617188 243 L 615.796875 243 C 606.882812 243 599.589844 250.289062 599.589844 259.199219 L 599.589844 356.398438 C 599.589844 365.308594 606.882812 372.601562 615.796875 372.601562 L 680.617188 372.601562 C 689.5625 372.601562 696.820312 379.859375 696.820312 388.800781 C 696.820312 397.742188 689.5625 405 680.617188 405 Z M 680.617188 405 "/>
<path style=" stroke:none;fill-rule:nonzero;fill:rgb(0%,0%,0%);fill-opacity:1;" d="M 307.894531 405 C 298.949219 405 291.6875 397.742188 291.6875 388.800781 L 291.6875 226.800781 C 291.6875 217.859375 298.949219 210.601562 307.894531 210.601562 C 316.839844 210.601562 324.097656 217.859375 324.097656 226.800781 L 324.097656 388.800781 C 324.097656 397.742188 316.839844 405 307.894531 405 Z M 307.894531 405 "/>
<path style=" stroke:none;fill-rule:nonzero;fill:rgb(0%,0%,0%);fill-opacity:1;" d="M 226.867188 405 L 129.632812 405 C 120.6875 405 113.429688 397.742188 113.429688 388.800781 L 113.429688 226.800781 C 113.429688 217.859375 120.6875 210.601562 129.632812 210.601562 C 138.578125 210.601562 145.839844 217.859375 145.839844 226.800781 L 145.839844 372.601562 L 226.867188 372.601562 C 235.8125 372.601562 243.070312 379.859375 243.070312 388.800781 C 243.070312 397.742188 235.8125 405 226.867188 405 Z M 226.867188 405 "/>
<path style=" stroke:none;fill-rule:nonzero;fill:rgb(0%,0%,0%);fill-opacity:1;" d="M 453.742188 405 C 446.578125 405 440.289062 400.300781 438.214844 393.464844 L 389.601562 231.464844 C 387.007812 222.878906 391.871094 213.871094 400.457031 211.3125 C 408.949219 208.6875 418.089844 213.582031 420.617188 222.167969 L 453.742188 332.425781 L 486.832031 222.167969 C 489.394531 213.582031 498.5 208.6875 506.992188 211.3125 C 515.582031 213.871094 520.441406 222.878906 517.851562 231.464844 L 469.234375 393.464844 C 467.191406 400.300781 460.902344 405 453.742188 405 Z M 453.742188 405 "/>
</g>
</svg>
