<svg width="24" height="24" viewBox="0 0 24 24" fill="none" xmlns="http://www.w3.org/2000/svg">
<path fill-rule="evenodd" clip-rule="evenodd" d="M16.0686 15.0943H17.1527L24 21.9554L21.9554 24L15.0943 17.1527V16.0686L14.7238 15.6844C13.1595 17.0292 11.1286 17.8388 8.91938 17.8388C3.99314 17.8388 0 13.8456 0 8.91938C0 3.99314 3.99314 0 8.91938 0C13.8456 0 17.8388 3.99314 17.8388 8.91938C17.8388 11.1286 17.0292 13.1595 15.6844 14.7238L16.0686 15.0943ZM2.74446 8.9194C2.74446 12.3362 5.50261 15.0944 8.91942 15.0944C12.3362 15.0944 15.0944 12.3362 15.0944 8.9194C15.0944 5.50259 12.3362 2.74444 8.91942 2.74444C5.50261 2.74444 2.74446 5.50259 2.74446 8.9194Z" fill="white"/>
</svg>
