<svg width="171" height="175" viewBox="0 0 171 175" fill="none" xmlns="http://www.w3.org/2000/svg">
<rect width="170.27" height="175" fill="#505054"/>
<g clip-path="url(#clip0)">
<path d="M215.243 139.81C213.351 141.803 210.853 143.308 207.99 144.431C204.22 145.909 199.865 146.702 195.551 147.077L195.55 147.077C193.453 147.262 181.898 147.31 167.495 147.31C160.309 147.31 152.431 147.299 144.698 147.287L144.209 147.286C137.763 147.276 131.43 147.267 125.698 147.264L134.701 142.634H134.721H134.744H134.768H134.794H134.82H134.848H134.877H134.908H134.939H134.972H135.006H135.042H135.078H135.116H135.155H135.195H135.236H135.279H135.323H135.367H135.413H135.461H135.509H135.559H135.609H135.661H135.714H135.768H135.824H135.88H135.937H135.996H136.056H136.117H136.179H136.242H136.306H136.371H136.437H136.505H136.573H136.643H136.713H136.785H136.858H136.931H137.006H137.082H137.159H137.237H137.316H137.396H137.477H137.559H137.642H137.726H137.811H137.897H137.984H138.071H138.16H138.25H138.341H138.433H138.526H138.619H138.714H138.809H138.906H139.003H139.102H139.201H139.301H139.402H139.504H139.607H139.711H139.816H139.921H140.028H140.135H140.243H140.352H140.462H140.573H140.685H140.797H140.91H141.025H141.14H141.255H141.372H141.489H141.608H141.727H141.847H141.967H142.089H142.211H142.334H142.458H142.582H142.707H142.833H142.96H143.088H143.216H143.345H143.475H143.605H143.737H143.869H144.001H144.135H144.269H144.404H144.539H144.675H144.812H144.95H145.088H145.227H145.366H145.506H145.647H145.789H145.931H146.074H146.217H146.361H146.506H146.651H146.797H146.944H147.091H147.239H147.387H147.536H147.685H147.835H147.986H148.137H148.289H148.441H148.594H148.748H148.902H149.056H149.211H149.367H149.523H149.68H149.837H149.995H150.153H150.312H150.471H150.63H150.791H150.951H151.112H151.274H151.436H151.599H151.762H151.925H152.089H152.253H152.418H152.583H152.749H152.915H153.081H153.248H153.415H153.583H153.751H153.919H154.088H154.257H154.427H154.597H154.767H154.938H155.109H155.28H155.452H155.624H155.797H155.969H156.142H156.316H156.489H156.663H156.838H157.012H157.187H157.363H157.538H157.714H157.89H158.066H158.243H158.42H158.597H158.774H158.952H159.13H159.308H159.486H159.665H159.843H160.022H160.201H160.381H160.56H160.74H160.92H161.1H161.281H161.461H161.642H161.823H162.004H162.185H162.366H162.548H162.73H162.911H163.093H163.275H163.457H163.64H163.822H164.005H164.187H164.37H164.553H164.735H164.918H165.101H165.284H165.468H165.651H165.834H166.017H166.201H166.384H166.568H166.751H166.935H167.118H167.302H167.485H167.669H167.852H168.036H168.22H168.403H168.587H168.77H168.954H169.137H169.321H169.504H169.687H169.87H170.054H170.237H170.42H170.603H170.786H170.969H171.151H171.334H171.517H171.699H171.882H172.064H172.246H172.428H172.61H172.792H172.973H173.155H173.336H173.517H173.698H173.879H174.06H174.24H174.42H174.601H174.781H174.96H175.14H175.319H175.498H175.677H175.856H176.035H176.213H176.391H176.569H176.746H176.924H177.101H177.278H177.454H177.63H177.806H177.982H178.158H178.333H178.508H178.682H178.857H179.031H179.204H179.378H179.551H179.723H179.896H180.068H180.239H180.411H180.582H180.752H180.923H181.092H181.262H181.431H181.6H181.768H181.936H182.104H182.271H182.438H182.604H182.77H182.936H183.101H183.266H183.43H183.594H183.757H183.92H184.082H184.244H184.406H184.567H184.728H184.888H185.047H185.206H185.365H185.523H185.681H185.838H185.994H186.15H186.306H186.461H186.615H186.769H186.923H187.076H187.228H187.38H187.531H187.681H187.831H187.981H188.13H188.278H188.426H188.573H188.719H188.865H189.01H189.155H189.299H189.442H189.585H189.727H189.868H190.009H190.149H190.288H190.427H190.565H190.703H190.84H190.976H191.111H191.246H191.38H191.513H191.646H191.777H191.909H192.039H192.169H192.298H192.426H192.553H192.68H192.806H192.931H193.056H193.179H193.302H193.424H193.545H193.666H193.786H193.905H194.023H194.14H194.257H194.372H194.487H194.601H194.714H194.827H194.938H195.049H195.159H195.268H195.376H195.483H195.589H195.695H195.799H195.903H196.006H196.108H196.209H196.309H196.408H196.506H196.603H196.7H196.795H196.89H196.983H197.076H197.167H197.258H197.348H197.437H197.524H197.611H197.697H197.782H197.866H197.949H198.03H198.111H198.191H198.27H198.348H198.424H198.5H198.575H198.648H198.721H198.792H198.863H198.932H199H199.068H199.134H199.199H199.263H199.326H199.388H199.448H199.508H199.566H199.624H199.68H199.735H199.789H199.842H199.894H199.944H199.993H200.042H200.089H200.135H200.179H200.223H200.265H200.306H200.346C205.971 142.634 211.164 141.336 215.243 139.81Z" stroke="white" stroke-width="1.4173" stroke-miterlimit="22.9256" stroke-linejoin="round"/>
<path d="M79.8973 70.1502L79.9004 70.1535C82.0708 72.4553 84.6617 75.2003 87.4527 78.1574C92.2249 83.2135 97.5824 88.8896 102.424 94.031C110.136 102.22 116.447 108.956 117.09 109.751C118.366 111.33 120.188 111.524 121.589 111.353C122.927 111.19 124.154 110.675 124.815 110.372C125.22 110.266 126.578 110.324 128.104 112.042C128.235 112.204 128.365 112.37 128.496 112.537C129.16 113.385 129.851 114.266 130.785 114.869C132.006 115.657 133.519 115.946 135.753 115.946H135.779H135.806H135.835H135.865H135.896H135.929H135.963H135.998H136.035H136.073H136.113H136.153H136.196H136.239H136.284H136.33H136.377H136.426H136.476H136.528H136.58H136.634H136.689H136.746H136.804H136.863H136.923H136.985H137.047H137.111H137.177H137.243H137.311H137.38H137.45H137.522H137.594H137.668H137.743H137.819H137.897H137.975H138.055H138.136H138.218H138.301H138.385H138.471H138.558H138.645H138.734H138.824H138.916H139.008H139.101H139.196H139.291H139.388H139.486H139.585H139.685H139.786H139.888H139.991H140.095H140.201H140.307H140.414H140.523H140.632H140.742H140.854H140.966H141.08H141.194H141.31H141.426H141.544H141.662H141.781H141.902H142.023H142.145H142.269H142.393H142.518H142.644H142.771H142.899H143.028H143.157H143.288H143.42H143.552H143.685H143.82H143.955H144.091H144.228H144.366H144.504H144.644H144.784H144.925H145.067H145.21H145.354H145.498H145.643H145.789H145.936H146.084H146.233H146.382H146.532H146.683H146.834H146.987H147.14H147.294H147.449H147.604H147.76H147.917H148.075H148.233H148.392H148.552H148.713H148.874H149.036H149.198H149.362H149.526H149.69H149.856H150.022H150.188H150.356H150.524H150.692H150.862H151.031H151.202H151.373H151.545H151.717H151.89H152.064H152.238H152.413H152.588H152.764H152.94H153.117H153.295H153.473H153.652H153.831H154.011H154.192H154.372H154.554H154.736H154.918H155.101H155.285H155.469H155.653H155.838H156.023H156.209H156.396H156.583H156.77H156.958H157.146H157.335H157.524H157.713H157.903H158.094H158.284H158.476H158.667H158.859H159.052H159.244H159.438H159.631H159.825H160.02H160.214H160.409H160.605H160.8H160.996H161.193H161.39H161.587H161.784H161.982H162.18H162.378H162.577H162.776H162.975H163.174H163.374H163.574H163.774H163.975H164.176H164.377H164.578H164.78H164.982H165.184H165.386H165.588H165.791H165.994H166.197H166.4H166.604H166.807H167.011H167.215H167.419H167.624H167.828H168.033H168.237H168.442H168.647H168.853H169.058H169.263H169.469H169.675H169.88H170.086H170.292H170.498H170.704H170.911H171.117H171.323H171.53H171.736H171.943H172.149H172.356H172.562H172.769H172.976H173.182H173.389H173.596H173.803H174.009H174.216H174.423H174.629H174.836H175.043H175.249H175.456H175.662H175.869H176.075H176.281H176.488H176.694H176.9H177.106H177.312H177.518H177.723H177.929H178.134H178.34H178.545H178.75H178.955H179.16H179.365H179.569H179.774H179.978H180.182H180.386H180.59H180.793H180.997H181.2H181.403H181.605H181.808H182.01H182.212H182.414H182.616H182.817H183.019H183.22H183.42H183.621H183.821H184.021H184.22H184.42H184.619H184.817H185.016H185.214H185.412H185.609H185.807H186.004H186.2H186.396H186.592H186.788H186.983H187.178H187.372H187.566H187.76H187.954H188.147H188.339H188.531H188.723H188.915H189.106H189.296H189.486H189.676H189.865H190.054H190.243H190.431H190.618H190.805H190.992H191.178H191.364H191.549H191.733H191.918H192.101H192.285H192.467H192.649H192.831H193.012H193.193H193.373H193.553H193.732H193.91H194.088H194.265H194.442H194.618H194.794H194.969H195.143H195.317H195.49H195.663H195.835H196.006H196.177H196.347H196.517H196.686H196.854H197.022H197.189H197.355H197.521H197.686H197.85H198.014H198.176H198.339H198.5H198.661H198.821H198.981H199.139H199.297H199.455H199.611H199.767H199.922H200.076H200.23H200.383H200.535H200.686H200.836H200.986H201.135H201.283H201.43H201.577H201.722H201.867H202.011H202.154H202.297H202.438H202.579H202.719H202.858H202.996H203.133H203.27H203.405H203.54H203.674H203.807H203.939H204.07H204.2H204.329H204.458H204.585H204.711H204.837H204.962H205.085H205.208H205.33H205.451H205.57H205.689H205.807H205.924H206.04H206.155H206.269H206.382H206.494H206.605H206.715H206.823H206.931H207.038H207.144H207.248H207.352H207.455H207.556H207.657H207.756H207.854H207.952H208.048H208.143H208.237H208.329H208.421H208.512H208.601H208.69H208.777H208.863H208.948H209.031H209.114H209.196H209.276H209.355H209.433H209.51H209.585H209.66H209.733H209.805H209.875H209.945H210.013H210.08H210.146H210.211H210.274H210.336H210.397H210.457H210.515H210.572H210.628H210.683H210.736H210.788H210.839H210.888H210.936H210.983H211.028H211.072H211.115H211.156H211.196H211.235H211.273H211.309H211.343C213.938 115.946 216.222 116.833 217.703 118.334C219.147 119.798 219.949 121.963 219.419 124.846C217.605 134.193 215.095 139.104 211.516 141.922C207.897 144.772 202.922 145.707 195.488 146.371L195.487 146.371C194.001 146.506 187.696 146.578 178.901 146.605C170.156 146.631 159.054 146.613 148.07 146.578C131.907 146.526 115.986 146.435 108.221 146.391C105.437 146.375 103.702 146.365 103.38 146.365C102.461 146.365 102.216 146.099 102.123 145.963C101.961 145.728 101.823 145.232 101.892 144.297L101.895 144.245V144.193C101.895 143.689 101.905 143.206 101.914 142.74L101.916 142.646C101.925 142.218 101.934 141.797 101.934 141.406C101.934 140.614 101.904 139.744 101.674 139.033C101.491 138.466 101.108 137.983 100.565 137.684C100.031 137.391 99.4316 137.322 98.8614 137.405C97.7487 137.567 96.6285 138.307 95.5973 139.477L95.5364 139.546L95.4849 139.622C94.8373 140.584 93.5945 141.799 92.0676 143.121L92.0603 143.128C87.7782 146.888 82.648 147.122 77.0086 146.933L76.994 146.933L76.9793 146.932C69.8262 146.841 63.5742 144.886 58.6358 140.553C53.6891 136.213 49.9094 129.355 47.9647 119.175L47.9645 119.174C44.9398 103.391 43.9698 86.3797 43.6584 80.9186C43.61 80.0702 43.5775 79.5006 43.5557 79.2576C43.4433 78.006 42.8955 77.125 42.0864 76.5089C41.492 76.0564 40.7457 75.7558 40.1794 75.5277C40.1117 75.5005 40.0465 75.4742 39.9845 75.4489C39.9601 75.4328 39.8772 75.3703 39.7531 75.1904C39.6037 74.9738 39.4458 74.6612 39.2868 74.2472C38.9669 73.4138 38.7189 72.3765 38.4888 71.3325C38.3581 70.7394 37.7693 68.7833 36.975 66.207C36.1674 63.5876 35.1165 60.2306 34.0287 56.7593C33.9143 56.3943 33.7995 56.0281 33.6845 55.6613C31.6089 49.0389 29.4838 42.2583 28.6939 39.5039L28.6846 39.4715L28.6738 39.4397C27.7062 36.5849 27.0778 33.3797 27.6136 30.728C27.8754 29.432 28.4088 28.2991 29.2955 27.3817C30.1822 26.4643 31.5005 25.6815 33.4635 25.2127C42.0304 23.1671 47.7377 22.605 50.4385 22.4173C51.723 22.4198 53.0172 22.5229 54.3534 23.3588C55.7184 24.2128 57.3173 25.9569 58.8516 29.6612C60.6921 34.2153 65.1215 44.609 68.6386 52.3675C69.2505 53.8109 69.7632 55.0459 70.2083 56.1181C71.4985 59.226 72.2205 60.9651 73.1438 62.4446C74.1647 64.0806 75.4633 65.4539 77.9429 68.0761C78.5253 68.692 79.1729 69.3769 79.8973 70.1502Z" stroke="white" stroke-width="2.8346" stroke-miterlimit="22.9256"/>
<path d="M161.177 133.446H155.221V156.497H161.177V133.446Z" fill="white"/>
<path fill-rule="evenodd" clip-rule="evenodd" d="M161.18 133.446H158.584V136.658V140.059V143.271V146.483V149.695V153.285V156.497H161.18V153.285H158.584H155.988V156.497H154.613V133.446H155.988V136.658H158.584H161.18V133.446ZM158.584 140.059H155.988V143.271H158.584H161.18V140.059H158.584ZM158.584 146.672H155.988V149.884H158.584H161.18V146.672H158.584Z" fill="#615272"/>
<path fill-rule="evenodd" clip-rule="evenodd" d="M155.987 161.788L159.804 158.576V165L155.987 161.788Z" fill="#F0565D"/>
</g>
<defs>
<clipPath id="clip0">
<rect width="144" height="154" fill="white" transform="translate(26 21)"/>
</clipPath>
</defs>
</svg>
