<svg width="173" height="185" viewBox="0 0 173 185" fill="none" xmlns="http://www.w3.org/2000/svg">
<rect y="177" width="177" height="170" transform="rotate(-90 0 177)" fill="#1878FB"/>
<g clip-path="url(#clip0)" filter="url(#filter0_d)">
<path d="M114.286 191C106.566 191 100.292 183.995 100.292 175.376C100.292 172.101 101.188 169.008 102.858 166.347L26 80.5171L26.1222 80.2214C26.1833 80.0622 32.3556 65.2341 46.2484 50.6107C54.417 42.0141 63.6041 35.1686 73.5653 30.2562C86.0117 24.1157 99.7211 21 114.286 21C128.851 21 142.581 24.1157 155.068 30.2562C165.07 35.1686 174.298 42.0141 182.528 50.6335C196.522 65.2796 202.817 80.1304 202.878 80.2669L203 80.5625L202.796 80.79L125.857 166.597C127.446 169.19 128.281 172.215 128.281 175.376C128.281 183.995 122.007 191 114.286 191ZM26.9778 80.3124L103.938 166.279L103.734 166.597C102.023 169.144 101.127 172.192 101.127 175.399C101.127 183.518 107.034 190.113 114.306 190.113C121.579 190.113 127.486 183.518 127.486 175.399C127.486 172.306 126.631 169.326 125.021 166.825L124.818 166.506L125.062 166.233L202.022 80.3579C201.085 78.2428 194.791 64.6656 181.957 51.2475C169.144 37.8749 147.001 21.9097 114.286 21.9097C81.5709 21.9097 59.53 37.8749 46.8187 51.2702C34.0871 64.6656 27.8945 78.1973 26.9778 80.3124Z" fill="white"/>
<path d="M114.326 145.492C109.906 145.492 106.321 141.49 106.321 136.555C106.321 131.619 109.906 127.617 114.326 127.617C118.747 127.617 122.332 131.619 122.332 136.555C122.332 141.49 118.747 145.492 114.326 145.492ZM114.326 128.049C110.13 128.049 106.728 131.847 106.728 136.532C106.728 141.217 110.13 145.015 114.326 145.015C118.523 145.015 121.925 141.217 121.925 136.532C121.925 131.847 118.523 128.049 114.326 128.049Z" fill="white"/>
<path d="M114.327 138.419C115.249 138.419 115.997 137.584 115.997 136.555C115.997 135.525 115.249 134.69 114.327 134.69C113.404 134.69 112.656 135.525 112.656 136.555C112.656 137.584 113.404 138.419 114.327 138.419Z" fill="white"/>
<path d="M168.431 118.383C168.39 118.292 164.336 109.4 155.679 100.599C147.714 92.5023 134.086 82.8368 114.51 82.8368C94.9134 82.8368 81.1837 92.3886 73.0965 100.371C64.3575 109.036 60.1816 117.815 60.1408 117.906L59.7742 117.701C59.8149 117.61 64.0113 108.763 72.8113 100.03C77.9855 94.913 83.7096 90.8194 89.8208 87.8856C97.4801 84.2241 105.771 82.3592 114.469 82.3592C123.188 82.3592 131.458 84.2468 139.056 87.9538C145.147 90.9331 150.81 95.0722 155.923 100.258C164.622 109.104 168.716 118.065 168.757 118.156L168.431 118.383Z" fill="white"/>
<path d="M86.3577 147.312L86.0929 146.971C89.5355 143.605 91.3078 140.057 91.3689 136.464C91.4096 134.076 90.717 130.437 87.1114 126.571L87.0096 126.457C86.6836 126.093 86.5207 125.729 86.5614 125.365C86.6022 124.91 86.8873 124.615 86.9688 124.546C87.7633 123.66 103.286 106.307 103.795 105.784C104.141 105.42 104.467 105.375 104.671 105.397C104.915 105.42 105.139 105.579 105.282 105.807C109.499 111.174 114.449 110.742 114.489 110.742L114.53 111.197C114.469 111.197 109.315 111.651 104.976 106.102L104.956 106.08C104.915 106.011 104.793 105.875 104.63 105.852C104.467 105.829 104.263 105.92 104.08 106.125C103.571 106.648 87.417 124.706 87.254 124.888L87.2336 124.91C87.2336 124.91 86.9892 125.115 86.9892 125.411C86.9688 125.638 87.0911 125.888 87.3151 126.138L87.417 126.252C91.1244 130.209 91.8578 134.007 91.7967 136.486C91.7152 140.216 89.8818 143.855 86.3577 147.312Z" fill="white"/>
<path d="M142.581 147.312C139.057 143.855 137.224 140.216 137.163 136.464C137.122 133.985 137.835 130.209 141.542 126.229L141.644 126.116C141.889 125.866 141.99 125.615 141.97 125.365C141.95 125.07 141.726 124.865 141.726 124.865L141.705 124.842C141.542 124.66 125.388 106.603 124.879 106.08C124.696 105.875 124.492 105.784 124.329 105.807C124.146 105.829 124.044 105.966 124.003 106.034L123.983 106.057C119.623 111.606 114.47 111.151 114.429 111.151L114.47 110.696C114.51 110.696 119.481 111.128 123.677 105.761C123.82 105.534 124.044 105.375 124.288 105.352C124.492 105.329 124.798 105.375 125.164 105.738C125.674 106.262 141.196 123.637 141.99 124.501C142.072 124.569 142.357 124.865 142.398 125.32C142.418 125.684 142.276 126.07 141.95 126.411L141.848 126.525C138.242 130.369 137.55 134.03 137.59 136.418C137.651 140.011 139.444 143.559 142.866 146.925L142.581 147.312Z" fill="white"/>
<path d="M75.6422 135.304L78.2293 132.279L79.1052 133.189L76.4774 136.259L75.6422 135.304Z" fill="white"/>
<path d="M76.478 136.418L75.4799 135.304L78.2095 132.097L79.228 133.166L76.478 136.418ZM75.7854 135.304L76.478 136.077L78.9429 133.189L78.2095 132.415L75.7854 135.304Z" fill="white"/>
<path d="M153.356 135.304L150.769 132.279L149.893 133.189L152.5 136.259L153.356 135.304Z" fill="white"/>
<path d="M152.501 136.418L149.751 133.189L150.77 132.12L153.499 135.326L152.501 136.418ZM150.036 133.211L152.501 136.1L153.194 135.326L150.749 132.461L150.036 133.211Z" fill="white"/>
<path d="M116.862 94.3704L114.586 91.8296L112.31 94.3704L114.586 96.9112L116.862 94.3704Z" fill="white"/>
<path d="M72.6486 147.357L72.3634 147.039L74.4616 144.651L69.0634 138.715L66.9652 141.08L66.6801 140.762L69.0634 138.055L75.032 144.651L72.6486 147.357Z" fill="white"/>
<path d="M156.351 147.357L153.947 144.651L159.916 138.055L162.299 140.762L162.014 141.08L159.916 138.715L154.538 144.651L156.636 147.039L156.351 147.357Z" fill="white"/>
<path d="M110.437 177.195H105.344V168.167H110.437V177.195ZM105.731 176.74H110.009V168.621H105.731V176.74Z" fill="white"/>
<path d="M123.046 177.195H117.953V168.167H123.046V177.195ZM118.361 176.74H122.639V168.621H118.361V176.74Z" fill="white"/>
<path d="M115.875 174.33L114.796 176.399C114.572 176.832 114.022 176.832 113.798 176.399L112.718 174.33C112.494 173.898 112.779 173.352 113.227 173.352H115.366C115.814 173.352 116.099 173.898 115.875 174.33Z" fill="white"/>
<path d="M114.286 176.831C114.041 176.831 113.817 176.695 113.695 176.445L112.615 174.375C112.493 174.148 112.493 173.852 112.615 173.602C112.737 173.352 112.962 173.215 113.206 173.215H115.345C115.589 173.215 115.813 173.352 115.936 173.602C116.058 173.852 116.058 174.125 115.936 174.375L114.856 176.445C114.754 176.695 114.53 176.831 114.286 176.831ZM113.206 173.466C113.023 173.466 112.88 173.557 112.799 173.738C112.717 173.898 112.717 174.102 112.799 174.284L113.878 176.354C113.96 176.513 114.123 176.627 114.286 176.627C114.469 176.627 114.612 176.536 114.693 176.354L115.773 174.284C115.854 174.125 115.854 173.92 115.773 173.738C115.691 173.579 115.528 173.466 115.365 173.466H113.206Z" fill="white"/>
</g>
<defs>
<filter id="filter0_d" x="22" y="21" width="151" height="164" filterUnits="userSpaceOnUse" color-interpolation-filters="sRGB">
<feFlood flood-opacity="0" result="BackgroundImageFix"/>
<feColorMatrix in="SourceAlpha" type="matrix" values="0 0 0 0 0 0 0 0 0 0 0 0 0 0 0 0 0 0 127 0"/>
<feOffset dy="4"/>
<feGaussianBlur stdDeviation="2"/>
<feColorMatrix type="matrix" values="0 0 0 0 0 0 0 0 0 0 0 0 0 0 0 0 0 0 0.25 0"/>
<feBlend mode="normal" in2="BackgroundImageFix" result="effect1_dropShadow"/>
<feBlend mode="normal" in="SourceGraphic" in2="effect1_dropShadow" result="shape"/>
</filter>
<clipPath id="clip0">
<rect width="143" height="156" fill="white" transform="translate(26 21)"/>
</clipPath>
</defs>
</svg>
