<svg width="176" height="175" viewBox="0 0 176 175" fill="none" xmlns="http://www.w3.org/2000/svg">
<rect x="3.27026" width="170.27" height="175" fill="#EC4C15"/>
<mask id="mask0" mask-type="alpha" maskUnits="userSpaceOnUse" x="0" y="0" width="176" height="175">
<rect x="0.270264" width="175" height="175" fill="#C4C4C4"/>
</mask>
<g mask="url(#mask0)">
<path d="M-222.021 1064.89L342.709 1064.89L342.709 567.706L352.841 567.706L352.841 565.417L342.709 565.417L342.709 475.241L352.841 475.241L352.841 472.915L342.709 472.915L342.709 -24.306L-222.021 -24.3061L-222.021 1064.89ZM-6.01702 519.147C-5.94518 515.75 -5.65777 512.426 -5.15478 509.177C-5.11883 508.992 -5.08288 508.808 -5.04696 508.623C-4.79546 507.183 -4.54394 505.78 -4.18465 504.376C-4.00503 503.564 -3.78945 502.715 -3.57387 501.939C-3.39425 501.201 -3.14272 500.425 -2.92715 499.687C0.378305 488.978 6.19877 479.414 13.7798 471.733C14.8936 470.588 16.0792 469.48 17.2649 468.447C18.0553 467.745 18.8817 467.043 19.708 466.416C20.3548 465.899 21.0374 465.382 21.72 464.865C32.6065 456.852 45.9361 452.125 60.3077 452.125C74.4637 452.125 87.5777 456.704 98.3563 464.495C99.2186 465.123 100.081 465.751 100.907 466.416C101.734 467.08 102.56 467.745 103.35 468.447C103.961 468.964 104.536 469.517 105.111 470.071C105.686 470.625 106.261 471.179 106.836 471.733C110.213 475.13 113.231 478.934 115.818 482.996C116.393 483.882 116.967 484.805 117.506 485.765C121.279 492.338 123.974 499.576 125.447 507.294C125.662 508.401 125.842 509.509 125.986 510.617C126.381 513.424 126.596 516.267 126.632 519.184L-6.01702 519.184L-6.01702 519.147ZM128.932 519.147C128.321 480.78 97.7815 449.762 60.3436 449.762C22.8698 449.762 -7.63384 480.78 -8.24465 519.147L-219.794 519.147L-219.794 220.815L-204.057 220.815L-204.057 218.525L-219.794 218.525L-219.794 -21.9797L-188.284 -21.9797L-188.284 144.376L-188.176 144.598C-145.708 247.181 -48.1616 313.501 60.3436 313.501C168.849 313.501 266.36 247.181 308.864 144.598L308.935 144.376L308.935 -21.9796L340.445 -21.9796L340.445 218.525L324.708 218.525L324.708 220.815L340.445 220.815L340.445 519.11L128.932 519.11L128.932 519.147ZM-73.5274 -21.9797L-30.772 -21.9797L-30.772 56.6377L-40.904 56.6377L-40.904 58.9641L-30.772 58.9641L-30.772 68.1958L-40.904 68.1958L-40.904 70.5222L-30.772 70.5222L-30.772 102.907L-40.904 102.907L-40.904 105.197L-30.772 105.197L-30.772 137.581L-40.904 137.581L-40.904 139.908L-30.772 139.908L-30.772 197.735L-8.24464 197.735C-7.63383 236.102 22.8698 267.121 60.3436 267.121C97.8174 267.121 128.321 236.102 128.932 197.735L151.459 197.735L151.459 139.908L161.591 139.908L161.591 137.581L151.459 137.581L151.459 105.197L161.591 105.197L161.591 102.907L151.459 102.907L151.459 70.5222L161.591 70.5222L161.591 68.1959L151.459 68.1959L151.459 58.9641L161.591 58.9641L161.591 56.6377L151.459 56.6377L151.459 -21.9796L194.215 -21.9796L194.215 -11.5663L196.442 -11.5663L196.442 -21.9796L306.708 -21.9796L306.708 143.933C264.527 245.556 167.843 311.175 60.3436 311.175C-47.1556 311.175 -143.84 245.519 -186.021 143.933L-186.021 -21.9797L-75.7909 -21.9797L-75.7909 -11.5663L-73.5274 -11.5663L-73.5274 -21.9797ZM-28.5444 -21.9797L-8.28055 -21.9797L-8.28056 195.372L-28.5085 195.372L-28.5085 -21.9797L-28.5444 -21.9797ZM128.968 -21.9796L149.232 -21.9796L149.232 195.372L128.968 195.372L128.968 -21.9796ZM-6.01701 197.698L126.668 197.698C126.057 234.773 96.5599 264.758 60.3436 264.758C24.1273 264.758 -5.40623 234.773 -6.01701 197.698ZM-219.794 1062.56L-219.794 822.059L-204.057 822.059L-204.057 819.769L-219.794 819.769L-219.794 521.474L-8.24465 521.474C-7.63384 559.841 22.8698 590.859 60.3436 590.859C97.8174 590.859 128.321 559.841 128.932 521.474L340.445 521.474L340.445 819.769L324.708 819.769L324.708 822.059L340.445 822.059L340.445 1062.56L308.935 1062.56L308.935 896.208L308.864 895.986C266.36 793.366 168.813 727.083 60.3436 727.083C-48.1257 727.083 -145.673 793.366 -188.176 895.949L-188.284 896.171L-188.284 1062.53L-219.794 1062.53L-219.794 1062.56ZM-6.01702 521.437L126.668 521.437C126.632 524.317 126.381 527.197 126.022 530.004C125.878 531.112 125.698 532.219 125.483 533.327C123.974 541.266 121.135 548.689 117.219 555.372C116.788 556.148 116.321 556.886 115.854 557.625C103.997 576.236 83.5177 588.533 60.3436 588.533C39.9719 588.533 21.72 579.043 9.54014 564.161C8.85749 563.349 8.21079 562.499 7.56406 561.613C4.3664 557.33 1.67173 552.603 -0.484003 547.581C-0.915155 546.584 -1.31036 545.55 -1.70556 544.553C-2.06484 543.519 -2.46008 542.485 -2.78344 541.414C-3.10677 540.38 -3.43017 539.309 -3.71761 538.238C-3.86132 537.684 -4.00503 537.167 -4.11282 536.614C-4.50805 534.989 -4.83138 533.364 -5.1188 531.702C-5.19067 531.296 -5.26251 530.853 -5.29845 530.447C-5.72961 527.493 -5.9811 524.465 -6.01702 521.437ZM128.968 845.175L149.232 845.175L149.232 1062.53L128.968 1062.53L128.968 845.175ZM-73.5274 1062.56L-73.5274 1052.15L-75.7909 1052.15L-75.7909 1062.56L-186.021 1062.56L-186.021 896.651C-143.804 795.028 -47.1556 729.372 60.3436 729.372C167.843 729.372 264.527 795.028 306.708 896.651L306.708 1062.56L196.442 1062.56L196.442 1052.15L194.215 1052.15L194.215 1062.56L151.459 1062.56L151.459 983.946L161.591 983.946L161.591 981.657L151.459 981.657L151.459 972.388L161.591 972.388L161.591 970.062L151.459 970.062L151.459 937.677L161.591 937.677L161.591 935.387L151.459 935.387L151.459 903.002L161.591 903.002L161.591 900.676L151.459 900.676L151.459 842.848L128.932 842.848C128.321 804.481 97.7815 773.463 60.3436 773.463C22.8697 773.463 -7.63385 804.481 -8.24467 842.848L-30.772 842.848L-30.772 900.676L-40.904 900.676L-40.904 903.002L-30.772 903.002L-30.772 935.387L-40.904 935.387L-40.904 937.677L-30.772 937.677L-30.772 970.062L-40.904 970.062L-40.904 972.388L-30.772 972.388L-30.772 981.657L-40.904 981.657L-40.904 983.946L-30.772 983.946L-30.772 1062.56L-73.5274 1062.56ZM126.668 842.885L-6.01704 842.885C-5.40625 805.811 24.1273 775.826 60.3436 775.826C96.5599 775.826 126.057 805.811 126.668 842.885ZM-28.5445 1062.56L-28.5445 845.212L-8.28059 845.212L-8.28059 1062.56L-28.5445 1062.56ZM-6.01704 942.293C-6.01704 915.077 -6.01704 888.859 -6.01704 870.544C-6.01704 855.367 -6.01704 845.581 -6.01704 845.175L126.668 845.175C126.632 846.172 126.668 907.803 126.668 965.15C126.668 986.642 126.668 1007.51 126.668 1024.38C126.668 1047.05 126.668 1062.53 126.668 1062.53L-6.08894 1062.53C-6.05299 1062.56 -6.01704 1000.23 -6.01704 942.293ZM126.704 -21.9796C126.704 -21.9796 126.704 -16.2929 126.704 -6.76576C126.704 11.6238 126.704 44.3411 126.704 78.1661C126.704 134.701 126.668 194.375 126.704 195.372L-5.98109 195.372C-5.98109 194.375 -5.98109 136.215 -5.98108 80.3079C-5.98108 28.1671 -6.017 -22.0166 -6.017 -22.0166L126.704 -22.0166L126.704 -21.9796Z" fill="white"/>
<path d="M7.35178 151.725C10.1902 148.18 13.3878 144.894 16.8729 141.977L18.2742 143.786C14.9328 146.592 11.8429 149.805 9.07639 153.202L7.35178 151.725Z" fill="white"/>
<path d="M102.335 143.713L103.773 141.904C107.222 144.821 110.419 148.108 113.294 151.653L111.533 153.13C108.767 149.732 105.677 146.557 102.335 143.713Z" fill="white"/>
<path d="M-5.34053 175.95C-4.04709 171.556 -2.28657 167.273 -0.166762 163.211L1.80933 164.319C-0.23862 168.233 -1.92729 172.406 -3.1848 176.652L-5.34053 175.95Z" fill="white"/>
<path d="M118.8 164.244L120.776 163.136C122.896 167.198 124.657 171.482 125.95 175.876L123.794 176.541C122.537 172.294 120.848 168.158 118.8 164.244Z" fill="white"/>
<path d="M28.0054 134.333C31.9576 132.154 36.1254 130.382 40.4009 129.052L41.0476 131.268C36.9158 132.56 32.8918 134.259 29.0474 136.364L28.0054 134.333Z" fill="white"/>
<path d="M53.5438 126.357C55.7714 126.136 58.0708 126.025 60.2984 126.025C62.526 126.025 64.7895 126.136 66.9812 126.357L66.7656 128.647C64.6458 128.425 62.4542 128.351 60.2984 128.351C58.1068 128.351 55.9151 128.462 53.7594 128.684L53.5438 126.357Z" fill="white"/>
<path d="M79.532 131.23L80.1787 129.015C84.4543 130.344 88.622 132.117 92.6101 134.295L91.5682 136.326C87.7238 134.221 83.6638 132.486 79.532 131.23Z" fill="white"/>
<path d="M26.6396 24.2919L55.8498 24.2919L57.5025 26.6183C53.6222 27.8738 50.7838 31.6034 50.7838 35.9977C50.7838 41.426 55.0953 45.8203 60.3409 45.8203C65.6224 45.8203 69.8979 41.3891 69.8979 35.9977C69.8979 31.6034 67.0596 27.8738 63.1793 26.6183L64.832 24.2919L94.114 24.2919L94.114 22.0024L26.6036 22.0024L26.6036 24.2919L26.6396 24.2919ZM67.6344 35.9977C67.6344 40.1705 64.3649 43.5308 60.3409 43.5308C56.3168 43.5308 53.0114 40.1705 53.0114 35.9977C53.0114 31.8619 56.3168 28.5016 60.3409 28.5016C64.3649 28.4647 67.6344 31.8619 67.6344 35.9977Z" fill="white"/>
<path d="M14.208 35.9956L16.4715 35.9956C16.4715 60.8843 36.1606 81.0834 60.3407 81.0834C84.5568 81.0834 104.21 60.8474 104.21 35.9956L106.473 35.9956C106.473 62.1399 85.7783 83.4097 60.3407 83.4097C34.903 83.4097 14.208 62.1398 14.208 35.9956Z" fill="white"/>
</g>
</svg>
