<svg width="171" height="177" viewBox="0 0 171 177" fill="none" xmlns="http://www.w3.org/2000/svg">
<rect width="170.27" height="175" fill="#91442A"/>
<g clip-path="url(#clip0)">
<path d="M564.868 -171.135L23.168 -171.135L23.168 924.081L564.868 924.081L564.868 -171.135ZM24.9722 -100.578L24.9722 -169.231L563.064 -169.231L563.064 -100.578L24.9722 -100.578ZM24.9722 -52.9678L24.9722 -60.5854L41.9313 -60.5854L41.9313 -62.4898L24.9722 -62.4898L24.9722 -70.1074L41.9313 -70.1074L41.9313 -72.0117L24.9722 -72.0117L24.9722 -79.6293L41.9313 -79.6293L41.9313 -81.5337L24.9722 -81.5337L24.9722 -89.1513L41.9313 -89.1513L41.9313 -91.0557L24.9722 -91.0557L24.9722 -98.6733L563.064 -98.6732L563.064 -91.0557L546.105 -91.0557L546.105 -89.1513L563.064 -89.1513L563.064 -81.5337L546.105 -81.5337L546.105 -79.6293L563.064 -79.6293L563.064 -72.0117L546.105 -72.0117L546.105 -70.1073L563.064 -70.1073L563.064 -62.4898L546.105 -62.4898L546.105 -60.5854L563.064 -60.5854L563.064 -52.9678L24.9722 -52.9678ZM24.9722 -5.35798L24.9722 -12.9756L41.9313 -12.9756L41.9313 -14.88L24.9722 -14.88L24.9722 -22.4975L41.9313 -22.4975L41.9313 -24.4019L24.9722 -24.4019L24.9722 -32.0195L41.9313 -32.0195L41.9313 -33.9239L24.9722 -33.9239L24.9722 -41.5415L41.9313 -41.5415L41.9313 -43.4459L24.9722 -43.4459L24.9722 -51.0634L563.064 -51.0634L563.064 -43.4458L546.105 -43.4458L546.105 -41.5414L563.064 -41.5414L563.064 -33.9239L546.105 -33.9239L546.105 -32.0195L563.064 -32.0195L563.064 -24.4019L546.105 -24.4019L546.105 -22.4975L563.064 -22.4975L563.064 -14.8799L546.105 -14.8799L546.105 -12.9755L563.064 -12.9755L563.064 -5.35796L24.9722 -5.35798ZM24.9722 42.2519L24.9722 34.6343L41.9313 34.6343L41.9313 32.7299L24.9722 32.7299L24.9722 25.1123L41.9313 25.1123L41.9313 23.2079L24.9722 23.2079L24.9722 15.5903L41.9313 15.5903L41.9313 13.686L24.9722 13.686L24.9722 6.06837L41.9313 6.06837L41.9313 4.16398L24.9722 4.16398L24.9722 -3.45359L563.064 -3.45357L563.064 4.164L546.105 4.164L546.105 6.06839L563.064 6.06839L563.064 13.686L546.105 13.686L546.105 15.5904L563.064 15.5904L563.064 23.2079L546.105 23.2079L546.105 25.1123L563.064 25.1123L563.064 32.7299L546.105 32.7299L546.105 34.6343L563.064 34.6343L563.064 42.2519L24.9722 42.2519ZM24.9722 89.8617L24.9722 82.2441L41.9313 82.2441L41.9313 80.3397L24.9722 80.3397L24.9722 72.7221L41.9313 72.7221L41.9313 70.8177L24.9722 70.8177L24.9722 63.2002L41.9313 63.2002L41.9313 61.2958L24.9722 61.2958L24.9722 53.6782L41.9313 53.6782L41.9313 51.7738L24.9722 51.7738L24.9722 44.1562L563.064 44.1563L563.064 51.7738L546.105 51.7738L546.105 53.6782L563.064 53.6782L563.064 61.2958L546.105 61.2958L546.105 63.2002L563.064 63.2002L563.064 70.8178L546.105 70.8178L546.105 72.7222L563.064 72.7222L563.064 80.3397L546.105 80.3397L546.105 82.2441L563.064 82.2441L563.064 89.8617L24.9722 89.8617ZM24.9722 137.472L24.9722 129.854L41.9313 129.854L41.9313 127.95L24.9722 127.95L24.9722 120.332L41.9313 120.332L41.9313 118.428L24.9722 118.428L24.9722 110.81L41.9313 110.81L41.9313 108.906L24.9722 108.906L24.9722 101.288L41.9313 101.288L41.9313 99.3836L24.9722 99.3836L24.9722 91.7661L563.064 91.7661L563.064 99.3837L546.105 99.3837L546.105 101.288L563.064 101.288L563.064 108.906L546.105 108.906L546.105 110.81L563.064 110.81L563.064 118.428L546.105 118.428L546.105 120.332L563.064 120.332L563.064 127.95L546.105 127.95L546.105 129.854L563.064 129.854L563.064 137.472L24.9722 137.472ZM24.9722 185.081L24.9722 177.464L41.9313 177.464L41.9313 175.559L24.9722 175.559L24.9722 167.942L41.9313 167.942L41.9313 166.037L24.9722 166.037L24.9722 158.42L41.9313 158.42L41.9313 156.515L24.9722 156.515L24.9722 148.898L41.9313 148.898L41.9313 146.993L24.9722 146.993L24.9722 139.376L563.064 139.376L563.064 146.993L546.105 146.993L546.105 148.898L563.064 148.898L563.064 156.515L546.105 156.515L546.105 158.42L563.064 158.42L563.064 166.037L546.105 166.037L546.105 167.942L563.064 167.942L563.064 175.559L546.105 175.559L546.105 177.464L563.064 177.464L563.064 185.081L24.9722 185.081ZM24.9722 232.691L24.9722 225.074L41.9313 225.074L41.9313 223.169L24.9722 223.169L24.9722 215.552L41.9313 215.552L41.9313 213.647L24.9722 213.647L24.9722 206.03L41.9313 206.03L41.9313 204.125L24.9722 204.125L24.9722 196.508L41.9313 196.508L41.9313 194.603L24.9722 194.603L24.9722 186.986L563.064 186.986L563.064 194.603L546.105 194.603L546.105 196.508L563.064 196.508L563.064 204.125L546.105 204.125L546.105 206.03L563.064 206.03L563.064 213.647L546.105 213.647L546.105 215.552L563.064 215.552L563.064 223.169L546.105 223.169L546.105 225.074L563.064 225.074L563.064 232.691L24.9722 232.691ZM24.9721 280.301L24.9721 272.683L41.9313 272.683L41.9313 270.779L24.9721 270.779L24.9721 263.161L41.9313 263.161L41.9313 261.257L24.9721 261.257L24.9721 253.64L41.9313 253.64L41.9313 251.735L24.9721 251.735L24.9721 244.118L41.9313 244.118L41.9313 242.213L24.9721 242.213L24.9722 234.596L563.064 234.596L563.064 242.213L546.105 242.213L546.105 244.118L563.064 244.118L563.064 251.735L546.105 251.735L546.105 253.64L563.064 253.64L563.064 261.257L546.105 261.257L546.105 263.161L563.064 263.161L563.064 270.779L546.105 270.779L546.105 272.683L563.064 272.683L563.064 280.301L24.9721 280.301ZM24.9721 327.911L24.9721 320.293L41.9313 320.293L41.9313 318.389L24.9721 318.389L24.9721 310.771L41.9313 310.771L41.9313 308.867L24.9721 308.867L24.9721 301.249L41.9313 301.249L41.9313 299.345L24.9721 299.345L24.9721 291.727L41.9313 291.727L41.9313 289.823L24.9721 289.823L24.9721 282.205L563.064 282.205L563.064 289.823L546.105 289.823L546.105 291.727L563.064 291.727L563.064 299.345L546.105 299.345L546.105 301.249L563.064 301.249L563.064 308.867L546.105 308.867L546.105 310.771L563.064 310.771L563.064 318.389L546.105 318.389L546.105 320.293L563.064 320.293L563.064 327.911L24.9721 327.911ZM24.9721 375.521L24.9721 367.903L41.9313 367.903L41.9313 365.999L24.9721 365.999L24.9721 358.381L41.9313 358.381L41.9313 356.477L24.9721 356.477L24.9721 348.859L41.9313 348.859L41.9313 346.955L24.9721 346.955L24.9721 339.337L41.9313 339.337L41.9313 337.433L24.9721 337.433L24.9721 329.815L563.064 329.815L563.064 337.433L546.105 337.433L546.105 339.337L563.064 339.337L563.064 346.955L546.105 346.955L546.105 348.859L563.064 348.859L563.064 356.477L546.105 356.477L546.105 358.381L563.064 358.381L563.064 365.999L546.105 365.999L546.105 367.903L563.064 367.903L563.064 375.521L24.9721 375.521ZM24.9721 423.131L24.9721 415.513L41.9313 415.513L41.9313 413.609L24.9721 413.609L24.9721 405.991L41.9313 405.991L41.9313 404.087L24.9721 404.087L24.9721 396.469L41.9313 396.469L41.9313 394.565L24.9721 394.565L24.9721 386.947L41.9313 386.947L41.9313 385.043L24.9721 385.043L24.9721 377.425L563.064 377.425L563.064 385.043L546.105 385.043L546.105 386.947L563.064 386.947L563.064 394.565L546.105 394.565L546.105 396.469L563.064 396.469L563.064 404.087L546.105 404.087L546.105 405.991L563.064 405.991L563.064 413.609L546.105 413.609L546.105 415.513L563.064 415.513L563.064 423.131L24.9721 423.131ZM24.9721 470.74L24.9721 463.123L41.9313 463.123L41.9313 461.218L24.9721 461.218L24.9721 453.601L41.9313 453.601L41.9313 451.696L24.9721 451.696L24.9721 444.079L41.9313 444.079L41.9313 442.174L24.9721 442.174L24.9721 434.557L41.9313 434.557L41.9313 432.652L24.9721 432.652L24.9721 425.035L563.064 425.035L563.064 432.652L546.105 432.652L546.105 434.557L563.064 434.557L563.064 442.174L546.105 442.174L546.105 444.079L563.064 444.079L563.064 451.696L546.105 451.696L546.105 453.601L563.064 453.601L563.064 461.218L546.105 461.218L546.105 463.123L563.064 463.123L563.064 470.74L24.9721 470.74ZM24.9721 518.35L24.9721 510.733L41.9313 510.733L41.9313 508.828L24.9721 508.828L24.9721 501.211L41.9313 501.211L41.9313 499.306L24.9721 499.306L24.9721 491.689L41.9313 491.689L41.9313 489.784L24.9721 489.784L24.9721 482.167L41.9313 482.167L41.9313 480.262L24.9721 480.262L24.9721 472.645L563.064 472.645L563.064 480.262L546.105 480.262L546.105 482.167L563.064 482.167L563.064 489.784L546.105 489.784L546.105 491.689L563.064 491.689L563.064 499.306L546.105 499.306L546.105 501.211L563.064 501.211L563.064 508.828L546.105 508.828L546.105 510.733L563.064 510.733L563.064 518.35L24.9721 518.35ZM24.9721 565.96L24.9721 558.342L41.9313 558.342L41.9313 556.438L24.9721 556.438L24.9721 548.82L41.9313 548.82L41.9313 546.916L24.9721 546.916L24.9721 539.298L41.9313 539.298L41.9313 537.394L24.9721 537.394L24.9721 529.776L41.9313 529.776L41.9313 527.872L24.9721 527.872L24.9721 520.255L563.064 520.255L563.064 527.872L546.105 527.872L546.105 529.777L563.064 529.777L563.064 537.394L546.105 537.394L546.105 539.298L563.064 539.298L563.064 546.916L546.105 546.916L546.105 548.82L563.064 548.82L563.064 556.438L546.105 556.438L546.105 558.342L563.064 558.342L563.064 565.96L24.9721 565.96ZM24.9721 613.57L24.9721 605.952L41.9313 605.952L41.9313 604.048L24.9721 604.048L24.9721 596.43L41.9313 596.43L41.9313 594.526L24.9721 594.526L24.9721 586.908L41.9313 586.908L41.9313 585.004L24.9721 585.004L24.9721 577.386L41.9313 577.386L41.9313 575.482L24.9721 575.482L24.9721 567.864L563.064 567.864L563.064 575.482L546.105 575.482L546.105 577.386L563.064 577.386L563.064 585.004L546.105 585.004L546.105 586.908L563.064 586.908L563.064 594.526L546.105 594.526L546.105 596.43L563.064 596.43L563.064 604.048L546.105 604.048L546.105 605.952L563.064 605.952L563.064 613.57L24.9721 613.57ZM24.9721 661.18L24.9721 653.562L41.9313 653.562L41.9313 651.658L24.9721 651.658L24.9721 644.04L41.9313 644.04L41.9313 642.136L24.9721 642.136L24.9721 634.518L41.9313 634.518L41.9313 632.614L24.9721 632.614L24.9721 624.996L41.9313 624.996L41.9313 623.092L24.9721 623.092L24.9721 615.474L563.064 615.474L563.064 623.092L546.105 623.092L546.105 624.996L563.064 624.996L563.064 632.614L546.105 632.614L546.105 634.518L563.064 634.518L563.064 642.136L546.105 642.136L546.105 644.04L563.064 644.04L563.064 651.658L546.105 651.658L546.105 653.562L563.064 653.562L563.064 661.18L24.9721 661.18ZM24.9721 708.789L24.9721 701.172L41.9313 701.172L41.9313 699.268L24.9721 699.268L24.9721 691.65L41.9313 691.65L41.9313 689.746L24.9721 689.746L24.9721 682.128L41.9313 682.128L41.9313 680.224L24.9721 680.224L24.9721 672.606L41.9313 672.606L41.9313 670.702L24.9721 670.702L24.9721 663.084L563.064 663.084L563.064 670.702L546.105 670.702L546.105 672.606L563.064 672.606L563.064 680.224L546.105 680.224L546.105 682.128L563.064 682.128L563.064 689.746L546.105 689.746L546.105 691.65L563.064 691.65L563.064 699.268L546.105 699.268L546.105 701.172L563.064 701.172L563.064 708.79L24.9721 708.789ZM24.9721 756.399L24.9721 748.782L41.9313 748.782L41.9313 746.877L24.9721 746.877L24.9721 739.26L41.9313 739.26L41.9313 737.355L24.9721 737.355L24.9721 729.738L41.9313 729.738L41.9313 727.833L24.9721 727.833L24.9721 720.216L41.9313 720.216L41.9313 718.311L24.9721 718.311L24.9721 710.694L563.064 710.694L563.064 718.311L546.105 718.311L546.105 720.216L563.064 720.216L563.064 727.833L546.105 727.833L546.105 729.738L563.064 729.738L563.064 737.355L546.105 737.355L546.105 739.26L563.064 739.26L563.064 746.877L546.105 746.877L546.105 748.782L563.064 748.782L563.064 756.399L24.9721 756.399ZM24.9721 804.009L24.9721 796.392L41.9313 796.392L41.9313 794.487L24.9721 794.487L24.9721 786.87L41.9313 786.87L41.9313 784.965L24.9721 784.965L24.9721 777.348L41.9313 777.348L41.9313 775.443L24.9721 775.443L24.9721 767.826L41.9313 767.826L41.9313 765.921L24.9721 765.921L24.9721 758.304L563.064 758.304L563.064 765.921L546.105 765.921L546.105 767.826L563.064 767.826L563.064 775.443L546.105 775.443L546.105 777.348L563.064 777.348L563.064 784.965L546.105 784.965L546.105 786.87L563.064 786.87L563.064 794.487L546.105 794.487L546.105 796.392L563.064 796.392L563.064 804.009L24.9721 804.009ZM24.9721 851.619L24.9721 844.001L41.9313 844.001L41.9313 842.097L24.9721 842.097L24.9721 834.479L41.9313 834.479L41.9313 832.575L24.9721 832.575L24.9721 824.957L41.9313 824.957L41.9313 823.053L24.9721 823.053L24.9721 815.435L41.9313 815.435L41.9313 813.531L24.9721 813.531L24.9721 805.914L563.064 805.914L563.064 813.531L546.105 813.531L546.105 815.436L563.064 815.436L563.064 823.053L546.105 823.053L546.105 824.957L563.064 824.957L563.064 832.575L546.105 832.575L546.105 834.479L563.064 834.479L563.064 842.097L546.105 842.097L546.105 844.001L563.064 844.001L563.064 851.619L24.9721 851.619ZM24.9721 922.177L24.9721 853.523L563.064 853.523L563.064 922.177L24.9721 922.177Z" fill="white"/>
<path d="M98.5822 88.2425L95.9662 88.2425L95.9662 71.1982L97.1389 71.1982C98.6724 71.1982 99.9353 71.3886 101.108 71.6743C102.191 72.0552 103.273 72.5313 104.085 73.1978C104.987 73.8644 105.799 74.8166 106.521 75.864C107.242 76.9114 107.964 78.1492 108.686 79.6728C109.137 80.4345 109.497 81.1011 109.948 81.6724C110.399 82.2437 110.76 82.7198 111.211 83.0055C111.662 83.3863 112.113 83.672 112.564 83.7672C113.015 83.9577 113.557 84.0529 114.008 84.0529C114.549 84.0529 115.09 83.9577 115.632 83.672C116.083 83.3863 116.534 83.1007 116.894 82.6246C117.255 82.1485 117.526 81.6724 117.706 81.0058C117.887 80.4345 117.977 79.6728 117.977 78.911C117.977 78.2445 117.887 77.5779 117.797 76.9114C117.706 76.3401 117.526 75.6735 117.346 75.1022C117.165 74.5309 116.894 73.9596 116.714 73.4835C116.443 72.9122 116.173 72.4361 115.992 71.96L118.248 70.9126C118.518 71.2934 118.789 71.7695 119.059 72.4361C119.33 73.0074 119.601 73.6739 119.871 74.4357C120.142 75.1974 120.322 75.9592 120.503 76.7209C120.683 77.5779 120.773 78.3397 120.773 79.2919C120.773 80.5297 120.593 81.7676 120.322 82.815C120.052 83.8625 119.601 84.7194 118.969 85.4812C118.428 86.2429 117.706 86.8142 116.894 87.1951C116.083 87.576 115.181 87.7664 114.098 87.7664C113.196 87.7664 112.294 87.576 111.572 87.2903C110.851 86.9095 110.129 86.4334 109.588 85.862C108.956 85.2907 108.415 84.529 107.964 83.7672C107.513 83.0055 106.972 82.1485 106.521 81.2915C105.979 80.4345 105.528 79.5775 104.987 78.8158C104.446 78.054 103.904 77.3875 103.273 76.8162C102.642 76.2449 102.01 75.7688 101.198 75.4831C100.477 75.1022 99.5745 74.9118 98.5822 74.9118L98.5822 88.2425Z" fill="white"/>
<path d="M108.059 92.7184C109.953 92.7184 111.757 92.9089 113.291 93.2898C114.824 93.6706 116.178 94.242 117.26 95.0037C118.343 95.7655 119.245 96.7177 119.786 97.8603C120.417 99.0029 120.688 100.336 120.688 101.764C120.688 103.288 120.417 104.621 119.786 105.764C119.154 106.906 118.343 107.858 117.26 108.715C116.178 109.477 114.824 110.144 113.291 110.525C111.757 110.905 109.953 111.096 108.059 111.096C106.164 111.096 104.36 110.905 102.827 110.525C101.293 110.144 100.03 109.477 98.9478 108.715C97.8653 107.954 97.0534 106.906 96.5122 105.764C95.9709 104.621 95.7003 103.288 95.7003 101.764C95.7003 100.241 95.9709 99.0029 96.5122 97.8603C97.0534 96.7177 97.8653 95.7655 98.9478 95.0037C100.03 94.242 101.293 93.6706 102.827 93.2898C104.36 92.9089 106.164 92.7184 108.059 92.7184ZM108.059 96.432C106.525 96.432 105.172 96.5272 103.909 96.8129C102.737 97.0033 101.654 97.3842 100.842 97.8603C100.03 98.3364 99.3087 98.9077 98.9478 99.5742C98.4968 100.241 98.3164 101.003 98.3164 101.955C98.3164 102.907 98.4968 103.669 98.9478 104.335C99.3989 105.002 100.03 105.573 100.842 106.049C101.654 106.525 102.737 106.906 103.909 107.097C105.082 107.382 106.525 107.477 108.059 107.477C109.592 107.477 111.036 107.382 112.208 107.097C113.471 106.811 114.554 106.525 115.366 106.049C116.268 105.573 116.899 105.002 117.35 104.335C117.801 103.669 118.072 102.812 118.072 101.955C118.072 101.098 117.801 100.241 117.35 99.5742C116.899 98.9077 116.178 98.3364 115.366 97.8603C114.464 97.3842 113.471 97.0985 112.208 96.8129C111.036 96.5272 109.592 96.432 108.059 96.432Z" fill="white"/>
<path d="M114.008 182.701C112.745 182.701 111.572 182.32 110.67 181.558C109.768 180.797 109.046 179.749 108.505 178.416C108.054 180.035 107.242 181.368 106.25 182.225C105.258 183.082 103.995 183.558 102.551 183.558C101.559 183.558 100.567 183.368 99.7549 182.891C98.9431 182.415 98.1312 181.844 97.5899 180.987C96.9585 180.13 96.5074 179.083 96.1466 177.94C95.7858 176.702 95.6053 175.369 95.6053 173.846C95.6053 173.179 95.6054 172.417 95.6956 171.751C95.7858 170.989 95.8759 170.322 96.0564 169.656C96.2368 168.989 96.4172 168.323 96.5976 167.752C96.7781 167.18 97.0487 166.609 97.3193 166.228L99.4843 167.371C99.1234 168.228 98.8528 169.18 98.5822 170.132C98.3116 171.084 98.2214 172.227 98.2214 173.465C98.2214 174.417 98.3116 175.274 98.492 176.131C98.6724 176.988 98.9431 177.654 99.3039 178.226C99.6647 178.797 100.116 179.273 100.657 179.559C101.198 179.844 101.83 180.035 102.551 180.035C103.363 180.035 103.995 179.844 104.626 179.559C105.167 179.273 105.618 178.797 106.07 178.226C106.43 177.654 106.701 176.988 106.881 176.226C107.062 175.464 107.152 174.607 107.152 173.75L107.152 170.322L109.768 170.322L109.768 173.75C109.768 174.512 109.858 175.274 110.039 175.94C110.219 176.607 110.49 177.178 110.851 177.654C111.211 178.13 111.662 178.511 112.204 178.797C112.745 179.083 113.376 179.178 114.098 179.178C114.82 179.178 115.451 178.987 115.992 178.702C116.534 178.416 116.985 178.035 117.255 177.464C117.616 176.893 117.797 176.321 117.977 175.655C118.157 174.988 118.248 174.131 118.248 173.369C118.248 172.798 118.248 172.227 118.157 171.751C118.067 171.275 117.977 170.799 117.887 170.322C117.797 169.846 117.616 169.466 117.526 168.989C117.345 168.609 117.165 168.132 116.985 167.752L119.059 166.514C119.33 166.895 119.601 167.371 119.781 167.942C119.962 168.513 120.142 169.085 120.322 169.751C120.503 170.418 120.593 171.084 120.683 171.751C120.773 172.417 120.773 173.084 120.773 173.75C120.773 175.083 120.593 176.321 120.322 177.464C119.962 178.607 119.511 179.464 118.969 180.321C118.428 181.082 117.706 181.654 116.804 182.13C115.992 182.511 115 182.701 114.008 182.701Z" fill="white"/>
<path d="M104.53 68.8189L108.139 57.8686L111.657 68.8189L104.53 68.8189Z" fill="white"/>
<path d="M104.53 164.037L108.139 153.087L111.657 164.037L104.53 164.037Z" fill="white"/>
</g>
<defs>
<clipPath id="clip0">
<rect width="152" height="144" fill="white" transform="translate(170 25) rotate(90)"/>
</clipPath>
</defs>
</svg>
