<svg width="171" height="175" viewBox="0 0 171 175" fill="none" xmlns="http://www.w3.org/2000/svg">
<rect width="170.27" height="175" fill="#6DCF40"/>
<g clip-path="url(#clip0)">
<g clip-path="url(#clip1)">
<path d="M166.484 170.918L230.386 170.921L230.38 312.463L191.945 312.462L191.945 313.845L231.988 313.846L231.994 169.538L166.511 169.535L166.511 170.226C166.497 170.457 166.497 170.688 166.484 170.918Z" fill="white"/>
<path d="M27.5948 312.456L27.6006 170.913L88.8234 170.916C88.8234 170.685 88.81 170.455 88.81 170.224L88.8101 169.533L26.0064 169.53L26.0005 313.839L66.0432 313.841L66.0433 312.457L27.5948 312.456Z" fill="white"/>
<path d="M127.647 171.747C128.357 171.747 128.987 171.413 129.322 170.906L125.972 170.906C126.307 171.413 126.937 171.747 127.647 171.747Z" fill="white"/>
<path d="M127.647 168.428C126.816 168.428 126.093 168.889 125.838 169.523L129.469 169.523C129.201 168.889 128.491 168.428 127.647 168.428Z" fill="white"/>
<path d="M127.646 203.514C138.001 203.514 147.727 200.057 155.069 193.764C162.21 187.643 166.242 179.552 166.484 170.907L164.876 170.907C164.367 188.185 147.834 202.131 127.646 202.13C107.457 202.13 90.9259 188.182 90.4175 170.904L88.8099 170.904C89.0507 179.549 93.0828 187.641 100.223 193.761C107.564 200.055 117.303 203.513 127.646 203.514Z" fill="white"/>
<path d="M129.321 170.917L164.876 170.919L166.484 170.919C166.484 170.688 166.497 170.458 166.497 170.227L166.497 169.536L129.455 169.534C129.522 169.707 129.576 169.891 129.576 170.099C129.576 170.387 129.482 170.675 129.321 170.917Z" fill="white"/>
<path d="M88.8233 170.916L90.4309 170.916L125.986 170.917C125.825 170.675 125.731 170.398 125.731 170.099C125.731 169.903 125.771 169.718 125.852 169.534L88.81 169.532L88.8099 170.224C88.8099 170.455 88.8099 170.685 88.8233 170.916Z" fill="white"/>
<path d="M125.986 170.917L129.335 170.917C129.496 170.675 129.59 170.399 129.59 170.099C129.59 169.903 129.549 169.719 129.469 169.534L125.839 169.534C125.772 169.707 125.718 169.891 125.718 170.099C125.718 170.387 125.812 170.675 125.986 170.917Z" fill="white"/>
<path d="M166.484 169.536L230.386 169.538L230.392 27.9956L191.957 27.994L191.957 26.6109L232 26.6125L231.994 170.921L166.511 170.919L166.511 170.227C166.497 169.997 166.497 169.766 166.484 169.536Z" fill="white"/>
<path d="M27.6064 27.9874L27.6006 169.53L88.8235 169.533C88.8235 169.763 88.81 169.994 88.81 170.224L88.81 170.916L26.0064 170.913L26.0123 26.6042L66.055 26.6058L66.0549 27.989L27.6064 27.9874Z" fill="white"/>
<path d="M158.437 73.1757C158.517 73.0835 158.597 72.9913 158.691 72.8991L159.656 71.7926L190.347 71.7938L190.349 27.994L191.957 27.9941L191.955 73.1771L158.437 73.1757Z" fill="white"/>
<path d="M95.6463 71.7899L96.6108 72.8965C96.6911 72.9887 96.7715 73.0809 96.8653 73.1731L66.0262 73.1719L66.028 27.9889L67.6356 27.989L67.6338 71.7888L95.6463 71.7899Z" fill="white"/>
<path d="M67.6357 27.989L66.0281 27.989L66.0282 26.6058L99.5199 26.6072L99.5198 27.9903L67.6357 27.989Z" fill="white"/>
<path d="M190.349 27.9941L158.465 27.9928L158.465 26.6096L191.957 26.611L191.957 27.9942L190.349 27.9941Z" fill="white"/>
<path d="M156.857 43.6684L156.858 27.9927L158.465 27.9928L158.464 45.0517L99.519 45.0492L99.5197 27.9904L101.127 27.9904L101.127 43.6662L156.857 43.6684Z" fill="white"/>
<path d="M156.858 27.9927L147.212 27.9923L147.212 26.6091L158.465 26.6096L158.465 27.9927L156.858 27.9927Z" fill="white"/>
<path d="M101.127 27.9904L99.5196 27.9903L99.5197 26.6072L110.773 26.6076L110.773 27.9908L101.127 27.9904Z" fill="white"/>
<path d="M147.211 16.0048L147.211 26.609L145.603 26.6089L145.604 17.3879L112.38 17.3865L112.38 26.6076L110.772 26.6075L110.772 16.0033L147.211 16.0048Z" fill="white"/>
<path d="M112.381 26.6077L145.605 26.6091L147.212 26.6091L147.212 27.9923L110.773 27.9908L110.773 26.6076L112.381 26.6077Z" fill="white"/>
<path d="M127.65 84.8275C138.89 84.828 149.273 80.5983 156.387 73.1756L158.436 73.1757C154.926 77.0945 150.371 80.3447 145.267 82.5922C139.774 85.0009 133.853 86.2225 127.65 86.2222C121.448 86.222 115.526 84.9999 110.034 82.5907C104.916 80.3544 100.375 77.0923 96.8651 73.1732L98.9148 73.1733C106.028 80.5965 116.41 84.8271 127.65 84.8275Z" fill="white"/>
<path d="M158.436 73.1757L156.387 73.1756L98.915 73.1733L96.8653 73.1732C96.7849 73.081 96.7046 72.9888 96.6108 72.8966L95.6463 71.79L159.656 71.7926L158.678 72.8991C158.611 72.9913 158.53 73.0835 158.436 73.1757Z" fill="white"/>
<path d="M130.92 56.7035C130.92 57.6256 130.063 58.3632 128.991 58.3632C127.919 58.3632 127.062 57.6254 127.062 56.7033C127.062 55.7812 127.919 55.0436 128.991 55.0436C130.063 55.0437 130.92 55.7929 130.92 56.7035Z" fill="white"/>
<path d="M127.647 168.693C128.357 168.693 128.987 169.027 129.322 169.534L125.972 169.534C126.307 169.027 126.937 168.693 127.647 168.693Z" fill="white"/>
<path d="M127.647 172.012C126.816 172.012 126.093 171.551 125.838 170.917L129.469 170.917C129.201 171.551 128.491 172.012 127.647 172.012Z" fill="white"/>
<path d="M127.648 136.926C138.004 136.927 147.73 140.385 155.071 146.679C162.211 152.799 166.243 160.891 166.484 169.536L164.876 169.536C164.368 152.258 147.837 138.31 127.648 138.309C107.459 138.309 90.9273 152.255 90.4175 169.533L88.8099 169.533C89.0514 160.888 93.0842 152.797 100.225 146.676C107.567 140.395 117.306 136.926 127.648 136.926Z" fill="white"/>
<path d="M129.321 169.534L164.876 169.536L166.484 169.536C166.484 169.766 166.497 169.997 166.497 170.227L166.497 170.919L129.455 170.917C129.522 170.744 129.576 170.56 129.576 170.353C129.576 170.053 129.482 169.776 129.321 169.534Z" fill="white"/>
<path d="M88.8234 169.533L90.431 169.533L125.986 169.534C125.825 169.776 125.731 170.053 125.731 170.352C125.731 170.548 125.771 170.733 125.852 170.917L88.8099 170.916L88.8099 170.224C88.8099 169.994 88.8099 169.763 88.8234 169.533Z" fill="white"/>
<path d="M125.986 169.534L129.335 169.534C129.496 169.776 129.59 170.053 129.59 170.353C129.59 170.549 129.549 170.733 129.469 170.917L125.839 170.917C125.772 170.744 125.718 170.56 125.718 170.352C125.718 170.053 125.812 169.776 125.986 169.534Z" fill="white"/>
</g>
</g>
<defs>
<clipPath id="clip0">
<rect width="161" height="158" fill="white" transform="translate(9 16)"/>
</clipPath>
<clipPath id="clip1">
<rect width="308.443" height="205.987" fill="white" transform="translate(232 16.0084) rotate(90.0023)"/>
</clipPath>
</defs>
</svg>
